<?xml version="1.0" encoding="UTF-8"?>
<!DOCTYPE svg PUBLIC "-//W3C//DTD SVG 1.1//EN" "http://www.w3.org/Graphics/SVG/1.1/DTD/svg11.dtd">
<!-- Creator: CorelDRAW -->
<svg xmlns="http://www.w3.org/2000/svg" xml:space="preserve" width="8.944mm" height="7.9712mm" style="shape-rendering:geometricPrecision; text-rendering:geometricPrecision; image-rendering:optimizeQuality; fill-rule:evenodd; clip-rule:evenodd"
viewBox="0 0 3.32579 2.96405"
 xmlns:xlink="http://www.w3.org/1999/xlink">
 <defs>
  <style type="text/css">
   <![CDATA[
    .fil0 {fill:#0092DD}
    .fil1 {fill:white;fill-rule:nonzero}
   ]]>
  </style>
 </defs>
 <g id="okviri">
  <metadata id="CorelCorpID_0Corel-Layer"/>
  <path class="fil0" d="M0.691261 0l1.94326 0c0.380175,0 0.691261,0.311049 0.691261,0.691224l0 1.58164c0,0.380138 -0.311086,0.691186 -0.691261,0.691186l-1.94326 0c-0.380249,0 -0.691261,-0.311049 -0.691261,-0.691186l0 -1.58164c0,-0.380175 0.311012,-0.691224 0.691261,-0.691224z"/>
 </g>
 <g id="piktogrami">
  <metadata id="CorelCorpID_1Corel-Layer"/>
  <path class="fil1" d="M1.12115 1.79598c-0.100547,0 -0.181907,0.0809508 -0.181907,0.181944 0,0.100361 0.0813598,0.181795 0.181907,0.181795 0.10025,0 0.181795,-0.0814342 0.181795,-0.181795 0,-0.100993 -0.0815457,-0.181944 -0.181795,-0.181944zm0 0.272674c-0.0503851,0 -0.0911765,-0.0406427 -0.0911765,-0.090879 0,-0.0501248 0.0407915,-0.091065 0.0911765,-0.091065 0.049976,0 0.0909162,0.0409402 0.0909162,0.091065 0,0.0502363 -0.0409402,0.090879 -0.0909162,0.090879zm1.09062 -0.272488c-0.100547,0 -0.181907,0.0809508 -0.181907,0.181944 0,0.100361 0.0813598,0.181795 0.181907,0.181795 0.10025,0 0.181795,-0.0814342 0.181795,-0.181795 0,-0.100993 -0.0815457,-0.181944 -0.181795,-0.181944zm0 0.272674c-0.0503851,0 -0.0911765,-0.0406427 -0.0911765,-0.090879 0,-0.0501248 0.0407915,-0.091065 0.0911765,-0.091065 0.049976,0 0.0909162,0.0409402 0.0909162,0.091065 0,0.0502363 -0.0409402,0.090879 -0.0909162,0.090879zm0.233891 -0.477078c-0.0236122,0 -0.0783107,0 -0.153089,0 -0.333806,0 -0.715803,0 -1.04422,-0.00152457l-0.000483399 -0.552897 0.964642 -0.0014502 0.0021567 -0.231734 0.201206 0 0.00583797 0.231771c0.00449933,0 0.00561487,0 0.00844089,0m-1.36757 -0.0852642l-0.284722 0 0 0.267729 0.284722 0 0 -0.267729zm0.0892057 0.641099l-0.513705 -0.000371846 0 -0.654262 -0.0968658 -0.000223107c0.0031235,-0.11557 -0.0393041,-0.0870862 0.252148,-0.0920689 0.117057,0 0.241328,0 0.358422,0 0,0.0845205 0,0.62154 0,0.746926zm1.36374 -0.555686l0 0zm0.0792403 0.0843346l0 0.386831c0,0.0400478 -0.0282231,0.0738113 -0.0657051,0.082401 -0.00606108,0.00137583 -0.0123453,0.00211952 -0.0188154,0.00211952l-0.217678 0c-0.333806,0 -0.715803,0 -1.04422,-0.00152457l-0.000483399 -0.552897 0.972116 -0.00141301 0 -0.231771 0.201392 0.000632137 0 0.231139 0.0839255 0.000148738 0.00494555 -0.000148738 0.00539176 0.000148738c0.0440265,0.00282603 0.0791287,0.0396387 0.0791287,0.0843346zm-0.189083 0.93363l0 -0.0507569c0.00163612,-0.0102258 0.00252855,-0.0206002 0.00252855,-0.0312722 0,-0.0555537 -0.0224223,-0.105716 -0.05864,-0.141971 -0.0364037,-0.0364037 -0.0866772,-0.058826 -0.142008,-0.058826 -0.055405,0 -0.105678,0.0223851 -0.142008,0.0587516l-3.71846e-005 -3.71846e-005c-0.0335033,0.0335033 -0.0552562,0.0788312 -0.0583426,0.129477l-0.138215 -0.000223107c-0.0031235,-0.0504223 -0.0246905,-0.0956758 -0.0581195,-0.129142 -0.0363665,-0.0364037 -0.08664,-0.058826 -0.142008,-0.058826 -0.055405,0 -0.105678,0.0223851 -0.142045,0.0587516l-3.71846e-005 -3.71846e-005c-0.0332802,0.0333174 -0.054996,0.0783107 -0.0582682,0.128584l-0.145652 -0.000260292c-0.00338379,-0.0500876 -0.0249136,-0.0949693 -0.0581195,-0.128175 -0.0363665,-0.0364409 -0.08664,-0.0588631 -0.141971,-0.0588631 -0.0554793,0 -0.105753,0.0223851 -0.142082,0.0587144l0 7.43691e-005c-0.0330571,0.0330943 -0.0545497,0.0777157 -0.0580451,0.12758l-0.284834 -0.000483399 0.000334661 -0.284425 1.92408 -0.00174767 0.00219389 0.104712 0.184064 -3.71846e-005 -0.000111554 0.278438 -0.342656 0zm-0.738336 -0.257875c-0.100547,0 -0.181907,0.0809508 -0.181907,0.181944 0,0.100361 0.0813598,0.181795 0.181907,0.181795 0.10025,0 0.181795,-0.0814342 0.181795,-0.181795 0,-0.100993 -0.0815457,-0.181944 -0.181795,-0.181944zm0 0.272674c-0.0503851,0 -0.0911765,-0.0406427 -0.0911765,-0.090879 0,-0.0501248 0.0407915,-0.091065 0.0911765,-0.091065 0.049976,0 0.0909162,0.0409402 0.0909162,0.091065 0,0.0502363 -0.0409402,0.090879 -0.0909162,0.090879z"/>
 </g>
</svg>
