<?xml version="1.0" encoding="UTF-8"?>
<!DOCTYPE svg PUBLIC "-//W3C//DTD SVG 1.1//EN" "http://www.w3.org/Graphics/SVG/1.1/DTD/svg11.dtd">
<!-- Creator: CorelDRAW -->
<svg xmlns="http://www.w3.org/2000/svg" xml:space="preserve" width="8.944mm" height="7.9713mm" style="shape-rendering:geometricPrecision; text-rendering:geometricPrecision; image-rendering:optimizeQuality; fill-rule:evenodd; clip-rule:evenodd"
viewBox="0 0 0.495323 0.441454"
 xmlns:xlink="http://www.w3.org/1999/xlink">
 <defs>
  <style type="text/css">
   <![CDATA[
    .str0 {stroke:white;stroke-width:0.00421999}
    .fil1 {fill:white}
    .fil0 {fill:#0092DD}
   ]]>
  </style>
 </defs>
 <g id="okviri">
  <metadata id="CorelCorpID_0Corel-Layer"/>
  <path class="fil0" d="M0.102952 0l0.289424 0c0.056621,0 0.102947,0.0463258 0.102947,0.102947l0 0.235561c0,0.0566154 -0.0463258,0.102947 -0.102947,0.102947l-0.289424 0c-0.0566265,0 -0.102952,-0.0463313 -0.102952,-0.102947l0 -0.235561c0,-0.056621 0.0463258,-0.102947 0.102952,-0.102947z"/>
 </g>
 <g id="piktogrami">
  <metadata id="CorelCorpID_1Corel-Layer"/>
  <path class="fil1 str0" d="M0.253615 0.200466l0.0452237 0 0 0.0372932 -0.0452237 0.00476272 0 -0.0420559zm0.0610902 0.0349174l-0.00475164 0.000886087 -5.53805e-006 -0.0358035 0.0428423 0 -0.000797479 0.0023869c0,0.00309023 -0.00542729,0.0280004 -0.006186,0.0287203 -0.00068118,0.000647951 -0.0277622,0.00381018 -0.0311017,0.00381018zm-0.120862 -0.0348177l0.0478653 -9.96848e-005 3.87663e-005 0.0439222 -0.0302045 0.00369941 -0.0176996 -0.047522zm0.0597721 -0.0453234l0.0452237 0 0 0.0341144 -0.0452237 0 0 -0.0341144zm0.056333 0l0.0531542 0c-0.000415353,0.00500086 -0.00297947,0.0123831 -0.004148,0.0180706 -0.000636875,0.00311792 -0.00155619,0.0160437 -0.00536637,0.0160437l-0.0436398 0 0 -0.0341144zm-0.0682398 0.0341144l-0.0520355 -0.000116299 -0.0125437 -0.0338873 0.0645792 -0.000110761 0 0.0341144zm0.0311127 0.0739606c0.0236253,-0.00353881 0.0469405,-0.00460212 0.0702612,-0.00829046 0.0147755,-0.00233152 0.0213492,0.000603647 0.0244616,-0.015213 0.00211553,-0.0108103 0.00580387,-0.0223737 0.00728807,-0.032381 0.00161711,-0.0109653 0.00433629,-0.0218864 0.00682841,-0.0328462 0.00222076,-0.00978573 0.00683395,-0.0210944 0.00683395,-0.0320431 0,-0.00562112 -0.00572634,-0.0103118 -0.0119013,-0.0103118l-0.207876 0c-0.00139559,-0.0052113 -0.00605308,-0.0167138 -0.00840675,-0.0225454 -0.00370495,-0.00922085 -0.00421999,-0.0139559 -0.0169852,-0.0139559l-0.0246 0c-0.00706101,0 -0.0118957,0.00483471 -0.0118957,0.0119013 0,0.0059534 0.0053996,0.0111093 0.0111093,0.0111093l0.0214212 0c0.0027801,0.0104281 0.0103783,0.0284268 0.0146758,0.0392758 0.0046575,0.0117573 0.0112367,0.0282717 0.0145152,0.0394475 0.0038434,0.0131196 0.0102675,0.0262503 0.0146204,0.0393312 0.00264719,0.00795817 0.00973035,0.0350891 0.0188681,0.0350891 0.0100903,0 0.0252701,-0.00281887 0.0356318,-0.00404277 0.0114361,-0.00135128 0.0242511,-0.00289086 0.03515,-0.00452458zm-0.0731687 0.0823563c0.0116797,0 0.0238081,-0.014194 0.0238081,-0.0277733 0,-0.0140223 -0.0124495,-0.0277733 -0.0253919,-0.0277733l-0.00475718 0c-0.0104281,0 -0.0245945,0.0130089 -0.0245945,0.0238081l0 0.00555466c0,0.0169021 0.0136236,0.0261839 0.0309355,0.0261839zm0.115053 -0.0253919c0,0.0135904 0.0134796,0.0249157 0.0277955,0.0254252 0.0144266,0.000520576 0.0269537,-0.0120674 0.0269537,-0.0262171l0 -0.00475718c0,-0.0116188 -0.0122612,-0.0238081 -0.0246,-0.0238081l-0.00555466 0c-0.0143989,0 -0.0245945,0.0141996 -0.0245945,0.0293572z"/>
 </g>
</svg>
