<?xml version="1.0" encoding="UTF-8"?>
<!DOCTYPE svg PUBLIC "-//W3C//DTD SVG 1.1//EN" "http://www.w3.org/Graphics/SVG/1.1/DTD/svg11.dtd">
<!-- Creator: CorelDRAW -->
<svg xmlns="http://www.w3.org/2000/svg" xml:space="preserve" width="8.944mm" height="7.9712mm" style="shape-rendering:geometricPrecision; text-rendering:geometricPrecision; image-rendering:optimizeQuality; fill-rule:evenodd; clip-rule:evenodd"
viewBox="0 0 0.495323 0.441449"
 xmlns:xlink="http://www.w3.org/1999/xlink">
 <defs>
  <style type="text/css">
   <![CDATA[
    .fil0 {fill:#0092DD}
    .fil1 {fill:white;fill-rule:nonzero}
   ]]>
  </style>
 </defs>
 <g id="okviri">
  <metadata id="CorelCorpID_0Corel-Layer"/>
  <path class="fil0" d="M0.102952 0l0.289418 0c0.056621,0 0.102952,0.0463258 0.102952,0.102947l0 0.235561c0,0.0566154 -0.0463313,0.102941 -0.102952,0.102941l-0.289418 0c-0.0566321,0 -0.102952,-0.0463258 -0.102952,-0.102941l0 -0.235561c0,-0.056621 0.0463202,-0.102947 0.102952,-0.102947z"/>
 </g>
 <g id="piktogrami">
  <metadata id="CorelCorpID_1Corel-Layer"/>
  <path class="fil1" d="M0.147506 0.291445c-0.0169963,0 -0.0305479,0.0135848 -0.0305479,0.0305257 0,0.0168412 0.0135516,0.0304925 0.0305479,0.0304925 0.0167914,0 0.0304039,-0.0136513 0.0304039,-0.0304925 0,-0.0169409 -0.0136125,-0.0305257 -0.0304039,-0.0305257zm-7.19946e-005 0.0457498c-0.0083846,0 -0.0152795,-0.00681733 -0.0152795,-0.0152573 0,-0.00839568 0.00689487,-0.0152684 0.0152795,-0.0152684 0.00845106,0 0.0152462,0.00687272 0.0152462,0.0152684 0,0.00843998 -0.00679518,0.0152573 -0.0152462,0.0152573z"/>
  <path class="fil1" d="M0.342766 0.291445c-0.0168689,0 -0.0305146,0.0135848 -0.0305146,0.0305257 0,0.0168412 0.0136457,0.0304925 0.0305146,0.0304925 0.016819,0 0.030498,-0.0136513 0.030498,-0.0304925 0,-0.0169409 -0.013679,-0.0305257 -0.030498,-0.0305257zm0 0.0457498c-0.0084566,0 -0.0152961,-0.00681733 -0.0152961,-0.0152573 0,-0.00839568 0.00683949,-0.0152684 0.0152961,-0.0152684 0.00839014,0 0.0152518,0.00687272 0.0152518,0.0152684 0,0.00843998 -0.00686164,0.0152573 -0.0152518,0.0152573z"/>
  <path class="fil1" d="M0.384889 0.240002l-0.0273192 -0.0542784c-0.00480149,-0.00955867 -0.017539,-0.0323643 -0.0282883,-0.0323643l-0.24852 0c-0.0104946,0.00615831 -0.0129812,0.0171347 -0.0122945,0.0346792l0 0.14343 0.0424879 0c-0.00076425,-0.003057 -0.00136236,-0.00621923 -0.00136236,-0.00949775 0,-0.0209006 0.0169907,-0.0378858 0.0379135,-0.0378858 0.0207954,0 0.0377639,0.0169852 0.0377639,0.0378858 0,0.00327852 -0.000570419,0.00644075 -0.00134575,0.00949775l0.122369 0c-0.000819631,-0.003057 -0.0013679,-0.00621923 -0.0013679,-0.00949775 0,-0.0209006 0.0169187,-0.0378858 0.0378415,-0.0378858 0.0208452,0 0.0378415,0.0169852 0.0378415,0.0378858 0,0.00327852 -0.000570419,0.00644075 -0.0013679,0.00949775l0.0524342 0 0 -0.0422885c0,-0.0107438 -0.016088,-0.0455449 -0.0467854,-0.0491779z"/>
  <path class="fil0" d="M0.209792 0.186931c0.00247551,-0.0028964 0.015944,-0.0160493 0.0189733,-0.0192115l0 0.067243 0.0124329 0 0.0113918 0 0 -0.0675365c0.00302931,0.00316222 0.0167969,0.0166086 0.0192669,0.019505l0 0.0480315 0.00315115 0 0.00073656 0 0.00068118 0 3.87663e-005 0 0.000581495 0 0.000343359 0 0.000232598 0 0.0005095 0 0.000132913 0 0.000260288 0 2.21522e-005 0 5.53805e-006 0 3.87663e-005 0 5.53805e-006 0 1.66141e-005 0 4.43044e-005 0 3.87663e-005 0 3.32283e-005 0 8.86087e-005 0 2.21522e-005 0 0.000105223 0 3.32283e-005 0 3.32283e-005 0 5.53805e-005 0 5.53805e-006 0 9.96848e-005 0 3.32283e-005 0 0.000143989 0 3.32283e-005 0 1.66141e-005 0 9.41468e-005 0 0.000143989 0 3.32283e-005 0 1.66141e-005 0 8.86087e-005 0 5.53805e-005 0 0.000105223 0 3.87663e-005 0 1.10761e-005 0 8.86087e-005 0 0.000127375 0 1.10761e-005 0 0.000132913 0 5.53805e-006 0 6.09185e-005 0 6.09185e-005 0 4.98424e-005 0 3.87663e-005 0 1.10761e-005 0 0.000105223 0 1.10761e-005 0 6.09185e-005 0 2.76902e-005 0 3.87663e-005 0 3.32283e-005 0 5.53805e-006 0 1.66141e-005 0 5.53805e-006 0 0.000287978 0 4.98424e-005 0 0.0005095 0 2.76902e-005 0 0.00053719 0 5.53805e-006 0 0.00048181 0 0.000121837 0 0.000321207 0 0.000359973 0 2.76902e-005 0 0.000354435 0 0.000299054 0 4.98424e-005 0 -3.32283e-005 0 -0.000105223 0 -8.86087e-005 0 -6.64566e-005 0 -7.75326e-005 0 -4.98424e-005 0 -3.87663e-005 0 -1.10761e-005 0 2.76902e-005 0 4.98424e-005 0 8.86087e-005 0 9.41468e-005 0 0.000132913 0 7.75326e-005 0 0.000232598 0 0.00022706 0 0.000210446 0 0.000138451 0 -6.09185e-005 0 -0.000110761 0 -9.96848e-005 0 -0.000121837 0 -0.000116299 0 -0.000116299 0 -0.000105223 0 -7.75326e-005 0 8.30707e-005 0 0.000210446 0 0.000232598 0 0.00028244 0 1.66141e-005 0 0.000127375 0 9.96848e-005 0 7.75326e-005 0 0.000359973 0 0.000177217 0 0.000221522 0 0.000448582 0 0.000271364 0 0.000215984 0 0.000559343 0 0.000215984 0 0.000371049 0 0.000659027 0 4.98424e-005 0 0.000653489 0 0.000775326 0 0.00186632 0 0 -0.0264663 0.0248492 0.0264663c-0.00621369,0.00656258 -0.0644573,0.0661852 -0.0766853,0.0787233 -0.0122335,-0.0125381 -0.069724,-0.0721607 -0.0759377,-0.0787233l0.0248492 -0.0264663 0 0.0264663 0.00329514 0c0.0235921,0 -0.00255858,0 0.0139836,0l0.00315115 0 0 -0.0480315zm0.0756497 0.0480315l4.43044e-005 0 2.76902e-005 0 -1.10761e-005 0 -4.98424e-005 0 -5.53805e-005 0 -6.64566e-005 0 -7.75326e-005 0 -9.96848e-005 0 -3.32283e-005 0 0.000321207 0z"/>
 </g>
</svg>
