<?xml version="1.0" encoding="UTF-8"?>
<!DOCTYPE svg PUBLIC "-//W3C//DTD SVG 1.1//EN" "http://www.w3.org/Graphics/SVG/1.1/DTD/svg11.dtd">
<!-- Creator: CorelDRAW -->
<svg xmlns="http://www.w3.org/2000/svg" xml:space="preserve" width="8.944mm" height="7.9713mm" style="shape-rendering:geometricPrecision; text-rendering:geometricPrecision; image-rendering:optimizeQuality; fill-rule:evenodd; clip-rule:evenodd"
viewBox="0 0 0.495323 0.441454"
 xmlns:xlink="http://www.w3.org/1999/xlink">
 <defs>
  <style type="text/css">
   <![CDATA[
    .str0 {stroke:#0093DD;stroke-width:0.0193832}
    .fil1 {fill:none}
    .fil2 {fill:white}
    .fil0 {fill:#0092DD}
   ]]>
  </style>
 </defs>
 <g id="okviri">
  <metadata id="CorelCorpID_0Corel-Layer"/>
  <path class="fil0" d="M0.102952 0l0.289418 0c0.056621,0 0.102952,0.0463258 0.102952,0.102952l0 0.235555c0,0.0566154 -0.0463313,0.102947 -0.102952,0.102947l-0.289418 0c-0.0566321,0 -0.102952,-0.0463313 -0.102952,-0.102947l0 -0.235555c0,-0.0566265 0.0463202,-0.102952 0.102952,-0.102952z"/>
 </g>
 <g id="piktogrami">
  <metadata id="CorelCorpID_1Corel-Layer"/>
  <polyline class="fil1 str0" points="0.0903366,0.222137 0.177123,0.313232 0.264757,0.222137 "/>
  <path class="fil2" d="M0.272826 0.0801411c-0.0205572,0.0101457 -0.0903809,0.035305 -0.118885,-0.0324751l0.0197044 0c0.0179045,0.042582 0.0607856,0.030858 0.0926183,0.0146814l0.00656258 0.0177937z"/>
  <path class="fil2" d="M0.411959 0.098184l-0.0191007 0.000204908c-0.0126987,-0.0447474 -0.0571139,-0.038063 -0.0907077,-0.0258405l-0.00656258 -0.0176774c-0.00175556,0.000659027 0.0945954,-0.0333778 0.116371,0.0433131z"/>
  <polygon class="fil2" points="0.067099,0.249655 0.172704,0.249655 0.278691,0.249655 0.386628,0.322331 0.392736,0.120153 0.392736,0.120153 0.412485,0.120153 0.412485,0.120153 0.420919,0.399387 0.420919,0.399387 0.384296,0.399387 0.384296,0.399387 0.384296,0.399349 0.067099,0.399349 0.067099,0.249655 "/>
  <polyline class="fil1 str0" points="0.0869916,0.220348 0.174653,0.312362 0.263179,0.220348 "/>
  <path class="fil2" d="M0.137006 0.156394c0.00299608,-0.00351112 0.0193444,-0.0194662 0.0230161,-0.0233041l0 0.081581 0.0150912 0 0.013823 0 0 -0.0819354c0.00367172,0.00383787 0.0203745,0.0201474 0.0233761,0.0236585l0 0.0582769 0.00382125 0 0.000897163 0 0.000825169 0 4.43044e-005 0 0.00070887 0 0.000415353 0 0.000276902 0 0.000620261 0 0.000166141 0 0.000315669 0 2.76902e-005 0 5.53805e-006 0 4.43044e-005 0 5.53805e-006 0 2.21522e-005 0 4.98424e-005 0 4.98424e-005 0 4.43044e-005 0 0.000105223 0 2.21522e-005 0 0.000132913 0 3.87663e-005 0 3.87663e-005 0 7.19946e-005 0 5.53805e-006 0 0.000121837 0 3.87663e-005 0 0.000177217 0 3.32283e-005 0 2.21522e-005 0 0.000116299 0 0.000171679 0 4.43044e-005 0 2.21522e-005 0 0.000105223 0 6.64566e-005 0 0.000127375 0 4.43044e-005 0 1.66141e-005 0 0.000105223 0 0.000155065 0 1.66141e-005 0 0.000160603 0 5.53805e-006 0 7.19946e-005 0 7.75326e-005 0 5.53805e-005 0 4.98424e-005 0 1.66141e-005 0 0.000121837 0 1.66141e-005 0 7.75326e-005 0 2.76902e-005 0 4.98424e-005 0 3.87663e-005 0 5.53805e-006 0 2.21522e-005 0 5.53805e-006 0 0.000354435 0 5.53805e-005 0 0.000614723 0 3.87663e-005 0 0.000653489 0 5.53805e-006 0 0.000581495 0 0.000149527 0 0.000387663 0 0.000437506 0 3.87663e-005 0 0.00042643 0 0.000365511 0 6.09185e-005 0 -4.43044e-005 0 -0.000121837 0 -0.000110761 0 -8.30707e-005 0 -9.41468e-005 0 -5.53805e-005 0 -4.98424e-005 0 -1.66141e-005 0 3.32283e-005 0 6.09185e-005 0 0.000105223 0 0.000116299 0 0.000166141 0 9.41468e-005 0 0.000276902 0 0.00028244 0 0.000249212 0 0.000171679 0 -7.75326e-005 0 -0.000127375 0 -0.000127375 0 -0.000149527 0 -0.000132913 0 -0.000143989 0 -0.000132913 0 -8.86087e-005 0 9.96848e-005 0 0.00025475 0 0.00028244 0 0.000343359 0 2.21522e-005 0 0.000149527 0 0.000121837 0 9.41468e-005 0 0.000437506 0 0.000215984 0 0.000265826 0 0.000542729 0 0.000332283 0 0.000265826 0 0.000670104 0 0.000265826 0 0.00045412 0 0.000797479 0 6.09185e-005 0 0.000791941 0 0.000941468 0 0.00226506 0 0 -0.0321151 0.0301547 0.0321151c-0.00753728,0.00796371 -0.0782138,0.0802906 -0.0930558,0.0955036 -0.0148364,-0.015213 -0.0845992,-0.0875399 -0.092142,-0.0955036l0.0301547 -0.0321151 0 0.0321151 0.00399847 0c0.0286262,0 -0.00310684,0 0.0169686,0l0.00382679 0 0 -0.0582769zm0.0917876 0.0582769l5.53805e-005 0 3.32283e-005 0 -1.66141e-005 0 -5.53805e-005 0 -6.64566e-005 0 -8.86087e-005 0 -8.86087e-005 0 -0.000121837 0 -3.87663e-005 0 0.000387663 0z"/>
 </g>
</svg>
