<?xml version="1.0" encoding="UTF-8"?>
<!DOCTYPE svg PUBLIC "-//W3C//DTD SVG 1.1//EN" "http://www.w3.org/Graphics/SVG/1.1/DTD/svg11.dtd">
<!-- Creator: CorelDRAW -->
<svg xmlns="http://www.w3.org/2000/svg" xml:space="preserve" width="8.944mm" height="7.9712mm" style="shape-rendering:geometricPrecision; text-rendering:geometricPrecision; image-rendering:optimizeQuality; fill-rule:evenodd; clip-rule:evenodd"
viewBox="0 0 3.32576 2.96403"
 xmlns:xlink="http://www.w3.org/1999/xlink">
 <defs>
  <style type="text/css">
   <![CDATA[
    .fil0 {fill:#0092DD}
    .fil1 {fill:white;fill-rule:nonzero}
   ]]>
  </style>
 </defs>
 <g id="okviri">
  <metadata id="CorelCorpID_0Corel-Layer"/>
  <path class="fil0" d="M0.691255 0l1.94325 0c0.380172,0 0.691255,0.311046 0.691255,0.691218l0 1.58163c0,0.380135 -0.311083,0.691181 -0.691255,0.691181l-1.94325 0c-0.380246,0 -0.691255,-0.311046 -0.691255,-0.691181l0 -1.58163c0,-0.380172 0.311009,-0.691218 0.691255,-0.691218z"/>
 </g>
 <g id="piktogrami">
  <metadata id="CorelCorpID_1Corel-Layer"/>
  <path class="fil1" d="M1.73063 0.786707l-0.135537 0 0 -0.275201 0.135537 0 0 0.275201zm0 0.550364l-0.135537 0 0 -0.275201 0.135537 0 0 0.275201zm0 0.55055l-0.135537 0 0 -0.275201 0.135537 0 0 0.275201zm0 0.550513l-0.135537 0 0 -0.275349 0.135537 0 0 0.275349zm0.406572 -1.98757l-0.948644 0 -0.542072 2.06294 2.03279 0 -0.542072 -2.06294z"/>
 </g>
</svg>
