<?xml version="1.0" encoding="UTF-8"?>
<!DOCTYPE svg PUBLIC "-//W3C//DTD SVG 1.1//EN" "http://www.w3.org/Graphics/SVG/1.1/DTD/svg11.dtd">
<!-- Creator: CorelDRAW -->
<svg xmlns="http://www.w3.org/2000/svg" xml:space="preserve" width="8.944mm" height="7.9713mm" style="shape-rendering:geometricPrecision; text-rendering:geometricPrecision; image-rendering:optimizeQuality; fill-rule:evenodd; clip-rule:evenodd"
viewBox="0 0 3.3225 2.96116"
 xmlns:xlink="http://www.w3.org/1999/xlink">
 <defs>
  <style type="text/css">
   <![CDATA[
    .fil4 {fill:white}
    .fil0 {fill:#0092DD}
    .fil1 {fill:#00ACD6;fill-rule:nonzero}
    .fil2 {fill:white;fill-rule:nonzero}
    .fil3 {fill:#0093DD;fill-rule:nonzero}
   ]]>
  </style>
 </defs>
 <g id="okviri">
  <metadata id="CorelCorpID_0Corel-Layer"/>
  <path class="fil0" d="M0.690577 0l1.94134 0c0.379836,0 0.690577,0.310741 0.690577,0.690577l0 1.58004c0,0.379762 -0.310741,0.69054 -0.690577,0.69054l-1.94134 0c-0.379873,0 -0.690577,-0.310778 -0.690577,-0.69054l0 -1.58004c0,-0.379836 0.310704,-0.690577 0.690577,-0.690577z"/>
 </g>
 <g id="piktogrami">
  <metadata id="CorelCorpID_1Corel-Layer"/>
  <path class="fil1" d="M2.06207 0.953621c-0.0426457,-0.0452832 -0.189045,-0.217649 -0.252902,-0.217055l-0.403536 0c-0.069875,-0.00917551 -0.199335,0.153718 -0.228719,0.190048 -0.0137075,0.00988131 -0.0112186,0.0139304 -0.0123702,0.0270064l0.897528 0z"/>
  <path class="fil2" d="M2.18808 1.47926c-0.0859971,0 -0.156058,-0.0700607 -0.156058,-0.155872 0,-0.08622 0.0700607,-0.156392 0.156058,-0.156392 0.0861086,0 0.156058,0.0701722 0.156058,0.156392 0,0.0858114 -0.0699493,0.155872 -0.156058,0.155872z"/>
  <path class="fil2" d="M1.13706 1.47926c-0.08596,0 -0.155872,-0.0700607 -0.155872,-0.155872 0,-0.08622 0.0699121,-0.156392 0.155872,-0.156392 0.0862572,0 0.156429,0.0701722 0.156429,0.156392 0,0.0858114 -0.0701722,0.155872 -0.156429,0.155872z"/>
  <path class="fil2" d="M2.49113 1.19278c0,-0.169357 -0.094504,-0.189602 -0.094504,-0.189602 -0.0835082,-0.0234031 -0.228347,-0.0374078 -0.228347,-0.0374078 -0.042237,-0.041977 -0.246067,-0.287412 -0.332398,-0.286595l-0.518397 0c-0.0897862,-0.011813 -0.25606,0.197441 -0.293765,0.244135 -0.0907892,0.0650829 -0.182619,0.0869258 -0.230205,0.284329l0 0.0490722 0 0.0645629 0.151712 0.00211742c0,-0.118539 0.0861457,-0.21464 0.191831,-0.21464 0.106354,0 0.192203,0.0961013 0.192203,0.21464l0.666766 0c0,-0.118539 0.0857743,-0.21464 0.192054,-0.21464 0.106094,0 0.192091,0.0961013 0.192091,0.21464l0.141124 0 0 -0.130612 -0.030164 0z"/>
  <path class="fil3" d="M2.05435 0.968629c-0.0446888,-0.0474377 -0.197998,-0.227976 -0.264864,-0.227344l-0.422668 0c-0.0732183,-0.00962128 -0.208771,0.160999 -0.239566,0.199075 -0.014339,0.0103271 -0.0117759,0.0145619 -0.0129646,0.0282695l0.940062 0z"/>
  <path class="fil3" d="M2.18808 1.2391c-0.0463233,0 -0.0840283,0.0378907 -0.0840283,0.0842883 0,0.0461376 0.037705,0.083954 0.0840283,0.083954 0.0464719,0 0.0841769,-0.0378165 0.0841769,-0.083954 0,-0.0463976 -0.037705,-0.0842883 -0.0841769,-0.0842883z"/>
  <path class="fil3" d="M1.13706 1.2391c-0.0459518,0 -0.0837683,0.0378907 -0.0837683,0.0842883 0,0.0461376 0.0378165,0.083954 0.0837683,0.083954 0.0464719,0 0.084214,-0.0378165 0.084214,-0.083954 0,-0.0463976 -0.0377422,-0.0842883 -0.084214,-0.0842883z"/>
  <polygon class="fil4" points="0.331507,1.93845 0.572336,2.17798 0.833485,1.91653 2.48017,1.91653 2.73664,2.17798 2.9833,1.94001 2.62249,1.56738 0.69745,1.56738 "/>
 </g>
</svg>
