<?xml version="1.0" encoding="UTF-8"?>
<!DOCTYPE svg PUBLIC "-//W3C//DTD SVG 1.1//EN" "http://www.w3.org/Graphics/SVG/1.1/DTD/svg11.dtd">
<!-- Creator: CorelDRAW -->
<svg xmlns="http://www.w3.org/2000/svg" xml:space="preserve" width="8.944mm" height="7.9713mm" style="shape-rendering:geometricPrecision; text-rendering:geometricPrecision; image-rendering:optimizeQuality; fill-rule:evenodd; clip-rule:evenodd"
viewBox="0 0 0.495323 0.441454"
 xmlns:xlink="http://www.w3.org/1999/xlink">
 <defs>
  <style type="text/css">
   <![CDATA[
    .fil1 {fill:white}
    .fil0 {fill:#0092DD}
   ]]>
  </style>
 </defs>
 <g id="okviri">
  <metadata id="CorelCorpID_0Corel-Layer"/>
  <path class="fil0" d="M0.102952 0l0.289424 0c0.056621,0 0.102947,0.0463258 0.102947,0.102947l0 0.235561c0,0.0566154 -0.0463258,0.102947 -0.102947,0.102947l-0.289424 0c-0.0566265,0 -0.102952,-0.0463313 -0.102952,-0.102947l0 -0.235561c0,-0.056621 0.0463258,-0.102947 0.102952,-0.102947z"/>
 </g>
 <g id="piktogrami">
  <metadata id="CorelCorpID_1Corel-Layer"/>
  <path class="fil1" d="M0.277262 0.0814979c-0.019948,0.00984111 -0.0877116,0.0342639 -0.11538,-0.0315281l0.0191229 0c0.0173784,0.0413304 0.0589968,0.0299553 0.089888,0.0142549l0.00636875 0.0172732zm0.133389 0.0176553l-0.0185248 0.000204908c-0.0123332,-0.0434349 -0.0554414,-0.0369498 -0.0880383,-0.0250818l-0.00637429 -0.0171624c-0.00170018,0.000642413 0.0918042,-0.032392 0.112937,0.0420393zm-0.334681 0.147019l0.102482 0 0.102864 0 0.104758 0.070527 0.00592571 -0.196219 0 0 0.0191672 0 0 0 0.00818523 0.271004 0 0 -0.0355376 0 0 0 0 -3.87663e-005 -0.307843 0 0 -0.145274 0 0z"/>
 </g>
</svg>
