<?xml version="1.0" encoding="UTF-8"?>
<!DOCTYPE svg PUBLIC "-//W3C//DTD SVG 1.1//EN" "http://www.w3.org/Graphics/SVG/1.1/DTD/svg11.dtd">
<!-- Creator: CorelDRAW -->
<svg xmlns="http://www.w3.org/2000/svg" xml:space="preserve" width="8.944mm" height="7.9713mm" style="shape-rendering:geometricPrecision; text-rendering:geometricPrecision; image-rendering:optimizeQuality; fill-rule:evenodd; clip-rule:evenodd"
viewBox="0 0 0.928746 0.827741"
 xmlns:xlink="http://www.w3.org/1999/xlink">
 <defs>
  <style type="text/css">
   <![CDATA[
    .str1 {stroke:#0093DD;stroke-width:0.00791262}
    .str0 {stroke:#0093DD;stroke-width:0.020768}
    .fil0 {fill:#0092DD}
    .fil2 {fill:white;fill-rule:nonzero}
    .fil1 {fill:black;fill-rule:nonzero}
    .fil3 {fill:#0093DD;fill-rule:nonzero}
   ]]>
  </style>
 </defs>
 <g id="okviri">
  <metadata id="CorelCorpID_0Corel-Layer"/>
  <path class="fil0" d="M0.193039 0l0.542679 0c0.106166,0 0.193028,0.0868623 0.193028,0.193039l0 0.441674c0,0.106166 -0.0868623,0.193028 -0.193028,0.193028l-0.542679 0c-0.106177,0 -0.193039,-0.0868623 -0.193039,-0.193028l0 -0.441674c0,-0.106177 0.0868623,-0.193039 0.193039,-0.193039z"/>
 </g>
 <g id="piktogrami">
  <metadata id="CorelCorpID_1Corel-Layer"/>
  <path class="fil1" d="M0.537923 0.324459l-0.0757618 0 0 -0.113653 0.0757618 0 0 0.113653zm0 0.189425l-0.0757618 0 0 -0.113663 0.0757618 0 0 0.113663zm-0.113653 -0.189425l-0.0757721 0 0 -0.113653 0.0757721 0 0 0.113653zm0 0.189425l-0.0757721 0 0 -0.113663 0.0757721 0 0 0.113663zm-0.113643 -0.189425l-0.0757825 0 0 -0.113653 0.0757825 0 0 0.113653zm0 0.189425l-0.0757825 0 0 -0.113663 0.0757825 0 0 0.113663zm-0.113663 -0.35991l0 0.568276 0.151534 0 0 -0.113663 0.0757721 0 0 0.113663 0.151544 0 0 -0.568276 -0.37885 0z"/>
  <path class="fil2" d="M0.537923 0.324459l-0.0757618 0 0 -0.113653 0.0757618 0 0 0.113653zm0 0.189425l-0.0757618 0 0 -0.113663 0.0757618 0 0 0.113663zm-0.113653 -0.189425l-0.0757721 0 0 -0.113653 0.0757721 0 0 0.113653zm0 0.189425l-0.0757721 0 0 -0.113663 0.0757721 0 0 0.113663zm-0.113643 -0.189425l-0.0757825 0 0 -0.113653 0.0757825 0 0 0.113653zm0 0.189425l-0.0757825 0 0 -0.113663 0.0757825 0 0 0.113663zm-0.113663 -0.35991l0 0.568276 0.151534 0 0 -0.113663 0.0757721 0 0 0.113663 0.151544 0 0 -0.568276 -0.37885 0z"/>
  <path class="fil2 str0" d="M0.591453 0.105491c-0.0774959,0 -0.14033,0.0628129 -0.14033,0.140319 0,0.0774544 0.0628337,0.14033 0.14033,0.14033 0.0774959,0 0.140319,-0.0628752 0.140319,-0.14033 0,-0.0775063 -0.0628233,-0.140319 -0.140319,-0.140319z"/>
  <polygon class="fil3 str1" points="0.694286,0.195739 0.667889,0.169332 0.567767,0.269486 0.514995,0.216756 0.488599,0.243152 0.567767,0.322289 "/>
 </g>
</svg>
