<?xml version="1.0" encoding="UTF-8"?>
<!DOCTYPE svg PUBLIC "-//W3C//DTD SVG 1.1//EN" "http://www.w3.org/Graphics/SVG/1.1/DTD/svg11.dtd">
<!-- Creator: CorelDRAW -->
<svg xmlns="http://www.w3.org/2000/svg" xml:space="preserve" width="8.944mm" height="7.9713mm" style="shape-rendering:geometricPrecision; text-rendering:geometricPrecision; image-rendering:optimizeQuality; fill-rule:evenodd; clip-rule:evenodd"
viewBox="0 0 0.495323 0.441455"
 xmlns:xlink="http://www.w3.org/1999/xlink">
 <defs>
  <style type="text/css">
   <![CDATA[
    .fil1 {fill:white}
    .fil0 {fill:#0092DD}
   ]]>
  </style>
 </defs>
 <g id="okviri">
  <metadata id="CorelCorpID_0Corel-Layer"/>
  <path class="fil0" d="M0.102952 0l0.289424 0c0.0566211,0 0.102947,0.0463258 0.102947,0.102947l0 0.235561c0,0.0566155 -0.0463258,0.102947 -0.102947,0.102947l-0.289424 0c-0.0566266,0 -0.102952,-0.0463314 -0.102952,-0.102947l0 -0.235561c0,-0.0566211 0.0463258,-0.102947 0.102952,-0.102947z"/>
 </g>
 <g id="piktogrami">
  <metadata id="CorelCorpID_1Corel-Layer"/>
  <path class="fil1" d="M0.102382 0.0692423l0.145618 -1.10761e-005 -0.000343359 0.0973922 0.14528 0 0 0.205595 -0.14528 0 0 -0.0616828 -0.0622588 0 0 0.0616828 -0.0830154 0 0 -0.302976zm0.186782 0.159058l0.0207566 0 0 -0.0205628 0.0207511 0 0 0.0205628 0.0207566 0 0 0.0205573 -0.0207566 0 0 0.0205628 -0.0207511 0 0 -0.0205628 -0.0207566 0 0 -0.0205573zm0.0311349 -0.04112c0.0286483,0 0.0518805,0.0230217 0.0518805,0.0513987 0,0.0283825 -0.0232321,0.0513987 -0.0518805,0.0513987 -0.0286539,0 -0.051886,-0.0230161 -0.051886,-0.0513987 0,-0.028377 0.0232321,-0.0513987 0.051886,-0.0513987zm-0.134901 0.0616828l0.0415077 0 0 0.0411145 -0.0415077 0 0 -0.0411145zm-0.0622643 0.0411145l0.0415077 0 0 -0.0411145 -0.0415077 0 0 0.0411145zm0.0622643 -0.102797l0.0415077 0 0 0.0390599 -0.0415077 0 0 -0.0390599zm-0.0622643 0l0.0415077 0 0 0.0390599 -0.0415077 0 0 -0.0390599zm0.0622643 -0.0616773l0.0415077 0 0 0.04112 -0.0415077 0 0 -0.04112zm-0.0622643 0l0.0415077 0 0 0.04112 -0.0415077 0 0 -0.04112z"/>
 </g>
</svg>
