<?xml version="1.0" encoding="UTF-8"?>
<!DOCTYPE svg PUBLIC "-//W3C//DTD SVG 1.1//EN" "http://www.w3.org/Graphics/SVG/1.1/DTD/svg11.dtd">
<!-- Creator: CorelDRAW -->
<svg xmlns="http://www.w3.org/2000/svg" xml:space="preserve" width="8.944mm" height="7.9712mm" style="shape-rendering:geometricPrecision; text-rendering:geometricPrecision; image-rendering:optimizeQuality; fill-rule:evenodd; clip-rule:evenodd"
viewBox="0 0 3.32581 2.96408"
 xmlns:xlink="http://www.w3.org/1999/xlink">
 <defs>
  <style type="text/css">
   <![CDATA[
    .fil1 {fill:white}
    .fil0 {fill:#0092DD}
   ]]>
  </style>
 </defs>
 <g id="okviri">
  <metadata id="CorelCorpID_0Corel-Layer"/>
  <path class="fil0" d="M0.691267 0l1.94328 0c0.380215,0 0.691267,0.311051 0.691267,0.691229l0 1.58166c0,0.380141 -0.311051,0.691192 -0.691267,0.691192l-1.94328 0c-0.380252,0 -0.691267,-0.311051 -0.691267,-0.691192l0 -1.58166c0,-0.380178 0.311014,-0.691229 0.691267,-0.691229z"/>
 </g>
 <g id="piktogrami">
  <metadata id="CorelCorpID_1Corel-Layer"/>
  <path class="fil1" d="M2.05357 1.08729l0.160453 0.00267731c0.00673046,0.0426882 0.036813,0.260926 0.0579712,0.269181l0.574171 0.000185924c-0.0270334,0.112484 -0.0676021,0.221138 -0.110774,0.306403l-0.000743697 -0.00178487c-0.000409033,-0.00182206 -0.00115273,-0.00282605 -0.00156176,-0.00461092 -0.000483403,-0.000929621 -0.000855252,-0.00118992 -0.00133865,-0.00249139l-0.000260294 0c-0.00420189,-0.00676764 -0.0106349,-0.0113042 -0.0185552,-0.0113042 -0.00758571,0 -0.0141302,0.00453655 -0.0185924,0.0113042 -0.00159895,0.00278886 -0.00275168,0.00528025 -0.00349538,0.00851533 -0.0403828,0.10025 -0.0904708,0.150822 -0.162721,0.160415l-0.0541412 0c-0.0726964,-0.00966806 -0.122747,-0.060537 -0.16313,-0.161829 -0.000594958,-0.00182206 -0.00126429,-0.00282605 -0.00174769,-0.00461092 -0.000632143,-0.000929621 -0.00115273,-0.00118992 -0.00141302,-0.00249139l-0.000483403 0c-0.00405315,-0.00676764 -0.0105977,-0.0113042 -0.0184065,-0.0113042 -0.00769727,0 -0.0139071,0.00453655 -0.0184437,0.0113042 -0.00148739,0.00278886 -0.00264013,0.00528025 -0.00327227,0.00851533 -0.0413867,0.101812 -0.0926647,0.152123 -0.166886,0.160415l-0.0377054 -3.71849e-005c-0.07463,-0.00832941 -0.125796,-0.0586777 -0.167034,-0.161791 -0.000520588,-0.00182206 -0.00126429,-0.00282605 -0.00200798,-0.00461092 -0.000260294,-0.000929621 -0.000892437,-0.00118992 -0.00130147,-0.00249139l-0.000111555 0c-0.004425,-0.00676764 -0.0109695,-0.0113042 -0.0186668,-0.0113042 -0.00773445,0 -0.0140187,0.00453655 -0.0185552,0.0113042 -0.00126429,0.00278886 -0.00249139,0.00528025 -0.00338382,0.00851533 -0.0403456,0.100139 -0.0901361,0.150673 -0.162163,0.160378l-0.0547733 0c-0.072622,-0.00977962 -0.122487,-0.0606485 -0.163056,-0.161791 -0.000483403,-0.00182206 -0.00137584,-0.00282605 -0.00211954,-0.00461092 -0.000260294,-0.000929621 -0.000669327,-0.00118992 -0.00100399,-0.00249139l-0.000185924 0c-0.00464811,-0.00676764 -0.0111926,-0.0113042 -0.0186296,-0.0113042 -0.00769727,0 -0.0140187,0.00453655 -0.0185552,0.0113042 -0.00141302,0.00278886 -0.00252857,0.00528025 -0.00342101,0.00851533 -0.0415355,0.102481 -0.0930365,0.152644 -0.168076,0.160378l-0.0324624 0c-0.0752622,-0.00777164 -0.127061,-0.0582315 -0.168671,-0.161791 -0.000520588,-0.00182206 -0.00115273,-0.00282605 -0.00189643,-0.00461092 -0.000409033,-0.000929621 -0.000892437,-0.00118992 -0.000892437,-0.00249139l-0.000371849 0c-0.00427626,-0.00676764 -0.0107464,-0.0113042 -0.0184437,-0.0113042 -0.00780882,0 -0.0144277,0.00453655 -0.0185552,0.0113042l-0.000223109 0c-0.00167332,0.00278886 -0.00267731,0.00528025 -0.00330945,0.00851533 -0.0403828,0.100027 -0.0904708,0.150561 -0.162535,0.160341l-0.0548849 0c-0.0723617,-0.00985399 -0.122264,-0.0607229 -0.162684,-0.161754 -0.000594958,-0.00182206 -0.00126429,-0.00282605 -0.00200798,-0.00461092 -0.000483403,-0.000929621 -0.000892437,-0.00118992 -0.00100399,-0.00249139l-0.000743697 0c-0.00405315,-0.00676764 -0.0103746,-0.0113042 -0.018295,-0.0113042 -0.00743697,0 -0.0141302,0.00453655 -0.0185552,0.0113042 -0.00152458,0.00278886 -0.00252857,0.00528025 -0.00327227,0.00851533 -0.0187412,0.0463695 -0.0394903,0.0820298 -0.0636233,0.108022 -0.0720643,-0.10858 -0.0518357,-0.334441 -0.0270706,-0.413719l0.391371 -0.000557773 0.000966806 -0.269851 0.159932 0 0.138923 -3.71849e-005 0.108654 3.71849e-005 -0.0510548 -0.384826 0.176219 0.000297479 0.0530256 0.384529 0.185367 0 -0.0510548 -0.384826 0.179157 0 0.0510548 0.384863 0.0731054 -0.000111555c0.137956,-0.00189643 0,0 0.137956,-0.00189643zm0.871241 0.997075l-0.00312353 0 0.00297479 0.174657c-0.0784601,-0.00598676 -0.131374,-0.0567813 -0.174062,-0.162981 -0.000371849,-0.00182206 -0.00115273,-0.00282605 -0.00152458,-0.00461092 -0.000520588,-0.000929621 -0.000855252,-0.00118992 -0.00137584,-0.00249139l-0.000223109 0c-0.00420189,-0.00676764 -0.0106349,-0.0113042 -0.0185924,-0.0113042 -0.00758571,0 -0.0141302,0.00453655 -0.0185552,0.0113042 -0.00159895,0.00275168 -0.00275168,0.00528025 -0.00349538,0.00851533 -0.0451796,0.11215 -0.102333,0.1622 -0.189308,0.1622l-0.000632143 0c-0.0875703,0 -0.144872,-0.0503111 -0.190052,-0.163613 -0.000632143,-0.00182206 -0.00126429,-0.00282605 -0.00174769,-0.00461092 -0.000669327,-0.000929621 -0.00115273,-0.00118992 -0.00141302,-0.00249139l-0.000483403 0c-0.00405315,-0.00676764 -0.0105977,-0.0113042 -0.0184437,-0.0113042 -0.00769727,0 -0.01387,0.00453655 -0.0184065,0.0113042 -0.00152458,0.00275168 -0.00264013,0.00528025 -0.00330945,0.00851533 -0.0447706,0.110216 -0.101031,0.160155 -0.18559,0.161717 -0.085079,-0.00156176 -0.14134,-0.051501 -0.186036,-0.16313 -0.000483403,-0.00182206 -0.0012271,-0.00282605 -0.00200798,-0.00461092 -0.000223109,-0.000929621 -0.000892437,-0.00118992 -0.00126429,-0.00249139l-0.000111555 0c-0.004425,-0.00676764 -0.0109695,-0.0113042 -0.0186668,-0.0113042 -0.00773445,0 -0.0140187,0.00453655 -0.0185552,0.0113042 -0.00126429,0.00275168 -0.00252857,0.00528025 -0.00342101,0.00851533 -0.0451796,0.11215 -0.102221,0.1622 -0.189122,0.1622l-0.000669327 0c-0.0877191,0 -0.144723,-0.0503111 -0.190163,-0.163613 -0.000483403,-0.00182206 -0.00137584,-0.00282605 -0.00215672,-0.00461092 -0.000223109,-0.000929621 -0.000632143,-0.00118992 -0.00100399,-0.00249139l-0.000148739 0c-0.00464811,-0.00676764 -0.0112298,-0.0113042 -0.0186668,-0.0113042 -0.00766008,0 -0.0140187,0.00453655 -0.0185552,0.0113042 -0.00137584,0.00275168 -0.00249139,0.00528025 -0.00338382,0.00851533 -0.0444359,0.109695 -0.100436,0.159523 -0.184363,0.161457 -0.0841865,-0.00193361 -0.140298,-0.0520216 -0.184883,-0.16287 -0.000483403,-0.00182206 -0.00115273,-0.00282605 -0.00189643,-0.00461092 -0.000371849,-0.000929621 -0.000892437,-0.00118992 -0.000892437,-0.00249139l-0.000334664 0c-0.00431344,-0.00676764 -0.0107464,-0.0113042 -0.0184809,-0.0113042 -0.00777164,0 -0.0143905,0.00453655 -0.0185181,0.0113042l-0.000260294 0c-0.00163613,0.00275168 -0.00264013,0.00528025 -0.00327227,0.00851533 -0.0452912,0.11215 -0.102853,0.1622 -0.189829,0.1622l-0.000334664 0c-0.0874588,0 -0.144612,-0.0503111 -0.18994,-0.163613 -0.000632143,-0.00182206 -0.00130147,-0.00282605 -0.00200798,-0.00461092 -0.000520588,-0.000929621 -0.000892437,-0.00118992 -0.00100399,-0.00249139l-0.000743697 0c-0.00405315,-0.00676764 -0.0103746,-0.0113042 -0.0183321,-0.0113042 -0.00743697,0 -0.0141302,0.00453655 -0.0185181,0.0113042 -0.00152458,0.00275168 -0.00252857,0.00528025 -0.00330945,0.00851533 -0.0452912,0.11215 -0.102816,0.1622 -0.189643,0.1622l-0.0157292 -0.0148368 0.00156176 -0.160453 -0.00178487 0c0.0868266,0 0.144352,-0.050088 0.18968,-0.162238 0.000743697,-0.0031979 0.00174769,-0.00576365 0.00327227,-0.00847815 0.004425,-0.00680483 0.0111183,-0.0113414 0.0185552,-0.0113414 0.00792038,0 0.0142418,0.00453655 0.018295,0.0113414l0.000743697 0c0.000111555,0.00130147 0.000520588,0.00156176 0.00100399,0.0024542 0.000780882,0.00178487 0.00141302,0.00282605 0.00200798,0.00464811 0.0453283,0.113302 0.102481,0.163613 0.18994,0.163613l0.000371849 0c0.0869382,0 0.1445,-0.050088 0.189792,-0.162238 0.000632143,-0.0031979 0.00163613,-0.00576365 0.00330945,-0.00847815l0.000223109 0c0.0041647,-0.00680483 0.0107464,-0.0113414 0.0185924,-0.0113414 0.00766008,0 0.0141302,0.00453655 0.0184065,0.0113414l0.000371849 0c0,0.00130147 0.000483403,0.00156176 0.000892437,0.0024542 0.000743697,0.00178487 0.00137584,0.00282605 0.00189643,0.00464811 0.0445103,0.110848 0.100697,0.160899 0.184846,0.162833 0.0839262,-0.00193361 0.139927,-0.0517241 0.184363,-0.161457 0.000892437,-0.0031979 0.00200798,-0.00576365 0.00342101,-0.00847815 0.00453655,-0.00680483 0.010858,-0.0113414 0.0185552,-0.0113414 0.00743697,0 0.0139815,0.00453655 0.0186668,0.0113414l0.000148739 0c0.000334664,0.00130147 0.000743697,0.00156176 0.00100399,0.0024542 0.000743697,0.00178487 0.00163613,0.00282605 0.00211954,0.00464811 0.0454399,0.113302 0.102481,0.163613 0.190163,0.163613l0.000669327 0c0.086901,0 0.14398,-0.050088 0.189159,-0.162238 0.000892437,-0.0031979 0.00211954,-0.00576365 0.00338382,-0.00847815 0.00453655,-0.00680483 0.0108208,-0.0113414 0.0185552,-0.0113414 0.00769727,0 0.0142418,0.00453655 0.0186668,0.0113414l0.000111555 0c0.000409033,0.00130147 0.00104118,0.00156176 0.00130147,0.0024542 0.000743697,0.00178487 0.00148739,0.00282605 0.00200798,0.00464811 0.044659,0.111592 0.10092,0.161568 0.185999,0.163093 0.0845584,-0.00152458 0.140819,-0.051501 0.185627,-0.161717 0.000632143,-0.0031979 0.00178487,-0.00576365 0.00327227,-0.00847815 0.00453655,-0.00680483 0.0107464,-0.0113414 0.0184437,-0.0113414 0.00780882,0 0.0143534,0.00453655 0.0184065,0.0113414l0.000483403 0c0.000260294,0.00130147 0.000780882,0.00156176 0.00141302,0.0024542 0.000483403,0.00178487 0.00115273,0.00282605 0.00174769,0.00464811 0.0451796,0.113302 0.102481,0.163613 0.190052,0.163613l0.000632143 0c0.0869754,0 0.144129,-0.050088 0.189308,-0.162238 0.000743697,-0.0031979 0.00189643,-0.00576365 0.00349538,-0.00847815 0.00446218,-0.00680483 0.0110067,-0.0113414 0.0185924,-0.0113414 0.00792038,0 0.0143534,0.00453655 0.0185552,0.0113414l0.000260294 0c0.000483403,0.00130147 0.000855252,0.00156176 0.00133865,0.0024542 0.000409033,0.00178487 0.00115273,0.00282605 0.00156176,0.00464811 0.0455143,0.113302 0.102667,0.163613 0.190126,0.163613z"/>
 </g>
</svg>
