<?xml version="1.0" encoding="UTF-8"?>
<!DOCTYPE svg PUBLIC "-//W3C//DTD SVG 1.1//EN" "http://www.w3.org/Graphics/SVG/1.1/DTD/svg11.dtd">
<!-- Creator: CorelDRAW -->
<svg xmlns="http://www.w3.org/2000/svg" xml:space="preserve" width="8.944mm" height="7.9713mm" style="shape-rendering:geometricPrecision; text-rendering:geometricPrecision; image-rendering:optimizeQuality; fill-rule:evenodd; clip-rule:evenodd"
viewBox="0 0 3.37427 3.0073"
 xmlns:xlink="http://www.w3.org/1999/xlink">
 <defs>
  <style type="text/css">
   <![CDATA[
    .fil0 {fill:#0092DD}
    .fil1 {fill:white;fill-rule:nonzero}
   ]]>
  </style>
 </defs>
 <g id="okviri">
  <metadata id="CorelCorpID_0Corel-Layer"/>
  <path class="fil0" d="M0.701338 0l1.97159 0c0.385755,0 0.701338,0.315583 0.701338,0.701338l0 1.60466c0,0.385679 -0.315583,0.7013 -0.701338,0.7013l-1.97159 0c-0.385755,0 -0.701338,-0.315621 -0.701338,-0.7013l0 -1.60466c0,-0.385755 0.315583,-0.701338 0.701338,-0.701338z"/>
 </g>
 <g id="piktogrami">
  <metadata id="CorelCorpID_1Corel-Layer"/>
  <path class="fil1" d="M2.66516 0.691265c-0.00494219,-0.00912984 -0.00837531,-0.0165997 -0.0125252,-0.0250882 0.0035463,-0.0174674 0.00611171,-0.0400657 0.00237678,-0.0651539 -0.00731896,-0.0384057 -0.00347085,-0.0763587 0.00954483,-0.0968442 0.0243714,-0.0385566 0.0786223,-0.0554204 0.143323,-0.0642484 -0.0150906,0.0336144 -0.0666629,0.0654557 -0.0694924,0.110577 -0.00177315,0.0339162 0.00313131,0.0764719 -0.00988437,0.0969951 -0.0138834,0.0221078 -0.0354253,0.0358403 -0.063343,0.0437629zm0.0351235 0.532285c-0.00509309,-0.00433856 -0.0101485,-0.00743214 -0.0150906,-0.0113557 -0.010488,-0.0082244 -0.0212401,-0.0153925 -0.0319922,-0.0209005 -0.00550809,-0.0029804 -0.0110539,-0.00543263 -0.0164111,-0.00735669 -0.0103371,-0.00414993 -0.0206365,-0.00758305 -0.0305208,-0.00999755 -0.00475355,-0.00116953 -0.00973347,-0.00222587 -0.0142229,-0.00313131 -0.0108653,-0.00177315 -0.0213155,-0.00267859 -0.0308604,-0.0029804 -0.00271632,0 -0.00543263,-0.00033954 -0.00780941,-0.00033954 -0.0137325,0 -0.0258805,0.00154679 -0.0346708,0.00271632 -0.00577217,0.000905439 -0.0106012,0.00150906 -0.0136193,0.00211269 -0.0011318,0.000264086 -0.00399902,0.000716806 -0.00456492,0.000716806 -0.000490446,0 -0.000603626,-0.000264086 -0.000490446,-0.000264086 0.0112425,-0.0181088 0.241073,-0.209798 0.135552,-0.377945 -0.121367,-0.193802 -0.127327,-0.29091 -0.0584385,-0.397224 -0.00267859,0.00407447 -0.215155,0.107483 -0.199461,0.23466 0.00430083,0.0353876 0.0033954,0.0657198 7.54532e-005,0.0930716 -0.000414993,0.00550809 -0.000867712,0.0115066 -0.00188633,0.0170524 -0.00437629,0.0247487 -0.0107521,0.0460265 -0.0195801,0.0634939 -0.00162224,0.0029804 -0.00347085,0.00509309 -0.00505537,0.00762078 -0.00871485,0.0149397 -0.0185615,0.0268991 -0.0296531,0.0354253 -0.00173542,0.00135816 -0.00328222,0.00343312 -0.00516855,0.0046781 -0.0119971,0.00799804 -0.0243714,0.0119216 -0.0364816,0.0124875 -0.00135816,0.00033954 -0.00222587,0.00150906 -0.00343312,0.00150906 -0.00165997,0 -0.00271632,-0.00150906 -0.00407447,-0.00177315 -0.0123743,-0.000867712 -0.0241828,-0.00422538 -0.0340294,-0.0126007 -0.0937129,-0.0808104 0.00388584,-0.207534 0.0424047,-0.230849 -0.0140343,-0.0107521 -0.0308981,-0.0186747 -0.048856,-0.0244846 -0.00569672,-0.00211269 -0.0114689,-0.00271632 -0.0174674,-0.00388584 -0.012563,-0.00286722 -0.0251259,-0.00528173 -0.0381416,-0.00584763 -0.00584763,0 -0.0116198,0.000301813 -0.0174674,0.000565899 -0.0250882,0.00124498 -0.050365,0.00497991 -0.0720201,0.0146757 -0.179956,0.079075 -0.0618717,0.338332 -0.195311,0.391376 -0.00912984,0.00358403 -0.0175052,0.005244 -0.0248241,0.005244 -0.00177315,0 -0.0029804,-0.00120725 -0.00464037,-0.00154679 -0.00414993,-0.00011318 -0.00792259,-0.00162224 -0.0118084,-0.00343312 -0.00464037,-0.00173542 -0.00939393,-0.00369721 -0.0136193,-0.00697942 -0.00309358,-0.00252768 -0.00607399,-0.00554581 -0.00860167,-0.00897893 -0.00388584,-0.00418765 -0.00686624,-0.0087903 -0.00988437,-0.014072 -0.0022636,-0.00399902 -0.00448947,-0.00818668 -0.00641352,-0.0125252 -0.0024145,-0.00614944 -0.00448947,-0.0116575 -0.00656443,-0.018071 -0.00139588,-0.00464037 -0.00286722,-0.00943165 -0.00403675,-0.0143738 -0.00181088,-0.0063758 -0.0028295,-0.012827 -0.00388584,-0.0192783 -0.00105635,-0.00490446 -0.00196178,-0.00924302 -0.00256541,-0.0139966 -0.000867712,-0.00645125 -0.00147134,-0.0119971 -0.0022636,-0.017807 -7.54532e-005,-0.00399902 -0.000679079,-0.00780941 -0.000867712,-0.0116575 -0.000452719,-0.005244 -0.000603626,-0.00867712 -0.000603626,-0.0128648 -0.000150906,-0.0028295 -0.000452719,-0.00611171 -0.000452719,-0.0080735 0,-0.00509309 0,-0.00818668 0.000150906,-0.00818668 -0.0267482,0.0285213 -0.0481014,0.0572313 -0.0670779,0.0854885 -0.00554581,0.00818668 -0.0103371,0.0162602 -0.0152793,0.0244846 -0.012827,0.0216551 -0.0235791,0.0428952 -0.0322563,0.0645502 -0.00162224,0.00309358 -0.00301813,0.00671534 -0.00418765,0.0101485 -0.00165997,0.00388584 -0.00384811,0.00792259 -0.00509309,0.0116575 -0.00969574,0.0275027 -0.016562,0.0547036 -0.0199951,0.0808481 -0.000754532,0.00509309 -0.000452719,0.00973347 -0.000943165,0.0143738 -0.00188633,0.0221078 -0.00215042,0.0437251 -0.000264086,0.0651161 0.000754532,0.00746987 0.00162224,0.0153925 0.0028295,0.0230132 0.00301813,0.0198819 0.0075076,0.0391602 0.0136193,0.0581367 0.00162224,0.00528173 0.0028295,0.0104503 0.00460265,0.0153925 0.00867712,0.023315 0.0196178,0.0452719 0.032294,0.066512 0.00313131,0.00535718 0.00701715,0.0103371 0.0106012,0.0158452 0.0107521,0.0156943 0.0224096,0.0312376 0.0352744,0.0457247 0.00490446,0.00565899 0.00988437,0.0111671 0.0152416,0.0167129 0.0154302,0.0159961 0.0323317,0.0312376 0.0500632,0.0453097 0.0024145,0.00165997 0.00448947,0.00373494 0.00671534,0.00550809 0.0201837,0.0151284 0.0421784,0.0282195 0.064588,0.0401788 0.0065267,0.00362176 0.0134307,0.00675306 0.020146,0.0100353 0.0173542,0.0080735 0.0352744,0.0153925 0.0534586,0.0218437 0.00705488,0.00267859 0.0141098,0.00520627 0.0212778,0.00701715 0.0244846,0.00728124 0.0496105,0.0134307 0.0750005,0.016562 0.00328222,0.000565899 0.00671534,0.000301813 0.0100353,0.000905439 0.0210515,0.0024145 0.0422915,0.00267859 0.0634939,0.00211269 0.0176561,-0.000301813 0.0352744,-0.00301813 0.0530059,-0.00554581 0.0124121,-0.00181088 0.024975,-0.0029804 0.0372739,-0.00611171 0.00196178,-0.000301813 0.00384811,-0.00154679 0.00607399,-0.00211269 0.015732,-0.00373494 0.0315772,-0.00988437 0.0469696,-0.0159961 0.0115066,-0.00448947 0.0230132,-0.00758305 0.0343312,-0.0134684 0.0188633,-0.00909211 0.0364439,-0.0219192 0.0542886,-0.0345199 0.00909211,-0.0063758 0.0186747,-0.0110539 0.027465,-0.0183729 0.0258427,-0.0215042 0.0505537,-0.0462906 0.0733783,-0.0762078 0.0122612,-0.0156565 0.0254277,-0.0291249 0.0390093,-0.0413861 0.00479128,-0.00403675 0.00928075,-0.00731896 0.0138834,-0.0110162 0.00969574,-0.0076585 0.0192783,-0.0146757 0.0291627,-0.0210892 0.00554581,-0.00316904 0.0109407,-0.00641352 0.0162979,-0.00924302 0.00954483,-0.00528173 0.0191274,-0.0103748 0.0286722,-0.0144116 0.00509309,-0.00237678 0.0102994,-0.00430083 0.0153925,-0.00641352 0.0104503,-0.00403675 0.0204856,-0.00728124 0.0304831,-0.0101107 0.00373494,-0.00124498 0.00746987,-0.0024145 0.0110539,-0.00362176 0.0134684,-0.00343312 0.0262955,-0.00614944 0.0378398,-0.00777168 0.00101862,-0.00033954 0.00177315,-0.00033954 0.0029804,-0.00033954 0.0106389,-0.00173542 0.0200328,-0.00264086 0.0283704,-0.00324449 0.0028295,-0.000301813 0.00448947,-0.000301813 0.00716806,-0.000301813 0.00328222,-0.000301813 0.00746987,-0.000565899 0.0103371,-0.000565899 0.00162224,0 0.00116953,0.000264086 0.00267859,0.000264086 0.0076585,0.000301813 0.0130157,0.000603626 0.0134307,0.00120725 -0.0138834,-0.021391 -0.028974,-0.0376889 -0.0440647,-0.0517232zm-1.09788 0.108049c-0.0529304,-0.12148 -0.0472715,-0.252391 0.00995983,-0.377945l-0.063343 -0.0636448 -0.982665 0.982703 0.24594 0 0 0.737027 0.614189 0 0 -0.491502 0.245374 0 0 0.491502 0.614189 0 0 -0.737027 0.245827 0 -0.249863 -0.249826c-0.0536095,0.0192783 -0.109709,0.0321054 -0.169166,0.0321054 -0.218022,0 -0.427971,-0.133137 -0.510441,-0.323393z"/>
 </g>
</svg>
