<?xml version="1.0" encoding="UTF-8"?>
<!DOCTYPE svg PUBLIC "-//W3C//DTD SVG 1.1//EN" "http://www.w3.org/Graphics/SVG/1.1/DTD/svg11.dtd">
<!-- Creator: CorelDRAW -->
<svg xmlns="http://www.w3.org/2000/svg" xml:space="preserve" width="8.944mm" height="7.9713mm" style="shape-rendering:geometricPrecision; text-rendering:geometricPrecision; image-rendering:optimizeQuality; fill-rule:evenodd; clip-rule:evenodd"
viewBox="0 0 3.37427 3.0073"
 xmlns:xlink="http://www.w3.org/1999/xlink">
 <defs>
  <style type="text/css">
   <![CDATA[
    .fil0 {fill:#0092DD}
    .fil1 {fill:white;fill-rule:nonzero}
   ]]>
  </style>
 </defs>
 <g id="okviri">
  <metadata id="CorelCorpID_0Corel-Layer"/>
  <path class="fil0" d="M0.701338 0l1.97159 0c0.385755,0 0.701338,0.315583 0.701338,0.701338l0 1.60466c0,0.385717 -0.315583,0.7013 -0.701338,0.7013l-1.97159 0c-0.385755,0 -0.701338,-0.315583 -0.701338,-0.7013l0 -1.60466c0,-0.385755 0.315583,-0.701338 0.701338,-0.701338z"/>
 </g>
 <g id="piktogrami">
  <metadata id="CorelCorpID_1Corel-Layer"/>
  <path class="fil1" d="M0.702809 0.856394l0 1.88731 0.503273 0 0 -0.377493 0.251674 0 0 0.377493 0.503273 0 0 -1.25897c-0.00584763,-0.000377266 -0.0115821,-0.000754532 -0.017392,-0.00143361 -0.00328222,-0.000603626 -0.00671534,-0.00033954 -0.00999755,-0.000905439 -0.02539,-0.00313131 -0.0505159,-0.00928075 -0.0750382,-0.016562 -0.00713033,-0.00181088 -0.0141852,-0.00433856 -0.0212401,-0.00701715 -0.0181842,-0.00645125 -0.0361044,-0.0137702 -0.0534586,-0.0218437 -0.00671534,-0.00328222 -0.0136193,-0.00641352 -0.0201837,-0.0100353 -0.0224096,-0.0119593 -0.0444042,-0.0250882 -0.0645502,-0.0401788 -0.0022636,-0.00181088 -0.00430083,-0.00384811 -0.00675306,-0.00550809 -0.0177315,-0.014072 -0.034633,-0.0293136 -0.0500255,-0.0453097 -0.00535718,-0.00554581 -0.0103371,-0.0110539 -0.0152416,-0.0167129 -0.0128648,-0.014487 -0.0245223,-0.0300304 -0.0352744,-0.0457247 -0.00358403,-0.00550809 -0.00746987,-0.010488 -0.0106012,-0.0158829 -0.0126761,-0.0212024 -0.0236169,-0.0431592 -0.032294,-0.0664743 -0.00177315,-0.00494219 -0.0029804,-0.0101107 -0.00464037,-0.0153925 -0.00607399,-0.0189765 -0.0105635,-0.0382548 -0.0135816,-0.0581367 -0.00120725,-0.00762078 -0.00418765,-0.0153547 -0.00497991,-0.0228246 -0.0146757,-0.0646634 -0.00962029,-0.178522 0.0172033,-0.238394l-0.840172 0zm0.377493 0.566201l-0.251674 0 0 -0.377455 0.251674 0 0 0.377455zm0.377455 0l-0.251674 0 0 -0.377455 0.251674 0 0 0.377455zm0.377455 0.629091l-0.251637 0 0 -0.377493 0.251637 0 0 0.377493zm-0.377455 0l-0.251674 0 0 -0.377493 0.251674 0 0 0.377493zm-0.377455 0l-0.251674 0 0 -0.377493 0.251674 0 0 0.377493zm1.54804 -0.959841c-0.00497991,-0.00437629 -0.00995983,-0.0076585 -0.0148266,-0.0116575 -0.0102994,-0.00841304 -0.0209383,-0.0158075 -0.0315772,-0.0215419 -0.00547036,-0.00309358 -0.0109784,-0.00562127 -0.0162979,-0.0076585 -0.0102239,-0.00433856 -0.0204478,-0.00796032 -0.0302945,-0.0106012 -0.00471583,-0.00124498 -0.00965801,-0.0024145 -0.0141475,-0.0033954 -0.0108275,-0.00199951 -0.0212401,-0.00309358 -0.0308226,-0.00358403 -0.00267859,-3.77266e-005 -0.00539491,-0.000452719 -0.00777168,-0.000490446 -0.0137702,-0.000264086 -0.0259182,0.00101862 -0.0347085,0.00203724 -0.00584763,0.000792259 -0.0106389,0.0012827 -0.013657,0.0018486 -0.00116953,0.00022636 -0.00403675,0.000641352 -0.0046781,0.000603626 -0.000490446,0 -0.000528173,-0.000264086 -0.000414993,-0.000264086 0.0116198,-0.0178824 0.245148,-0.205044 0.142984,-0.375191 -0.117556,-0.196178 -0.121593,-0.293362 -0.0506291,-0.398318 -0.00279177,0.00403675 -0.21723,0.103258 -0.204063,0.230661 0.00362176,0.0355007 0.00207496,0.0658329 -0.00173542,0.0931093 -0.000528173,0.00550809 -0.00109407,0.0114689 -0.00222587,0.0170147 -0.00486673,0.0246355 -0.0116953,0.0457624 -0.0208628,0.0630789 -0.00165997,0.00294268 -0.00350858,0.00501764 -0.00520627,0.00754532 -0.00894121,0.0147511 -0.0190519,0.0265218 -0.0302945,0.0348217 -0.00181088,0.00132043 -0.00335767,0.00335767 -0.00528173,0.00452719 -0.012148,0.00780941 -0.0245978,0.0114312 -0.036708,0.0118084 -0.00139588,0.000301813 -0.0022636,0.00147134 -0.00343312,0.00143361 -0.00165997,0 -0.00271632,-0.00154679 -0.00403675,-0.0018486 -0.0123743,-0.00109407 -0.024145,-0.0046781 -0.0338408,-0.013242 -0.0920529,-0.082659 0.00796032,-0.207459 0.0469696,-0.229981 -0.0138457,-0.0110162 -0.0305586,-0.0192783 -0.0484032,-0.0254277 -0.00562127,-0.00222587 -0.0113934,-0.00294268 -0.017392,-0.00430083 -0.0124498,-0.00305586 -0.024975,-0.00573445 -0.037953,-0.0065267 -0.00584763,-0.00011318 -0.0116953,7.54532e-005 -0.0175429,0.00022636 -0.0250505,0.000754532 -0.0504405,0.00396129 -0.0722465,0.013242 -0.181465,0.0755287 -0.0685493,0.33705 -0.202969,0.387452 -0.00916757,0.00343312 -0.0175806,0.00490446 -0.0248996,0.00475355 -0.00181088,-7.54532e-005 -0.0029804,-0.00124498 -0.00460265,-0.00162224 -0.00418765,-0.000188633 -0.00792259,-0.00177315 -0.0117707,-0.00365948 -0.00460265,-0.00188633 -0.00931847,-0.00392357 -0.0134684,-0.00724351 -0.00309358,-0.00260314 -0.00599853,-0.00565899 -0.00845076,-0.00916757 -0.00381039,-0.00426311 -0.00671534,-0.00890348 -0.00962029,-0.0142607 -0.00215042,-0.00407447 -0.00430083,-0.00826213 -0.00614944,-0.0126384 -0.0022636,-0.00618717 -0.00426311,-0.011733 -0.00622489,-0.0181842 -0.00124498,-0.0046781 -0.00264086,-0.00950711 -0.00373494,-0.0144493 -0.0016977,-0.00641352 -0.00260314,-0.0129025 -0.00350858,-0.0193538 -0.000980892,-0.00497991 -0.00177315,-0.00928075 -0.00230132,-0.0140343 -0.000754532,-0.00648898 -0.00124498,-0.0120348 -0.00188633,-0.0178824 -3.77266e-005,-0.00399902 -0.000565899,-0.00780941 -0.000641352,-0.0116575 -0.00033954,-0.005244 -0.000414993,-0.00871485 -0.00033954,-0.0128648 -0.00011318,-0.0028295 -0.00033954,-0.00611171 -0.000301813,-0.0080735 0.00011318,-0.00509309 0.000188633,-0.00818668 0.00033954,-0.00818668 -0.0273518,0.0279931 -0.049271,0.0562127 -0.0688133,0.0841304 -0.00565899,0.0080735 -0.0106389,0.0160715 -0.0156943,0.024145 -0.013242,0.0214664 -0.0244091,0.0424802 -0.033539,0.0639466 -0.0016977,0.00305586 -0.00313131,0.00667761 -0.00441401,0.010073 -0.0016977,0.00384811 -0.00399902,0.00784714 -0.00528173,0.0115443 -0.0102616,0.0272763 -0.0176183,0.0543641 -0.0215796,0.0804331 -0.000905439,0.00509309 -0.000641352,0.00973347 -0.00120725,0.0143738 -0.00233905,0.0220701 -0.00305586,0.0436874 -0.00158452,0.0650784 0.000641352,0.0075076 0.00135816,0.0154302 0.0024145,0.0230887 0.00260314,0.0199197 0.00671534,0.0392734 0.0124121,0.0584008 0.00158452,0.00528173 0.00267859,0.010488 0.00433856,0.0154679 0.00826213,0.023466 0.0187501,0.0456492 0.0310113,0.0670779 0.00301813,0.00547036 0.00679079,0.0105257 0.0102616,0.0161093 0.0104503,0.0158829 0.021806,0.0316526 0.0343689,0.0464037 0.00479128,0.00573445 0.00965801,0.0113557 0.0149397,0.0170147 0.0150529,0.0162979 0.0316526,0.0318413 0.0491201,0.0462906 0.0024145,0.0016977 0.00441401,0.00377266 0.00663988,0.00562127 0.0198442,0.0154679 0.0415747,0.0290495 0.063758,0.0414238 0.00648898,0.00377266 0.0133175,0.00701715 0.0199574,0.0104503 0.0172033,0.00841304 0.0349726,0.0160715 0.0530436,0.0229001 0.00697942,0.00279177 0.0139966,0.00547036 0.0210892,0.00743214 0.0243714,0.00773396 0.0493841,0.0143738 0.0746987,0.0180333 0.00328222,0.000603626 0.00671534,0.000414993 0.00995983,0.00109407 0.0210515,0.0028295 0.0422538,0.00350858 0.0634939,0.0033954 0.0176183,0 0.0353121,-0.00237678 0.0530814,-0.00456492 0.0124498,-0.00154679 0.0250505,-0.00248996 0.0373494,-0.00535718 0.00199951,-0.000264086 0.00388584,-0.00147134 0.00618717,-0.00199951 0.015732,-0.00343312 0.0317281,-0.00924302 0.0472337,-0.0150529 0.0115821,-0.00426311 0.0231264,-0.00713033 0.0345576,-0.012827 0.0190897,-0.00871485 0.0369721,-0.0211646 0.0549677,-0.0334258 0.00924302,-0.00618717 0.0189388,-0.0106766 0.02788,-0.0178447 0.0262577,-0.020976 0.0513837,-0.0452719 0.0748119,-0.0747364 0.0126007,-0.0154302 0.0259936,-0.0286345 0.0398393,-0.0406316 0.00482901,-0.00392357 0.00939393,-0.00713033 0.0141098,-0.0107521 0.00984665,-0.00743214 0.0195047,-0.0142607 0.0295399,-0.0204856 0.00558354,-0.00305586 0.0110539,-0.00618717 0.0164865,-0.00894121 0.00965801,-0.00505537 0.019316,-0.00995983 0.028974,-0.0138079 0.00513082,-0.00230132 0.0103371,-0.0041122 0.0154679,-0.00611171 0.0105635,-0.00384811 0.0206742,-0.00690397 0.0307095,-0.00954483 0.00373494,-0.00116953 0.0075076,-0.00230132 0.0111294,-0.0033954 0.0135439,-0.00316904 0.0264086,-0.00562127 0.0379907,-0.00701715 0.000980892,-0.00033954 0.00177315,-0.000301813 0.0029804,-0.000264086 0.0106389,-0.00154679 0.0200328,-0.0022636 0.0284081,-0.00271632 0.00286722,-0.00022636 0.00448947,-0.000188633 0.00720578,-0.000150906 0.00324449,-0.00022636 0.00746987,-0.000452719 0.0102994,-0.000414993 0.00165997,3.77266e-005 0.00120725,0.00033954 0.00271632,0.000377266 0.00762078,0.000452719 0.012978,0.000867712 0.0133929,0.00147134 -0.0134684,-0.0216551 -0.0282195,-0.0382548 -0.0430838,-0.0525909z"/>
 </g>
</svg>
