<?xml version="1.0" encoding="UTF-8"?>
<!DOCTYPE svg PUBLIC "-//W3C//DTD SVG 1.1//EN" "http://www.w3.org/Graphics/SVG/1.1/DTD/svg11.dtd">
<!-- Creator: CorelDRAW -->
<svg xmlns="http://www.w3.org/2000/svg" xml:space="preserve" width="8.944mm" height="7.9713mm" style="shape-rendering:geometricPrecision; text-rendering:geometricPrecision; image-rendering:optimizeQuality; fill-rule:evenodd; clip-rule:evenodd"
viewBox="0 0 1.44498 1.28783"
 xmlns:xlink="http://www.w3.org/1999/xlink">
 <defs>
  <style type="text/css">
   <![CDATA[
    .str1 {stroke:#0093DD;stroke-width:0.0161559}
    .str0 {stroke:#0093DD;stroke-width:0.0323118}
    .fil1 {fill:white}
    .fil0 {fill:#0092DD}
    .fil2 {fill:white;fill-rule:nonzero}
    .fil3 {fill:#0093DD;fill-rule:nonzero}
   ]]>
  </style>
 </defs>
 <g id="okviri">
  <metadata id="CorelCorpID_0Corel-Layer"/>
  <path class="fil0" d="M0.300338 0l0.844307 0c0.165194,0 0.300338,0.135144 0.300338,0.300338l0 0.687175c0,0.165178 -0.135144,0.300322 -0.300338,0.300322l-0.844307 0c-0.165194,0 -0.300338,-0.135144 -0.300338,-0.300322l0 -0.687175c0,-0.165194 0.135144,-0.300338 0.300338,-0.300338z"/>
 </g>
 <g id="piktogrami">
  <metadata id="CorelCorpID_1Corel-Layer"/>
  <path class="fil1" d="M0.809023 0.240497c-0.0581935,0.0287252 -0.255877,0.0999727 -0.336592,-0.0919755l0.0557863 0c0.0506972,0.120588 0.172109,0.0873872 0.262226,0.0415853l0.0185793 0.0503902zm0.389131 0.051505l-0.0540415 0.000597768c-0.0359792,-0.126695 -0.161737,-0.107792 -0.25683,-0.07317l-0.0185954 -0.050051c-0.00495986,0.00185793 0.267816,-0.094512 0.329467,0.122623zm-0.976349 0.428923l0.298965 0 0.30008 0 0.305605 0.205761 0.0172868 -0.572452 0 0 0.0559156 0 0 0 0.0238784 0.790637 0 0 -0.103672 0 0 0 0 -0.000113091 -0.898058 0 0 -0.423834 0 0z"/>
  <path class="fil2 str0" d="M0.547523 0.336398c-0.126695,0 -0.22943,0.102719 -0.22943,0.229446 0,0.126646 0.102735,0.229462 0.22943,0.229462 0.126711,0 0.22943,-0.102816 0.22943,-0.229462 0,-0.126727 -0.102719,-0.229446 -0.22943,-0.229446z"/>
  <polygon class="fil3 str1" points="0.63407,0.695624 0.547523,0.609126 0.461008,0.695624 0.417759,0.652359 0.504258,0.565828 0.417759,0.479297 0.461008,0.436048 0.547523,0.522546 0.634022,0.436064 0.677304,0.479345 0.590789,0.565828 0.67732,0.652359 "/>
 </g>
</svg>
