<?xml version="1.0" encoding="UTF-8"?>
<!DOCTYPE svg PUBLIC "-//W3C//DTD SVG 1.1//EN" "http://www.w3.org/Graphics/SVG/1.1/DTD/svg11.dtd">
<!-- Creator: CorelDRAW -->
<svg xmlns="http://www.w3.org/2000/svg" xml:space="preserve" width="8.944mm" height="7.9713mm" style="shape-rendering:geometricPrecision; text-rendering:geometricPrecision; image-rendering:optimizeQuality; fill-rule:evenodd; clip-rule:evenodd"
viewBox="0 0 3.3257 2.96402"
 xmlns:xlink="http://www.w3.org/1999/xlink">
 <defs>
  <style type="text/css">
   <![CDATA[
    .fil1 {fill:white}
    .fil0 {fill:#0092DD}
   ]]>
  </style>
 </defs>
 <g id="okviri">
  <metadata id="CorelCorpID_0Corel-Layer"/>
  <path class="fil0" d="M0.691244 0l1.94322 0c0.380203,0 0.691244,0.311041 0.691244,0.691206l0 1.58161c0,0.380128 -0.311041,0.691206 -0.691244,0.691206l-1.94322 0c-0.380203,0 -0.691244,-0.311078 -0.691244,-0.691206l0 -1.58161c0,-0.380165 0.311041,-0.691206 0.691244,-0.691206z"/>
 </g>
 <g id="piktogrami">
  <metadata id="CorelCorpID_1Corel-Layer"/>
  <path class="fil1" d="M1.48545 1.18805l-0.473422 0.207856c-0.0461821,0.023091 -0.461895,0.202093 -0.467658,0.219383 -0.00576346,0.0288917 -0.0173276,0.115492 0,0.138583 0.0173276,0.0173276 0.0519455,0 0.109692,-0.00576346l0.848716 -0.155911c0,0.115492 0.0115269,0.248275 0.023091,0.36373l0.034618 0.346403c-0.034618,0.0115641 -0.0635096,0.0288917 -0.0923641,0.0462192l-0.178965 0.0981276c-0.023091,0.0173276 -0.023091,0.0866007 -0.0173276,0.127019 0.0461821,0.0115641 0.317548,-0.0692731 0.392585,-0.0692731 0.0635096,0 0.334876,0.0750366 0.392622,0.0692731l0 -0.115455c-0.0346551,-0.0288917 -0.103928,-0.0577462 -0.144347,-0.0808372 -0.0346551,-0.023091 -0.115455,-0.0577462 -0.144347,-0.0808372 0.0115641,-0.115455 0.0288917,-0.230947 0.0346551,-0.340639 0.0115269,-0.121219 0.0115269,-0.242474 0.0288545,-0.35793 0.0461821,-0.0115641 0.894898,0.167401 0.952644,0.161637 0.00576346,-0.023091 0.00576346,-0.0577462 0.00576346,-0.0866007 0,-0.0866007 0.0115641,-0.0577462 -0.155874,-0.132783 -0.0866007,-0.0404186 -0.173201,-0.0808372 -0.265603,-0.115492 -0.0866007,-0.0403814 -0.173201,-0.0808 -0.259802,-0.121219 -0.0461821,-0.0173276 -0.230947,-0.103928 -0.265565,-0.115492 -0.00580065,-0.202056 0,-0.473422 -0.0693103,-0.663951 -0.057709,-0.173201 -0.155874,-0.184728 -0.219383,-0.00576346 -0.0692731,0.190529 -0.0635096,0.461895 -0.0692731,0.669714z"/>
 </g>
</svg>
