<?xml version="1.0" encoding="UTF-8"?>
<!DOCTYPE svg PUBLIC "-//W3C//DTD SVG 1.1//EN" "http://www.w3.org/Graphics/SVG/1.1/DTD/svg11.dtd">
<!-- Creator: CorelDRAW -->
<svg xmlns="http://www.w3.org/2000/svg" xml:space="preserve" width="8.944mm" height="7.9713mm" style="shape-rendering:geometricPrecision; text-rendering:geometricPrecision; image-rendering:optimizeQuality; fill-rule:evenodd; clip-rule:evenodd"
viewBox="0 0 0.495325 0.441456"
 xmlns:xlink="http://www.w3.org/1999/xlink">
 <defs>
  <style type="text/css">
   <![CDATA[
    .fil1 {fill:white}
    .fil0 {fill:#0092DD}
   ]]>
  </style>
 </defs>
 <g id="okviri">
  <metadata id="CorelCorpID_0Corel-Layer"/>
  <path class="fil0" d="M0.102953 0l0.28942 0c0.0566268,0 0.102953,0.046326 0.102953,0.102953l0 0.235556c0,0.0566157 -0.046326,0.102947 -0.102953,0.102947l-0.28942 0c-0.0566268,0 -0.102953,-0.0463315 -0.102953,-0.102947l0 -0.235556c0,-0.0566268 0.046326,-0.102953 0.102953,-0.102953z"/>
 </g>
 <g id="piktogrami">
  <metadata id="CorelCorpID_1Corel-Layer"/>
  <path class="fil1" d="M0.110224 0.112783l0 0.168441c0.0171791,-0.000974701 0.0421115,-0.0116964 0.073673,-0.00563776 0.0110872,0.00213216 0.0210447,0.00535532 0.0308748,0.0096141 0.00789729,0.00341699 0.0251705,0.0139116 0.0264886,0.0142439l-3.32284e-005 -0.166774c-0.00103562,-0.00469075 -0.0198485,-0.0135517 -0.0253699,-0.0159275 -0.0101845,-0.00438062 -0.0196269,-0.00784745 -0.0314175,-0.0101956 -0.0207013,-0.00413694 -0.0554804,7.1995e-005 -0.0742157,0.00623587zm-0.0225455 0.201132c0.0314618,-0.00474613 0.0572748,-0.0124884 0.0916108,-0.00820743 0.0421669,0.00526117 0.0642472,0.0285488 0.0705495,0.0308526 0.00543839,-0.00640755 0.0200755,-0.0148863 0.0299997,-0.0194553 0.0466693,-0.0215043 0.0819303,-0.010838 0.127802,-0.00318993l-0.000121838 -0.183432c-0.00300717,-0.00174449 -0.00835695,-0.00204355 -0.012588,-0.00240906l-0.000105223 0.17127c-0.00667338,6.09188e-005 -0.0284989,-0.00562668 -0.0386281,-0.00675645 -0.0452627,-0.00506734 -0.0714245,0.0037825 -0.1075,0.0275353 -0.0175391,-0.0121395 -0.0400126,-0.0243232 -0.0665233,-0.0278344 -0.0312347,-0.00413694 -0.0556687,0.00299056 -0.0844279,0.00739887l-4.43046e-005 -0.171802c-0.0033893,-0.0001163 -0.00702782,0.000304594 -0.00994638,0.00160604l-7.7533e-005 0.184423zm0.166347 -0.180458l5.53807e-006 0.166901c0.0215929,-0.0111648 0.0279839,-0.0175446 0.0556632,-0.0236642 0.0251816,-0.00556023 0.0497319,0.000310132 0.0727703,0.00551038l0 -0.167571c-0.00208232,-0.00357206 -0.0103285,-0.00419232 -0.0146814,-0.00509503 -0.00585374,-0.00121838 -0.0116909,-0.00226507 -0.017816,-0.00296841 -0.0123554,-0.00141221 -0.0270092,-0.00177218 -0.0392539,0.000825173 -0.0111924,0.0023703 -0.0216539,0.00604758 -0.0313123,0.0101845 -0.00636325,0.00273027 -0.0236531,0.0108602 -0.0253755,0.0158777z"/>
 </g>
</svg>
