<?xml version="1.0" encoding="UTF-8"?>
<!DOCTYPE svg PUBLIC "-//W3C//DTD SVG 1.1//EN" "http://www.w3.org/Graphics/SVG/1.1/DTD/svg11.dtd">
<!-- Creator: CorelDRAW -->
<svg xmlns="http://www.w3.org/2000/svg" xml:space="preserve" width="8.944mm" height="7.9713mm" style="shape-rendering:geometricPrecision; text-rendering:geometricPrecision; image-rendering:optimizeQuality; fill-rule:evenodd; clip-rule:evenodd"
viewBox="0 0 0.919338 0.819356"
 xmlns:xlink="http://www.w3.org/1999/xlink">
 <defs>
  <style type="text/css">
   <![CDATA[
    .str1 {stroke:#0093DD;stroke-width:0.00783247}
    .str0 {stroke:#0093DD;stroke-width:0.0205577}
    .fil0 {fill:#0092DD}
    .fil1 {fill:white;fill-rule:nonzero}
    .fil2 {fill:#0093DD;fill-rule:nonzero}
   ]]>
  </style>
 </defs>
 <g id="okviri">
  <metadata id="CorelCorpID_0Corel-Layer"/>
  <path class="fil0" d="M0.191083 0l0.537182 0c0.105091,0 0.191073,0.0859824 0.191073,0.191083l0 0.4372c0,0.10508 -0.0859824,0.191073 -0.191073,0.191073l-0.537182 0c-0.105101,0 -0.191083,-0.0859927 -0.191083,-0.191073l0 -0.4372c0,-0.105101 0.0859824,-0.191083 0.191083,-0.191083z"/>
 </g>
 <g id="piktogrami">
  <metadata id="CorelCorpID_1Corel-Layer"/>
  <path class="fil1" d="M0.232168 0.676028l0.189614 0 0 -0.151654 0.0758372 0 0 0.151654 0.189552 0 0 -0.227501 0.0758372 0 -0.0640782 -0.0640885c-0.0232404,0.0175048 -0.0521445,0.027907 -0.0834744,0.027907 -0.0767109,0 -0.138908,-0.0622383 -0.138908,-0.138908 0,-0.0313402 0.0103919,-0.0602545 0.0278865,-0.0834847l-0.044754 -0.0447643 -0.303349 0.303339 0.0758372 0 0 0.227501z"/>
  <path class="fil1 str0" d="M0.596707 0.143338c-0.0767006,0 -0.138898,0.0621766 -0.138898,0.138898 0,0.0766698 0.0621972,0.138908 0.138898,0.138908 0.0767109,0 0.138898,-0.0622383 0.138898,-0.138908 0,-0.0767212 -0.0621869,-0.138898 -0.138898,-0.138898z"/>
  <polygon class="fil2 str1" points="0.698508,0.232672 0.672379,0.206533 0.573261,0.305672 0.521034,0.253476 0.494905,0.279605 0.573261,0.35794 "/>
 </g>
</svg>
