<?xml version="1.0" encoding="UTF-8"?>
<!DOCTYPE svg PUBLIC "-//W3C//DTD SVG 1.1//EN" "http://www.w3.org/Graphics/SVG/1.1/DTD/svg11.dtd">
<!-- Creator: CorelDRAW -->
<svg xmlns="http://www.w3.org/2000/svg" xml:space="preserve" width="8.944mm" height="7.9713mm" style="shape-rendering:geometricPrecision; text-rendering:geometricPrecision; image-rendering:optimizeQuality; fill-rule:evenodd; clip-rule:evenodd"
viewBox="0 0 3.37427 3.0073"
 xmlns:xlink="http://www.w3.org/1999/xlink">
 <defs>
  <style type="text/css">
   <![CDATA[
    .str0 {stroke:#0093DD;stroke-width:0.0754532}
    .fil3 {fill:none}
    .fil1 {fill:white}
    .fil0 {fill:#0092DD}
    .fil2 {fill:white;fill-rule:nonzero}
   ]]>
  </style>
 </defs>
 <g id="okviri">
  <metadata id="CorelCorpID_0Corel-Layer"/>
  <path class="fil0" d="M0.701338 0l1.97159 0c0.385755,0 0.701338,0.315583 0.701338,0.701338l0 1.60466c0,0.385717 -0.315583,0.7013 -0.701338,0.7013l-1.97159 0c-0.385792,0 -0.701338,-0.315583 -0.701338,-0.7013l0 -1.60466c0,-0.385755 0.315545,-0.701338 0.701338,-0.701338z"/>
 </g>
 <g id="piktogrami">
  <metadata id="CorelCorpID_1Corel-Layer"/>
  <path class="fil1" d="M1.8892 0.561674c-0.135891,0.0670402 -0.597514,0.233415 -0.785996,-0.214778l0.13027 0c0.118386,0.281554 0.401902,0.204063 0.612341,0.0971083l0.0433856 0.117669zm0.908683 0.120272l-0.126196 0.00139588c-0.0840172,-0.29589 -0.377681,-0.251712 -0.59974,-0.170864l-0.0434233 -0.116915c-0.0115821,0.00437629 0.625394,-0.220663 0.769359,0.286383zm-2.27993 1.00153l0.698131 0 0.700734 0 0.713637 0.480448 0.0403675 -1.33669 0 0 0.130572 0 0 0 0.0557599 1.84615 0 0 -0.242092 0 0 0 0 -0.000264086 -2.09711 0 0 -0.989645 0 0z"/>
  <path class="fil2" d="M0.673571 1.51072c0.00535718,-0.00452719 0.0106389,-0.00780941 0.0158452,-0.0118839 0.0110162,-0.00867712 0.0223342,-0.0161847 0.0336144,-0.0220323 0.0058099,-0.00313131 0.0116198,-0.00565899 0.0172788,-0.00769623 0.0108275,-0.00437629 0.0216551,-0.00796032 0.0320676,-0.010488 0.00497991,-0.00124498 0.0101862,-0.00237678 0.014902,-0.00331994 0.0114312,-0.0018486 0.0224096,-0.00279177 0.0324826,-0.00313131 0.0028295,0 0.00565899,-0.00033954 0.00818668,-0.00033954 0.0144493,0 0.0272009,0.00162224 0.0364439,0.0028295 0.00607399,0.000980892 0.0111294,0.00158452 0.0142984,0.00222587 0.00120725,0.000301813 0.00418765,0.000754532 0.00482901,0.000754532 0.000490446,0 0.000603626,-0.000264086 0.000490446,-0.000264086 -0.0118084,-0.0190142 -0.253334,-0.220512 -0.142456,-0.397186 0.127554,-0.203648 0.133816,-0.305737 0.0613812,-0.417445 0.00286722,0.00430083 0.226133,0.112953 0.209647,0.246581 -0.00452719,0.0372362 -0.0035463,0.0691152 -7.54532e-005,0.0978628 0.000414993,0.00577217 0.000905439,0.0120725 0.00196178,0.0178824 0.00460265,0.0260314 0.011318,0.0483655 0.0205987,0.0667384 0.0016977,0.00313131 0.00362176,0.00535718 0.00531945,0.00799804 0.00912984,0.0156943 0.0195047,0.0282572 0.0311245,0.0372362 0.0018486,0.00143361 0.00347085,0.00362176 0.00547036,0.00490446 0.0126007,0.00841304 0.0256164,0.0125252 0.0383302,0.0131289 0.00143361,0.00033954 0.00233905,0.00158452 0.00362176,0.00158452 0.0016977,0 0.0028295,-0.00158452 0.00426311,-0.0018486 0.0130157,-0.000943165 0.0254277,-0.00445174 0.0357648,-0.013242 0.0984665,-0.0849603 -0.00407447,-0.218135 -0.0445929,-0.242582 0.0147888,-0.011318 0.0325203,-0.0196556 0.0513837,-0.0257673 0.00596081,-0.00222587 0.0120348,-0.0028295 0.0183351,-0.0041122 0.0132043,-0.0029804 0.0264086,-0.00550809 0.0400657,-0.00611171 0.00614944,0 0.0122612,0.000301813 0.0184106,0.000603626 0.0263332,0.0012827 0.0528927,0.005244 0.0756419,0.0153925 0.189124,0.0831117 0.0650407,0.355573 0.205271,0.411296 0.00958256,0.00381039 0.0183729,0.00554581 0.0260691,0.00554581 0.00188633,0 0.00313131,-0.00124498 0.00486673,-0.00162224 0.00441401,-0.00011318 0.00833758,-0.0016977 0.0124498,-0.00362176 0.00486673,-0.0018486 0.00984665,-0.00388584 0.0142984,-0.00731896 0.00328222,-0.00267859 0.00641352,-0.00584763 0.00905439,-0.00943165 0.00407447,-0.00441401 0.00720578,-0.00924302 0.0103748,-0.0147888 0.00237678,-0.00422538 0.00471583,-0.0086394 0.00675306,-0.0132043 0.00248996,-0.00645125 0.00471583,-0.0122234 0.00690397,-0.0189765 0.00143361,-0.00486673 0.0029804,-0.00988437 0.00422538,-0.0150906 0.00192406,-0.00671534 0.0029804,-0.0135061 0.00407447,-0.0202592 0.0011318,-0.00516855 0.00207496,-0.00969574 0.00271632,-0.0147134 0.000905439,-0.00679079 0.00154679,-0.0126007 0.00233905,-0.0187124 0.00011318,-0.00422538 0.000754532,-0.00818668 0.000943165,-0.0122612 0.000452719,-0.00550809 0.000603626,-0.00912984 0.000603626,-0.0135061 0.000188633,-0.0029804 0.000490446,-0.00641352 0.000490446,-0.00848849 0,-0.00535718 0,-0.00860167 -0.000150906,-0.00860167 0.0281063,0.0299927 0.0505537,0.0601362 0.070511,0.0898271 0.0058099,0.0086394 0.0108653,0.0170902 0.0160338,0.0257296 0.0134684,0.0227492 0.0247864,0.0450833 0.0338785,0.0678325 0.00173542,0.00328222 0.00316904,0.0070926 0.00445174,0.0106766 0.0016977,0.0041122 0.00403675,0.00833758 0.00531945,0.0122612 0.0102239,0.0288609 0.017392,0.0574576 0.0210137,0.0849603 0.000792259,0.00535718 0.000490446,0.0102239 0.000980892,0.0151284 0.00199951,0.0232019 0.00230132,0.045951 0.000301813,0.0684361 -0.000792259,0.00784714 -0.00173542,0.016147 -0.0029804,0.024145 -0.00316904,0.0209005 -0.00788486,0.0411597 -0.0142984,0.0611171 -0.00173542,0.00550809 -0.0029804,0.0109784 -0.00486673,0.0161847 -0.00909211,0.0244846 -0.0205987,0.0475733 -0.033954,0.0698697 -0.00324449,0.00562127 -0.00735669,0.0108653 -0.0111294,0.0166374 -0.0112803,0.0165243 -0.0235414,0.0328599 -0.0370475,0.0480637 -0.00516855,0.00596081 -0.0104125,0.0117707 -0.0160338,0.0175806 -0.0161847,0.0167883 -0.033954,0.0328222 -0.0525909,0.047611 -0.00252768,0.00173542 -0.00471583,0.00392357 -0.0070926,0.00577217 -0.0211646,0.0158829 -0.044291,0.0296908 -0.0678325,0.0422538 -0.00690397,0.00377266 -0.0141475,0.00705488 -0.0212024,0.0105257 -0.018222,0.00848849 -0.0370475,0.0161847 -0.0561749,0.0229755 -0.00739442,0.00279177 -0.0148266,0.00543263 -0.0223342,0.00735669 -0.0257673,0.0076585 -0.0521382,0.0141098 -0.0788109,0.017392 -0.00347085,0.000641352 -0.0070926,0.00033954 -0.0105635,0.000943165 -0.0221455,0.00256541 -0.044442,0.00286722 -0.0667384,0.00222587 -0.0185238,-0.000301813 -0.0370475,-0.00316904 -0.0557222,-0.0058099 -0.0130534,-0.00188633 -0.02622,-0.00313131 -0.0391225,-0.00641352 -0.00207496,-0.00033954 -0.00407447,-0.00162224 -0.00641352,-0.00222587 -0.0165243,-0.00392357 -0.0331617,-0.0103748 -0.0493464,-0.0167883 -0.0120725,-0.00471583 -0.0241828,-0.00799804 -0.0360666,-0.0141475 -0.0198442,-0.00958256 -0.0383302,-0.0230887 -0.0570426,-0.036293 -0.00958256,-0.00671534 -0.0196556,-0.0116198 -0.0288986,-0.019316 -0.0271632,-0.0225982 -0.0531191,-0.0486673 -0.0771132,-0.0800936 -0.0129025,-0.0164865 -0.0267104,-0.030634 -0.0410088,-0.0434988 -0.00501764,-0.00422538 -0.00973347,-0.00769623 -0.0146002,-0.0115821 -0.0101485,-0.00803577 -0.0202215,-0.0154302 -0.0305963,-0.0221455 -0.00584763,-0.00331994 -0.0115066,-0.00675306 -0.0171656,-0.00973347 -0.00999755,-0.00554581 -0.0200706,-0.0108653 -0.0301436,-0.0151284 -0.00531945,-0.00248996 -0.0107898,-0.00452719 -0.0161093,-0.00671534 -0.0110539,-0.00426311 -0.0215796,-0.00769623 -0.0320676,-0.0106766 -0.00392357,-0.0012827 -0.00784714,-0.00252768 -0.0116198,-0.00377266 -0.0141475,-0.00362176 -0.0276536,-0.00645125 -0.0397639,-0.00818668 -0.00105635,-0.00033954 -0.00188633,-0.00033954 -0.00313131,-0.00033954 -0.0111671,-0.0018486 -0.0210515,-0.00279177 -0.029804,-0.00343312 -0.0029804,-0.000301813 -0.00471583,-0.000301813 -0.00754532,-0.000301813 -0.00343312,-0.000301813 -0.00788486,-0.000603626 -0.0108653,-0.000603626 -0.00173542,0 -0.00124498,0.000301813 -0.0028295,0.000301813 -0.00803577,0.000301813 -0.013657,0.000603626 -0.0141098,0.00124498 0.0146002,-0.0224851 0.0304454,-0.0395752 0.0463283,-0.0543641z"/>
  <path class="fil2" d="M0.75823 0.980703c0.00513082,-0.00958256 0.00875258,-0.0174297 0.0131289,-0.0263709 -0.00373494,-0.0183729 -0.00645125,-0.0421029 -0.00248996,-0.0684738 0.00769623,-0.0403675 0.00365948,-0.0802445 -0.0100353,-0.101786 -0.0256164,-0.0405184 -0.0826213,-0.0582499 -0.150605,-0.0674929 0.0158452,0.0353121 0.0700206,0.0687756 0.073001,0.116198 0.00188633,0.0356139 -0.00328222,0.0803577 0.0104125,0.101937 0.0145625,0.0232019 0.0371984,0.0376512 0.0665875,0.0459887z"/>
  <path class="fil3 str0" d="M0.770151 1.64032c0.0277291,0.0190519 0.0831495,0.0248241 0.105861,0.0541377 0.394092,0.509838 1.26022,-0.111558 0.727067,-0.680286 0.000867712,0 0.0255786,0.214664 -0.0560995,0.224134 -0.11699,0.013657 -0.0534963,-0.15517 -0.0853376,-0.289552"/>
 </g>
</svg>
