<?xml version="1.0" encoding="UTF-8"?>
<!DOCTYPE svg PUBLIC "-//W3C//DTD SVG 1.1//EN" "http://www.w3.org/Graphics/SVG/1.1/DTD/svg11.dtd">
<!-- Creator: CorelDRAW -->
<svg xmlns="http://www.w3.org/2000/svg" xml:space="preserve" width="8.9439mm" height="7.9713mm" style="shape-rendering:geometricPrecision; text-rendering:geometricPrecision; image-rendering:optimizeQuality; fill-rule:evenodd; clip-rule:evenodd"
viewBox="0 0 0.495312 0.441449"
 xmlns:xlink="http://www.w3.org/1999/xlink">
 <defs>
  <style type="text/css">
   <![CDATA[
    .fil0 {fill:#0092DD}
    .fil1 {fill:white;fill-rule:nonzero}
   ]]>
  </style>
 </defs>
 <g id="okviri">
  <metadata id="CorelCorpID_0Corel-Layer"/>
  <path class="fil0" d="M0.102946 0l0.289421 0c0.0566204,0 0.102946,0.0463252 0.102946,0.102951l0 0.235553c0,0.0566148 -0.0463252,0.102946 -0.102946,0.102946l-0.289421 0c-0.0566259,0 -0.102946,-0.0463308 -0.102946,-0.102946l0 -0.235553c0,-0.0566259 0.0463197,-0.102951 0.102946,-0.102951z"/>
 </g>
 <g id="piktogrami">
  <metadata id="CorelCorpID_1Corel-Layer"/>
  <path class="fil1" d="M0.331382 0.157927l-0.0418561 0 0 -0.0627897 0.0418561 0 0 0.0627897zm0 0.104662l-0.0418561 0 0 -0.0628007 0.0418561 0 0 0.0628007zm-0.0627897 -0.104662l-0.0418672 0 0 -0.0627897 0.0418672 0 0 0.0627897zm0 0.104662l-0.0418672 0 0 -0.0628007 0.0418672 0 0 0.0628007zm-0.0627952 -0.104662l-0.0418616 0 0 -0.0627897 0.0418616 0 0 0.0627897zm0 0.104662l-0.0418616 0 0 -0.0628007 0.0418616 0 0 0.0628007zm-0.0627952 -0.198852l0 0.313976 0.0837232 0 0 -0.0628007 0.0418672 0 0 0.0628007 0.0837232 0 0 -0.313976 -0.209314 0z"/>
 </g>
</svg>
