<?xml version="1.0" encoding="UTF-8"?>
<!DOCTYPE svg PUBLIC "-//W3C//DTD SVG 1.1//EN" "http://www.w3.org/Graphics/SVG/1.1/DTD/svg11.dtd">
<!-- Creator: CorelDRAW -->
<svg xmlns="http://www.w3.org/2000/svg" xml:space="preserve" width="10.7875mm" height="10.7873mm" style="shape-rendering:geometricPrecision; text-rendering:geometricPrecision; image-rendering:optimizeQuality; fill-rule:evenodd; clip-rule:evenodd"
viewBox="0 0 0.787484 0.78747"
 xmlns:xlink="http://www.w3.org/1999/xlink">
 <defs>
  <style type="text/css">
   <![CDATA[
    .fil0 {fill:#DA251D}
    .fil2 {fill:white;fill-rule:nonzero}
    .fil1 {fill:white;fill-rule:nonzero}
   ]]>
  </style>
 </defs>
 <g id="okviri">
  <metadata id="CorelCorpID_0Corel-Layer"/>
  <polygon class="fil0" points="0,0.393738 0.393746,0 0.787484,0.393738 0.393746,0.78747 "/>
 </g>
 <g id="piktogrami">
  <metadata id="CorelCorpID_1Corel-Layer"/>
  <path class="fil1" d="M0.400184 0.34869c0.00146729,0.0107018 -0.00643127,0.0267836 0,0.0385949 0.00496398,0.00874536 0.0128844,0.0186076 0.0128844,0.0257397 0,0.00959216 -0.00356968,0.0183302 -0.0128844,0.0257543 -0.00141619,-0.00357698 -0.00388358,-0.0153299 -0.0128698,-0.0257543 -0.00787667,-0.00843146 -0.0128917,-0.0186076 -0.0128917,-0.0257397 0,-0.0133954 0.01095,-0.0262799 0.0257616,-0.0385949z"/>
  <path class="fil2" d="M0.434604 0.179623c0.00148189,0.0108113 -0.00649697,0.0270683 0,0.0390037 0.00501508,0.00883296 0.0130231,0.0188047 0.0130231,0.0260098 0,0.00969436 -0.00360618,0.0185273 -0.0130231,0.0260244 -0.00143079,-0.00361348 -0.00392008,-0.0154905 -0.0130012,-0.0260244 -0.00795697,-0.00851906 -0.0130231,-0.0188047 -0.0130231,-0.0260098 0,-0.0135414 0.0110595,-0.0265573 0.0260244,-0.0390037zm0.0650281 0.307051c-0.0156073,0.170016 -0.299138,0.164833 -0.260083,-0.039011 -0.0001095,0.000423398 0.0327769,0.0524065 0.0519977,0.0260098 0.0253017,-0.0346676 -0.0458292,-0.081329 -0.0130231,-0.130085 0.0109208,-0.0161402 0.032974,-0.0280246 0.0520488,-0.0260025 -0.00607357,0.0119938 -0.0104755,0.059575 0.0260025,0.0650354 0.0217101,0.00328499 0.0375656,-0.0321929 0,-0.078044 -0.0242067,-0.0295868 0.0129428,-0.0895268 0.0130012,-0.0910525 -0.000503698,0.037843 0.0164979,0.0614657 0.0780513,0.0910525 0.0534066,0.0256959 0.0259441,0.110697 0.0259441,0.117084 0,0.00162059 0.0291926,-0.0355654 0.0780659,-0.0130304 -0.00145999,-0.000649697 -0.0473549,0.0270902 -0.052005,0.078044z"/>
 </g>
</svg>
