<?xml version="1.0" encoding="UTF-8"?>
<!DOCTYPE svg PUBLIC "-//W3C//DTD SVG 1.1//EN" "http://www.w3.org/Graphics/SVG/1.1/DTD/svg11.dtd">
<!-- Creator: CorelDRAW -->
<svg xmlns="http://www.w3.org/2000/svg" xml:space="preserve" width="10.7875mm" height="10.7873mm" style="shape-rendering:geometricPrecision; text-rendering:geometricPrecision; image-rendering:optimizeQuality; fill-rule:evenodd; clip-rule:evenodd"
viewBox="0 0 0.787484 0.78747"
 xmlns:xlink="http://www.w3.org/1999/xlink">
 <defs>
  <style type="text/css">
   <![CDATA[
    .fil1 {fill:white}
    .fil0 {fill:#DA251D}
   ]]>
  </style>
 </defs>
 <g id="okviri">
  <metadata id="CorelCorpID_0Corel-Layer"/>
  <polygon class="fil0" points="0,0.393738 0.393746,0 0.787484,0.393738 0.393746,0.78747 "/>
 </g>
 <g id="piktogrami">
  <metadata id="CorelCorpID_1Corel-Layer"/>
  <path class="fil1" d="M0.590619 0.590604c-0.00707367,-4.37998e-005 -0.0179798,0.00769417 -0.0274041,0.0199727 -0.00381788,0.00435078 -0.0113515,0.0136582 -0.0251922,0.024798 -0.0263018,0.0270756 -0.0533701,-0.0450189 -0.086344,-0.0319812 -0.0158555,0.00627067 -0.0322878,0.0429895 -0.057553,0.0392008 -0.0216809,-0.00324119 -0.0392519,-0.0464278 -0.0687292,-0.0383248 -0.0218634,0.00600787 -0.0303752,0.042004 -0.0637287,0.0365874 -0.027134,-0.00442378 -0.032171,-0.062495 -0.0585823,-0.0440334 -0.00223379,0.00156219 -0.0446831,-0.042807 -0.0523481,-0.0523554 0.0187755,-0.0138042 0.0230387,-0.0198851 0.0394855,-0.0276596 0.0289736,-0.0137166 0.0442962,0.0373904 0.0714448,0.0418215 0.0333682,0.00543848 0.0418653,-0.0305796 0.0637287,-0.0365874 0.0294773,-0.00810297 0.0470483,0.0350837 0.0687292,0.0383248 0.0252652,0.00378868 0.0416974,-0.0329302 0.057553,-0.0392008 0.032974,-0.0130304 0.058918,0.0601809 0.094228,0.0331054 0.0105558,-0.00810297 0.0161183,-0.0194982 0.0233161,-0.0247177 0.021805,-0.0158774 0.0333317,-0.0142787 0.0413543,-0.00821977 0.00424128,0.00319009 0.0102054,0.00849716 0.0288495,0.0204691l-0.0488076 0.0488003zm-0.221824 -0.124443l0 -0.0782703 0.0486616 0 0 0.082475c0.0117749,-0.010366 0.0215641,-0.0252141 0.0311198,-0.0289955 0.031806,-0.0125778 0.0570566,0.0551075 0.090505,0.0356092l0 -0.137743 0.0486616 0 -0.194624 -0.194617 -0.194639 0.194617 0.0486616 0 0 0.134896c0.00360618,0.00236519 0.00738757,0.00402958 0.0114318,0.00469388 0.0333682,0.00543848 0.041858,-0.0305796 0.0637214,-0.0365801 0.0190383,-0.00523408 0.0330835,0.0109427 0.0465008,0.0239147z"/>
 </g>
</svg>
