<?xml version="1.0" encoding="UTF-8"?>
<!DOCTYPE svg PUBLIC "-//W3C//DTD SVG 1.1//EN" "http://www.w3.org/Graphics/SVG/1.1/DTD/svg11.dtd">
<!-- Creator: CorelDRAW -->
<svg xmlns="http://www.w3.org/2000/svg" xml:space="preserve" width="10.7875mm" height="10.7873mm" style="shape-rendering:geometricPrecision; text-rendering:geometricPrecision; image-rendering:optimizeQuality; fill-rule:evenodd; clip-rule:evenodd"
viewBox="0 0 0.787484 0.78747"
 xmlns:xlink="http://www.w3.org/1999/xlink">
 <defs>
  <style type="text/css">
   <![CDATA[
    .fil0 {fill:#DA251D}
    .fil1 {fill:white;fill-rule:nonzero}
   ]]>
  </style>
 </defs>
 <g id="okviri">
  <metadata id="CorelCorpID_0Corel-Layer"/>
  <polygon class="fil0" points="0,0.393738 0.393746,0 0.787484,0.393738 0.393746,0.78747 "/>
 </g>
 <g id="piktogrami">
  <metadata id="CorelCorpID_1Corel-Layer"/>
  <path class="fil1" d="M0.197734 0.561338l0.0395147 -0.108492 0.00956296 0 -0.0406243 0.111646 -0.00845336 -0.00315359zm0.0323681 0l0.039522 -0.108492 0.00955566 0 -0.0406243 0.111646 -0.00845336 -0.00315359zm0.0323754 0l0.0395147 -0.108492 0.00956296 0 -0.0406243 0.111646 -0.00845336 -0.00315359zm0.267967 -0.139386l-0.07527 0 -0.0819568 0 -0.150336 0c-0.0264259,0 -0.0478659,-0.00997906 -0.0478659,-0.036456 0,-0.0263675 0.02144,-0.0478075 0.0478659,-0.0478075 0.00481798,0 0.00935856,0.000934396 0.0137896,0.00221189 0,-0.000321199 -0.0001095,-0.000664297 -0.0001095,-0.0011315 0,-0.0307986 0.0249878,-0.0557645 0.0558156,-0.0557645 0.00128479,0 0.00254039,0.000291999 0.00382518,0.000408798 -6.56997e-005,-0.00131399 -0.000416098,-0.00256959 -0.000416098,-0.00381788 0,-0.0572537 0.0464059,-0.103696 0.103681,-0.103696 0.051713,0 0.094228,0.0380109 0.102039,0.0875631 0.00897896,-0.00340909 0.0186952,-0.00551148 0.0289371,-0.00551148 0.0453182,0 0.0820298,0.0366896 0.0820298,0.0820152 0,0.0452963 -0.0367115,0.081986 -0.0820298,0.081986zm0.059648 0.0791098c0.00538738,0.00316819 0.00816137,0.00666487 0.00615387,0.00779637 -0.00200749,0.0011607 -0.00802997,-0.000496398 -0.0133589,-0.00367188 -0.00537278,-0.00313899 -0.0163154,-0.00190529 -0.0243454,0.00275209 -0.00803727,0.00467928 -0.00803727,0.0122785 0,0.0169359 0.00802997,0.00462088 0.0189726,0.00582538 0.0243454,0.00266449 0.00532898,-0.00318279 0.0113515,-0.00483258 0.0133589,-0.00368648 0.00200749,0.0011461 -0.000766497,0.00466468 -0.00615387,0.00783287 -0.00538008,0.00313899 -0.00448948,0.00879646 0.00200019,0.012534 0.00651157,0.00376678 0.0110157,0.00823437 0.0100302,0.00994986 -0.000948996,0.00170819 -0.00704447,0 -0.0135195,-0.00371568 -0.00648967,-0.00377408 -0.0118478,-0.00177389 -0.0119646,0.00435808 -9.48996e-005,0.00614657 -0.00173739,0.0103003 -0.00361348,0.00919066 -0.00189799,-0.0010731 -0.00343829,-0.00704447 -0.00339449,-0.0133005 2.91999e-005,-0.00624877 -0.00631447,-0.0149941 -0.0140743,-0.0194836 -0.00775257,-0.00449678 -0.0141181,-0.000795697 -0.0141181,0.00823437 0,0.00900816 0.00443108,0.0188704 0.00981116,0.021878 0.00539468,0.00301489 0.00981846,0.00740947 0.00981846,0.00973816 0,0.00232869 -0.00442378,0.00171549 -0.00981846,-0.00137239 -0.00538008,-0.00309519 -0.00981116,0.000452598 -0.00981116,0.00789857 0,0.00745327 -0.00152569,0.0135268 -0.00341639,0.0135268 -0.00189799,0 -0.00346749,-0.00603707 -0.00346749,-0.0134684 0,-0.00740217 -0.00439458,-0.0109792 -0.00978196,-0.00795697 -0.00538738,0.00302219 -0.00984766,0.00363538 -0.00989876,0.00137239 -3.64998e-005,-0.00226299 0.00437268,-0.00662837 0.00980386,-0.00967976 0.00544578,-0.00302949 0.00987686,-0.0129282 0.00987686,-0.0219364 0,-0.00903006 -0.00632177,-0.0127311 -0.0141181,-0.00823437 -0.00775987,0.00448948 -0.014067,0.0132348 -0.0140013,0.0194836 4.37998e-005,0.00625607 -0.00148189,0.0122274 -0.00343099,0.0133005 -0.00188339,0.0011096 -0.00356238,-0.00304409 -0.00364268,-0.00919066 -9.48996e-005,-0.00613197 -0.00547498,-0.00813217 -0.01195,-0.00435808 -0.00649697,0.00371568 -0.0125924,0.00542388 -0.0135414,0.00371568 -0.000970896,-0.00171549 0.00356238,-0.00618307 0.0100448,-0.00994986 0.00651157,-0.00373758 0.00744597,-0.00939506 0.00208779,-0.012534 -0.00534358,-0.00316819 -0.00806647,-0.00668677 -0.00608817,-0.00783287 0.00198559,-0.0011461 0.00796427,0.000503698 0.013264,0.00368648 0.00526328,0.00316089 0.016184,0.00195639 0.0242578,-0.00266449 0.00805917,-0.00465738 0.00805917,-0.0122566 0,-0.0169359 -0.00807377,-0.00465738 -0.0189945,-0.00589107 -0.0242578,-0.00275209 -0.00529978,0.00317549 -0.0112785,0.00483258 -0.013264,0.00367188 -0.00197829,-0.0011315 0.000744597,-0.00462818 0.00608817,-0.00779637 0.00535818,-0.00315359 0.00442378,-0.00880376 -0.00208779,-0.0125486 -0.00648237,-0.00373758 -0.0110157,-0.00819787 -0.0100448,-0.00990606 0.000948996,-0.00170819 0.00704447,-2.18999e-005 0.0135414,0.00373028 0.00647507,0.00374488 0.0118551,0.00170819 0.01195,-0.00447488 8.02997e-005,-0.00619767 0.00175929,-0.0103587 0.00364268,-0.00924176 0.00194909,0.0011461 0.00347479,0.00712477 0.00343099,0.0133443 -6.56997e-005,0.00620497 0.00624147,0.0149576 0.0140013,0.0194763 0.00779637,0.00451138 0.0141181,0.000781097 0.0141181,-0.00827086 0,-0.00902276 -0.00443108,-0.0189434 -0.00987686,-0.0219583 -0.00543118,-0.00305869 -0.00984036,-0.00738757 -0.00980386,-0.00961406 5.10998e-005,-0.00222649 0.00451138,-0.00158409 0.00989876,0.00139429 0.00538738,0.00300759 0.00978196,-0.000642397 0.00978196,-0.00809567 0,-0.00746057 0.00156949,-0.0135487 0.00346749,-0.0135487 0.00189069,0 0.00341639,0.00614657 0.00341639,0.0136655 0,0.00753357 0.00443108,0.0111179 0.00981116,0.00802997 0.00539468,-0.00310249 0.00981846,-0.00375948 0.00981846,-0.00141619 0,0.00232869 -0.00442378,0.00667947 -0.00981846,0.00967246 -0.00538008,0.00300029 -0.00981116,0.0128479 -0.00981116,0.0218707 0,0.00905196 0.00636557,0.0127822 0.0141181,0.00827086 0.00775987,-0.00451868 0.0141035,-0.0132713 0.0140743,-0.0194763 -4.37998e-005,-0.00621957 0.00149649,-0.0121982 0.00339449,-0.0133443 0.00187609,-0.0011169 0.00351859,0.00304409 0.00361348,0.00924176 0.0001168,0.00618307 0.00547498,0.00821977 0.0119646,0.00447488 0.00647507,-0.00375218 0.0125705,-0.00543848 0.0135195,-0.00373028 0.000985496,0.00170819 -0.00351859,0.00616847 -0.0100302,0.00990606 -0.00648967,0.00374488 -0.00738027,0.00939506 -0.00200019,0.0125486zm-0.269427 0.110514l0.0646485 -0.113193 -0.0646485 0c0.000437998,0 0.0388139,-0.0385584 0.062495,-0.062349l0.0806574 0 -0.0461942 0.0462015 0.048501 0 -0.145459 0.129341z"/>
 </g>
</svg>
