<?xml version="1.0" encoding="UTF-8"?>
<!DOCTYPE svg PUBLIC "-//W3C//DTD SVG 1.1//EN" "http://www.w3.org/Graphics/SVG/1.1/DTD/svg11.dtd">
<!-- Creator: CorelDRAW -->
<svg xmlns="http://www.w3.org/2000/svg" xml:space="preserve" width="10.7875mm" height="10.7873mm" style="shape-rendering:geometricPrecision; text-rendering:geometricPrecision; image-rendering:optimizeQuality; fill-rule:evenodd; clip-rule:evenodd"
viewBox="0 0 0.787484 0.78747"
 xmlns:xlink="http://www.w3.org/1999/xlink">
 <defs>
  <style type="text/css">
   <![CDATA[
    .fil0 {fill:#DA251D}
    .fil1 {fill:white;fill-rule:nonzero}
   ]]>
  </style>
 </defs>
 <g id="okviri">
  <metadata id="CorelCorpID_0Corel-Layer"/>
  <polygon class="fil0" points="0,0.393738 0.393746,0 0.787484,0.393738 0.393746,0.78747 "/>
 </g>
 <g id="piktogrami">
  <metadata id="CorelCorpID_1Corel-Layer"/>
  <path class="fil1" d="M0.238249 0.582939l0.039522 -0.10847 0.00956296 0 -0.0406316 0.111617 -0.00845336 -0.00314629zm0.0451722 0l0.0395147 -0.10847 0.00956296 0 -0.040617 0.111617 -0.00846066 -0.00314629zm0.0451795 0l0.0395147 -0.10847 0.00957026 0 -0.0406316 0.111617 -0.00845336 -0.00314629zm0.0451649 0l0.0394928 -0.10847 0.00959216 0 -0.0406243 0.111617 -0.00846066 -0.00314629zm0.0451868 0l0.0394782 -0.10847 0.00956296 0 -0.0405878 0.111617 -0.00845336 -0.00314629zm0.0536256 0.00314629l-0.00846066 -0.00314629 0.0394928 -0.10847 0.00956296 0 -0.0405951 0.111617zm0.0578596 -0.138685l-0.07527 0 -0.0819495 0 -0.150336 0c-0.0264259,0 -0.0478659,-0.00997176 -0.0478659,-0.0364487 0,-0.0263675 0.02144,-0.0478002 0.0478659,-0.0478002 0.00481068,0 0.00935856,0.000941696 0.0137896,0.00221919 0,-0.000321199 -0.0001168,-0.000664297 -0.0001168,-0.0011315 0,-0.0308059 0.0249878,-0.0557645 0.0558156,-0.0557645 0.00128479,0 0.00254039,0.000299299 0.00382518,0.000408798 -6.56997e-005,-0.00130669 -0.000408798,-0.00256959 -0.000408798,-0.00381058 0,-0.0572464 0.0464059,-0.103674 0.103674,-0.103674 0.051713,0 0.094228,0.0379963 0.102054,0.0875412 0.00897166,-0.00341639 0.0186879,-0.00551148 0.0289225,-0.00551148 0.0453255,0 0.0820371,0.0366823 0.0820371,0.0820006 0,0.045289 -0.0367115,0.0819714 -0.0820371,0.0819714z"/>
 </g>
</svg>
