<?xml version="1.0" encoding="UTF-8"?>
<!DOCTYPE svg PUBLIC "-//W3C//DTD SVG 1.1//EN" "http://www.w3.org/Graphics/SVG/1.1/DTD/svg11.dtd">
<!-- Creator: CorelDRAW -->
<svg xmlns="http://www.w3.org/2000/svg" xml:space="preserve" width="10.7875mm" height="10.7873mm" style="shape-rendering:geometricPrecision; text-rendering:geometricPrecision; image-rendering:optimizeQuality; fill-rule:evenodd; clip-rule:evenodd"
viewBox="0 0 18.2874 18.2871"
 xmlns:xlink="http://www.w3.org/1999/xlink">
 <defs>
  <style type="text/css">
   <![CDATA[
    .fil1 {fill:white}
    .fil0 {fill:#DA251D}
   ]]>
  </style>
 </defs>
 <g id="okviri">
  <metadata id="CorelCorpID_0Corel-Layer"/>
  <polygon class="fil0" points="0,9.14362 9.14379,0 18.2874,9.14362 9.14379,18.2871 "/>
 </g>
 <g id="piktogrami">
  <metadata id="CorelCorpID_1Corel-Layer"/>
  <path class="fil1" d="M11.4113 12.7621l-1.57946 -2.73731c-0.0779811,0.0254286 -0.136467,0.0796764 -0.314637,0.12816 -0.116633,0.0318705 -0.25649,0.0545868 -0.387193,0.052722 -0.415165,-0.0049162 -0.611135,-0.173593 -0.697253,-0.189528 -0.0306839,0.063063 -1.09936,1.87816 -1.22125,2.08566l-0.411944 0.703864c0.0720478,0.0656058 0.406858,0.236995 0.521965,0.285648 0.175966,0.0742516 0.343795,0.134433 0.535018,0.191562 0.995276,0.296667 2.16347,0.223772 3.10907,-0.190715l0.489925 -0.239029 -0.0442458 -0.0910345zm-3.18638 -3.78802c0.0593335,0.456359 0.497553,0.857962 1.04444,0.786253 0.462631,-0.0606896 0.863387,-0.49179 0.791508,-1.04444 -0.0601811,-0.463479 -0.493485,-0.861861 -1.04647,-0.791169 -0.462123,0.0589944 -0.860844,0.499249 -0.789474,1.04935zm1.60912 -1.35043c0.0200039,0.0249201 0.102562,0.0749297 0.141044,0.10324 0.0462801,0.0340744 0.0869659,0.0703525 0.126635,0.107139 0.255473,0.236995 0.42025,0.60927 0.418047,0.998328l3.25673 0c-0.0291582,-0.592487 -0.0825583,-1.08309 -0.296159,-1.62726l-0.182578 -0.443475 -0.0264458 -0.0347525c-0.116124,-0.183764 -0.158844,-0.29209 -0.336844,-0.558413 -0.239538,-0.358205 -0.586893,-0.70895 -0.920516,-0.973069 -0.107817,-0.0852706 -0.407027,-0.317349 -0.543494,-0.366342 -0.543664,0.927636 -1.0936,1.86748 -1.63642,2.79461zm-2.15363 -1.3111c-0.0303448,-0.0528915 -0.593504,-1.02935 -0.642836,-1.1131 -0.0435677,-0.0742516 -0.184103,-0.319214 -0.216821,-0.375666 -0.681148,0.381938 -1.20498,0.921872 -1.6076,1.55623 -0.438729,0.691659 -0.673689,1.44977 -0.702339,2.46336l3.25554 -0.000847621c0.000678097,-0.295311 0.0774725,-0.543833 0.204107,-0.742346 0.0932383,-0.146638 0.314976,-0.400077 0.477889,-0.457376 -0.0405163,-0.070183 -0.159861,-0.277172 -0.201056,-0.348033 -0.0891697,-0.156132 -0.540613,-0.936621 -0.566889,-0.982223z"/>
 </g>
</svg>
