<?xml version="1.0" encoding="UTF-8"?>
<!DOCTYPE svg PUBLIC "-//W3C//DTD SVG 1.1//EN" "http://www.w3.org/Graphics/SVG/1.1/DTD/svg11.dtd">
<!-- Creator: CorelDRAW -->
<svg xmlns="http://www.w3.org/2000/svg" xml:space="preserve" width="10.7875mm" height="10.7873mm" style="shape-rendering:geometricPrecision; text-rendering:geometricPrecision; image-rendering:optimizeQuality; fill-rule:evenodd; clip-rule:evenodd"
viewBox="0 0 0.787484 0.78747"
 xmlns:xlink="http://www.w3.org/1999/xlink">
 <defs>
  <style type="text/css">
   <![CDATA[
    .fil0 {fill:#DA251D}
    .fil1 {fill:white;fill-rule:nonzero}
   ]]>
  </style>
 </defs>
 <g id="okviri">
  <metadata id="CorelCorpID_0Corel-Layer"/>
  <polygon class="fil0" points="0,0.393738 0.393746,0 0.787484,0.393738 0.393746,0.78747 "/>
 </g>
 <g id="piktogrami">
  <metadata id="CorelCorpID_1Corel-Layer"/>
  <path class="fil1" d="M0.301007 0.615657l0.0655902 -0.114843 -0.0655902 0c0.000445298,0 0.039376,-0.0391205 0.0634075,-0.0632542l0.0818254 0 -0.0468658 0.0468731 0.0492091 0 -0.147576 0.131224zm0.229416 -0.197771l-0.07527 0 -0.0819276 0 -0.150357 0c-0.0264259,0 -0.047844,-0.0100375 -0.047844,-0.0364633 0,-0.0264259 0.0214181,-0.0478805 0.047844,-0.0478805 0.00482528,0 0.00937316,0.000948996 0.0137896,0.00228489 0,-0.000386898 -0.0001168,-0.000737297 -0.0001168,-0.0011315 0,-0.0308278 0.0249951,-0.0557937 0.0558302,-0.0557937 0.00126289,0 0.00254039,0.000284699 0.00381788,0.000379598 -6.56997e-005,-0.00130669 -0.000423398,-0.00251849 -0.000423398,-0.00382518 0,-0.0572537 0.0464205,-0.103645 0.103681,-0.103645 0.0516838,0 0.0942572,0.0380255 0.102039,0.0875485 0.00899356,-0.00342369 0.0186952,-0.00552608 0.0289371,-0.00552608 0.0453328,0 0.0820517,0.0367188 0.0820517,0.0820225 0,0.0453328 -0.0367188,0.0820298 -0.0820517,0.0820298z"/>
 </g>
</svg>
