<?xml version="1.0" encoding="UTF-8"?>
<!DOCTYPE svg PUBLIC "-//W3C//DTD SVG 1.1//EN" "http://www.w3.org/Graphics/SVG/1.1/DTD/svg11.dtd">
<!-- Creator: CorelDRAW -->
<svg xmlns="http://www.w3.org/2000/svg" xml:space="preserve" width="10.7875mm" height="10.7873mm" style="shape-rendering:geometricPrecision; text-rendering:geometricPrecision; image-rendering:optimizeQuality; fill-rule:evenodd; clip-rule:evenodd"
viewBox="0 0 18.288 18.2877"
 xmlns:xlink="http://www.w3.org/1999/xlink">
 <defs>
  <style type="text/css">
   <![CDATA[
    .fil0 {fill:#DA251D}
    .fil1 {fill:white;fill-rule:nonzero}
   ]]>
  </style>
 </defs>
 <g id="okviri">
  <metadata id="CorelCorpID_0Corel-Layer"/>
  <polygon class="fil0" points="0,9.14391 9.14408,0 18.288,9.14391 9.14408,18.2877 "/>
 </g>
 <g id="piktogrami">
  <metadata id="CorelCorpID_1Corel-Layer"/>
  <path class="fil1" d="M9.61978 10.8621c-0.0183092,-0.373134 0.0591658,-0.763561 0.244292,-1.135l-0.294981 -0.171394c-0.10799,0.110533 -0.257854,0.179701 -0.42518,0.179701 -0.1658,0 -0.316342,-0.069168 -0.42501,-0.179701l-0.290234 0.168343c0.186313,0.373304 0.264636,0.766104 0.24497,1.13992 -0.757797,-0.207843 -1.3208,-0.896811 -1.3208,-1.72022 0,-0.156984 0.0262771,-0.30634 0.0650993,-0.451287 0.330752,0.168343 0.63048,0.428231 0.860362,0.773224l0.299728 -0.17309c-0.0130538,-0.051537 -0.0310239,-0.0998529 -0.0310239,-0.155459 0,-0.277011 0.191568,-0.499603 0.447897,-0.567076l0 -0.34228c-0.415686,-0.0261075 -0.792381,-0.155119 -1.10516,-0.359233 0.323462,-0.317698 0.765256,-0.51537 1.25367,-0.51537 0.488923,0 0.931395,0.197671 1.25503,0.515878 -0.312782,0.203096 -0.689476,0.333295 -1.10516,0.358724l0 0.34228c0.256159,0.0674727 0.447727,0.290065 0.447727,0.567076 0,0.0556057 -0.0167834,0.103922 -0.0308544,0.155459l0.304475 0.175972c0.228526,-0.344314 0.527067,-0.604712 0.856124,-0.773054 0.0376355,0.143761 0.0637431,0.292438 0.0637431,0.448236 0,0.821031 -0.558769,1.50813 -1.3147,1.71835zm4.00225 -1.72496c0,-2.39715 -1.88025,-4.34945 -4.24519,-4.47117 1.04481,0.0984966 1.85686,0.858667 1.85686,1.78091 0,0.31702 -0.1046,0.609628 -0.272264,0.86833 -0.466884,-0.464172 -1.10872,-0.751863 -1.81803,-0.751863 -0.707447,0 -1.34979,0.287692 -1.81634,0.751185 -0.168173,-0.258702 -0.272773,-0.550632 -0.272773,-0.867652 0,-0.92224 0.812046,-1.68241 1.85703,-1.78091 -2.36443,0.121722 -4.24519,2.07402 -4.24519,4.47117 0,0.72423 0.175463,1.40557 0.479429,2.01028 -0.415517,-0.946822 -0.162918,-2.01198 0.626411,-2.4675 0.274468,-0.15868 0.580808,-0.215642 0.888843,-0.197671 -0.057301,0.21259 -0.0966318,0.431113 -0.0966318,0.661504 0,1.19044 0.814928,2.18574 1.91348,2.4814 -0.0166139,0.0250904 -0.0352621,0.0495026 -0.0495026,0.0759492 -0.00118671,0.00237341 -0.00118671,0.00406871 -0.00186482,0.00644212 -0.0350926,0.0812046 -0.0828999,0.146304 -0.135454,0.203605 -0.11884,0.153424 -0.254972,0.29193 -0.429249,0.392969 -0.792889,0.458408 -1.84685,0.140201 -2.45818,-0.704056 0.801196,1.21756 2.17642,2.02147 3.7405,2.02147 1.55018,0 2.91489,-0.788651 3.71914,-1.9857 -0.614375,0.816793 -1.64834,1.11957 -2.43122,0.668794 -0.276333,-0.160714 -0.477056,-0.402463 -0.61607,-0.681339 1.09567,-0.297863 1.90822,-1.2908 1.90822,-2.47954 0,-0.230391 -0.0395004,-0.448914 -0.0968013,-0.661504 0.310408,-0.0184787 0.617935,0.0378051 0.894438,0.197671 0.766612,0.442472 1.02616,1.45846 0.661504,2.38392 0.278706,-0.584368 0.438912,-1.23587 0.438912,-1.9267z"/>
 </g>
</svg>
