<?xml version="1.0" encoding="UTF-8"?>
<!DOCTYPE svg PUBLIC "-//W3C//DTD SVG 1.1//EN" "http://www.w3.org/Graphics/SVG/1.1/DTD/svg11.dtd">
<!-- Creator: CorelDRAW -->
<svg xmlns="http://www.w3.org/2000/svg" xml:space="preserve" width="10.7875mm" height="10.7873mm" style="shape-rendering:geometricPrecision; text-rendering:geometricPrecision; image-rendering:optimizeQuality; fill-rule:evenodd; clip-rule:evenodd"
viewBox="0 0 0.787484 0.78747"
 xmlns:xlink="http://www.w3.org/1999/xlink">
 <defs>
  <style type="text/css">
   <![CDATA[
    .fil0 {fill:#DA251D}
    .fil1 {fill:white;fill-rule:nonzero}
   ]]>
  </style>
 </defs>
 <g id="okviri">
  <metadata id="CorelCorpID_0Corel-Layer"/>
  <polygon class="fil0" points="0,0.393738 0.393746,0 0.787484,0.393738 0.393746,0.78747 "/>
 </g>
 <g id="piktogrami">
  <metadata id="CorelCorpID_1Corel-Layer"/>
  <path class="fil1" d="M0.530496 0.421442l-0.0753065 0 -0.081986 0 -0.150401 0c-0.0264405,0 -0.0478878,-0.00997176 -0.0478878,-0.0364706 0,-0.0263675 0.0214473,-0.0478221 0.0478878,-0.0478221 0.00481798,0 0.00936586,0.000934396 0.0137969,0.00221919 0,-0.000321199 -0.0001168,-0.000671597 -0.0001168,-0.0011315 0,-0.0308205 0.0250024,-0.0557937 0.0558448,-0.0557937 0.00127749,0 0.00253309,0.000291999 0.00381788,0.000408798 -5.83998e-005,-0.00130669 -0.000401498,-0.00256229 -0.000401498,-0.00381788 0,-0.0572756 0.0464205,-0.103725 0.103718,-0.103725 0.0517349,0 0.0942645,0.0380109 0.102097,0.0875923 0.00898626,-0.00341639 0.0186952,-0.00551878 0.0289371,-0.00551878 0.0453474,0 0.0820809,0.0367042 0.0820809,0.0820444 0,0.0453109 -0.0367334,0.0820152 -0.0820809,0.0820152zm-0.0783068 0.0896874c0.00605167,0.00356238 0.00916146,0.00748247 0.00691307,0.00875266 -0.00224839,0.00129939 -0.00900816,-0.000562098 -0.0149868,-0.00412448 -0.00602977,-0.00351859 -0.018301,-0.00212429 -0.0273165,0.00309519 -0.00900816,0.00524868 -0.00900816,0.013775 0,0.0189945 0.00901546,0.00519028 0.0212867,0.00653347 0.0273165,0.00299299 0.00597867,-0.00357698 0.0127384,-0.00542388 0.0149868,-0.00413908 0.00224839,0.00129209 -0.000861396,0.00523408 -0.00691307,0.00878916 -0.00603707,0.00351129 -0.00502968,0.00986226 0.00225569,0.0140597 0.00730727,0.00423398 0.0123515,0.00923446 0.0112493,0.011169 -0.0010658,0.00190529 -0.00790587,0 -0.015162,-0.00417558 -0.00727807,-0.00422668 -0.0132932,-0.00198559 -0.0134246,0.00489098 -0.0001022,0.00689117 -0.00195639,0.0115559 -0.00405878,0.0103149 -0.00213159,-0.00121179 -0.00385438,-0.00791317 -0.00381058,-0.0149211 3.64998e-005,-0.00700797 -0.00707367,-0.0168264 -0.0157752,-0.0218707 -0.00870886,-0.00503698 -0.0158482,-0.000883296 -0.0158482,0.00924176 0,0.0101178 0.00497128,0.0211699 0.0110011,0.0245498 0.00605167,0.00337989 0.0110303,0.00830736 0.0110303,0.0109281 0,0.00260609 -0.00497858,0.00191989 -0.0110303,-0.00154029 -0.00602977,-0.00347479 -0.0110011,0.000503698 -0.0110011,0.00886216 0,0.00835846 -0.00171549,0.0151693 -0.00383978,0.0151693 -0.00212429,0 -0.00388358,-0.00676707 -0.00388358,-0.0151109 0,-0.00829276 -0.00492748,-0.0123223 -0.0109792,-0.00892056 -0.00603707,0.00338719 -0.0110522,0.00407338 -0.0111033,0.00154029 -4.37998e-005,-0.00254039 0.00491288,-0.00743867 0.0110011,-0.0108697 0.00611007,-0.00339449 0.0110814,-0.0144904 0.0110814,-0.0246082 0,-0.0101251 -0.00709557,-0.0142787 -0.0158409,-0.00924176 -0.00870156,0.00504428 -0.0157825,0.0148627 -0.0157168,0.0218707 5.83998e-005,0.00700797 -0.00165709,0.0137093 -0.00384708,0.0149211 -0.00210969,0.00124099 -0.00399308,-0.00342369 -0.00408068,-0.0103149 -0.0001168,-0.00687657 -0.00614657,-0.00911766 -0.01341,-0.00489098 -0.00729267,0.00417558 -0.0141327,0.00608087 -0.0151912,0.00417558 -0.0010877,-0.00193449 0.00400038,-0.00693497 0.0112712,-0.011169 0.00729997,-0.00419748 0.00835116,-0.0105485 0.00233599,-0.0140597 -0.00599327,-0.00355508 -0.00904466,-0.00749707 -0.00683277,-0.00878916 0.00222649,-0.00128479 0.00894246,0.000562098 0.0148919,0.00413908 0.00590567,0.00354048 0.018155,0.00219729 0.0272143,-0.00299299 0.00904466,-0.00521948 0.00904466,-0.0137458 0,-0.0189945 -0.00905926,-0.00521948 -0.0213086,-0.00661377 -0.0272143,-0.00309519 -0.00594947,0.00356238 -0.0126654,0.00542388 -0.0148919,0.00412448 -0.00221189,-0.00127019 0.000839496,-0.00519028 0.00683277,-0.00875266 0.00601517,-0.00352589 0.00496398,-0.00986226 -0.00233599,-0.0140816 -0.00727077,-0.00419018 -0.0123588,-0.00919066 -0.0112712,-0.011096 0.0010585,-0.00192719 0.00789857,-3.64998e-005 0.0151912,0.00417558 0.00726347,0.00419748 0.0132932,0.00191989 0.01341,-0.00501508 8.75996e-005,-0.00695687 0.00197099,-0.0116216 0.00408068,-0.0103733 0.00218999,0.00128479 0.00390548,0.00800077 0.00384708,0.0149722 -6.56997e-005,0.00695687 0.00701527,0.0167826 0.0157168,0.0218488 0.00874536,0.00505888 0.0158409,0.000883296 0.0158409,-0.00927096 0,-0.0101324 -0.00497128,-0.0212575 -0.0110814,-0.0246447 -0.00608817,-0.00343829 -0.0110449,-0.00828546 -0.0110011,-0.0107821 5.10998e-005,-0.00249659 0.00506618,-0.00177389 0.0111033,0.00156949 0.00605167,0.00337259 0.0109792,-0.000729997 0.0109792,-0.00908846 0,-0.00836576 0.00175929,-0.0151985 0.00388358,-0.0151985 0.00212429,0 0.00383978,0.00689117 0.00383978,0.0153372 0,0.00844606 0.00497128,0.012461 0.0110011,0.00900086 0.00605167,-0.00348209 0.0110303,-0.00421938 0.0110303,-0.00159139 0,0.00261339 -0.00497858,0.00749707 -0.0110303,0.0108624 -0.00602977,0.00335799 -0.0110011,0.0144028 -0.0110011,0.0245352 0,0.0101543 0.00713937,0.0143298 0.0158482,0.00927096 0.00870156,-0.00506618 0.0158117,-0.0148919 0.0157752,-0.0218488 -4.37998e-005,-0.00697147 0.00167899,-0.0136874 0.00381058,-0.0149722 0.00210239,-0.00124829 0.00395658,0.00341639 0.00405878,0.0103733 0.000131399,0.00693497 0.00614657,0.00921256 0.0134246,0.00501508 0.00725617,-0.00421208 0.0140962,-0.00610277 0.015162,-0.00417558 0.0011023,0.00190529 -0.00394198,0.00690577 -0.0112493,0.011096 -0.00728537,0.00421938 -0.00829276,0.0105558 -0.00225569,0.0140816z"/>
 </g>
</svg>
