<?xml version="1.0" encoding="UTF-8"?>
<!DOCTYPE svg PUBLIC "-//W3C//DTD SVG 1.1//EN" "http://www.w3.org/Graphics/SVG/1.1/DTD/svg11.dtd">
<!-- Creator: CorelDRAW -->
<svg xmlns="http://www.w3.org/2000/svg" xml:space="preserve" width="10.7875mm" height="10.7873mm" style="shape-rendering:geometricPrecision; text-rendering:geometricPrecision; image-rendering:optimizeQuality; fill-rule:evenodd; clip-rule:evenodd"
viewBox="0 0 18.2874 18.2871"
 xmlns:xlink="http://www.w3.org/1999/xlink">
 <defs>
  <style type="text/css">
   <![CDATA[
    .fil0 {fill:#DA251D}
    .fil1 {fill:white;fill-rule:nonzero}
   ]]>
  </style>
 </defs>
 <g id="okviri">
  <metadata id="CorelCorpID_0Corel-Layer"/>
  <polygon class="fil0" points="0,9.14362 9.14379,0 18.2874,9.14362 9.14379,18.2871 "/>
 </g>
 <g id="piktogrami">
  <metadata id="CorelCorpID_1Corel-Layer"/>
  <path class="fil0" d="M8.46841 7.52602c0.0708611,-0.0830668 0.313789,-0.327351 0.400586,-0.418047l0.000508572 2.096 0.399907 0c0.000678097,-0.637241 -0.0186477,-1.46757 -0.00695049,-2.096 0.16393,0.152402 0.358883,0.36685 0.408214,0.418047l-0.000339048 1.67795 0.400247 0 0.00118667 -1.26516c0.0988326,0.102562 0.307517,0.326164 0.401942,0.424149l-0.00288191 0.841009 0.385328 0 0 -0.42381 0.380921 0.42381c-0.209701,0.209532 -1.83069,1.8729 -2.19924,2.25755 -0.350745,-0.359561 -1.99954,-2.06938 -2.17771,-2.25755l0.40618 -0.42381 0.000169524 0.42381 0.400755 0c0.000678097,-0.105783 -0.0055943,-0.792695 -0.00101714,-0.841009 0.021021,-0.0220381 0.363629,-0.379395 0.401772,-0.419233l0.000339048 1.26024 0.399907 0 0.000169524 -1.67795z"/>
  <path class="fil1" d="M6.05812 10.5642c-0.52027,0 -0.935095,0.415843 -0.935095,0.934417 0,0.515523 0.414826,0.9334 0.935095,0.9334 0.513997,0 0.930688,-0.417877 0.930688,-0.9334 0,-0.518574 -0.41669,-0.934417 -0.930688,-0.934417zm-0.00220381 1.40044c-0.25666,0 -0.467717,-0.208684 -0.467717,-0.467039 0,-0.256999 0.211058,-0.467378 0.467717,-0.467378 0.258694,0 0.4667,0.210379 0.4667,0.467378 0,0.258355 -0.208006,0.467039 -0.4667,0.467039z"/>
  <path class="fil1" d="M12.0352 10.5642c-0.516371,0 -0.934078,0.415843 -0.934078,0.934417 0,0.515523 0.417708,0.9334 0.934078,0.9334 0.514845,0 0.93357,-0.417877 0.93357,-0.9334 0,-0.518574 -0.418725,-0.934417 -0.93357,-0.934417zm0 1.40044c-0.258863,0 -0.468226,-0.208684 -0.468226,-0.467039 0,-0.256999 0.209362,-0.467378 0.468226,-0.467378 0.256829,0 0.46687,0.210379 0.46687,0.467378 0,0.258355 -0.21004,0.467039 -0.46687,0.467039z"/>
  <path class="fil1" d="M13.3246 8.98953l-0.836263 -1.66151c-0.146977,-0.292599 -0.536883,-0.990699 -0.865929,-0.990699l-7.6074 0c-0.321248,0.188511 -0.397365,0.524508 -0.376344,1.06156l0 4.39051 1.30059 0c-0.0233943,-0.0935773 -0.0417029,-0.190376 -0.0417029,-0.290734 0,-0.639784 0.5201,-1.15971 1.16056,-1.15971 0.636563,0 1.15599,0.519931 1.15599,1.15971 0,0.100358 -0.017461,0.197157 -0.0411944,0.290734l3.74581 0c-0.0250896,-0.0935773 -0.0418725,-0.190376 -0.0418725,-0.290734 0,-0.639784 0.517896,-1.15971 1.15836,-1.15971 0.638089,0 1.15836,0.519931 1.15836,1.15971 0,0.100358 -0.017461,0.197157 -0.0418725,0.290734l1.60505 0 0 -1.29449c0,-0.328877 -0.492468,-1.39417 -1.43214,-1.50537z"/>
  <path class="fil0" d="M7.96475 7.36498c0.0757773,-0.0886611 0.48806,-0.491281 0.58079,-0.588079l0 2.05836 0.380582 0 0.348711 0 0 -2.06735c0.0927297,0.0967983 0.514167,0.508403 0.589775,0.597064l0 1.47028 0.0964592 0 0.0225467 0 0.0208515 0 0.00118667 0 0.0178 0 0.0105105 0 0.00712001 0 0.0155962 0 0.00406858 0 0.00796764 0 0.000678097 0 0.000169524 0 0.00118667 0 0.000169524 0 0.000508572 0 0.00135619 0 0.00118667 0 0.00101714 0 0.00271239 0 0.000678097 0 0.00322096 0 0.00101714 0 0.00101714 0 0.00169524 0 0.000169524 0 0.00305143 0 0.00101714 0 0.00440763 0 0.00101714 0 0.000508572 0 0.00288191 0 0.00440763 0 0.00101714 0 0.000508572 0 0.00271239 0 0.00169524 0 0.00322096 0 0.00118667 0 0.000339048 0 0.00271239 0 0.00389906 0 0.000339048 0 0.00406858 0 0.000169524 0 0.00186477 0 0.00186477 0 0.00152572 0 0.00118667 0 0.000339048 0 0.00322096 0 0.000339048 0 0.00186477 0 0.000847621 0 0.00118667 0 0.00101714 0 0.000169524 0 0.000508572 0 0.000169524 0 0.00881526 0 0.00152572 0 0.0155962 0 0.000847621 0 0.0164438 0 0.000169524 0 0.0147486 0 0.00372953 0 0.0098324 0 0.0110191 0 0.000847621 0 0.0108495 0 0.0091543 0 0.00152572 0 -0.00101714 0 -0.00322096 0 -0.00271239 0 -0.00203429 0 -0.00237334 0 -0.00152572 0 -0.00118667 0 -0.000339048 0 0.000847621 0 0.00152572 0 0.00271239 0 0.00288191 0 0.00406858 0 0.00237334 0 0.00712001 0 0.00695049 0 0.00644192 0 0.0042381 0 -0.00186477 0 -0.00339048 0 -0.00305143 0 -0.00372953 0 -0.00356001 0 -0.00356001 0 -0.00322096 0 -0.00237334 0 0.00254286 0 0.00644192 0 0.00712001 0 0.00864573 0 0.000508572 0 0.00389906 0 0.00305143 0 0.00237334 0 0.0110191 0 0.00542477 0 0.00678097 0 0.0137315 0 0.00830668 0 0.00661144 0 0.0171219 0 0.00661144 0 0.0113581 0 0.0201734 0 0.00152572 0 0.0200039 0 0.0237334 0 0.0571296 0 0 -0.810156 0.760655 0.810156c-0.190206,0.200886 -1.97309,2.02598 -2.3474,2.40979 -0.374479,-0.383803 -2.13431,-2.2089 -2.32452,-2.40979l0.760655 -0.810156 0 0.810156 0.100867 0c0.722173,0 -0.0783202,0 0.428048,0l0.0964592 0 0 -1.47028zm2.3157 1.47028l0.00135619 0 0.000847621 0 -0.000339048 0 -0.00152572 0 -0.00169524 0 -0.00203429 0 -0.00237334 0 -0.00305143 0 -0.00101714 0 0.0098324 0z"/>
 </g>
</svg>
