<?xml version="1.0" encoding="UTF-8"?>
<!DOCTYPE svg PUBLIC "-//W3C//DTD SVG 1.1//EN" "http://www.w3.org/Graphics/SVG/1.1/DTD/svg11.dtd">
<!-- Creator: CorelDRAW -->
<svg xmlns="http://www.w3.org/2000/svg" xml:space="preserve" width="10.7875mm" height="10.7873mm" style="shape-rendering:geometricPrecision; text-rendering:geometricPrecision; image-rendering:optimizeQuality; fill-rule:evenodd; clip-rule:evenodd"
viewBox="0 0 0.787483 0.787468"
 xmlns:xlink="http://www.w3.org/1999/xlink">
 <defs>
  <style type="text/css">
   <![CDATA[
    .fil2 {fill:none}
    .fil0 {fill:#DA251D}
    .fil1 {fill:white;fill-rule:nonzero}
   ]]>
  </style>
 </defs>
 <g id="okviri">
  <metadata id="CorelCorpID_0Corel-Layer"/>
  <polygon class="fil0" points="0,0.393738 0.393745,0 0.787483,0.393738 0.393745,0.787468 "/>
 </g>
 <g id="piktogrami">
  <metadata id="CorelCorpID_1Corel-Layer"/>
  <path class="fil1" d="M0.253747 0.51164l0.10593 -0.00458437 0.0382226 -0.0709483 -0.0497346 0 0.062422 -0.116551 -0.0526692 0 0.0497419 -0.0726565 -0.0151182 0.0468146 0.0560783 -0.00145999 -0.0458291 0.117033 0.0463182 -0.00146729 -0.0372079 0.0969654 0.163979 -0.00709556 -0.0121325 -0.160672 0.0535525 -0.00405148 -0.230409 -0.198048 -0.19807 0.230401 0.0535671 -0.00403688 0.0113587 0.150357zm0.172381 0.0142568l0.223204 0.00551877 -0.0621884 0.0626628 -0.199595 -0.00479607 0.00940965 0.000218999 0.0291706 -0.0636045zm-0.299714 -0.00574507l0.265967 0.00489097 -0.0336601 0.0635169 -0.168717 -0.00481797 -0.0635899 -0.0635899z"/>
  <line class="fil2" x1="0.130122" y1="0.359822" x2="0.657544" y2= "0.370663" />
 </g>
</svg>
