<?xml version="1.0" encoding="UTF-8"?>
<!DOCTYPE svg PUBLIC "-//W3C//DTD SVG 1.1//EN" "http://www.w3.org/Graphics/SVG/1.1/DTD/svg11.dtd">
<!-- Creator: CorelDRAW -->
<svg xmlns="http://www.w3.org/2000/svg" xml:space="preserve" width="10.7875mm" height="10.7873mm" style="shape-rendering:geometricPrecision; text-rendering:geometricPrecision; image-rendering:optimizeQuality; fill-rule:evenodd; clip-rule:evenodd"
viewBox="0 0 18.2874 18.2871"
 xmlns:xlink="http://www.w3.org/1999/xlink">
 <defs>
  <style type="text/css">
   <![CDATA[
    .str0 {stroke:#DA251D;stroke-width:0.593335}
    .fil2 {fill:none}
    .fil1 {fill:white}
    .fil0 {fill:#DA251D}
   ]]>
  </style>
 </defs>
 <g id="okviri">
  <metadata id="CorelCorpID_0Corel-Layer"/>
  <polygon class="fil0" points="0,9.14362 9.14379,0 18.2874,9.14362 9.14379,18.2871 "/>
 </g>
 <g id="piktogrami">
  <metadata id="CorelCorpID_1Corel-Layer"/>
  <path class="fil1" d="M9.79341 4.76821c-0.579942,0.286157 -2.54964,0.995954 -3.35387,-0.916278l0.55587 0c0.505182,1.20142 1.71491,0.870676 2.61288,0.414317l0.18512 0.501961z"/>
  <path class="fil1" d="M13.7184 5.27712l-0.538748 0.00593335c-0.358374,-1.26245 -1.61133,-1.07394 -2.55897,-0.729123l-0.18512 -0.498571c-0.0496706,0.0184781 2.66848,-0.941707 3.28284,1.22176z"/>
  <polygon class="fil1" points="3.98975,9.55048 6.9688,9.55048 9.95887,9.55048 13.0039,11.6005 13.1761,5.89707 13.1761,5.89707 13.7333,5.89707 13.7333,5.89707 13.9622,13.4758 13.6597,13.7745 12.9381,13.7745 12.9381,13.7745 12.9381,13.7733 4.64208,13.7733 3.98975,13.1334 3.98975,9.55048 "/>
  <polyline class="fil2 str0" points="4.55088,8.72354 7.02389,11.3195 9.52115,8.72354 "/>
  <path class="fil1" d="M5.96166 6.91947c0.0845926,-0.0991716 0.545868,-0.549258 0.649447,-0.657584l0 2.30146 0.425675 0 0.389906 0 0 -2.31129c0.103749,0.108156 0.575026,0.568245 0.659449,0.667417l0 1.64388 0.107987 0 0.0252591 0 0.0232248 0 0.00118667 0 0.0200039 0 0.0118667 0 0.00779811 0 0.017461 0 0.00457715 0 0.00898478 0 0.000847621 0 0.000169524 0 0.00118667 0 0.000169524 0 0.000678097 0 0.00135619 0 0.00152572 0 0.00118667 0 0.00305143 0 0.000508572 0 0.00372953 0 0.00118667 0 0.00101714 0 0.00203429 0 0.000169524 0 0.00339048 0 0.00101714 0 0.00508572 0 0.00101714 0 0.000678097 0 0.00322096 0 0.00474668 0 0.00118667 0 0.000678097 0 0.00305143 0 0.00186477 0 0.00356001 0 0.00118667 0 0.000508572 0 0.00305143 0 0.00440763 0 0.000339048 0 0.00457715 0 0.000169524 0 0.00203429 0 0.00220381 0 0.00152572 0 0.00152572 0 0.000339048 0 0.00339048 0 0.000508572 0 0.00220381 0 0.000847621 0 0.00135619 0 0.00101714 0 0.000169524 0 0.000678097 0 0.000169524 0 0.0098324 0 0.00169524 0 0.017461 0 0.00101714 0 0.0183086 0 0.000169524 0 0.0164438 0 0.0042381 0 0.0110191 0 0.0122057 0 0.00101714 0 0.0122057 0 0.010341 0 0.00152572 0 -0.00118667 0 -0.00339048 0 -0.00305143 0 -0.00237334 0 -0.00271239 0 -0.00152572 0 -0.00152572 0 -0.000339048 0 0.00101714 0 0.00152572 0 0.00305143 0 0.00339048 0 0.00457715 0 0.00254286 0 0.00796764 0 0.00796764 0 0.00695049 0 0.0049162 0 -0.00220381 0 -0.00372953 0 -0.00339048 0 -0.0042381 0 -0.00389906 0 -0.00406858 0 -0.00356001 0 -0.00271239 0 0.00288191 0 0.00728954 0 0.00796764 0 0.00966288 0 0.000678097 0 0.0042381 0 0.00339048 0 0.00254286 0 0.0123753 0 0.00610287 0 0.00745906 0 0.0154267 0 0.00932383 0 0.00745906 0 0.0189867 0 0.00745906 0 0.0128838 0 0.0223772 0 0.00186477 0 0.0222077 0 0.0266153 0 0.0639106 0 0 -0.905937 0.850672 0.905937c-0.212753,0.22462 -2.20653,2.26518 -2.62508,2.69425 -0.418725,-0.429066 -2.38673,-2.46963 -2.59948,-2.69425l0.850672 -0.905937 0 0.905937 0.112734 0c0.807613,0 -0.087644,0 0.478736,0l0.107817 0 0 -1.64388zm2.58948 1.64388l0.00169524 0 0.000847621 0 -0.000508572 0 -0.00152572 0 -0.00186477 0 -0.00237334 0 -0.00271239 0 -0.00339048 0 -0.00101714 0 0.0108495 0z"/>
 </g>
</svg>
