<?xml version="1.0" encoding="UTF-8"?>
<!DOCTYPE svg PUBLIC "-//W3C//DTD SVG 1.1//EN" "http://www.w3.org/Graphics/SVG/1.1/DTD/svg11.dtd">
<!-- Creator: CorelDRAW -->
<svg xmlns="http://www.w3.org/2000/svg" xml:space="preserve" width="8.5mm" height="8.5mm" style="shape-rendering:geometricPrecision; text-rendering:geometricPrecision; image-rendering:optimizeQuality; fill-rule:evenodd; clip-rule:evenodd"
viewBox="0 0 5.38938 5.38938"
 xmlns:xlink="http://www.w3.org/1999/xlink">
 <defs>
  <style type="text/css">
   <![CDATA[
    .fil0 {fill:#00923F}
    .fil1 {fill:white;fill-rule:nonzero}
   ]]>
  </style>
 </defs>
 <g id="okviri">
  <metadata id="CorelCorpID_0Corel-Layer"/>
  <polygon class="fil0" points="0,0 5.38938,0 5.38938,5.38938 0,5.38938 "/>
 </g>
 <g id="piktogrami">
  <metadata id="CorelCorpID_1Corel-Layer"/>
  <path class="fil1" d="M0.7308 5.00407l1.55335 0 0 -0.413968 -1.55335 0 0 0.413968zm2.3932 0l1.55328 0 0 -0.413968 -1.55328 0 0 0.413968z"/>
  <path class="fil1" d="M4.59993 1.19632l-1.88191 -0.935659 -0.000760853 -0.00196554 -0.00171192 0.000697449 -0.00177532 -0.000697449 -0.000760853 0.00196554 -1.88191 0.935659 0.156799 0.315564 1.72764 -0.85875 1.72764 0.85875 0.156736 -0.315564zm-2.17972 1.56311l0.000634044 -0.00215575c0.0114128,-0.05643 -0.0254886,-0.110577 -0.082299,-0.121546 -0.0557959,-0.01192 -0.111782,0.0263128 -0.123195,0.082933 -0.0114762,0.0565568 0.0252984,0.111719 0.0821088,0.122751 0.00672087,0.0014583 0.0136954,0.00202894 0.0206064,0.00202894 0.0486312,0 0.0921267,-0.0343018 0.102145,-0.0840109zm-0.0642921 0.415172l0.000380427 -0.00202894c0.0112226,-0.0566202 -0.025552,-0.110768 -0.0823624,-0.1218 -0.0553521,-0.0124273 -0.111655,0.0263762 -0.122941,0.082933 -0.0114762,0.0566202 0.0252984,0.111782 0.0819185,0.123005 0.00678428,0.00120468 0.0136954,0.00183873 0.0208601,0.00183873 0.0486312,0 0.0921267,-0.0341116 0.102145,-0.0839475zm-0.0631508 0.405281l0.000190213 -0.00202894c0.00596002,-0.0574444 -0.0361405,-0.107661 -0.0937752,-0.113367 -0.0571908,-0.00678428 -0.108422,0.037155 -0.114382,0.0944092 -0.0057064,0.057381 0.0361405,0.108612 0.0935216,0.114572 0.00348724,0.000443831 0.00735492,0.00057064 0.0106519,0.00057064 0.0528793,0 0.0984671,-0.0403886 0.103793,-0.0941556zm-0.0661942 0.424937l0.00057064 -0.00209235c0.011286,-0.0565568 -0.0254886,-0.110704 -0.0824892,-0.121927 -0.0561763,-0.0114128 -0.111528,0.0263128 -0.123005,0.0831232 -0.0114128,0.0566202 0.0253618,0.111528 0.0821722,0.122814 0.00646725,0.00164852 0.0136954,0.00221916 0.0206064,0.00221916 0.0486312,0 0.0921267,-0.0343018 0.102145,-0.0841377zm-0.170178 -1.22694l0.000824258 -0.00202894c0.0214941,-0.053767 -0.00488214,-0.113367 -0.0584589,-0.134861 -0.0526891,-0.0216843 -0.114762,0.00551619 -0.136256,0.0592198 -0.0214307,0.0535768 0.00450172,0.114445 0.0582687,0.135686 0.0124273,0.00507236 0.0259324,0.00754513 0.0385499,0.00754513 0.0415299,0 0.0807139,-0.0249179 0.0970722,-0.0655602zm-0.141202 0.385879l0.000634044 -0.00221916c0.0167388,-0.0554155 -0.0150903,-0.112353 -0.0702521,-0.128901 -0.0561763,-0.017563 -0.114001,0.0154707 -0.130296,0.0710764 -0.016612,0.0551619 0.0147098,0.113367 0.0700619,0.129916 0.0100179,0.00304341 0.0200358,0.00450172 0.0299903,0.00450172 0.0449538,0 0.0866105,-0.0292294 0.099862,-0.0743734zm-0.147225 0.403062l0.000824258 -0.00202894c0.0213673,-0.0533231 -0.00494555,-0.11324 -0.0586491,-0.134671 -0.0529427,-0.0213673 -0.114635,0.00551619 -0.136256,0.0592832 -0.0212405,0.0535134 0.00469193,0.114445 0.0583955,0.135686 0.0124907,0.00526257 0.0259958,0.00748172 0.0386133,0.00748172 0.0414665,0 0.0809041,-0.0248545 0.0970722,-0.0657504zm-0.144245 0.394693l0.000634044 -0.00202894c0.0216209,-0.0535768 -0.00469193,-0.113367 -0.0586491,-0.134608 -0.0527525,-0.0216843 -0.114635,0.00526257 -0.136066,0.0589661 -0.0212405,0.0535768 0.00450172,0.114191 0.0584589,0.135876 0.0124273,0.00494555 0.0256788,0.00760853 0.0386133,0.00760853 0.0414665,0 0.0806505,-0.0249814 0.0970088,-0.0658138zm1.50972 -1.1201c0.0569372,-0.0110324 0.0935216,-0.0661942 0.082299,-0.122751l-0.000443831 -0.00202894c-0.0114128,-0.0566836 -0.0673989,-0.0928241 -0.122751,-0.0809041 -0.0568104,0.010969 -0.0933313,0.0671453 -0.0817283,0.123702 0.00982769,0.0497091 0.0533231,0.0840109 0.102145,0.0840109 0.00697449,0 0.013949,-0.00057064 0.0204796,-0.00202894zm0.0647359 0.415299c0.0565568,-0.0112226 0.0933313,-0.0663845 0.0819185,-0.123005l-0.000443831 -0.00202894c-0.0112226,-0.0565568 -0.0663845,-0.0923803 -0.122751,-0.0809041 -0.0566202,0.0110324 -0.0931411,0.0672721 -0.0817283,0.123829 0.0100179,0.0498359 0.0535134,0.0839475 0.102145,0.0839475 0.00697449,0 0.0138856,-0.000634044 0.0208601,-0.00183873zm0.0543376 0.416757c0.0574444,-0.00596002 0.0994816,-0.0571908 0.0935216,-0.114572l-0.000190213 -0.00209235c-0.00551619,-0.0571908 -0.0565568,-0.0991011 -0.114001,-0.0923169 -0.0577615,0.0057064 -0.0996718,0.0578249 -0.093585,0.115396 0.00538938,0.053767 0.0509138,0.0941556 0.103603,0.0941556 0.00348724,0 0.00735492,-0.000126809 0.0106519,-0.00057064zm0.0745636 0.41327c0.0570006,-0.011286 0.093585,-0.0661942 0.0823624,-0.122814l-0.000443831 -0.00202894c-0.0114762,-0.056747 -0.0668283,-0.0927607 -0.122814,-0.0810943 -0.056747,0.0112226 -0.0933313,0.0674623 -0.0817283,0.124019 0.0100179,0.0498359 0.0535768,0.0841377 0.102145,0.0841377 0.00697449,0 0.013949,-0.00057064 0.0204796,-0.00221916zm0.183239 -1.25084c0.0537036,-0.0212405 0.079636,-0.0821088 0.0582053,-0.135686l-0.000760853 -0.00202894c-0.0213039,-0.0535134 -0.0819819,-0.0792556 -0.135495,-0.0571908 -0.0537036,0.0214941 -0.0792556,0.0833768 -0.0575712,0.13689 0.0162949,0.0406422 0.0553521,0.0655602 0.0968186,0.0655602 0.0128077,0 0.026186,-0.00247277 0.0388035,-0.00754513zm0.135432 0.397736c0.0553521,-0.0165486 0.0866105,-0.0747538 0.0700619,-0.129916l-0.00057064 -0.00209235c-0.0165486,-0.0553521 -0.0741832,-0.085596 -0.129979,-0.068984 -0.0549083,0.0165486 -0.0863569,0.0755147 -0.0696181,0.13112 0.0134417,0.045144 0.0551619,0.0743734 0.100116,0.0743734 0.00976428,0 0.0197822,-0.0014583 0.0299903,-0.00450172zm0.153058 0.391459c0.0536402,-0.0212405 0.079636,-0.0821722 0.0582053,-0.135686l-0.000824258 -0.00202894c-0.0214941,-0.053767 -0.0821088,-0.0794458 -0.135432,-0.0572542 -0.0535134,0.0214307 -0.0790653,0.0831866 -0.0576346,0.1367 0.0161681,0.0408959 0.0553521,0.0657504 0.0970722,0.0657504 0.0126809,0 0.0261226,-0.00221916 0.0386133,-0.00748172zm0.144182 0.394629c0.0539572,-0.0216843 0.0796994,-0.082299 0.0582687,-0.135876l-0.000887662 -0.00202894c-0.0209869,-0.0537036 -0.0817283,-0.0792556 -0.135242,-0.0569372 -0.0537036,0.0212405 -0.0790019,0.0831232 -0.0577615,0.136637 0.0163583,0.0408325 0.0555423,0.0658138 0.0970088,0.0658138 0.0126809,0 0.026186,-0.00266299 0.0386133,-0.00760853zm-1.12296 0.0204162l0 -0.00101447c0,-0.0580151 -0.0465389,-0.104174 -0.104617,-0.104174 -0.0578249,0 -0.104364,0.0474265 -0.104364,0.105188 0,0.0578249 0.0465389,0.104427 0.104364,0.104427 0.0580785,0 0.104617,-0.0466023 0.104617,-0.104427zm0 -0.867563l0 -0.00228256c0,-0.0575712 -0.0465389,-0.103159 -0.104617,-0.103159 -0.0578249,0 -0.104364,0.0476167 -0.104364,0.105442 0,0.0578249 0.0465389,0.104554 0.104364,0.104554 0.0580785,0 0.104617,-0.0467291 0.104617,-0.104554zm0 0.43432l0 -0.00209235c0,-0.0580151 -0.0465389,-0.103539 -0.104617,-0.103539 -0.0578249,0 -0.104364,0.047807 -0.104364,0.105632 0,0.0577615 0.0465389,0.104554 0.104364,0.104554 0.0580785,0 0.104617,-0.0467925 0.104617,-0.104554zm0 -0.868895l0 -0.00101447c0,-0.0577615 -0.0465389,-0.10392 -0.104617,-0.10392 -0.0578249,0 -0.104364,0.0471729 -0.104364,0.104934 0,0.0578249 0.0465389,0.104427 0.104364,0.104427 0.0580785,0 0.104617,-0.0466023 0.104617,-0.104427zm0.918667 -0.250257l-2.04632 0c0,-0.346442 0.280818,-0.627133 0.627133,-0.627133l0.17544 0 0 -0.780382 0.440915 0 0 0.780382 0.175694 0c0.346252,0 0.627133,0.280691 0.627133,0.627133z"/>
 </g>
</svg>
