<?xml version="1.0" encoding="UTF-8"?>
<!DOCTYPE svg PUBLIC "-//W3C//DTD SVG 1.1//EN" "http://www.w3.org/Graphics/SVG/1.1/DTD/svg11.dtd">
<!-- Creator: CorelDRAW -->
<svg xmlns="http://www.w3.org/2000/svg" xml:space="preserve" width="8.4001mm" height="8.4mm" style="shape-rendering:geometricPrecision; text-rendering:geometricPrecision; image-rendering:optimizeQuality; fill-rule:evenodd; clip-rule:evenodd"
viewBox="0 0 5.22455 5.22448"
 xmlns:xlink="http://www.w3.org/1999/xlink">
 <defs>
  <style type="text/css">
   <![CDATA[
    .fil0 {fill:#00923F}
    .fil1 {fill:white;fill-rule:nonzero}
   ]]>
  </style>
 </defs>
 <g id="okviri">
  <metadata id="CorelCorpID_0Corel-Layer"/>
  <polygon class="fil0" points="0,0 5.22455,0 5.22455,5.22448 0,5.22448 "/>
 </g>
 <g id="piktogrami">
  <metadata id="CorelCorpID_1Corel-Layer"/>
  <path class="fil1" d="M0.685838 4.79601l1.52375 0 0 -0.406079 -1.52375 0 0 0.406079zm2.3476 0l1.52368 0 0 -0.406079 -1.52368 0 0 0.406079z"/>
  <path class="fil1" d="M4.46078 1.16848l-1.84598 -0.91783 -0.000808551 -0.00192808 -0.0016793 0.000684159 -0.00174149 -0.000684159 -0.000746355 0.00192808 -1.84605 0.91783 0.153874 0.309551 1.69466 -0.842386 1.69472 0.842386 0.153749 -0.309551zm-2.32881 1.65243c-0.033275,0.0658036 -0.181986,0.412672 -0.181986,0.462429 0,0.271922 0.363537,0.271922 0.363537,0 0,-0.049757 -0.148462,-0.413418 -0.181551,-0.462429zm-0.214888 -0.153687l0 -0.209726c0,-0.133411 0.120785,-0.248101 0.280816,-0.248101l0.373675 0 0.00199028 -0.11612c0,-0.0340835 0.0273042,-0.0609523 0.0610145,-0.0609523l0.146099 0 0 -0.0750087c-0.0125636,-0.00777453 -0.023137,-0.0168552 -0.0320311,-0.0287347l-0.311292 0c-0.0206492,0.0271176 -0.0517473,0.0453411 -0.0876967,0.0453411 -0.0621962,0 -0.1127,-0.050379 -0.1127,-0.1127 0,-0.0612633 0.0505033,-0.112078 0.1127,-0.112078 0.0373177,0 0.0685403,0.019343 0.0889406,0.0475801l0.308742 0c0.0204004,-0.0282371 0.0516851,-0.0475801 0.089065,-0.0475801 0.0373177,0 0.0687268,0.019343 0.089376,0.0475801l0.340524 0c0.0202138,-0.0282371 0.0519961,-0.0475801 0.0888162,-0.0475801 0.0622584,0 0.112824,0.0508143 0.112824,0.112078 0,0.0623206 -0.0505655,0.1127 -0.112824,0.1127 -0.0360738,0 -0.066861,-0.0182235 -0.0875101,-0.0453411l-0.34351 0c-0.00876967,0.0120661 -0.0197162,0.0213333 -0.032342,0.0289213l0 0.0748221 0.15518 0c0.0335238,0 0.0608279,0.0268688 0.0608279,0.0609523l0 0.11612 0.454033 0 0 0.36335 -0.504971 0c-0.0496326,0.099514 -0.115561,0.148773 -0.215199,0.148773 -0.0987676,0 -0.18124,-0.0492594 -0.231059,-0.148773l-0.18124 0c-0.0544839,0 -0.0745733,0.0350165 -0.0802953,0.102064 0.0157978,0.0105734 0.0269932,0.0280505 0.0269932,0.0490728 0,0.0338348 -0.0273663,0.0604547 -0.0610145,0.0604547l-0.377096 0c-0.0337726,0 -0.0608279,-0.02662 -0.0608279,-0.0604547 0,-0.0263712 0.0167308,-0.0481399 0.0399922,-0.0566608zm0.555599 1.33598l-0.681795 0 -0.137889 -0.774094c0.0603926,-0.00702818 0.112762,-0.0354519 0.14187,-0.0771233 0.033586,0.0477667 0.0965286,0.0800466 0.168427,0.0800466 0.0720854,0 0.13509,-0.0322798 0.168365,-0.0800466 0.0337726,0.0477667 0.0967152,0.0800466 0.168552,0.0800466 0.0719611,0 0.13509,-0.0322798 0.168427,-0.0800466 0.0291078,0.0416715 0.0814771,0.0702196 0.14187,0.0771233l-0.137827 0.774094zm0.190818 -1.07089l-0.0457764 0.255875c-0.069411,-0.00789892 -0.123397,-0.056412 -0.123397,-0.115561 0,-0.0116307 -0.0113197,-0.0211467 -0.025687,-0.0211467 -0.0141185,0 -0.0258114,0.00951602 -0.0258114,0.0211467 0,0.0646219 -0.0639377,0.117116 -0.142616,0.117116 -0.0787404,0 -0.14274,-0.0524936 -0.14274,-0.117116 0,-0.0116307 -0.0114441,-0.0211467 -0.0258114,-0.0211467 -0.013932,0 -0.0257492,0.00951602 -0.0257492,0.0211467 0,0.0646219 -0.0639377,0.117116 -0.142616,0.117116 -0.0786782,0 -0.142616,-0.0524936 -0.142616,-0.117116 0,-0.0116307 -0.0115063,-0.0211467 -0.0258114,-0.0211467 -0.0141185,0 -0.025687,0.00951602 -0.025687,0.0211467 0,0.0591486 -0.0540485,0.107662 -0.123397,0.115436l-0.0457764 -0.255751 -0.139009 0 0.210907 1.18415 0.919696 0 0.210907 -1.18415 -0.139009 0z"/>
 </g>
</svg>
