<?xml version="1.0" encoding="UTF-8"?>
<!DOCTYPE svg PUBLIC "-//W3C//DTD SVG 1.1//EN" "http://www.w3.org/Graphics/SVG/1.1/DTD/svg11.dtd">
<!-- Creator: CorelDRAW -->
<svg xmlns="http://www.w3.org/2000/svg" xml:space="preserve" width="8.4mm" height="8.4mm" style="shape-rendering:geometricPrecision; text-rendering:geometricPrecision; image-rendering:optimizeQuality; fill-rule:evenodd; clip-rule:evenodd"
viewBox="0 0 0.453338 0.453338"
 xmlns:xlink="http://www.w3.org/1999/xlink">
 <defs>
  <style type="text/css">
   <![CDATA[
    .fil1 {fill:white}
    .fil0 {fill:#00923F}
   ]]>
  </style>
 </defs>
 <g id="okviri">
  <metadata id="CorelCorpID_0Corel-Layer"/>
  <polygon class="fil0" points="0,0 0.453338,0 0.453338,0.453338 0,0.453338 "/>
 </g>
 <g id="piktogrami">
  <metadata id="CorelCorpID_1Corel-Layer"/>
  <path class="fil1" d="M0.226674 0.15985c0.0627333,0 0.113599,0.0508763 0.113599,0.113599 0,0.0627333 -0.0508656,0.11361 -0.113599,0.11361 -0.0627387,0 -0.113604,-0.0508763 -0.113604,-0.11361 0,-0.0627225 0.0508656,-0.113599 0.113604,-0.113599zm-0.0681625 0.0908834l0.0454417 0 0 -0.0454417 0.0454363 0 0 0.0454417 0.0454417 0 0 0.0454417 -0.0454417 0 0 0.0454417 -0.0454363 0 0 -0.0454417 -0.0454417 0 0 -0.0454417zm0.228552 -0.104651l-0.160179 -0.0796417 -6.47625e-005 -0.000167303 -0.000145716 5.93656e-005 -0.000151113 -5.93656e-005 -7.01594e-005 0.000167303 -0.160179 0.0796417 0.0133465 0.0268603 0.147054 -0.0731007 0.147049 0.0731007 0.0133411 -0.0268603z"/>
 </g>
</svg>
