<?xml version="1.0" encoding="UTF-8"?>
<!DOCTYPE svg PUBLIC "-//W3C//DTD SVG 1.1//EN" "http://www.w3.org/Graphics/SVG/1.1/DTD/svg11.dtd">
<!-- Creator: CorelDRAW -->
<svg xmlns="http://www.w3.org/2000/svg" xml:space="preserve" width="8.5001mm" height="8.5mm" style="shape-rendering:geometricPrecision; text-rendering:geometricPrecision; image-rendering:optimizeQuality; fill-rule:evenodd; clip-rule:evenodd"
viewBox="0 0 3.06749 3.06746"
 xmlns:xlink="http://www.w3.org/1999/xlink">
 <defs>
  <style type="text/css">
   <![CDATA[
    .fil0 {fill:#00923F}
    .fil1 {fill:white;fill-rule:nonzero}
   ]]>
  </style>
 </defs>
 <g id="okviri">
  <metadata id="CorelCorpID_0Corel-Layer"/>
  <polygon class="fil0" points="0,0 3.06749,0 3.06749,3.06746 0,3.06746 "/>
 </g>
 <g id="piktogrami">
  <metadata id="CorelCorpID_1Corel-Layer"/>
  <polygon class="fil1" points="0.455355,2.84815 2.4911,2.84815 2.58677,2.84815 2.64418,2.84815 2.64418,2.80394 2.64418,2.61253 2.33809,2.61253 0.455355,2.61253 0.397939,2.61253 0.397939,2.65671 0.397939,2.80394 0.397939,2.84815 "/>
  <path class="fil1" d="M2.60629 0.74698l-1.07112 -0.532546 -0.000433053 -0.00111872 -0.000974368 0.000396965 -0.00101046 -0.000396965 -0.000433053 0.00111872 -1.07112 0.532546 0.0892449 0.179609 0.983318 -0.488772 0.983282 0.488772 0.0892449 -0.179609zm-0.995047 0.856975c-0.0183326,0.0362321 -0.100288,0.227461 -0.100288,0.254851 0,0.149908 0.200359,0.149908 0.200359,0 0,-0.0273906 -0.0818108,-0.227858 -0.100071,-0.254851zm-0.11844 -0.084734l0 -0.115589c0,-0.0735828 0.0665818,-0.136772 0.154816,-0.136772l0.205953 0 0.00111872 -0.0640196c0,-0.0188017 0.0150486,-0.0335977 0.0335977,-0.0335977l0.0805117 0 0 -0.0413204c-0.00689275,-0.00429444 -0.012739,-0.00931063 -0.0176108,-0.0158786l-0.171597 0c-0.0114037,0.0149764 -0.0285093,0.0250088 -0.0483575,0.0250088 -0.0342472,0 -0.062107,-0.0277515 -0.062107,-0.062107 0,-0.0337781 0.0278597,-0.0617822 0.062107,-0.0617822 0.02057,0 0.0377838,0.010682 0.0490432,0.0262358l0.17019 0c0.0112594,-0.0155538 0.0284732,-0.0262358 0.0490793,-0.0262358 0.02057,0 0.037856,0.010682 0.0492597,0.0262358l0.187692 0c0.0111511,-0.0155538 0.0286897,-0.0262358 0.048971,-0.0262358 0.0343194,0 0.0621791,0.0280041 0.0621791,0.0617822 0,0.0343555 -0.0278597,0.062107 -0.0621791,0.062107 -0.0198843,0 -0.0368816,-0.0100324 -0.0482493,-0.0250088l-0.189352 0c-0.00479967,0.00667623 -0.0108624,0.0118007 -0.0178273,0.0159869l0 0.0412122 0.085564 0c0.0184408,0 0.0334894,0.014796 0.0334894,0.0335977l0 0.0640196 0.250304 0 0 0.200287 -0.278345 0c-0.0273545,0.0548533 -0.0637309,0.0819913 -0.11862,0.0819913 -0.0544564,0 -0.0999269,-0.027138 -0.127354,-0.0819913l-0.0999269 0c-0.030025,0 -0.0411039,0.0193069 -0.0442796,0.0562607 0.00873323,0.00581012 0.0149042,0.0154455 0.0149042,0.0270658 0,0.0186213 -0.0150847,0.0332729 -0.0336337,0.0332729l-0.207865 0c-0.0186213,0 -0.0334894,-0.0146516 -0.0334894,-0.0332729 0,-0.0145433 0.00920237,-0.0265606 0.0220135,-0.031252zm-0.0309272 0.578955c0.00285093,0.0143268 0.0026344,0.0293032 -0.00162395,0.0437383 -0.00360877,0.0135329 -0.0107902,0.0261275 -0.0207504,0.0365929 -0.0335977,0.0339946 -0.0884871,0.0348246 -0.122915,0.00173221l-0.17037 -0.166148 -0.0219413 0.0223022 0.170587 0.166256c0.046481,0.0452179 0.121291,0.0440631 0.167014,-0.0023457 0.0157703,-0.0161673 0.0245757,-0.0363403 0.0293754,-0.0575599l0.356655 0c0.0483575,0 0.0877653,0.0392273 0.0877653,0.0874766 0,0.0486462 -0.0394078,0.0878375 -0.0877653,0.0878375l-0.617894 0c-0.0201009,0 -0.0385056,-0.00790321 -0.0536985,-0.0201009l-0.402089 -0.3044 -0.21898 0 0 -0.298229 0.00184047 0 0 -0.00288702 0.507141 0 0.373363 0.363728c0.0118729,0.0113676 0.020173,0.0258388 0.024287,0.0420061z"/>
 </g>
</svg>
