<?xml version="1.0" encoding="UTF-8"?>
<!DOCTYPE svg PUBLIC "-//W3C//DTD SVG 1.1//EN" "http://www.w3.org/Graphics/SVG/1.1/DTD/svg11.dtd">
<!-- Creator: CorelDRAW -->
<svg xmlns="http://www.w3.org/2000/svg" xml:space="preserve" width="8.5mm" height="8.5mm" style="shape-rendering:geometricPrecision; text-rendering:geometricPrecision; image-rendering:optimizeQuality; fill-rule:evenodd; clip-rule:evenodd"
viewBox="0 0 3.11294 3.11294"
 xmlns:xlink="http://www.w3.org/1999/xlink">
 <defs>
  <style type="text/css">
   <![CDATA[
    .fil0 {fill:#00923F}
    .fil1 {fill:white;fill-rule:nonzero}
   ]]>
  </style>
 </defs>
 <g id="okviri">
  <metadata id="CorelCorpID_0Corel-Layer"/>
  <polygon class="fil0" points="0,0 3.11294,0 3.11294,3.11294 0,3.11294 "/>
 </g>
 <g id="piktogrami">
  <metadata id="CorelCorpID_1Corel-Layer"/>
  <polygon class="fil1" points="0.46207,2.89042 2.528,2.89042 2.62508,2.89042 2.68335,2.89042 2.68335,2.84555 2.68335,2.65131 2.37272,2.65131 0.46207,2.65131 0.403803,2.65131 0.403803,2.69613 0.403803,2.84555 0.403803,2.89042 "/>
  <polygon class="fil1" points="0.714181,2.34356 2.32313,2.34356 2.39872,2.34356 2.44409,2.34356 2.44409,2.29819 2.44409,2.10163 2.20216,2.1016 0.714181,2.1016 0.668805,2.1016 0.668805,2.14697 0.668805,2.29819 0.668805,2.34356 "/>
  <path class="fil1" d="M0.88693 1.41558c0.0789221,0 0.142902,0.06398 0.142902,0.142902 0,0.0788855 -0.06398,0.142865 -0.142902,0.142865 -0.0788855,0 -0.142865,-0.06398 -0.142865,-0.142865 0,-0.0789221 0.06398,-0.142902 0.142865,-0.142902z"/>
  <path class="fil1" d="M1.12436 1.79635c-0.0243908,0 -0.0888102,-0.000256359 -0.154988,0 -0.126239,0.000512719 -0.210398,-0.0209482 -0.198532,0.102727 0.00377215,0.0245373 0.0371721,0.0482322 0.0617826,0.0480125 0.0494407,-0.000476096 0.101299,-0.000476096 0.151545,-0.000476096 0.0517114,-3.66228e-005 0.203147,0 0.244054,0 0.0749668,-0.0215342 0.0499168,-0.0792883 0.0543482,-0.167256 -0.000109868,-0.0505028 0,-0.167622 -0.00065921,-0.230247 -0.000183114,-0.0150153 -0.00714144,-0.0273206 -0.0131842,-0.0365129 -0.0392596,-0.0599881 -0.131256,-0.0407245 -0.144367,0.0380144 0,0.0691438 0,0.167732 0,0.245739z"/>
  <path class="fil1" d="M1.37694 1.94709l0.991891 0.00190438 -0.000109868 -0.34517c-0.0187142,-0.136456 -0.240355,-0.114117 -0.431929,-0.114117 -0.1863,0 -0.373406,-0.00172127 -0.559596,0.000366228l-0.000256359 0.457016z"/>
  <polygon class="fil1" points="2.6449,0.827162 1.55793,0.286756 1.55746,0.285584 1.5565,0.286024 1.55544,0.285584 1.555,0.286756 0.468002,0.827162 0.558607,1.00947 1.5565,0.513415 2.55437,1.00947 "/>
 </g>
</svg>
