<?xml version="1.0" encoding="UTF-8"?>
<!DOCTYPE svg PUBLIC "-//W3C//DTD SVG 1.1//EN" "http://www.w3.org/Graphics/SVG/1.1/DTD/svg11.dtd">
<!-- Creator: CorelDRAW -->
<svg xmlns="http://www.w3.org/2000/svg" xml:space="preserve" width="8.5mm" height="8.5mm" style="shape-rendering:geometricPrecision; text-rendering:geometricPrecision; image-rendering:optimizeQuality; fill-rule:evenodd; clip-rule:evenodd"
viewBox="0 0 3.06745 3.06745"
 xmlns:xlink="http://www.w3.org/1999/xlink">
 <defs>
  <style type="text/css">
   <![CDATA[
    .fil0 {fill:#00923F}
    .fil1 {fill:white;fill-rule:nonzero}
   ]]>
  </style>
 </defs>
 <g id="okviri">
  <metadata id="CorelCorpID_0Corel-Layer"/>
  <polygon class="fil0" points="0,0 3.06745,0 3.06745,3.06745 0,3.06745 "/>
 </g>
 <g id="piktogrami">
  <metadata id="CorelCorpID_1Corel-Layer"/>
  <polygon class="fil1" points="0.455317,2.84814 2.49105,2.84814 2.58672,2.84814 2.64414,2.84814 2.64414,2.80393 2.64414,2.61253 2.33804,2.61253 0.455317,2.61253 0.397902,2.61253 0.397902,2.6567 0.397902,2.80393 0.397902,2.84814 "/>
  <path class="fil1" d="M2.61812 0.680901l-1.07112 -0.532545 -0.000433051 -0.00111872 -0.000974365 0.000396964 -0.00101045 -0.000396964 -0.000433051 0.00111872 -1.07112 0.532545 0.0892446 0.179608 0.983315 -0.48877 0.983315 0.48877 0.0892085 -0.179608zm-1.24062 0.889667l0.000360876 -0.00122698c0.00649577,-0.032118 -0.0145072,-0.0629368 -0.0468417,-0.0691799 -0.0317571,-0.00678447 -0.0636224,0.0149764 -0.0701182,0.0472026 -0.00653185,0.0321901 0.014399,0.0635863 0.0467334,0.0698656 0.00382529,0.000830015 0.00779492,0.0011548 0.0117285,0.0011548 0.0276792,0 0.0524353,-0.0195234 0.0581371,-0.0478161zm-0.0365928 0.236302l0.000216526 -0.0011548c0.0063875,-0.0322262 -0.0145433,-0.063045 -0.0468778,-0.0693243 -0.0315045,-0.00707317 -0.0635503,0.0150124 -0.0699738,0.0472026 -0.00653185,0.0322262 0.014399,0.0636224 0.0466252,0.0700099 0.00386137,0.000685664 0.00779492,0.00104654 0.0118728,0.00104654 0.0276792,0 0.0524353,-0.0194151 0.0581371,-0.04778zm-0.0359432 0.230672l0.000108263 -0.0011548c0.00339223,-0.0326954 -0.0205699,-0.0612767 -0.0533736,-0.0645246 -0.032551,-0.00386137 -0.0617098,0.0211473 -0.065102,0.0537344 -0.00324788,0.0326593 0.0205699,0.0618181 0.0532292,0.0652103 0.00198482,0.000252613 0.00418616,0.000324788 0.00606272,0.000324788 0.0300971,0 0.056044,-0.0229878 0.0590754,-0.0535901zm-0.0376754 0.241859l0.000324788 -0.00119089c0.00642359,-0.0321901 -0.0145072,-0.0630089 -0.04695,-0.0693964 -0.0319736,-0.00649577 -0.0634781,0.0149764 -0.0700099,0.0473108 -0.00649577,0.0322262 0.014435,0.0634781 0.0467695,0.0699017 0.00368093,0.000938277 0.00779492,0.00126307 0.0117285,0.00126307 0.0276792,0 0.0524353,-0.0195234 0.0581371,-0.0478882zm-0.0968591 -0.698331l0.000469139 -0.0011548c0.0122337,-0.0306023 -0.00277874,-0.0645246 -0.0332728,-0.0767583 -0.0299888,-0.012342 -0.0653185,0.00313962 -0.0775522,0.0337058 -0.0121976,0.030494 0.00256222,0.0651381 0.0331645,0.0772275 0.00707317,0.00288701 0.0147598,0.00429442 0.0219413,0.00429442 0.0236374,0 0.0459395,-0.0141824 0.0552501,-0.0373146zm-0.0803671 0.219629l0.000360876 -0.00126307c0.00952713,-0.0315406 -0.00858885,-0.0639472 -0.0399851,-0.0733661 -0.0319736,-0.00999626 -0.0648855,0.00880537 -0.07416,0.0404542 -0.00945495,0.0313962 0.00837232,0.0645246 0.0398768,0.0739435 0.00570184,0.0017322 0.0114037,0.00256222 0.0170694,0.00256222 0.0255861,0 0.0492957,-0.0166364 0.056838,-0.0423307zm-0.0837954 0.229409l0.000469139 -0.0011548c0.0121615,-0.0303497 -0.00281483,-0.0644524 -0.033381,-0.0766501 -0.0301331,-0.0121615 -0.0652464,0.00313962 -0.0775522,0.0337419 -0.0120893,0.0304579 0.00267048,0.0651381 0.0332367,0.0772275 0.00710926,0.00299527 0.0147959,0.00425834 0.0219773,0.00425834 0.0236013,0 0.0460478,-0.0141463 0.0552501,-0.0374228zm-0.0820993 0.224645l0.000360876 -0.0011548c0.0123059,-0.030494 -0.00267048,-0.0645246 -0.033381,-0.076614 -0.0300249,-0.012342 -0.0652464,0.00299527 -0.077444,0.0335615 -0.0120893,0.030494 0.00256222,0.0649938 0.0332728,0.0773357 0.00707317,0.00281483 0.0146155,0.00433051 0.0219773,0.00433051 0.0236013,0 0.0459034,-0.0142185 0.055214,-0.0374589zm0.859282 -0.637523c0.0324067,-0.00627924 0.0532292,-0.0376754 0.0468417,-0.0698656l-0.000252613 -0.0011548c-0.00649577,-0.0322623 -0.0383611,-0.0528322 -0.0698656,-0.0460478 -0.0323345,0.00624315 -0.0531209,0.0382168 -0.0465169,0.0704069 0.00559358,0.0282927 0.0303497,0.0478161 0.0581371,0.0478161 0.00396964,0 0.00793927,-0.000324788 0.0116563,-0.0011548zm0.0368454 0.236374c0.0321901,-0.0063875 0.0531209,-0.0377837 0.0466252,-0.0700099l-0.000252613 -0.0011548c-0.0063875,-0.0321901 -0.0377837,-0.0525796 -0.0698656,-0.0460478 -0.0322262,0.00627924 -0.0530127,0.0382889 -0.0465169,0.0704791 0.00570184,0.0283648 0.0304579,0.04778 0.0581371,0.04778 0.00396964,0 0.00790318,-0.000360876 0.0118728,-0.00104654zm0.0309271 0.237204c0.0326954,-0.00339223 0.0566214,-0.032551 0.0532292,-0.0652103l-0.000108263 -0.00119089c-0.00313962,-0.032551 -0.0321901,-0.0564049 -0.0648855,-0.0525435 -0.0328758,0.00324788 -0.0567297,0.0329119 -0.0532653,0.0656794 0.00306745,0.0306023 0.0289783,0.0535901 0.0589671,0.0535901 0.00198482,0 0.00418616,-7.21752e-005 0.00606272,-0.000324788zm0.042439 0.235219c0.0324427,-0.00642359 0.0532653,-0.0376754 0.0468778,-0.0699017l-0.000252613 -0.0011548c-0.00653185,-0.0322984 -0.0380363,-0.0527962 -0.0699017,-0.046156 -0.0322984,0.0063875 -0.0531209,0.0383972 -0.0465169,0.0705873 0.00570184,0.0283648 0.030494,0.0478882 0.0581371,0.0478882 0.00396964,0 0.00793927,-0.000324788 0.0116563,-0.00126307zm0.104293 -0.711936c0.0305662,-0.0120893 0.045326,-0.0467334 0.0331284,-0.0772275l-0.000433051 -0.0011548c-0.0121254,-0.0304579 -0.0466613,-0.0451095 -0.0771192,-0.032551 -0.0305662,0.0122337 -0.0451095,0.0474552 -0.0327675,0.0779131 0.00927451,0.0231321 0.0315045,0.0373146 0.0551058,0.0373146 0.00728969,0 0.0149042,-0.00140742 0.0220856,-0.00429442zm0.0770831 0.226377c0.0315045,-0.00941886 0.0492957,-0.0425473 0.0398768,-0.0739435l-0.000324788 -0.00119089c-0.00941886,-0.0315045 -0.0422225,-0.0487183 -0.0739796,-0.0392633 -0.0312519,0.00941886 -0.0491513,0.0429803 -0.0396242,0.0746291 0.00765057,0.0256944 0.0313962,0.0423307 0.0569823,0.0423307 0.00555749,0 0.0112593,-0.000830015 0.0170694,-0.00256222zm0.0871155 0.222805c0.0305301,-0.0120893 0.045326,-0.0467695 0.0331284,-0.0772275l-0.000469139 -0.0011548c-0.0122337,-0.0306023 -0.0467334,-0.0452178 -0.0770831,-0.0325871 -0.0304579,0.0121976 -0.0450012,0.0473469 -0.0328036,0.0778049 0.00920234,0.0232765 0.0315045,0.0374228 0.0552501,0.0374228 0.00721752,0 0.0148681,-0.00126307 0.0219773,-0.00425834zm0.0820632 0.224609c0.0307105,-0.012342 0.0453621,-0.0468417 0.0331645,-0.0773357l-0.000505226 -0.0011548c-0.011945,-0.0305662 -0.0465169,-0.0451095 -0.0769748,-0.0324067 -0.0305662,0.0120893 -0.0449651,0.0473108 -0.0328758,0.0777688 0.0093106,0.0232404 0.0316127,0.0374589 0.055214,0.0374589 0.00721752,0 0.0149042,-0.00151568 0.0219773,-0.00433051zm-0.639147 0.0116202l0 -0.000577402c0,-0.0330201 -0.0264883,-0.0592919 -0.0595445,-0.0592919 -0.0329119,0 -0.0594002,0.0269935 -0.0594002,0.0598693 0,0.0329119 0.0264883,0.0594363 0.0594002,0.0594363 0.0330562,0 0.0595445,-0.0265244 0.0595445,-0.0594363zm0 -0.493787l0 -0.00129915c0,-0.0327675 -0.0264883,-0.0587145 -0.0595445,-0.0587145 -0.0329119,0 -0.0594002,0.0271018 -0.0594002,0.0600137 0,0.0329119 0.0264883,0.0595084 0.0594002,0.0595084 0.0330562,0 0.0595445,-0.0265966 0.0595445,-0.0595084zm0 0.2472l0 -0.00119089c0,-0.0330201 -0.0264883,-0.058931 -0.0595445,-0.058931 -0.0329119,0 -0.0594002,0.02721 -0.0594002,0.0601219 0,0.0328758 0.0264883,0.0595084 0.0594002,0.0595084 0.0330562,0 0.0595445,-0.0266326 0.0595445,-0.0595084zm0 -0.494544l0 -0.000577402c0,-0.0328758 -0.0264883,-0.0591476 -0.0595445,-0.0591476 -0.0329119,0 -0.0594002,0.0268492 -0.0594002,0.059725 0,0.0329119 0.0264883,0.0594363 0.0594002,0.0594363 0.0330562,0 0.0595445,-0.0265244 0.0595445,-0.0594363zm0.522873 -0.142438l-1.16469 0c0,-0.197183 0.159832,-0.356942 0.356942,-0.356942l0.0998544 0 0 -0.444166 0.250953 0 0 0.444166 0.0999987 0c0.197074,0 0.356942,0.15976 0.356942,0.356942z"/>
 </g>
</svg>
