<?xml version="1.0" encoding="UTF-8"?>
<!DOCTYPE svg PUBLIC "-//W3C//DTD SVG 1.1//EN" "http://www.w3.org/Graphics/SVG/1.1/DTD/svg11.dtd">
<!-- Creator: CorelDRAW -->
<svg xmlns="http://www.w3.org/2000/svg" xml:space="preserve" width="8.4mm" height="8.4mm" style="shape-rendering:geometricPrecision; text-rendering:geometricPrecision; image-rendering:optimizeQuality; fill-rule:evenodd; clip-rule:evenodd"
viewBox="0 0 0.451668 0.451668"
 xmlns:xlink="http://www.w3.org/1999/xlink">
 <defs>
  <style type="text/css">
   <![CDATA[
    .fil1 {fill:white}
    .fil0 {fill:#00923F}
    .fil2 {fill:white;fill-rule:nonzero}
   ]]>
  </style>
 </defs>
 <g id="okviri">
  <metadata id="CorelCorpID_0Corel-Layer"/>
  <polygon class="fil0" points="0,0 0.451668,0 0.451668,0.451668 0,0.451668 "/>
 </g>
 <g id="piktogrami">
  <metadata id="CorelCorpID_1Corel-Layer"/>
  <g id="_92721104">
   <path id="_92721272" class="fil1" d="M0.326583 0.184985c0.00112379,-0.00439301 0.00491996,-0.00762997 0.00942589,-0.00762997 0.00539851,0 0.00977539,0.00463498 0.00977539,0.0103561l0 0.193153c0,0.00602225 -0.00437688,0.0109046 -0.00977539,0.0109046 -0.00539851,0 -0.00977539,-0.00488232 -0.00977539,-0.0109046l0.000155933 -0.0904305 -0.00136576 -0.000236588 -0.00118294 -0.000435537 -0.0010055 -0.000634487 -0.000666749 -0.000747404 -0.000365636 -0.000967861 -3.7639e-005 -0.00108615 0 -0.0528882 0 -0.0117165 0 -0.00644703 7.52781e-005 -0.00555982 0.00021508 -0.00351656 0.000387144 -0.00393059 0.000371013 -0.00280142 0.000881829 -0.00494147 0.000699011 -0.00300037 0.00123133 -0.00409728 0.000957107 -0.00244116z"/>
   <path id="_92721224" class="fil1" d="M0.145604 0.23733l0.00497373 0 0 0 0 -0.055738c0,-0.00310791 0.00194648,-0.00562435 0.00435,-0.00562435 0.00239814,0 0.00435,0.00251644 0.00435,0.00562435l0 0.055738 2.1508e-005 5.377e-006 0 0.000688257c0,0.0163031 -0.00700086,0.0248525 -0.0156202,0.0306436l-0.000414029 -5.377e-006 0 0.112202c0,0.00602225 -0.00400587,0.0109046 -0.00893658,0.0109046 -0.00493609,0 -0.00893658,-0.00488232 -0.00893658,-0.0109046l0 -0.112197 -0.000182818 0c-0.00861396,-0.00579103 -0.0156202,-0.0143405 -0.0156202,-0.0306436l0 -0.000688257 0 0 0 -0.0557595c0,-0.00305952 0.00191959,-0.00560822 0.00429085,-0.00560822 0.00245729,0 0.00437688,0.0025487 0.00437688,0.00560822l0 0.0557595 0 0 0.00497373 -5.377e-006 0 0 0 -0.055738c0,-0.00310791 0.00195185,-0.00562435 0.00435,-0.00562435 0.00240352,0 0.00435,0.00251644 0.00435,0.00562435l0 0.055738 0 0 0.00497373 0 0 0 0 -0.055738c0,-0.00310791 0.00194648,-0.00562435 0.00435,-0.00562435 0.00240352,0 0.00435,0.00251644 0.00435,0.00562435l0 0.055738 0 0z"/>
   <path id="_92721176" class="fil1" d="M0.235873 0.229679c0.042973,0 0.0778106,0.034429 0.0778106,0.0768697 0,0.0424461 -0.0348376,0.076875 -0.0778106,0.076875 -0.042973,0 -0.077816,-0.034429 -0.077816,-0.076875 0,-0.0424407 0.034843,-0.0768697 0.077816,-0.0768697zm0 0.0146039c0.0348107,0 0.0630346,0.0278851 0.0630346,0.0622657 0,0.0343806 -0.0282239,0.0622711 -0.0630346,0.0622711 -0.0348054,0 -0.0630293,-0.0278905 -0.0630293,-0.0622711 0,-0.0343806 0.0282239,-0.0622657 0.0630293,-0.0622657zm5.377e-006 0.0118294c0.028197,0 0.0510547,0.0225888 0.0510547,0.0504363 0,0.0278529 -0.0228576,0.0504363 -0.0510547,0.0504363 -0.0281916,0 -0.0510547,-0.0225834 -0.0510547,-0.0504363 0,-0.0278475 0.022863,-0.0504363 0.0510547,-0.0504363z"/>
   <polygon id="_92721128" class="fil2" points="0.385639,0.139415 0.226044,0.0600665 0.225979,0.0598998 0.225834,0.059959 0.225684,0.0598998 0.225619,0.0600665 0.0660242,0.139415 0.079327,0.166176 0.225834,0.0933502 0.372347,0.166176 "/>
  </g>
 </g>
</svg>
