<?xml version="1.0" encoding="UTF-8"?>
<!DOCTYPE svg PUBLIC "-//W3C//DTD SVG 1.1//EN" "http://www.w3.org/Graphics/SVG/1.1/DTD/svg11.dtd">
<!-- Creator: CorelDRAW -->
<svg xmlns="http://www.w3.org/2000/svg" xml:space="preserve" width="8.5mm" height="8.5mm" style="shape-rendering:geometricPrecision; text-rendering:geometricPrecision; image-rendering:optimizeQuality; fill-rule:evenodd; clip-rule:evenodd"
viewBox="0 0 1.44438 1.44438"
 xmlns:xlink="http://www.w3.org/1999/xlink">
 <defs>
  <style type="text/css">
   <![CDATA[
    .fil0 {fill:#00923F}
    .fil1 {fill:white;fill-rule:nonzero}
   ]]>
  </style>
 </defs>
 <g id="okviri">
  <metadata id="CorelCorpID_0Corel-Layer"/>
  <polygon class="fil0" points="0,0 1.44438,0 1.44438,1.44438 0,1.44438 "/>
 </g>
 <g id="piktogrami">
  <metadata id="CorelCorpID_1Corel-Layer"/>
  <polygon class="fil1" points="1.34767,1.29085 1.12673,1.39586 1.11171,1.403 1.11798,1.38759 1.14045,1.33234 0.680624,1.33234 0.680624,1.23888 1.14073,1.23888 1.11802,1.18367 1.11169,1.16831 1.12672,1.17538 1.34765,1.27916 1.36002,1.28497 "/>
  <polygon class="fil1" points="0.331391,1.08739 1.07793,1.08739 1.113,1.08739 1.13406,1.08739 1.13406,1.06634 1.13406,0.975141 1.0218,0.975124 0.331391,0.975124 0.310337,0.975124 0.310337,0.996178 0.310337,1.06634 0.310337,1.08739 "/>
  <path class="fil1" d="M0.411545 0.656817c0.0366192,0 0.0663054,0.0296862 0.0663054,0.0663054 0,0.0366022 -0.0296862,0.0662884 -0.0663054,0.0662884 -0.0366022,0 -0.0662884,-0.0296862 -0.0662884,-0.0662884 0,-0.0366192 0.0296862,-0.0663054 0.0662884,-0.0663054z"/>
  <path class="fil1" d="M0.521709 0.83349c-0.0113171,0 -0.0412072,-0.000118949 -0.0719129,0 -0.0585737,0.000237897 -0.0976228,-0.0097198 -0.0921172,0.0476644 0.00175024,0.0113851 0.0172475,0.0223793 0.0286666,0.0222774 0.0229401,-0.000220905 0.0470017,-0.000220905 0.0703156,-0.000220905 0.0239936,-1.69927e-005 0.0942583,0 0.113239,0 0.034784,-0.00999168 0.023161,-0.0367891 0.0252171,-0.0776055 -5.0978e-005,-0.0234329 0,-0.0777754 -0.000305868,-0.106833 -8.49633e-005,-0.00696699 -0.00331357,-0.0126765 -0.00611736,-0.0169417 -0.0182161,-0.027834 -0.0609017,-0.0188958 -0.0669851,0.0176384 0,0.0320821 0,0.0778264 0,0.114021z"/>
  <path class="fil1" d="M0.638907 0.903432l0.460229 0.000883618 -5.0978e-005 -0.160156c-0.00868325,-0.0633146 -0.111523,-0.0529491 -0.200411,-0.0529491 -0.0864417,0 -0.173257,-0.000798655 -0.259648,0.000169927l-0.000118949 0.212051z"/>
  <polygon class="fil1" points="1.22723,0.383796 0.722885,0.133053 0.722664,0.132509 0.722222,0.132713 0.721729,0.132509 0.721525,0.133053 0.217166,0.383796 0.259206,0.468386 0.722222,0.23822 1.18522,0.468386 "/>
 </g>
</svg>
