<?xml version="1.0" encoding="UTF-8"?>
<!DOCTYPE svg PUBLIC "-//W3C//DTD SVG 1.1//EN" "http://www.w3.org/Graphics/SVG/1.1/DTD/svg11.dtd">
<!-- Creator: CorelDRAW -->
<svg xmlns="http://www.w3.org/2000/svg" xml:space="preserve" width="8.4mm" height="8.4mm" style="shape-rendering:geometricPrecision; text-rendering:geometricPrecision; image-rendering:optimizeQuality; fill-rule:evenodd; clip-rule:evenodd"
viewBox="0 0 0.453337 0.453337"
 xmlns:xlink="http://www.w3.org/1999/xlink">
 <defs>
  <style type="text/css">
   <![CDATA[
    .fil0 {fill:#00923F}
    .fil1 {fill:white;fill-rule:nonzero}
   ]]>
  </style>
 </defs>
 <g id="okviri">
  <metadata id="CorelCorpID_0Corel-Layer"/>
  <polygon class="fil0" points="0,0 0.453337,0 0.453337,0.453337 0,0.453337 "/>
 </g>
 <g id="piktogrami">
  <metadata id="CorelCorpID_1Corel-Layer"/>
  <path class="fil1" d="M0.387063 0.149947l-0.160179 -0.0796362 -7.01593e-005 -0.0001727 -0.000140319 6.47624e-005 -0.000156509 -6.47624e-005 -6.47624e-005 0.0001727 -0.160184 0.0796362 0.0133519 0.0268656 0.147054 -0.0731006 0.147048 0.0731006 0.0133411 -0.0268656zm-0.18685 0.174821l0.146169 0.000280637 -1.61906e-005 -0.0508655c-0.0027578,-0.0201087 -0.0354197,-0.0168166 -0.0636507,-0.0168166 -0.0274539,0 -0.0550265,-0.000253653 -0.0824642,5.39687e-005l-3.77781e-005 0.0673475zm-0.0372222 -0.0222135c-0.00359431,0 -0.0130874,-3.77781e-005 -0.0228395,0 -0.018603,7.55562e-005 -0.031005,-0.00308701 -0.0292564,0.0151382 0.000555878,0.0036159 0.00547782,0.00710768 0.00910452,0.0070753 0.00728577,-7.01593e-005 0.0149277,-7.01593e-005 0.0223322,-7.01593e-005 0.00762038,-5.39687e-006 0.0299364,0 0.0359647,0 0.0110474,-0.00317336 0.00735593,-0.0116842 0.00800895,-0.0246475 -1.61906e-005,-0.00744228 0,-0.0247015 -9.71436e-005,-0.0339301 -2.69843e-005,-0.00221272 -0.00105239,-0.00402606 -0.00194287,-0.00538068 -0.00578544,-0.00884007 -0.0193424,-0.00600132 -0.0212745,0.00560195 0,0.0101893 0,0.0247177 0,0.036213zm-0.0349879 -0.0561112c0.0116303,0 0.0210586,0.00942833 0.0210586,0.0210586 0,0.0116249 -0.00942833,0.0210532 -0.0210586,0.0210532 -0.0116249,0 -0.0210532,-0.00942833 -0.0210532,-0.0210532 0,-0.0116303 0.00942833,-0.0210586 0.0210532,-0.0210586zm-0.025457 0.136751l0.237101 0 0.0111391 0 0.00668672 0 0 -0.00668672 0 -0.028965 -0.0356517 -5.39687e-006 -0.219275 0 -0.00668672 0 0 0.00668672 0 0.0222837 0 0.00668672 0.00668672 0z"/>
 </g>
</svg>
