<?xml version="1.0" encoding="UTF-8"?>
<!DOCTYPE svg PUBLIC "-//W3C//DTD SVG 1.1//EN" "http://www.w3.org/Graphics/SVG/1.1/DTD/svg11.dtd">
<!-- Creator: CorelDRAW -->
<svg xmlns="http://www.w3.org/2000/svg" xml:space="preserve" width="8.5001mm" height="8.5mm" style="shape-rendering:geometricPrecision; text-rendering:geometricPrecision; image-rendering:optimizeQuality; fill-rule:evenodd; clip-rule:evenodd"
viewBox="0 0 1.44441 1.44439"
 xmlns:xlink="http://www.w3.org/1999/xlink">
 <defs>
  <style type="text/css">
   <![CDATA[
    .fil0 {fill:#00923F}
    .fil1 {fill:white;fill-rule:nonzero}
   ]]>
  </style>
 </defs>
 <g id="okviri">
  <metadata id="CorelCorpID_0Corel-Layer"/>
  <polygon class="fil0" points="0,0 1.44441,0 1.44441,1.44439 0,1.44439 "/>
 </g>
 <g id="piktogrami">
  <metadata id="CorelCorpID_1Corel-Layer"/>
  <path class="fil1" d="M1.22724 0.333434l-0.504365 -0.250764 -0.000203914 -0.000526779 -0.000458807 0.000186921 -0.0004758 -0.000186921 -0.000220907 0.000526779 -0.504348 0.250764 0.0420233 0.0845735 0.463021 -0.230151 0.463004 0.230151 0.0420233 -0.0845735zm-0.732273 0.53502l0 0.193719c0,0.00752784 -0.00249795,0.0138832 -0.00722197,0.0184373 -0.00463905,0.00477499 -0.0108584,0.00703504 -0.0183693,0.00703504 -0.00762979,0 -0.0141381,-0.00226005 -0.0192529,-0.00703504 -0.00533576,-0.00455409 -0.00788469,-0.0109094 -0.00788469,-0.0184373l0 -0.193719 -0.0725425 0 0.0755163 -0.255097 -0.0129825 0c-0.0083265,0.02865 -0.0152936,0.0516413 -0.0207143,0.0698916 -0.00497891,0.0181654 -0.0103826,0.0353282 -0.0151067,0.0519642 -0.00545471,0.0163811 -0.00898922,0.0267468 -0.00943104,0.0303153 -0.00322864,0.0108075 -0.0103826,0.0160413 -0.0216149,0.0160413l-0.00576058 -0.00135943c-0.0105016,-0.00387437 -0.0155315,-0.0107225 -0.0155315,-0.0203065 0,-0.00265089 0.000322864,-0.00480898 0.0014274,-0.00698407 0.000747686,-0.00186921 0.00292277,-0.00827552 0.00540373,-0.019151 0.00292277,-0.0107905 0.00683113,-0.0241978 0.0115382,-0.0397803 0.00472401,-0.0158373 0.00982187,-0.0330171 0.0151576,-0.0513864 0.00545471,-0.0184882 0.0105016,-0.0362967 0.016653,-0.0534595 0.00360249,-0.0131355 0.0115551,-0.0251324 0.023824,-0.0354301 0.0122519,-0.0107735 0.0249625,-0.0156504 0.0382679,-0.0156504l0.0887877 0c0.0137302,0 0.0270696,0.00487695 0.0390666,0.0156504 0.0115551,0.0102977 0.0198986,0.0222946 0.0245887,0.0354301 0.00491094,0.0171628 0.0100428,0.0349713 0.0150897,0.0534595 0.00508086,0.0183693 0.0105356,0.0355491 0.0148688,0.0513864 0.00462206,0.0155825 0.00863237,0.0289898 0.0115212,0.0397803 0.00283781,0.0108754 0.00470702,0.0172817 0.0057096,0.019151l0.00149537 0.0057096c0,0.0116571 -0.0054717,0.0184882 -0.0159053,0.0215809l-0.00545471 0.00135943c-0.0115212,0 -0.0187601,-0.0052338 -0.0216149,-0.0160413 -0.000798664,-0.0035685 -0.00397633,-0.0139341 -0.00827552,-0.0303153 -0.00506387,-0.016636 -0.0102297,-0.0337988 -0.0159563,-0.0519642 -0.00572659,-0.0182503 -0.0125407,-0.0412417 -0.0208672,-0.0698916l-0.0130335 0 0.0754143 0.255097 -0.071387 0 0 0.193719c0,0.00752784 -0.00217509,0.0138832 -0.00800364,0.0184373 -0.00508086,0.00477499 -0.0112323,0.00703504 -0.0187601,0.00703504 -0.00798664,0 -0.0137472,-0.00226005 -0.0187941,-0.00703504 -0.00470702,-0.00455409 -0.00683113,-0.0109094 -0.00683113,-0.0184373l0 -0.193719 -0.0130335 0zm0.00720497 -0.346348c0.0152086,0 0.0282421,-0.00497891 0.0383699,-0.0154465 0.0104166,-0.0106545 0.0158204,-0.023909 0.0158204,-0.0398483 0,-0.0152596 -0.00540373,-0.0283101 -0.0158204,-0.0390496 -0.0101277,-0.0110624 -0.0231613,-0.016585 -0.0383699,-0.016585 -0.0162282,0 -0.0296186,0.00552268 -0.0408168,0.016585 -0.0108414,0.0107395 -0.0161432,0.02379 -0.0161432,0.0390496 0,0.0159393 0.00530177,0.0291937 0.0161432,0.0398483 0.0111983,0.0104676 0.0245887,0.0154465 0.0408168,0.0154465zm0.398686 0.014308c-0.0195078,0 -0.0360758,0.00720497 -0.0502139,0.0211051 -0.0141041,0.0145119 -0.021309,0.0314028 -0.021309,0.0502139l0 0.173837c0,0.00652526 0.00222606,0.0124558 0.00720497,0.0171628 0.00467304,0.00472401 0.0104846,0.00684812 0.0170608,0.00684812 0.00751084,0 0.0133564,-0.00212411 0.0180294,-0.00684812 0.00401031,-0.00470702 0.00611743,-0.0106375 0.00611743,-0.0171628l0 -0.155434 0.0126257 0 0 0.430412c0,0.0083265 0.00360249,0.0159053 0.0104846,0.0219038 0.00647428,0.00650827 0.0140531,0.00919314 0.0226685,0.00919314 0.00943104,0 0.0170268,-0.00268487 0.0231613,-0.00919314 0.00652526,-0.00599848 0.00943104,-0.0135773 0.00943104,-0.0219038l0 -0.24954 0.0140531 0 0 0.24954c0,0.0083265 0.00322864,0.0159053 0.00938006,0.0219038 0.00613442,0.00650827 0.0140701,0.00919314 0.023875,0.00919314 0.00827552,0 0.0154805,-0.00268487 0.0220567,-0.00919314 0.00603246,-0.00599848 0.00888727,-0.0135773 0.00888727,-0.0219038l0 -0.430412 0.0131015 0 0 0.155434c0,0.00652526 0.00210711,0.0124558 0.00645729,0.0171628 0.00513184,0.00472401 0.0111813,0.00684812 0.0176896,0.00684812 0.00757882,0 0.0134074,-0.00212411 0.0177575,-0.00684812 0.00390836,-0.00470702 0.00647428,-0.0106375 0.00647428,-0.0171628l0 -0.173837c0,-0.0188111 -0.00686512,-0.035702 -0.0209862,-0.0502139 -0.0137302,-0.0139002 -0.0302983,-0.0211051 -0.0505028,-0.0211051l-0.123504 0zm0.0620919 -0.014308c0.0151576,0 0.028514,-0.00497891 0.0393215,-0.0154465 0.0107565,-0.0106545 0.0162452,-0.023909 0.0162452,-0.0398483 0,-0.0152596 -0.00548869,-0.0283101 -0.0162452,-0.0390496 -0.0108075,-0.0110624 -0.0241638,-0.016585 -0.0393215,-0.016585 -0.0158713,0 -0.0292957,0.00552268 -0.0394234,0.016585 -0.0107395,0.0107395 -0.0158204,0.02379 -0.0158204,0.0390496 0,0.0159393 0.00508086,0.0291937 0.0158204,0.0398483 0.0101277,0.0104676 0.0235521,0.0154465 0.0394234,0.0154465zm-0.190303 -0.167244l-0.054836 0 0 0.768723 0.054836 0 0 -0.768723z"/>
  <polygon class="fil1" points="1.34769,1.29085 1.12675,1.39586 1.11172,1.403 1.11799,1.38759 1.14046,1.33234 0.680632,1.33234 0.680632,1.23888 1.14075,1.23888 1.11803,1.18367 1.11171,1.16831 1.12673,1.17538 1.34767,1.27915 1.36004,1.28497 "/>
 </g>
</svg>
