<?xml version="1.0" encoding="UTF-8"?>
<!DOCTYPE svg PUBLIC "-//W3C//DTD SVG 1.1//EN" "http://www.w3.org/Graphics/SVG/1.1/DTD/svg11.dtd">
<!-- Creator: CorelDRAW -->
<svg xmlns="http://www.w3.org/2000/svg" xml:space="preserve" width="8.5mm" height="8.5mm" style="shape-rendering:geometricPrecision; text-rendering:geometricPrecision; image-rendering:optimizeQuality; fill-rule:evenodd; clip-rule:evenodd"
viewBox="0 0 1.44438 1.44438"
 xmlns:xlink="http://www.w3.org/1999/xlink">
 <defs>
  <style type="text/css">
   <![CDATA[
    .fil0 {fill:#00923F}
    .fil1 {fill:white;fill-rule:nonzero}
   ]]>
  </style>
 </defs>
 <g id="okviri">
  <metadata id="CorelCorpID_0Corel-Layer"/>
  <polygon class="fil0" points="0,0 1.44438,0 1.44438,1.44438 0,1.44438 "/>
 </g>
 <g id="piktogrami">
  <metadata id="CorelCorpID_1Corel-Layer"/>
  <polygon class="fil1" points="1.34767,1.29083 1.12673,1.39584 1.11171,1.40298 1.11798,1.38757 1.14045,1.33233 0.680624,1.33233 0.680624,1.23887 1.14073,1.23887 1.11802,1.18366 1.11169,1.1683 1.12672,1.17537 1.34765,1.27914 1.36002,1.28495 "/>
  <path class="fil1" d="M1.23278 0.320617l-0.504359 -0.250761 -0.000203912 -0.000526772 -0.000458802 0.000186919 -0.000475794 -0.000186919 -0.000203912 0.000526772 -0.504359 0.250761 0.0420228 0.0845725 0.463016 -0.230149 0.463016 0.230149 0.0420059 -0.0845725zm-0.584174 0.41892l0.000169927 -0.00057775c0.00305868,-0.0151235 -0.00683105,-0.0296352 -0.0220565,-0.0325749 -0.0149535,-0.00319462 -0.0299581,0.00705195 -0.0330167,0.0222264 -0.00307567,0.0151575 0.00678007,0.0299411 0.0220055,0.0328978 0.00180122,0.000390831 0.00367041,0.000543765 0.00552261,0.000543765 0.0130334,0 0.0246903,-0.00919303 0.0273752,-0.0225153zm-0.0172306 0.111268l0.000101956 -0.000543765c0.0030077,-0.0151744 -0.00684804,-0.0296862 -0.0220735,-0.0326429 -0.0148346,-0.00333056 -0.0299241,0.00706895 -0.0329488,0.0222264 -0.00307567,0.0151744 0.00678007,0.0299581 0.0219545,0.0329658 0.00181821,0.000322861 0.00367041,0.000492787 0.00559058,0.000492787 0.0130334,0 0.0246903,-0.00914205 0.0273752,-0.0224983zm-0.0169247 0.108617l5.0978e-005 -0.000543765c0.00159731,-0.0153953 -0.00968582,-0.0288535 -0.0251321,-0.0303829 -0.0153274,-0.00181821 -0.0290574,0.0099577 -0.0306548,0.0253021 -0.00152934,0.0153784 0.00968582,0.0291084 0.0250642,0.0307057 0.000934596,0.000118949 0.00197115,0.000152934 0.00285477,0.000152934 0.0141719,0 0.0263896,-0.0108243 0.027817,-0.0252341zm-0.0177403 0.113885l0.000152934 -0.000560758c0.00302469,-0.0151575 -0.00683105,-0.0296692 -0.0221074,-0.0326769 -0.0150555,-0.00305868 -0.0298901,0.00705195 -0.0329658,0.0222774 -0.00305868,0.0151744 0.00679706,0.0298901 0.0220225,0.0329148 0.00173325,0.000441809 0.00367041,0.000594743 0.00552261,0.000594743 0.0130334,0 0.0246903,-0.00919303 0.0273752,-0.0225493zm-0.0456083 -0.328825l0.000220905 -0.000543765c0.00576051,-0.0144098 -0.00130843,-0.0303829 -0.0156672,-0.0361434 -0.0141209,-0.00581149 -0.0307567,0.00147836 -0.0365172,0.0158711 -0.00574352,0.0143588 0.00120648,0.0306717 0.0156163,0.0363643 0.00333056,0.00135941 0.00695,0.00202213 0.0103315,0.00202213 0.0111302,0 0.0216317,-0.00667812 0.0260158,-0.0175704zm-0.0378427 0.103417l0.000169927 -0.000594743c0.00448606,-0.0148516 -0.00404425,-0.030111 -0.0188279,-0.0345461 -0.0150555,-0.00470697 -0.0305528,0.00414621 -0.0349199,0.0190488 -0.00445208,0.0147836 0.0039423,0.0303829 0.0187769,0.034818 0.00268484,0.000815648 0.00536968,0.00120648 0.00803753,0.00120648 0.0120478,0 0.023212,-0.00783362 0.0267634,-0.0199324zm-0.039457 0.108022l0.000220905 -0.000543765c0.00572653,-0.0142908 -0.00132543,-0.0303489 -0.0157182,-0.0360924 -0.0141889,-0.00572653 -0.0307227,0.00147836 -0.0365172,0.0158881 -0.00569254,0.0143418 0.00125746,0.0306717 0.0156502,0.0363643 0.00334755,0.00141039 0.00696699,0.00200513 0.0103485,0.00200513 0.0111132,0 0.0216826,-0.00666112 0.0260158,-0.0176214zm-0.0386583 0.105779l0.000169927 -0.000543765c0.0057945,-0.0143588 -0.00125746,-0.0303829 -0.0157182,-0.0360754 -0.0141379,-0.00581149 -0.0307227,0.00141039 -0.0364662,0.0158032 -0.00569254,0.0143588 0.00120648,0.0306038 0.0156672,0.0364153 0.00333056,0.00132543 0.00688203,0.00203912 0.0103485,0.00203912 0.0111132,0 0.0216147,-0.00669511 0.0259988,-0.0176384zm0.404612 -0.300192c0.0152594,-0.00295672 0.0250642,-0.0177403 0.0220565,-0.0328978l-0.000118949 -0.000543765c-0.00305868,-0.0151914 -0.0180632,-0.0248773 -0.0328978,-0.0216826 -0.0152254,0.00293973 -0.0250132,0.0179952 -0.0219035,0.0331527 0.00263386,0.0133222 0.0142908,0.0225153 0.0273752,0.0225153 0.00186919,0 0.00373839,-0.000152934 0.00548863,-0.000543765zm0.0173495 0.111302c0.0151575,-0.0030077 0.0250132,-0.0177913 0.0219545,-0.0329658l-0.000118949 -0.000543765c-0.0030077,-0.0151575 -0.0177913,-0.0247583 -0.0328978,-0.0216826 -0.0151744,0.00295672 -0.0249622,0.0180292 -0.0219035,0.0331867 0.00268484,0.0133562 0.0143418,0.0224983 0.0273752,0.0224983 0.00186919,0 0.00372139,-0.000169927 0.00559058,-0.000492787zm0.0145627 0.111693c0.0153953,-0.00159731 0.0266615,-0.0153274 0.0250642,-0.0307057l-5.0978e-005 -0.000560758c-0.00147836,-0.0153274 -0.0151575,-0.0265595 -0.0305528,-0.0247413 -0.0154803,0.00152934 -0.0267125,0.0154973 -0.0250812,0.0309266 0.00144438,0.0144098 0.0136451,0.0252341 0.027766,0.0252341 0.000934596,0 0.00197115,-3.39853e-005 0.00285477,-0.000152934zm0.0199834 0.110758c0.0152764,-0.00302469 0.0250812,-0.0177403 0.0220735,-0.0329148l-0.000118949 -0.000543765c-0.00307567,-0.0152084 -0.0179103,-0.0248603 -0.0329148,-0.0217336 -0.0152084,0.0030077 -0.0250132,0.0180802 -0.0219035,0.0332376 0.00268484,0.0133562 0.0143588,0.0225493 0.0273752,0.0225493 0.00186919,0 0.00373839,-0.000152934 0.00548863,-0.000594743zm0.0491088 -0.335231c0.0143928,-0.00569254 0.0213428,-0.0220055 0.0155993,-0.0363643l-0.000203912 -0.000543765c-0.00570953,-0.0143418 -0.0219715,-0.0212408 -0.0363133,-0.0153274 -0.0143928,0.00576051 -0.0212408,0.0223453 -0.0154293,0.0366872 0.00436711,0.0108923 0.0148346,0.0175704 0.0259478,0.0175704 0.00343252,0 0.00701797,-0.000662714 0.0103995,-0.00202213zm0.0362963 0.106595c0.0148346,-0.00443508 0.023212,-0.0200343 0.0187769,-0.034818l-0.000152934 -0.000560758c-0.00443508,-0.0148346 -0.0198814,-0.0229401 -0.034835,-0.018488 -0.0147156,0.00443508 -0.023144,0.0202383 -0.0186579,0.0351408 0.00360244,0.0120988 0.0147836,0.0199324 0.0268314,0.0199324 0.00261687,0 0.00530171,-0.000390831 0.00803753,-0.00120648zm0.0410203 0.104913c0.0143758,-0.00569254 0.0213428,-0.0220225 0.0155993,-0.0363643l-0.000220905 -0.000543765c-0.00576051,-0.0144098 -0.0220055,-0.0212918 -0.0362963,-0.0153444 -0.0143418,0.00574352 -0.0211898,0.0222944 -0.0154463,0.0366362 0.00433313,0.0109603 0.0148346,0.0176214 0.0260158,0.0176214 0.00339853,0 0.00700098,-0.000594743 0.0103485,-0.00200513zm0.0386413 0.105762c0.0144608,-0.00581149 0.0213598,-0.0220565 0.0156163,-0.0364153l-0.000237897 -0.000543765c-0.00562457,-0.0143928 -0.0219035,-0.0212408 -0.0362453,-0.0152594 -0.0143928,0.00569254 -0.0211729,0.0222774 -0.0154803,0.0366192 0.00438411,0.0109433 0.0148856,0.0176384 0.0259988,0.0176384 0.00339853,0 0.00701797,-0.000713692 0.0103485,-0.00203912zm-0.300957 0.00547164l0 -0.000271883c0,-0.0155483 -0.0124726,-0.0279189 -0.0280379,-0.0279189 -0.0154973,0 -0.0279699,0.0127105 -0.0279699,0.0281908 0,0.0154973 0.0124726,0.0279869 0.0279699,0.0279869 0.0155653,0 0.0280379,-0.0124896 0.0280379,-0.0279869zm0 -0.232511l0 -0.000611736c0,-0.0154293 -0.0124726,-0.0276471 -0.0280379,-0.0276471 -0.0154973,0 -0.0279699,0.0127615 -0.0279699,0.0282588 0,0.0154973 0.0124726,0.0280209 0.0279699,0.0280209 0.0155653,0 0.0280379,-0.0125236 0.0280379,-0.0280209zm0 0.1164l0 -0.000560758c0,-0.0155483 -0.0124726,-0.027749 -0.0280379,-0.027749 -0.0154973,0 -0.0279699,0.0128125 -0.0279699,0.0283098 0,0.0154803 0.0124726,0.0280209 0.0279699,0.0280209 0.0155653,0 0.0280379,-0.0125406 0.0280379,-0.0280209zm0 -0.232867l0 -0.000271883c0,-0.0154803 -0.0124726,-0.027851 -0.0280379,-0.027851 -0.0154973,0 -0.0279699,0.0126425 -0.0279699,0.0281229 0,0.0154973 0.0124726,0.0279869 0.0279699,0.0279869 0.0155653,0 0.0280379,-0.0124896 0.0280379,-0.0279869zm0.246207 -0.06707l-0.548421 0c0,-0.0928479 0.0752605,-0.168074 0.168074,-0.168074l0.0470187 0 0 -0.209146 0.118167 0 0 0.209146 0.0470867 0c0.0927969,0 0.168074,0.0752265 0.168074,0.168074z"/>
 </g>
</svg>
