<?xml version="1.0" encoding="UTF-8"?>
<!DOCTYPE svg PUBLIC "-//W3C//DTD SVG 1.1//EN" "http://www.w3.org/Graphics/SVG/1.1/DTD/svg11.dtd">
<!-- Creator: CorelDRAW -->
<svg xmlns="http://www.w3.org/2000/svg" xml:space="preserve" width="8.4mm" height="8.4mm" style="shape-rendering:geometricPrecision; text-rendering:geometricPrecision; image-rendering:optimizeQuality; fill-rule:evenodd; clip-rule:evenodd"
viewBox="0 0 0.451668 0.451668"
 xmlns:xlink="http://www.w3.org/1999/xlink">
 <defs>
  <style type="text/css">
   <![CDATA[
    .fil0 {fill:#00923F}
    .fil1 {fill:white;fill-rule:nonzero}
   ]]>
  </style>
 </defs>
 <g id="okviri">
  <metadata id="CorelCorpID_0Corel-Layer"/>
  <polygon class="fil0" points="0,0 0.451668,0 0.451668,0.451668 0,0.451668 "/>
 </g>
 <g id="piktogrami">
  <metadata id="CorelCorpID_1Corel-Layer"/>
  <path class="fil1" d="M0.385644 0.148545l-0.159595 -0.0793485 -6.45241e-005 -0.000166687 -0.000145179 5.91471e-005 -0.000150556 -5.91471e-005 -6.45241e-005 0.000166687 -0.159595 0.0793485 0.0132973 0.0267614 0.146513 -0.0728262 0.146507 0.0728262 0.0132973 -0.0267614zm-0.14826 0.127688c-0.00273152,0.00539851 -0.0149427,0.0338913 -0.0149427,0.0379724 0,0.0223361 0.0298531,0.0223361 0.0298531,0 0,-0.00408115 -0.0121897,-0.0339504 -0.0149104,-0.0379724zm-0.0176473 -0.0126252l0 -0.0172225c0,-0.0109637 0.00992057,-0.0203788 0.0230674,-0.0203788l0.0306866 0 0.000166687 -0.00953881c0,-0.00280142 0.00224221,-0.00500599 0.00500599,-0.00500599l0.0119961 0 0 -0.00615667c-0.00102701,-0.000639864 -0.00189808,-0.00138727 -0.00262398,-0.00236588l-0.0255677 0c-0.00169913,0.00223146 -0.00424783,0.00372626 -0.00720519,0.00372626 -0.00510278,0 -0.00925383,-0.00413492 -0.00925383,-0.00925383 0,-0.00503288 0.00415105,-0.00920543 0.00925383,-0.00920543 0.00306489,0 0.00562972,0.00159159 0.00730735,0.00390908l0.025358 0c0.00167763,-0.00231749 0.00424246,-0.00390908 0.00731273,-0.00390908 0.00306489,0 0.00564048,0.00159159 0.00733961,0.00390908l0.0279658 0c0.00166149,-0.00231749 0.00427472,-0.00390908 0.0072966,-0.00390908 0.00511353,0 0.00926458,0.00417256 0.00926458,0.00920543 0,0.00511891 -0.00415105,0.00925383 -0.00926458,0.00925383 -0.00296273,0 -0.0054953,-0.00149481 -0.00718906,-0.00372626l-0.0282131 0c-0.000715142,0.000994746 -0.00161848,0.00175828 -0.00265624,0.00238201l0 0.00614054 0.0127489 0c0.00274765,0 0.00498986,0.00220457 0.00498986,0.00500599l0 0.00953881 0.0372949 0 0 0.0298424 -0.0414728 0c-0.00407577,0.00817305 -0.00949579,0.0122166 -0.0176742,0.0122166 -0.0081139,0 -0.0148889,-0.00404351 -0.0189755,-0.0122166l-0.0148889 0c-0.00447367,0 -0.00612441,0.0028767 -0.00659758,0.00838275 0.00130124,0.000865698 0.0022207,0.00230136 0.0022207,0.00403275 0,0.00277453 -0.00224759,0.0049576 -0.00501137,0.0049576l-0.0309715 0c-0.00277453,0 -0.00498986,-0.00218306 -0.00498986,-0.0049576 0,-0.00216693 0.00137114,-0.00395748 0.00327997,-0.00465649zm-0.00460809 0.0862633c0.000424783,0.00213467 0.000392521,0.00436613 -0.000241965,0.00651693 -0.0005377,0.00201638 -0.00160772,0.00389295 -0.00309178,0.00545228 -0.00500599,0.00506514 -0.0131844,0.00518881 -0.0183141,0.000258096l-0.0253848 -0.0247557 -0.00326922 0.00332299 0.0254171 0.0247719c0.00692558,0.00673739 0.0180721,0.00656532 0.0248848,-0.000349505 0.00234975,-0.0024089 0.00366174,-0.00541464 0.00437688,-0.00857632l0.0531409 0c0.00720519,0 0.0130769,0.0058448 0.0130769,0.0130339 0,0.0072482 -0.00587169,0.0130876 -0.0130769,0.0130876l-0.0920651 0c-0.00299499,0 -0.00573726,-0.00117756 -0.00800098,-0.00299499l-0.0599106 -0.045355 -0.0326277 0 0 -0.0444356 0.000274227 0 0 -0.00043016 0.075563 0 0.0556305 0.0541948c0.00176903,0.00169376 0.00300575,0.00384994 0.00361872,0.00625883z"/>
 </g>
</svg>
