<?xml version="1.0" encoding="UTF-8"?>
<!DOCTYPE svg PUBLIC "-//W3C//DTD SVG 1.1//EN" "http://www.w3.org/Graphics/SVG/1.1/DTD/svg11.dtd">
<!-- Creator: CorelDRAW -->
<svg xmlns="http://www.w3.org/2000/svg" xml:space="preserve" width="8.4mm" height="8.4mm" style="shape-rendering:geometricPrecision; text-rendering:geometricPrecision; image-rendering:optimizeQuality; fill-rule:evenodd; clip-rule:evenodd"
viewBox="0 0 0.453336 0.453336"
 xmlns:xlink="http://www.w3.org/1999/xlink">
 <defs>
  <style type="text/css">
   <![CDATA[
    .fil0 {fill:#00923F}
    .fil1 {fill:white;fill-rule:nonzero}
   ]]>
  </style>
 </defs>
 <g id="okviri">
  <metadata id="CorelCorpID_0Corel-Layer"/>
  <polygon class="fil0" points="0,0 0.453336,0 0.453336,0.453336 0,0.453336 "/>
 </g>
 <g id="piktogrami">
  <metadata id="CorelCorpID_1Corel-Layer"/>
  <path class="fil1" d="M0.350078 0.383193l-0.0111337 0 -0.225967 0 -0.0111337 0 -5.39686e-006 0 -0.00108477 0 0 -0.1825 0.00108477 0 0.0222782 0 0.00200224 0 0 0.151096 0.199921 0 0 -0.151096 0.00176477 0 0.0222782 0 0.00132223 0 0 0.1825 -0.00132223 0 -5.39686e-006 0zm0.0369847 -0.233247l-0.160179 -0.0796361 -7.01592e-005 -0.0001727 -0.000145715 6.47623e-005 -0.000151112 -6.47623e-005 -6.47623e-005 0.0001727 -0.160184 0.0796361 0.0133518 0.0268656 0.147048 -0.0731005 0.147054 0.0731005 0.013341 -0.0268656z"/>
 </g>
</svg>
