<?xml version="1.0" encoding="UTF-8"?>
<!DOCTYPE svg PUBLIC "-//W3C//DTD SVG 1.1//EN" "http://www.w3.org/Graphics/SVG/1.1/DTD/svg11.dtd">
<!-- Creator: CorelDRAW -->
<svg xmlns="http://www.w3.org/2000/svg" xml:space="preserve" width="8.5001mm" height="8.5mm" style="shape-rendering:geometricPrecision; text-rendering:geometricPrecision; image-rendering:optimizeQuality; fill-rule:evenodd; clip-rule:evenodd"
viewBox="0 0 5.3895 5.38944"
 xmlns:xlink="http://www.w3.org/1999/xlink">
 <defs>
  <style type="text/css">
   <![CDATA[
    .fil2 {fill:white}
    .fil0 {fill:#00923F}
    .fil1 {fill:white;fill-rule:nonzero}
    .fil3 {fill:#00923F;fill-rule:nonzero}
   ]]>
  </style>
 </defs>
 <g id="okviri">
  <metadata id="CorelCorpID_0Corel-Layer"/>
  <polygon class="fil0" points="0,0 5.3895,0 5.3895,5.38944 0,5.38944 "/>
 </g>
 <g id="piktogrami">
  <metadata id="CorelCorpID_1Corel-Layer"/>
  <path class="fil1" d="M0.730808 5.00413l1.55336 0 0 -0.413972 -1.55336 0 0 0.413972zm2.39323 0l1.5533 0 0 -0.413972 -1.5533 0 0 0.413972z"/>
  <polygon class="fil1" points="4.57919,1.35472 2.69726,0.419045 2.6965,0.417079 2.69478,0.417777 2.69301,0.417079 2.69218,0.419045 0.810318,1.35472 0.967119,1.67028 2.69478,0.811523 4.42239,1.67028 "/>
  <path class="fil0" d="M2.77696 2.14982c0.0677167,-0.0663852 0.12903,-0.128459 0.196493,-0.195542 0.0522459,-0.0520557 0.0325903,-0.0583328 0.130551,-0.0443202l0.848678 0.114066c-0.0161683,0.0349997 -0.0682874,0.0789395 -0.0943469,0.110071 -0.0306247,0.0365848 -0.0645465,0.0764033 -0.0966295,0.111847 -0.0210505,0.0232063 -0.0310685,0.0315124 -0.0498365,0.0545285 -0.0236501,0.029103 -0.0239672,0.0255523 -0.0687312,0.0169292 -0.0580158,-0.0112227 -0.117426,-0.0223186 -0.176013,-0.0330975l-0.674251 -0.126747c-0.0166756,-0.00570647 -0.0105887,-0.00399453 -0.0159147,-0.00773543z"/>
  <path class="fil0" d="M1.46884 2.12458c0.0705066,-0.000570647 0.530067,-0.0674631 0.640456,-0.0822365 0.0734866,-0.0098278 0.256918,-0.0526263 0.307642,-0.0221284l0.212471 0.135624c-0.0649903,0.024094 -0.239735,0.0479343 -0.320513,0.0630248l-0.479914 0.0900988c-0.0848996,0.0160415 -0.0797003,0.0272642 -0.142091,-0.0150904 -0.0575719,-0.039121 -0.174618,-0.12643 -0.227054,-0.148749l-0.0125542 -0.0183241 0.0215578 -0.00221918z"/>
  <path class="fil0" d="M3.69969 2.38949c0.0382967,0.0484416 0.269535,0.230922 0.301555,0.273784 -0.0795735,0.0259327 -0.842021,0.30872 -0.880508,0.314236 -0.0641026,-0.0648001 -0.110896,-0.120977 -0.177535,-0.185016 -0.0315124,-0.0303077 -0.0574451,-0.0646733 -0.0867383,-0.0978342 -0.0303077,-0.0343022 -0.0586498,-0.0540212 -0.0850898,-0.0924448l0.928315 -0.212724z"/>
  <path class="fil0" d="M1.40024 2.6317c0.0422279,-0.0268838 0.0834412,-0.0606788 0.124972,-0.0902256 0.131312,-0.0934593 0.179373,-0.162127 0.269218,-0.139301 0.0574451,0.0145832 0.112988,0.0265034 0.169228,0.0393112l0.680274 0.162508c0.00101448,-0.00177535 0.00399453,0.00158513 0.00589668,0.00266302l-0.32641 0.372252c-0.0528165,-0.00900354 -0.909421,-0.335033 -0.92318,-0.347207z"/>
  <path class="fil2" d="M1.45984 2.30712c0.00684776,-0.0189582 -0.000760862,-0.0108423 0.00900354,-0.0205433l-0.0215578 0.00221918 0.0125542 0.0183241z"/>
  <g id="_92589072">
   <path id="_92589456" class="fil2" d="M1.47335 2.30712c0.00684776,-0.0189582 -0.000760862,-0.0108423 0.00900354,-0.0205433l-0.0215578 0.00221918 0.0125542 0.0183241z"/>
   <g>
    <polygon id="_92589408" class="fil1" points="4.20389,2.89825 3.71231,3.16227 3.71231,3.81896 2.69447,4.32582 1.67681,3.81896 1.67681,3.16024 1.18935,2.89825 1.67681,2.63277 1.67681,2.63239 1.67726,2.63239 1.68208,2.62992 1.2882,2.41111 1.18067,2.35056 2.19084,1.80128 2.70138,2.07899 3.19816,1.80787 4.09972,2.29926 4.20871,2.35823 3.71472,2.63252 "/>
    <polygon id="_92589360" class="fil3" points="3.17958,3.44829 3.5765,3.23531 3.5765,3.73438 2.76307,4.13909 2.76307,3.2168 "/>
    <polygon id="_92589312" class="fil3" points="3.55602,2.70081 3.91724,2.89717 3.18098,3.2927 2.82755,3.09848 "/>
    <polygon id="_92589264" class="fil3" points="2.21259,3.44829 2.62669,3.21838 2.62669,4.13934 1.81333,3.73438 1.81333,3.23373 "/>
    <polygon id="_92589216" class="fil3" points="2.21138,3.2927 1.47519,2.89762 1.8359,2.70081 2.57095,3.09848 "/>
    <polygon id="_92589168" class="fil3" points="3.19816,1.96315 3.92586,2.35899 3.57358,2.55504 2.83745,2.15977 "/>
    <polygon id="_92589120" class="fil3" points="1.81516,2.54794 1.46307,2.35195 2.19084,1.95586 2.55155,2.15235 "/>
   </g>
  </g>
 </g>
</svg>
