<?xml version="1.0" encoding="UTF-8"?>
<!DOCTYPE svg PUBLIC "-//W3C//DTD SVG 1.1//EN" "http://www.w3.org/Graphics/SVG/1.1/DTD/svg11.dtd">
<!-- Creator: CorelDRAW -->
<svg xmlns="http://www.w3.org/2000/svg" xml:space="preserve" width="8.4mm" height="8.4mm" style="shape-rendering:geometricPrecision; text-rendering:geometricPrecision; image-rendering:optimizeQuality; fill-rule:evenodd; clip-rule:evenodd"
viewBox="0 0 0.451684 0.451684"
 xmlns:xlink="http://www.w3.org/1999/xlink">
 <defs>
  <style type="text/css">
   <![CDATA[
    .fil0 {fill:#00923F}
    .fil1 {fill:white;fill-rule:nonzero}
   ]]>
  </style>
 </defs>
 <g id="okviri">
  <metadata id="CorelCorpID_0Corel-Layer"/>
  <polygon class="fil0" points="0,0 0.451684,0 0.451684,0.451684 0,0.451684 "/>
 </g>
 <g id="piktogrami">
  <metadata id="CorelCorpID_1Corel-Layer"/>
  <path class="fil1" d="M0.255572 0.310699l0.07798 0 -0.0154164 0.0313221 0.0831045 -0.041926 -0.0831045 -0.0419367 0.0149862 0.0288916 -0.0775498 0 0 0.0236489zm-0.0510994 -0.100661l0.0277571 0.0443726c0.00395224,0.00623754 0.0121471,0.00825936 0.0184814,0.00453297 0.00637197,-0.00375328 0.00859275,-0.011889 0.00503843,-0.018347l-0.00703874 -0.0127493c-0.00610849,-0.0108996 -0.0121094,-0.0218314 -0.0181695,-0.0327794l-0.0124159 -0.0224713c-0.00137118,-0.00260256 -0.00281765,-0.00549011 -0.00428562,-0.00859275 -0.00763561,-0.0160187 -0.0195138,-0.0407322 -0.0456362,-0.0384738 -0.0222938,0.00193579 -0.0449264,0.0125557 -0.0672256,0.0314727 -0.026445,0.0208581 -0.044878,0.0510779 -0.0456362,0.05239 -0.000865728,0.00134967 -0.00168306,0.0026886 -0.0023337,0.00395224 -4.30175e-005,6.99035e-005 -8.60351e-005,8.60351e-005 -0.000129053,0.00013443l0 2.15088e-005c-0.00246275,0.0046674 -0.00368338,0.00895302 -0.000602245,0.0143463 0.00241974,0.00426411 0.00697959,0.00690969 0.0118836,0.00690969 0.00592566,0 0.00896915,-0.00279614 0.0119266,-0.00706563 4.30175e-005,-1.61316e-005 4.30175e-005,-6.45263e-005 4.30175e-005,-0.000107544 0.000817333,-0.00119911 0.00164542,-0.00253803 0.00250577,-0.0039361 0.000182824,-0.000241974 0.0156584,-0.0250738 0.0395976,-0.0455018 0.00737751,-0.00579661 0.0144162,-0.00979186 0.0210571,-0.0119696l-0.0053503 0.0646069c-0.00051621,0.00639348 -0.00255417,0.017406 -0.00428562,0.0235844l-0.012018 0.0421088c-0.00155401,0.00530191 -0.00606547,0.0141205 -0.00959291,0.0184491l-0.032446 0.0401999c-0.00411355,0.00512446 -0.00879708,0.0109265 -0.00493088,0.018917 0.00224229,0.00473731 0.00706563,0.00775391 0.0123245,0.00775391 0.00628594,0 0.00965743,-0.00364036 0.0139,-0.00823786l0.0328923 -0.0354464c0.00586114,-0.00630744 0.0134806,-0.0173199 0.0172554,-0.0250738l0.0163252 -0.0331773 0.0602729 0.101317c0.00295208,0.00501692 0.00668385,0.0112114 0.0148787,0.0112114 0.00468353,0 0.00899604,-0.00237134 0.0115018,-0.00628594 0.004291,-0.00666234 0.00142496,-0.012787 -0.00108619,-0.0182072l-0.0487442 -0.105931c-0.00191428,-0.00414044 -0.00295208,-0.0126203 -0.00213474,-0.0171264l0.00642037 -0.0348012zm0.00981337 -0.124439c0.00278001,0.0171048 -0.0087702,0.0332525 -0.0258482,0.0360756 -0.0171479,0.00279614 -0.0333117,-0.00879708 -0.0360917,-0.025875 -0.00281765,-0.0171479 0.00875407,-0.0332902 0.0258966,-0.0360917 0.017078,-0.00281765 0.0332687,0.00877558 0.0360433,0.0258912z"/>
 </g>
</svg>
