<?xml version="1.0" encoding="UTF-8"?>
<!DOCTYPE svg PUBLIC "-//W3C//DTD SVG 1.1//EN" "http://www.w3.org/Graphics/SVG/1.1/DTD/svg11.dtd">
<!-- Creator: CorelDRAW -->
<svg xmlns="http://www.w3.org/2000/svg" xml:space="preserve" width="8.5mm" height="8.5mm" style="shape-rendering:geometricPrecision; text-rendering:geometricPrecision; image-rendering:optimizeQuality; fill-rule:evenodd; clip-rule:evenodd"
viewBox="0 0 5.38938 5.38938"
 xmlns:xlink="http://www.w3.org/1999/xlink">
 <defs>
  <style type="text/css">
   <![CDATA[
    .fil0 {fill:#00923F}
    .fil1 {fill:white;fill-rule:nonzero}
   ]]>
  </style>
 </defs>
 <g id="okviri">
  <metadata id="CorelCorpID_0Corel-Layer"/>
  <polygon class="fil0" points="0,0 5.38938,0 5.38938,5.38938 0,5.38938 "/>
 </g>
 <g id="piktogrami">
  <metadata id="CorelCorpID_1Corel-Layer"/>
  <path class="fil1" d="M0.7308 5.00407l1.55335 0 0 -0.413968 -1.55335 0 0 0.413968zm2.3932 0l1.55328 0 0 -0.413968 -1.55328 0 0 0.413968z"/>
  <path class="fil1" d="M4.57907 1.31241l-1.88191 -0.935659 -0.000760853 -0.00196554 -0.00171192 0.000697449 -0.00177532 -0.000697449 -0.000760853 0.00196554 -1.88191 0.935659 0.156799 0.315564 1.72764 -0.85875 1.72758 0.85875 0.156799 -0.315564zm-1.74825 1.50567c-0.0322095,0.0636581 -0.176201,0.399638 -0.176201,0.447762 0,0.263382 0.352021,0.263382 0.352021,0 0,-0.048124 -0.143738,-0.400336 -0.175821,-0.447762zm-0.208093 -0.148874l0 -0.203084c0,-0.129282 0.116981,-0.240303 0.272005,-0.240303l0.361849 0 0.00196554 -0.112479c0,-0.0330337 0.0264397,-0.0590295 0.0590295,-0.0590295l0.141455 0 0 -0.0725981c-0.0121102,-0.00754513 -0.0223818,-0.0163583 -0.0309414,-0.027898l-0.301488 0c-0.0200358,0.0263128 -0.0500895,0.0439393 -0.084962,0.0439393 -0.0601708,0 -0.109119,-0.048758 -0.109119,-0.109119 0,-0.0593466 0.0489482,-0.108548 0.109119,-0.108548 0.0361405,0 0.0663845,0.0187677 0.0861666,0.046095l0.299015 0c0.0197822,-0.0273273 0.0500261,-0.046095 0.08623,-0.046095 0.0361405,0 0.0665113,0.0187677 0.0865471,0.046095l0.329767 0c0.019592,-0.0273273 0.0504065,-0.046095 0.0860398,-0.046095 0.0602976,0 0.109246,0.0492018 0.109246,0.108548 0,0.060361 -0.0489482,0.109119 -0.109246,0.109119 -0.0349358,0 -0.0647993,-0.0176264 -0.0847717,-0.0439393l-0.332683 0c-0.00843279,0.0117298 -0.0190847,0.0207333 -0.0313218,0.0280882l0 0.0724079 0.150332 0c0.0323997,0 0.0588393,0.0259958 0.0588393,0.0590295l0 0.112479 0.439773 0 0 0.351895 -0.489038 0c-0.0480606,0.0963748 -0.111972,0.144055 -0.20841,0.144055 -0.0956773,0 -0.175567,-0.0476801 -0.223754,-0.144055l-0.175567 0c-0.0527525,0 -0.0722177,0.0339214 -0.0777973,0.0988475 0.0153439,0.0102081 0.026186,0.0271371 0.026186,0.0475533 0,0.0327167 -0.0265031,0.0584589 -0.0590929,0.0584589l-0.36521 0c-0.0327167,0 -0.0588393,-0.0257422 -0.0588393,-0.0584589 0,-0.025552 0.0161681,-0.0466657 0.0386767,-0.0549083zm-0.0543376 1.0172c0.00500895,0.0251716 0.00462852,0.0514844 -0.0028532,0.0768462 -0.00634044,0.0237767 -0.0189579,0.0459048 -0.0364576,0.0642921 -0.0590295,0.059727 -0.155468,0.0611853 -0.215956,0.00304341l-0.299332 -0.291914 -0.0385499 0.0391839 0.299713 0.292104c0.0816649,0.0794458 0.213102,0.0774168 0.293436,-0.00412129 0.0277077,-0.0284052 0.0431784,-0.0638483 0.0516112,-0.10113l0.626626 0c0.084962,0 0.1542,0.0689206 0.1542,0.153692 0,0.0854692 -0.0692377,0.154326 -0.1542,0.154326l-1.08561 0c-0.0353163,0 -0.0676525,-0.0138856 -0.0943458,-0.0353163l-0.706452 -0.534817 -0.384738 0 0 -0.523974 0.00323363 0 0 -0.00507236 0.891023 0 0.655982 0.639053c0.0208601,0.0199724 0.0354431,0.0453976 0.0426712,0.0738028z"/>
 </g>
</svg>
