<?xml version="1.0" encoding="UTF-8"?>
<!DOCTYPE svg PUBLIC "-//W3C//DTD SVG 1.1//EN" "http://www.w3.org/Graphics/SVG/1.1/DTD/svg11.dtd">
<!-- Creator: CorelDRAW -->
<svg xmlns="http://www.w3.org/2000/svg" xml:space="preserve" width="8.4001mm" height="8.4mm" style="shape-rendering:geometricPrecision; text-rendering:geometricPrecision; image-rendering:optimizeQuality; fill-rule:evenodd; clip-rule:evenodd"
viewBox="0 0 1.40781 1.40779"
 xmlns:xlink="http://www.w3.org/1999/xlink">
 <defs>
  <style type="text/css">
   <![CDATA[
    .fil2 {fill:white}
    .fil0 {fill:#00923F}
    .fil1 {fill:white;fill-rule:nonzero}
   ]]>
  </style>
 </defs>
 <g id="okviri">
  <metadata id="CorelCorpID_0Corel-Layer"/>
  <polygon class="fil0" points="0,0 1.40781,0 1.40781,1.40779 0,1.40779 "/>
 </g>
 <g id="piktogrami">
  <metadata id="CorelCorpID_1Corel-Layer"/>
  <polygon class="fil1" points="1.32079,1.25391 1.10289,1.35748 1.08807,1.36452 1.09426,1.34932 1.11641,1.29483 0.662903,1.29483 0.662903,1.20266 1.1167,1.20266 1.09429,1.14821 1.08806,1.13306 1.10287,1.14003 1.32078,1.24238 1.33298,1.24811 "/>
  <path class="fil2" d="M1.17308 1.04767l-0.434891 -0.753253 -0.0685629 0 -0.434874 0.753253 0.225063 3.35189e-005 0.240548 -0.414327 0.238755 0.414377 0.233962 -8.37972e-005zm-0.546123 -0.932076l0.0783671 0.128997 0.0754342 -0.126199 0.047027 0.0281391 -0.089596 0.147885 -0.0666188 0 -0.0914228 -0.150483 0.0468091 -0.0283402z"/>
 </g>
</svg>
