<?xml version="1.0" encoding="UTF-8"?>
<!DOCTYPE svg PUBLIC "-//W3C//DTD SVG 1.1//EN" "http://www.w3.org/Graphics/SVG/1.1/DTD/svg11.dtd">
<!-- Creator: CorelDRAW -->
<svg xmlns="http://www.w3.org/2000/svg" xml:space="preserve" width="8.5001mm" height="8.5mm" style="shape-rendering:geometricPrecision; text-rendering:geometricPrecision; image-rendering:optimizeQuality; fill-rule:evenodd; clip-rule:evenodd"
viewBox="0 0 3.11301 3.11297"
 xmlns:xlink="http://www.w3.org/1999/xlink">
 <defs>
  <style type="text/css">
   <![CDATA[
    .fil0 {fill:#00923F}
    .fil1 {fill:white;fill-rule:nonzero}
   ]]>
  </style>
 </defs>
 <g id="okviri">
  <metadata id="CorelCorpID_0Corel-Layer"/>
  <polygon class="fil0" points="0,0 3.11301,0 3.11301,3.11297 0,3.11297 "/>
 </g>
 <g id="piktogrami">
  <metadata id="CorelCorpID_1Corel-Layer"/>
  <path class="fil1" d="M2.63207 0.718621l-1.08701 -0.540449 -0.000439478 -0.00113532 -0.000988827 0.000402855 -0.00102545 -0.000402855 -0.000476102 0.00113532 -1.08698 0.540449 0.0905692 0.182274 0.997909 -0.496025 0.997873 0.496025 0.0905692 -0.182274zm-1.5782 1.15308l0 0.417505c0,0.0162241 -0.00538361,0.0299212 -0.0155649,0.0397362 -0.00999814,0.0102911 -0.0234022,0.015162 -0.0395897,0.015162 -0.0164438,0 -0.0304705,-0.00487089 -0.0414941,-0.015162 -0.0114997,-0.00981502 -0.0169932,-0.0235121 -0.0169932,-0.0397362l0 -0.417505 -0.156344 0 0.162754 -0.549788 -0.0279801 0c-0.0179454,0.0617467 -0.0329609,0.111298 -0.0446437,0.150631 -0.0107306,0.0391502 -0.0223768,0.0761396 -0.032558,0.111994 -0.011756,0.0353048 -0.0193737,0.0576449 -0.0203259,0.0653358 -0.00695841,0.0232924 -0.0223768,0.0345723 -0.0465847,0.0345723l-0.0124153 -0.00292986c-0.0226331,-0.00835009 -0.0334736,-0.0231092 -0.0334736,-0.0437647 0,-0.00571322 0.000695841,-0.0103644 0.00307635,-0.0150521 0.00161142,-0.00402855 0.00629919,-0.0178355 0.0116462,-0.0412744 0.00629919,-0.0232557 0.0147225,-0.0521514 0.0248672,-0.0857349 0.0101813,-0.0341328 0.0211682,-0.0711589 0.0326679,-0.110749 0.011756,-0.039846 0.0226331,-0.0782272 0.0358907,-0.115217 0.00776412,-0.0283097 0.0249038,-0.0541657 0.0513457,-0.0763594 0.0264053,-0.0232191 0.0537995,-0.03373 0.0824755,-0.03373l0.191356 0c0.0295916,0 0.0583408,0.0105109 0.0841968,0.03373 0.0249038,0.0221937 0.0428858,0.0480496 0.0529938,0.0763594 0.0105841,0.0369894 0.0216443,0.0753706 0.0325214,0.115217 0.0109503,0.0395897 0.0227064,0.0766158 0.0320453,0.110749 0.00996151,0.0335835 0.0186046,0.0624792 0.0248305,0.0857349 0.00611608,0.0234389 0.0101446,0.0372458 0.0123054,0.0412744l0.00322284 0.0123054c0,0.0251235 -0.0117927,0.039846 -0.0342793,0.0465115l-0.011756 0.00292986c-0.0248305,0 -0.040432,-0.0112799 -0.0465847,-0.0345723 -0.00172129,-0.00769087 -0.00856983,-0.030031 -0.0178355,-0.0653358 -0.0109137,-0.0358541 -0.0220472,-0.0728436 -0.0343892,-0.111994 -0.012342,-0.0393333 -0.0270279,-0.0888845 -0.0449733,-0.150631l-0.02809 0 0.162534 0.549788 -0.153854 0 0 0.417505c0,0.0162241 -0.00468777,0.0299212 -0.0172495,0.0397362 -0.0109503,0.0102911 -0.0242079,0.015162 -0.040432,0.015162 -0.0172129,0 -0.0296282,-0.00487089 -0.0405053,-0.015162 -0.0101446,-0.00981502 -0.0147225,-0.0235121 -0.0147225,-0.0397362l0 -0.417505 -0.02809 0zm0.0155282 -0.746454c0.0327778,0 0.0608678,-0.0107306 0.0826952,-0.0332905 0.02245,-0.0229628 0.0340962,-0.0515289 0.0340962,-0.0858814 0,-0.0328876 -0.0116462,-0.0610143 -0.0340962,-0.0841601 -0.0218274,-0.0238417 -0.0499174,-0.0357443 -0.0826952,-0.0357443 -0.0349752,0 -0.0638343,0.0119025 -0.0879689,0.0357443 -0.0233656,0.0231459 -0.034792,0.0512725 -0.034792,0.0841601 0,0.0343526 0.0114264,0.0629187 0.034792,0.0858814 0.0241347,0.0225599 0.0529938,0.0332905 0.0879689,0.0332905zm0.859254 0.0308367c-0.0420434,0 -0.0777511,0.0155282 -0.108222,0.045486 -0.0303973,0.0312762 -0.0459255,0.0676797 -0.0459255,0.108222l0 0.374655c0,0.0140633 0.00479764,0.0268448 0.0155282,0.0369894 0.0100714,0.0101813 0.0225965,0.0147592 0.0367697,0.0147592 0.0161875,0 0.0287858,-0.0045779 0.0388572,-0.0147592 0.00864308,-0.0101446 0.0131844,-0.0229261 0.0131844,-0.0369894l0 -0.334992 0.027211 0 0 0.927629c0,0.0179454 0.00776412,0.0342793 0.0225965,0.0472073 0.0139534,0.0140267 0.0302874,0.0198132 0.0488554,0.0198132 0.0203259,0 0.0366965,-0.00578647 0.0499174,-0.0198132 0.0140633,-0.012928 0.0203259,-0.0292619 0.0203259,-0.0472073l0 -0.537812 0.0302874 0 0 0.537812c0,0.0179454 0.00695841,0.0342793 0.020216,0.0472073 0.013221,0.0140267 0.030324,0.0198132 0.0514556,0.0198132 0.0178355,0 0.0333637,-0.00578647 0.0475369,-0.0198132 0.0130012,-0.012928 0.0191539,-0.0292619 0.0191539,-0.0472073l0 -0.927629 0.0282365 0 0 0.334992c0,0.0140633 0.00454128,0.0268448 0.0139168,0.0369894 0.0110602,0.0101813 0.0240981,0.0147592 0.0381248,0.0147592 0.016334,0 0.0288957,-0.0045779 0.0382713,-0.0147592 0.00842334,-0.0101446 0.0139534,-0.0229261 0.0139534,-0.0369894l0 -0.374655c0,-0.0405419 -0.0147958,-0.0769454 -0.0452297,-0.108222 -0.0295916,-0.0299578 -0.0652992,-0.045486 -0.108844,-0.045486l-0.266177 0zm0.133821 -0.0308367c0.0326679,0 0.0614537,-0.0107306 0.0847461,-0.0332905 0.0231825,-0.0229628 0.0350118,-0.0515289 0.0350118,-0.0858814 0,-0.0328876 -0.0118293,-0.0610143 -0.0350118,-0.0841601 -0.0232924,-0.0238417 -0.0520782,-0.0357443 -0.0847461,-0.0357443 -0.0342061,0 -0.0631384,0.0119025 -0.0849658,0.0357443 -0.0231459,0.0231459 -0.0340962,0.0512725 -0.0340962,0.0841601 0,0.0343526 0.0109503,0.0629187 0.0340962,0.0858814 0.0218274,0.0225599 0.0507598,0.0332905 0.0849658,0.0332905zm-0.410143 -0.360446l-0.118183 0 0 1.65676 0.118183 0 0 -1.65676z"/>
  <polygon class="fil1" points="0.462112,2.89041 2.52806,2.89041 2.62515,2.89041 2.68342,2.89041 2.68342,2.84555 2.68342,2.6513 2.37278,2.6513 0.462112,2.6513 0.403844,2.6513 0.403844,2.69613 0.403844,2.84555 0.403844,2.89041 "/>
 </g>
</svg>
