<?xml version="1.0" encoding="UTF-8"?>
<!DOCTYPE svg PUBLIC "-//W3C//DTD SVG 1.1//EN" "http://www.w3.org/Graphics/SVG/1.1/DTD/svg11.dtd">
<!-- Creator: CorelDRAW -->
<svg xmlns="http://www.w3.org/2000/svg" xml:space="preserve" width="8.5mm" height="8.5mm" style="shape-rendering:geometricPrecision; text-rendering:geometricPrecision; image-rendering:optimizeQuality; fill-rule:evenodd; clip-rule:evenodd"
viewBox="0 0 1.44438 1.44438"
 xmlns:xlink="http://www.w3.org/1999/xlink">
 <defs>
  <style type="text/css">
   <![CDATA[
    .fil2 {fill:white}
    .fil0 {fill:#00923F}
    .fil1 {fill:white;fill-rule:nonzero}
    .fil3 {fill:#00923F;fill-rule:nonzero}
   ]]>
  </style>
 </defs>
 <g id="okviri">
  <metadata id="CorelCorpID_0Corel-Layer"/>
  <polygon class="fil0" points="0,0 1.44438,0 1.44438,1.44438 0,1.44438 "/>
 </g>
 <g id="piktogrami">
  <metadata id="CorelCorpID_1Corel-Layer"/>
  <polygon class="fil1" points="1.34767,1.29083 1.12673,1.39584 1.11171,1.40298 1.11798,1.38757 1.14045,1.33233 0.680624,1.33233 0.680624,1.23887 1.14073,1.23887 1.11802,1.18366 1.11169,1.1683 1.12672,1.17537 1.34765,1.27914 1.36002,1.28495 "/>
  <polygon class="fil1" points="1.22721,0.363065 0.722851,0.112304 0.722647,0.111778 0.722188,0.111965 0.721712,0.111778 0.721491,0.112304 0.217149,0.363065 0.259172,0.447638 0.722188,0.217489 1.18519,0.447638 "/>
  <path class="fil2" d="M0.391222 0.618312c0.00183521,-0.00508081 -0.000203912,-0.00290574 0.00241296,-0.00550562l-0.0057775 0.000594743 0.00336455 0.00491088z"/>
  <g id="_92588640">
   <path id="_92589024" class="fil2" d="M0.394875 0.618312c0.00183521,-0.00508081 -0.000203912,-0.00290574 0.00241296,-0.00550562l-0.0057775 0.000594743 0.00336455 0.00491088z"/>
   <g>
    <polygon id="_92588976" class="fil1" points="1.12666,0.776734 0.99492,0.847492 0.99492,1.02348 0.722137,1.15932 0.449405,1.02348 0.449405,0.846948 0.318765,0.776734 0.449405,0.705586 0.449405,0.705484 0.449524,0.705484 0.450815,0.704822 0.345257,0.64618 0.316437,0.629952 0.587164,0.482744 0.723989,0.557172 0.857127,0.484512 1.09875,0.616205 1.12796,0.632008 0.995566,0.705518 "/>
    <polygon id="_92588928" class="fil3" points="0.852148,0.924146 0.958522,0.867067 0.958522,1.00082 0.740523,1.10928 0.740523,0.862106 "/>
    <polygon id="_92588880" class="fil3" points="0.953033,0.723819 1.04984,0.776446 0.852522,0.882446 0.757805,0.830397 "/>
    <polygon id="_92588832" class="fil3" points="0.592993,0.924146 0.703972,0.86253 0.703972,1.10935 0.48599,1.00082 0.48599,0.866643 "/>
    <polygon id="_92588784" class="fil3" points="0.59267,0.882446 0.395368,0.776565 0.492039,0.723819 0.689035,0.830397 "/>
    <polygon id="_92588736" class="fil3" points="0.857127,0.526127 1.05215,0.632212 0.95774,0.684753 0.760455,0.578821 "/>
    <polygon id="_92588688" class="fil3" points="0.486483,0.68285 0.392123,0.630326 0.587164,0.524173 0.683836,0.576833 "/>
   </g>
  </g>
 </g>
</svg>
