<?xml version="1.0" encoding="UTF-8"?>
<!DOCTYPE svg PUBLIC "-//W3C//DTD SVG 1.1//EN" "http://www.w3.org/Graphics/SVG/1.1/DTD/svg11.dtd">
<!-- Creator: CorelDRAW -->
<svg xmlns="http://www.w3.org/2000/svg" xml:space="preserve" width="8.4mm" height="8.4mm" style="shape-rendering:geometricPrecision; text-rendering:geometricPrecision; image-rendering:optimizeQuality; fill-rule:evenodd; clip-rule:evenodd"
viewBox="0 0 0.451668 0.451668"
 xmlns:xlink="http://www.w3.org/1999/xlink">
 <defs>
  <style type="text/css">
   <![CDATA[
    .fil0 {fill:#00923F}
    .fil1 {fill:white;fill-rule:nonzero}
   ]]>
  </style>
 </defs>
 <g id="okviri">
  <metadata id="CorelCorpID_0Corel-Layer"/>
  <polygon class="fil0" points="0,0 0.451668,0 0.451668,0.451668 0,0.451668 "/>
 </g>
 <g id="piktogrami">
  <metadata id="CorelCorpID_1Corel-Layer"/>
  <path class="fil1" d="M0.385644 0.140576l-0.159595 -0.0793485 -6.45241e-005 -0.000166687 -0.000145179 5.91471e-005 -0.000150556 -5.91471e-005 -6.45241e-005 0.000166687 -0.159595 0.0793485 0.0132973 0.0267614 0.146513 -0.0728262 0.146513 0.0728262 0.013292 -0.0267614zm-0.184851 0.132559l5.377e-005 -0.000182818c0.000967861,-0.00478553 -0.00216156,-0.0093775 -0.00697935,-0.0103077 -0.00473176,-0.00101088 -0.00947966,0.00223146 -0.0104475,0.00703312 -0.000973238,0.00479629 0.00214542,0.00947428 0.00696322,0.0104099 0.000569963,0.000123671 0.00116143,0.000172064 0.00174753,0.000172064 0.00412416,0 0.00781279,-0.00290896 0.00866235,-0.00712453zm-0.00545228 0.0352086l3.2262e-005 -0.000172064c0.00095173,-0.00480167 -0.00216693,-0.00939363 -0.00698473,-0.0103292 -0.00469413,-0.00105389 -0.00946891,0.00223683 -0.010426,0.00703312 -0.000973238,0.00480167 0.00214542,0.00947966 0.00694709,0.0104314 0.00057534,0.000102163 0.00116143,0.000155933 0.00176903,0.000155933 0.00412416,0 0.00781279,-0.00289283 0.00866235,-0.00711915zm-0.0053555 0.0343698l1.6131e-005 -0.000172064c0.000505438,-0.00487157 -0.00306489,-0.00913015 -0.00795259,-0.00961408 -0.00485006,-0.00057534 -0.00919468,0.00315092 -0.00970012,0.00800636 -0.00048393,0.00486619 0.00306489,0.00921081 0.00793108,0.00971625 0.000295735,3.7639e-005 0.000623733,4.8393e-005 0.000903337,4.8393e-005 0.00448442,0 0.00835049,-0.00342515 0.00880216,-0.00798485zm-0.00561359 0.0360367l4.8393e-005 -0.000177441c0.000957107,-0.00479629 -0.00216156,-0.00938825 -0.00699548,-0.01034 -0.00476403,-0.000967861 -0.00945815,0.00223146 -0.0104314,0.00704925 -0.000967861,0.00480167 0.0021508,0.00945815 0.0069686,0.0104153 0.000548454,0.000139802 0.00116143,0.000188195 0.00174753,0.000188195 0.00412416,0 0.00781279,-0.00290896 0.00866235,-0.00713529zm-0.0144319 -0.10405l6.99011e-005 -0.000172064c0.0018228,-0.0045597 -0.000414029,-0.00961408 -0.0049576,-0.0114369 -0.00446829,-0.00183894 -0.00973238,0.000467799 -0.0115552,0.00502212 -0.00181743,0.00454357 0.000381767,0.00970549 0.00494147,0.0115068 0.00105389,0.00043016 0.00219919,0.000639864 0.00326922,0.000639864 0.00352194,0 0.00684493,-0.00211316 0.00823219,-0.00555982zm-0.0119746 0.0327245l5.377e-005 -0.000188195c0.00141953,-0.0046995 -0.00127973,-0.00952805 -0.00595772,-0.0109315 -0.00476403,-0.00148943 -0.00966785,0.00131199 -0.0110497,0.00602762 -0.00140878,0.00467799 0.00124747,0.00961408 0.00594159,0.0110175 0.000849567,0.000258096 0.00169913,0.000381767 0.00254332,0.000381767 0.0038123,0 0.00734499,-0.0024788 0.00846878,-0.00630723zm-0.0124854 0.0341816l6.99011e-005 -0.000172064c0.00181205,-0.00452206 -0.000419406,-0.00960333 -0.00497373,-0.0114208 -0.0044898,-0.00181205 -0.00972162,0.000467799 -0.0115552,0.0050275 -0.0018013,0.00453819 0.000397898,0.00970549 0.00495222,0.0115068 0.00105927,0.000446291 0.00220457,0.000634487 0.0032746,0.000634487 0.00351656,0 0.00686106,-0.00210779 0.00823219,-0.00557595zm-0.0122327 0.0334719l5.377e-005 -0.000172064c0.00183356,-0.00454357 -0.000397898,-0.00961408 -0.00497373,-0.0114154 -0.00447367,-0.00183894 -0.00972162,0.000446291 -0.0115391,0.00500061 -0.0018013,0.00454357 0.000381767,0.00968399 0.0049576,0.0115229 0.00105389,0.000419406 0.00217769,0.000645241 0.0032746,0.000645241 0.00351656,0 0.00683955,-0.00211854 0.00822682,-0.00558133zm0.128032 -0.0949902c0.00482855,-0.000935599 0.00793108,-0.00561359 0.00697935,-0.0104099l-3.7639e-005 -0.000172064c-0.000967861,-0.00480704 -0.00571576,-0.00787194 -0.0104099,-0.00686106 -0.0048178,0.000930222 -0.00791495,0.00569425 -0.00693096,0.0104905 0.000833436,0.00421557 0.00452206,0.00712453 0.00866235,0.00712453 0.000591471,0 0.00118294,-4.8393e-005 0.00173677,-0.000172064zm0.00548992 0.0352194c0.00479629,-0.00095173 0.00791495,-0.00562972 0.00694709,-0.0104314l-3.7639e-005 -0.000172064c-0.00095173,-0.00479629 -0.00562972,-0.0078343 -0.0104099,-0.00686106 -0.00480167,0.000935599 -0.00789882,0.005705 -0.00693096,0.0105013 0.000849567,0.00422633 0.00453819,0.00711915 0.00866235,0.00711915 0.000591471,0 0.00117756,-5.377e-005 0.00176903,-0.000155933zm0.00460809 0.0353431c0.00487157,-0.000505438 0.00843652,-0.00485006 0.00793108,-0.00971625l-1.6131e-005 -0.000177441c-0.000467799,-0.00485006 -0.00479629,-0.00840426 -0.00966785,-0.00782892 -0.00489845,0.00048393 -0.00845265,0.00490383 -0.00793646,0.00978615 0.000457045,0.0045597 0.00431773,0.00798485 0.00878603,0.00798485 0.000295735,0 0.000623733,-1.0754e-005 0.000903337,-4.8393e-005zm0.00632336 0.0350473c0.00483393,-0.000957107 0.00793646,-0.00561359 0.00698473,-0.0104153l-3.7639e-005 -0.000172064c-0.000973238,-0.00481242 -0.00566736,-0.00786656 -0.0104153,-0.00687719 -0.00481242,0.00095173 -0.00791495,0.00572113 -0.00693096,0.0105174 0.000849567,0.00422633 0.00454357,0.00713529 0.00866235,0.00713529 0.000591471,0 0.00118294,-4.8393e-005 0.00173677,-0.000188195zm0.0155395 -0.106078c0.00455432,-0.0018013 0.00675352,-0.00696322 0.00493609,-0.0115068l-6.45241e-005 -0.000172064c-0.00180667,-0.00453819 -0.00695247,-0.00672126 -0.0114907,-0.00485006 -0.00455432,0.0018228 -0.00672126,0.00707076 -0.00488232,0.011609 0.00138189,0.00344666 0.00469413,0.00555982 0.00821069,0.00555982 0.00108615,0 0.0022207,-0.000209703 0.00329073,-0.000639864zm0.0114853 0.03373c0.00469413,-0.0014034 0.00734499,-0.00633949 0.00594159,-0.0110175l-4.8393e-005 -0.000177441c-0.0014034,-0.00469413 -0.0062911,-0.00725896 -0.0110229,-0.00585018 -0.00465649,0.0014034 -0.00732348,0.00640401 -0.00590395,0.0111196 0.00113993,0.00382843 0.00467799,0.00630723 0.00849029,0.00630723 0.000828059,0 0.00167763,-0.000123671 0.00254332,-0.000381767zm0.0129801 0.0331976c0.00454895,-0.0018013 0.00675352,-0.0069686 0.00493609,-0.0115068l-6.99011e-005 -0.000172064c-0.0018228,-0.0045597 -0.00696322,-0.00673739 -0.0114853,-0.00485544 -0.00453819,0.00181743 -0.00670513,0.00705463 -0.0048877,0.0115928 0.00137114,0.00346817 0.00469413,0.00557595 0.00823219,0.00557595 0.0010754,0 0.00221533,-0.000188195 0.0032746,-0.000634487zm0.0122273 0.0334665c0.00457583,-0.00183894 0.0067589,-0.00697935 0.00494147,-0.0115229l-7.52781e-005 -0.000172064c-0.00177979,-0.00455432 -0.00693096,-0.00672126 -0.0114692,-0.00482855 -0.00455432,0.0018013 -0.00669975,0.00704925 -0.00489845,0.0115874 0.00138727,0.00346279 0.00471026,0.00558133 0.00822682,0.00558133 0.0010754,0 0.0022207,-0.000225834 0.0032746,-0.000645241zm-0.0952321 0.0017314l0 -8.60321e-005c0,-0.00491996 -0.00394672,-0.00883442 -0.00887206,-0.00883442 -0.00490383,0 -0.00885055,0.004022 -0.00885055,0.00892045 0,0.00490383 0.00394672,0.00885593 0.00885055,0.00885593 0.00492534,0 0.00887206,-0.0039521 0.00887206,-0.00885593zm0 -0.0735736l0 -0.000193572c0,-0.00488232 -0.00394672,-0.00874839 -0.00887206,-0.00874839 -0.00490383,0 -0.00885055,0.00403813 -0.00885055,0.00894196 0,0.00490383 0.00394672,0.00886668 0.00885055,0.00886668 0.00492534,0 0.00887206,-0.00396285 0.00887206,-0.00886668zm0 0.0368325l0 -0.000177441c0,-0.00491996 -0.00394672,-0.00878065 -0.00887206,-0.00878065 -0.00490383,0 -0.00885055,0.00405426 -0.00885055,0.00895809 0,0.00489845 0.00394672,0.00886668 0.00885055,0.00886668 0.00492534,0 0.00887206,-0.00396823 0.00887206,-0.00886668zm0 -0.0736865l0 -8.60321e-005c0,-0.00489845 -0.00394672,-0.00881291 -0.00887206,-0.00881291 -0.00490383,0 -0.00885055,0.00400049 -0.00885055,0.00889894 0,0.00490383 0.00394672,0.00885593 0.00885055,0.00885593 0.00492534,0 0.00887206,-0.0039521 0.00887206,-0.00885593zm0.0779074 -0.021223l-0.173537 0c0,-0.02938 0.0238148,-0.053184 0.053184,-0.053184l0.0148782 0 0 -0.0661802 0.0373917 0 0 0.0661802 0.0148997 0c0.0293638,0 0.053184,0.023804 0.053184,0.053184z"/>
 </g>
</svg>
