<?xml version="1.0" encoding="UTF-8"?>
<!DOCTYPE svg PUBLIC "-//W3C//DTD SVG 1.1//EN" "http://www.w3.org/Graphics/SVG/1.1/DTD/svg11.dtd">
<!-- Creator: CorelDRAW -->
<svg xmlns="http://www.w3.org/2000/svg" xml:space="preserve" width="8.4mm" height="8.4mm" style="shape-rendering:geometricPrecision; text-rendering:geometricPrecision; image-rendering:optimizeQuality; fill-rule:evenodd; clip-rule:evenodd"
viewBox="0 0 0.451668 0.451668"
 xmlns:xlink="http://www.w3.org/1999/xlink">
 <defs>
  <style type="text/css">
   <![CDATA[
    .fil0 {fill:#00923F}
    .fil1 {fill:white;fill-rule:nonzero}
   ]]>
  </style>
 </defs>
 <g id="okviri">
  <metadata id="CorelCorpID_0Corel-Layer"/>
  <polygon class="fil0" points="0,0 0.451668,0 0.451668,0.451668 0,0.451668 "/>
 </g>
 <g id="piktogrami">
  <metadata id="CorelCorpID_1Corel-Layer"/>
  <path class="fil1" d="M0.385638 0.138162l-0.159589 -0.0793484 -6.9901e-005 -0.000166687 -0.000145179 5.9147e-005 -0.000150556 -5.9147e-005 -6.4524e-005 0.000166687 -0.159595 0.0793484 0.0133027 0.0267613 0.146507 -0.0728261 0.146512 0.0728261 0.0132919 -0.0267613zm-0.201331 0.142856c-0.00287669,0.00568886 -0.0157331,0.0356764 -0.0157331,0.039978 0,0.0235082 0.0314286,0.0235082 0.0314286,0 0,-0.0043016 -0.0128349,-0.0357409 -0.0156955,-0.039978zm-0.0185775 -0.0132866l0 -0.0181312c0,-0.0115337 0.0104421,-0.0214488 0.0242771,-0.0214488l0.032305 0 0.000172064 -0.0100389c0,-0.00294659 0.0023605,-0.00526946 0.00527484,-0.00526946l0.0126306 0 0 -0.00648466c-0.00108615,-0.000672125 -0.00200024,-0.00145717 -0.00276915,-0.00248417l-0.0269119 0c-0.00178516,0.00234437 -0.00447366,0.00391983 -0.00758157,0.00391983 -0.005377,0 -0.00974312,-0.00435537 -0.00974312,-0.00974312 0,-0.00529634 0.00436612,-0.00968935 0.00974312,-0.00968935 0.0032262,0 0.00592545,0.00167225 0.00768911,0.0041134l0.0266914 0c0.00176366,-0.00244116 0.00446829,-0.0041134 0.00769986,-0.0041134 0.0032262,0 0.00594158,0.00167225 0.00772675,0.0041134l0.0294391 0c0.00174752,-0.00244116 0.00449517,-0.0041134 0.00767835,-0.0041134 0.00538237,0 0.00975387,0.00439301 0.00975387,0.00968935 0,0.00538775 -0.0043715,0.00974312 -0.00975387,0.00974312 -0.00311866,0 -0.00578027,-0.00157546 -0.00756544,-0.00391983l-0.0296972 0c-0.000758157,0.00104314 -0.00170451,0.00184431 -0.00279604,0.0025003l0 0.00646853 0.0134156 0c0.0028982,0 0.0052587,0.00232286 0.0052587,0.00526946l0 0.0100389 0.0392521 0 0 0.0314124 -0.0436558 0c-0.00429084,0.0086032 -0.00999046,0.0128618 -0.0186044,0.0128618 -0.00853867,0 -0.0156686,-0.00425858 -0.0199755,-0.0128618l-0.0156686 0c-0.00471025,0 -0.00644702,0.00302725 -0.0069417,0.00882365 0.00136576,0.00091409 0.00233362,0.00242503 0.00233362,0.00424245 0,0.00292509 -0.00236588,0.00522644 -0.00527484,0.00522644l-0.0326007 0c-0.00291971,0 -0.0052587,-0.00230136 -0.0052587,-0.00522644 0,-0.00227985 0.00144641,-0.0041618 0.00345741,-0.00489845zm0.0480327 0.115498l-0.0589427 0 -0.0119208 -0.0669221c0.00522107,-0.000607601 0.0097485,-0.00306489 0.0122649,-0.00666748 0.00290358,0.00412953 0.0083451,0.0069202 0.0145609,0.0069202 0.00623194,0 0.0116788,-0.00279066 0.0145555,-0.0069202 0.00291971,0.00412953 0.00836123,0.0069202 0.0145717,0.0069202 0.00622119,0 0.0116788,-0.00279066 0.0145609,-0.0069202 0.00251644,0.00360259 0.00704387,0.00607063 0.0122649,0.00666748l-0.0119154 0.0669221zm0.0164966 -0.0925812l-0.00395747 0.022121c-0.00600073,-0.000682879 -0.010668,-0.00487694 -0.010668,-0.00999046 0,-0.0010055 -0.000978614,-0.00182818 -0.0022207,-0.00182818 -0.00122058,0 -0.00223145,0.000822681 -0.00223145,0.00182818 0,0.0055867 -0.00552755,0.0101249 -0.0123295,0.0101249 -0.00680728,0 -0.0123402,-0.00453819 -0.0123402,-0.0101249 0,-0.0010055 -0.000989368,-0.00182818 -0.00223145,-0.00182818 -0.00120445,0 -0.00222608,0.000822681 -0.00222608,0.00182818 0,0.0055867 -0.00552755,0.0101249 -0.0123295,0.0101249 -0.0068019,0 -0.0123295,-0.00453819 -0.0123295,-0.0101249 0,-0.0010055 -0.000994745,-0.00182818 -0.00223145,-0.00182818 -0.00122058,0 -0.0022207,0.000822681 -0.0022207,0.00182818 0,0.00511353 -0.00467261,0.00930758 -0.010668,0.00997971l-0.00395747 -0.0221102 -0.0120176 0 0.0182334 0.102373 0.0795097 0 0.0182334 -0.102373 -0.0120176 0z"/>
 </g>
</svg>
