<?xml version="1.0" encoding="UTF-8"?>
<!DOCTYPE svg PUBLIC "-//W3C//DTD SVG 1.1//EN" "http://www.w3.org/Graphics/SVG/1.1/DTD/svg11.dtd">
<!-- Creator: CorelDRAW -->
<svg xmlns="http://www.w3.org/2000/svg" xml:space="preserve" width="8.5mm" height="8.5mm" style="shape-rendering:geometricPrecision; text-rendering:geometricPrecision; image-rendering:optimizeQuality; fill-rule:evenodd; clip-rule:evenodd"
viewBox="0 0 1.44438 1.44438"
 xmlns:xlink="http://www.w3.org/1999/xlink">
 <defs>
  <style type="text/css">
   <![CDATA[
    .fil0 {fill:#00923F}
    .fil1 {fill:white;fill-rule:nonzero}
   ]]>
  </style>
 </defs>
 <g id="okviri">
  <metadata id="CorelCorpID_0Corel-Layer"/>
  <polygon class="fil0" points="0,0 1.44438,0 1.44438,1.44438 0,1.44438 "/>
 </g>
 <g id="piktogrami">
  <metadata id="CorelCorpID_1Corel-Layer"/>
  <polygon class="fil1" points="1.34767,1.29083 1.12673,1.39584 1.11171,1.40298 1.11798,1.38757 1.14045,1.33233 0.680624,1.33233 0.680624,1.23887 1.14073,1.23887 1.11802,1.18366 1.11169,1.1683 1.12672,1.17537 1.34765,1.27914 1.36002,1.28495 "/>
  <path class="fil1" d="M1.113 1.10503l-0.0350559 0 -0.711483 0 -0.0350559 0 -1.69927e-005 0 -0.00341552 0 0 -0.574624 0.00341552 0 0.0701457 0 0.00630428 0 0 0.475743 0.629476 0 0 -0.475743 0.0055566 0 0.0701457 0 0.0041632 0 0 0.574624 -0.0041632 0 -1.69927e-005 0zm0.116451 -0.734406l-0.504342 -0.250744 -0.000220905 -0.000543765 -0.000458802 0.000203912 -0.000475794 -0.000203912 -0.000203912 0.000543765 -0.504359 0.250744 0.0420398 0.0845895 0.462999 -0.230166 0.463016 0.230166 0.0420059 -0.0845895z"/>
 </g>
</svg>
