<?xml version="1.0" encoding="UTF-8"?>
<!DOCTYPE svg PUBLIC "-//W3C//DTD SVG 1.1//EN" "http://www.w3.org/Graphics/SVG/1.1/DTD/svg11.dtd">
<!-- Creator: CorelDRAW -->
<svg xmlns="http://www.w3.org/2000/svg" xml:space="preserve" width="8.4mm" height="8.4mm" style="shape-rendering:geometricPrecision; text-rendering:geometricPrecision; image-rendering:optimizeQuality; fill-rule:evenodd; clip-rule:evenodd"
viewBox="0 0 3.04012 3.04012"
 xmlns:xlink="http://www.w3.org/1999/xlink">
 <defs>
  <style type="text/css">
   <![CDATA[
    .fil0 {fill:#00923F}
    .fil1 {fill:white;fill-rule:nonzero}
   ]]>
  </style>
 </defs>
 <g id="okviri">
  <metadata id="CorelCorpID_0Corel-Layer"/>
  <polygon class="fil0" points="0,0 3.04012,0 3.04012,3.04012 0,3.04012 "/>
 </g>
 <g id="piktogrami">
  <metadata id="CorelCorpID_1Corel-Layer"/>
  <polygon class="fil1" points="0.451241,2.7908 2.49286,2.7908 2.58881,2.7908 2.64639,2.7908 2.64639,2.74646 2.64639,2.5545 2.33941,2.5545 0.451241,2.5545 0.39366,2.5545 0.39366,2.5988 0.39366,2.74646 0.39366,2.7908 "/>
  <path class="fil1" d="M2.5689 0.679938l-1.07418 -0.534084 -0.000470495 -0.00112195 -0.000977182 0.000398111 -0.00101337 -0.000398111 -0.000434303 0.00112195 -1.07421 0.534084 0.0895388 0.180127 0.986121 -0.490183 0.986157 0.490183 0.0894664 -0.180127zm-1.35513 0.961547c-0.0193627,0.0382911 -0.105898,0.240133 -0.105898,0.269087 0,0.158231 0.211542,0.158231 0.211542,0 0,-0.0289535 -0.0863901,-0.240568 -0.105644,-0.269087zm-0.125043 -0.0894302l0 -0.122039c0,-0.0776317 0.0702847,-0.14437 0.163407,-0.14437l0.217441 0 0.00115814 -0.0675703c0,-0.0198332 0.0158883,-0.0354681 0.0355043,-0.0354681l0.0850148 0 0 -0.0436475c-0.00731077,-0.00452399 -0.0134634,-0.00980801 -0.0186388,-0.0167207l-0.181141 0c-0.0120157,0.0157797 -0.0301117,0.0263839 -0.0510306,0.0263839 -0.0361919,0 -0.0655798,-0.0293155 -0.0655798,-0.0655798 0,-0.035649 0.0293878,-0.0652178 0.0655798,-0.0652178 0.0217152,0 0.0398835,0.0112557 0.0517544,0.0276868l0.179657 0c0.0118709,-0.0164311 0.0300755,-0.0276868 0.0518268,-0.0276868 0.0217152,0 0.0399921,0.0112557 0.0520078,0.0276868l0.198151 0c0.0117624,-0.0164311 0.0302564,-0.0276868 0.0516821,-0.0276868 0.0362281,0 0.0656521,0.0295688 0.0656521,0.0652178 0,0.0362643 -0.029424,0.0655798 -0.0656521,0.0655798 -0.0209913,0 -0.0389063,-0.0106042 -0.050922,-0.0263839l-0.199888 0c-0.00510306,0.00702123 -0.0114728,0.0124138 -0.0188198,0.0168292l0 0.0435389 0.0902988 0c0.0195074,0 0.0353957,0.0156349 0.0353957,0.0354681l0 0.0675703 0.264201 0 0 0.211433 -0.293842 0c-0.0288812,0.0579071 -0.0672446,0.0865711 -0.125224,0.0865711 -0.0574728,0 -0.105463,-0.028664 -0.134453,-0.0865711l-0.105463 0c-0.0317041,0 -0.0433941,0.0203761 -0.0467238,0.0593909 0.00919275,0.00615263 0.0157073,0.0163226 0.0157073,0.0285554 0,0.0196884 -0.0159244,0.0351785 -0.0355043,0.0351785l-0.219432 0c-0.0196522,0 -0.0353957,-0.0154901 -0.0353957,-0.0351785 0,-0.0153454 0.00973563,-0.0280125 0.0232714,-0.0329708zm0.323302 0.777402l-0.396736 0 -0.0802375 -0.450445c0.0351424,-0.00408969 0.065616,-0.0206294 0.0825538,-0.044878 0.0195436,0.0277954 0.0561699,0.046579 0.0980077,0.046579 0.0419464,0 0.0786089,-0.0187836 0.0979715,-0.046579 0.0196522,0.0277954 0.0562784,0.046579 0.0980801,0.046579 0.0418741,0 0.0786089,-0.0187836 0.0980077,-0.046579 0.0169378,0.0242486 0.0474114,0.0408607 0.0825538,0.044878l-0.0802013 0.450445zm0.111037 -0.623152l-0.0266373 0.148894c-0.0403902,-0.00459637 -0.0718048,-0.0328261 -0.0718048,-0.0672446 0,-0.00676789 -0.00658693,-0.0123053 -0.0149473,-0.0123053 -0.00821557,0 -0.0150196,0.00553736 -0.0150196,0.0123053 0,0.0376034 -0.0372053,0.0681494 -0.0829881,0.0681494 -0.045819,0 -0.0830605,-0.030546 -0.0830605,-0.0681494 0,-0.00676789 -0.00665931,-0.0123053 -0.0150196,-0.0123053 -0.00810699,0 -0.0149835,0.00553736 -0.0149835,0.0123053 0,0.0376034 -0.0372053,0.0681494 -0.0829881,0.0681494 -0.0457828,0 -0.0829881,-0.030546 -0.0829881,-0.0681494 0,-0.00676789 -0.00669551,-0.0123053 -0.0150196,-0.0123053 -0.00821557,0 -0.0149473,0.00553736 -0.0149473,0.0123053 0,0.0344185 -0.0314508,0.0626482 -0.0718048,0.0671722l-0.0266373 -0.148821 -0.0808889 0 0.122727 0.689058 0.53517 0 0.122727 -0.689058 -0.0808889 0z"/>
 </g>
</svg>
