<?xml version="1.0" encoding="UTF-8"?>
<!DOCTYPE svg PUBLIC "-//W3C//DTD SVG 1.1//EN" "http://www.w3.org/Graphics/SVG/1.1/DTD/svg11.dtd">
<!-- Creator: CorelDRAW -->
<svg xmlns="http://www.w3.org/2000/svg" xml:space="preserve" width="8.4mm" height="8.4mm" style="shape-rendering:geometricPrecision; text-rendering:geometricPrecision; image-rendering:optimizeQuality; fill-rule:evenodd; clip-rule:evenodd"
viewBox="0 0 0.451667 0.451667"
 xmlns:xlink="http://www.w3.org/1999/xlink">
 <defs>
  <style type="text/css">
   <![CDATA[
    .fil2 {fill:white}
    .fil0 {fill:#00923F}
    .fil1 {fill:white;fill-rule:nonzero}
    .fil3 {fill:#00923F;fill-rule:nonzero}
   ]]>
  </style>
 </defs>
 <g id="okviri">
  <metadata id="CorelCorpID_0Corel-Layer"/>
  <polygon class="fil0" points="0,0 0.451667,0 0.451667,0.451667 0,0.451667 "/>
 </g>
 <g id="piktogrami">
  <metadata id="CorelCorpID_1Corel-Layer"/>
  <polygon class="fil1" points="0.385643,0.140576 0.226049,0.0612278 0.225984,0.0610611 0.225839,0.0611203 0.225688,0.0610611 0.225619,0.0612278 0.0660295,0.140576 0.0793267,0.167337 0.225839,0.0945114 0.372346,0.167337 "/>
  <path class="fil2" d="M0.121111 0.221344c0.000580715,-0.00160772 -6.45239e-005,-0.000919465 0.000763533,-0.00174215l-0.00182818 0.000188195 0.00106464 0.00155395z"/>
  <g id="_92588208">
   <path id="_92588592" class="fil2" d="M0.122262 0.226178c0.000580715,-0.00160772 -6.45239e-005,-0.000919465 0.000763533,-0.00174215l-0.00182818 0.000188195 0.00106464 0.00155395z"/>
   <g>
    <polygon id="_92588544" class="fil1" points="0.353822,0.276307 0.312134,0.298697 0.312134,0.354387 0.225817,0.39737 0.139517,0.354387 0.139517,0.298525 0.0981785,0.276307 0.139517,0.253794 0.139517,0.253762 0.139554,0.253762 0.139963,0.253552 0.106561,0.234996 0.0974418,0.229861 0.183108,0.18328 0.226404,0.206831 0.268532,0.183839 0.344988,0.225511 0.354231,0.230512 0.312339,0.253772 "/>
    <polygon id="_92588496" class="fil3" points="0.266957,0.322953 0.300617,0.304892 0.300617,0.347214 0.231635,0.381535 0.231635,0.303321 "/>
    <polygon id="_92588448" class="fil3" points="0.29888,0.259563 0.329513,0.276216 0.267075,0.309758 0.237104,0.293288 "/>
    <polygon id="_92588400" class="fil3" points="0.184952,0.322953 0.220069,0.303456 0.220069,0.381557 0.151093,0.347214 0.151093,0.304757 "/>
    <polygon id="_92588352" class="fil3" points="0.18485,0.309758 0.122418,0.276254 0.153008,0.259563 0.215343,0.293288 "/>
    <polygon id="_92588304" class="fil3" points="0.268532,0.197008 0.330244,0.230576 0.300369,0.247202 0.237943,0.213682 "/>
    <polygon id="_92588256" class="fil3" points="0.151249,0.2466 0.121391,0.229979 0.183108,0.196389 0.213698,0.213053 "/>
   </g>
  </g>
 </g>
</svg>
