<?xml version="1.0" encoding="UTF-8"?>
<!DOCTYPE svg PUBLIC "-//W3C//DTD SVG 1.1//EN" "http://www.w3.org/Graphics/SVG/1.1/DTD/svg11.dtd">
<!-- Creator: CorelDRAW -->
<svg xmlns="http://www.w3.org/2000/svg" xml:space="preserve" width="8.5mm" height="8.5mm" style="shape-rendering:geometricPrecision; text-rendering:geometricPrecision; image-rendering:optimizeQuality; fill-rule:evenodd; clip-rule:evenodd"
viewBox="0 0 5.38938 5.38938"
 xmlns:xlink="http://www.w3.org/1999/xlink">
 <defs>
  <style type="text/css">
   <![CDATA[
    .fil0 {fill:#00923F}
    .fil1 {fill:white;fill-rule:nonzero}
   ]]>
  </style>
 </defs>
 <g id="okviri">
  <metadata id="CorelCorpID_0Corel-Layer"/>
  <polygon class="fil0" points="0,0 5.38938,0 5.38938,5.38938 0,5.38938 "/>
 </g>
 <g id="piktogrami">
  <metadata id="CorelCorpID_1Corel-Layer"/>
  <path class="fil1" d="M4.57907 1.24412l-1.88191 -0.935659 -0.000760853 -0.00196554 -0.00171192 0.000697449 -0.00177532 -0.000697449 -0.000824258 0.00196554 -1.88184 0.935659 0.156799 0.315564 1.72764 -0.85875 1.72758 0.85875 0.156799 -0.315564zm-2.73229 1.99629l0 0.722811c0,0.0280882 -0.00932045,0.0518014 -0.0269469,0.0687938 -0.0173094,0.0178166 -0.0405154,0.0262494 -0.0685402,0.0262494 -0.0284686,0 -0.0527525,-0.00843279 -0.0718372,-0.0262494 -0.019909,-0.0169924 -0.0294197,-0.0407057 -0.0294197,-0.0687938l0 -0.722811 -0.270674 0 0.281769 -0.951828 -0.048441 0c-0.0310682,0.1069 -0.057064,0.192686 -0.07729,0.260782 -0.0185775,0.0677794 -0.0387401,0.131818 -0.0563666,0.193891 -0.0203528,0.0611219 -0.033541,0.0997986 -0.0351895,0.113114 -0.0120468,0.0403252 -0.0387401,0.0598538 -0.0806505,0.0598538l-0.0214941 -0.00507236c-0.0391839,-0.0144562 -0.0579517,-0.0400082 -0.0579517,-0.0757683 0,-0.00989109 0.00120468,-0.0179435 0.00532597,-0.0260592 0.0027898,-0.00697449 0.0109056,-0.030878 0.0201626,-0.0714568 0.0109056,-0.0402618 0.0254886,-0.0902879 0.0430516,-0.14843 0.0176264,-0.0590929 0.0366478,-0.123195 0.0565568,-0.191735 0.0203528,-0.068984 0.0391839,-0.135432 0.0621364,-0.19947 0.0134417,-0.0490116 0.043115,-0.0937752 0.088893,-0.132198 0.0457146,-0.0401984 0.0931411,-0.0583955 0.142787,-0.0583955l0.331288 0c0.0512308,0 0.101003,0.0181971 0.145767,0.0583955 0.043115,0.0384231 0.0742466,0.0831866 0.0917462,0.132198 0.0183239,0.0640385 0.037472,0.130486 0.0563031,0.19947 0.0189579,0.0685402 0.0393108,0.132642 0.0554789,0.191735 0.017246,0.0581419 0.0322095,0.108168 0.0429882,0.14843 0.0105885,0.0405788 0.017563,0.0644823 0.0213039,0.0714568l0.00557959 0.0213039c0,0.0434954 -0.0204162,0.068984 -0.0593466,0.0805236l-0.0203528 0.00507236c-0.0429882,0 -0.0699985,-0.0195286 -0.0806505,-0.0598538 -0.00298001,-0.0133149 -0.0148366,-0.0519916 -0.030878,-0.113114 -0.0188945,-0.062073 -0.0381695,-0.126111 -0.0595368,-0.193891 -0.0213673,-0.0680964 -0.0467925,-0.153883 -0.0778607,-0.260782l-0.0486312 0 0.281389 0.951828 -0.266362 0 0 0.722811c0,0.0280882 -0.00811577,0.0518014 -0.0298635,0.0687938 -0.0189579,0.0178166 -0.0419103,0.0262494 -0.0699985,0.0262494 -0.0298001,0 -0.0512942,-0.00843279 -0.0701253,-0.0262494 -0.017563,-0.0169924 -0.0254886,-0.0407057 -0.0254886,-0.0687938l0 -0.722811 -0.0486312 0zm0.0268835 -1.29231c0.056747,0 0.105378,-0.0185775 0.143167,-0.0576346 0.0388669,-0.0397546 0.0590295,-0.0892101 0.0590295,-0.148683 0,-0.0569372 -0.0201626,-0.105632 -0.0590295,-0.145703 -0.037789,-0.0412763 -0.0864203,-0.0618827 -0.143167,-0.0618827 -0.0605512,0 -0.110514,0.0206064 -0.152297,0.0618827 -0.040452,0.0400716 -0.0602342,0.0887662 -0.0602342,0.145703 0,0.0594734 0.0197822,0.108929 0.0602342,0.148683 0.0417835,0.0390571 0.0917462,0.0576346 0.152297,0.0576346zm1.4876 0.0533865c-0.0727883,0 -0.134608,0.0268835 -0.18736,0.0787483 -0.0526257,0.0541474 -0.0795092,0.117171 -0.0795092,0.18736l0 0.648627c0,0.0243473 0.00830598,0.0464755 0.0268835,0.0640385 0.0174362,0.0176264 0.0391205,0.025552 0.0636581,0.025552 0.0280248,0 0.0498359,-0.00792556 0.0672721,-0.025552 0.0149634,-0.017563 0.0228256,-0.0396912 0.0228256,-0.0640385l0 -0.57996 0.0471095 0 0 1.60597c0,0.0310682 0.0134417,0.0593466 0.0391205,0.0817283 0.0241571,0.0242839 0.0524355,0.0343018 0.0845815,0.0343018 0.0351895,0 0.0635313,-0.0100179 0.0864203,-0.0343018 0.0243473,-0.0223818 0.0351895,-0.0506602 0.0351895,-0.0817283l0 -0.931094 0.0524355 0 0 0.931094c0,0.0310682 0.0120468,0.0593466 0.0349993,0.0817283 0.022889,0.0242839 0.0524989,0.0343018 0.0890832,0.0343018 0.030878,0 0.0577615,-0.0100179 0.082299,-0.0343018 0.0225086,-0.0223818 0.0331605,-0.0506602 0.0331605,-0.0817283l0 -1.60597 0.0488848 0 0 0.57996c0,0.0243473 0.00786215,0.0464755 0.0240937,0.0640385 0.0191481,0.0176264 0.0417201,0.025552 0.066004,0.025552 0.0282784,0 0.0500261,-0.00792556 0.0662576,-0.025552 0.014583,-0.017563 0.0241571,-0.0396912 0.0241571,-0.0640385l0 -0.648627c0,-0.0701887 -0.0256154,-0.133213 -0.0783045,-0.18736 -0.0512308,-0.0518648 -0.11305,-0.0787483 -0.188438,-0.0787483l-0.460824 0zm0.23168 -0.0533865c0.0565568,0 0.106393,-0.0185775 0.146718,-0.0576346 0.040135,-0.0397546 0.0606147,-0.0892101 0.0606147,-0.148683 0,-0.0569372 -0.0204796,-0.105632 -0.0606147,-0.145703 -0.0403252,-0.0412763 -0.0901611,-0.0618827 -0.146718,-0.0618827 -0.0592198,0 -0.109309,0.0206064 -0.147098,0.0618827 -0.0400716,0.0400716 -0.0590295,0.0887662 -0.0590295,0.145703 0,0.0594734 0.0189579,0.108929 0.0590295,0.148683 0.037789,0.0390571 0.0878786,0.0576346 0.147098,0.0576346zm-0.710066 -0.624027l-0.204606 0 0 2.86829 0.204606 0 0 -2.86829z"/>
  <path class="fil1" d="M0.7308 5.00407l1.55335 0 0 -0.413968 -1.55335 0 0 0.413968zm2.3932 0l1.55328 0 0 -0.413968 -1.55328 0 0 0.413968z"/>
 </g>
</svg>
