<?xml version="1.0" encoding="UTF-8"?>
<!DOCTYPE svg PUBLIC "-//W3C//DTD SVG 1.1//EN" "http://www.w3.org/Graphics/SVG/1.1/DTD/svg11.dtd">
<!-- Creator: CorelDRAW -->
<svg xmlns="http://www.w3.org/2000/svg" xml:space="preserve" width="8.4mm" height="8.4mm" style="shape-rendering:geometricPrecision; text-rendering:geometricPrecision; image-rendering:optimizeQuality; fill-rule:evenodd; clip-rule:evenodd"
viewBox="0 0 1.40778 1.40778"
 xmlns:xlink="http://www.w3.org/1999/xlink">
 <defs>
  <style type="text/css">
   <![CDATA[
    .fil0 {fill:#00923F}
    .fil1 {fill:white;fill-rule:nonzero}
   ]]>
  </style>
 </defs>
 <g id="okviri">
  <metadata id="CorelCorpID_0Corel-Layer"/>
  <polygon class="fil0" points="0,0 1.40778,0 1.40778,1.40778 0,1.40778 "/>
 </g>
 <g id="piktogrami">
  <metadata id="CorelCorpID_1Corel-Layer"/>
  <polygon class="fil1" points="1.32078,1.24273 1.10288,1.3463 1.08806,1.35334 1.09424,1.33814 1.1164,1.28366 0.662895,1.28366 0.662895,1.19148 1.11669,1.19148 1.09428,1.13703 1.08804,1.12188 1.10286,1.12885 1.32076,1.2312 1.33296,1.23693 "/>
  <path class="fil1" d="M1.20197 0.314856l-0.497414 -0.247316 -0.00021787 -0.000519536 -0.0004525 0.000184352 -0.000469259 -0.000184352 -0.000201111 0.000519536 -0.497431 0.247316 0.0414624 0.0834107 0.456639 -0.226987 0.456656 0.226987 0.0414288 -0.0834107zm-0.627516 0.44526c-0.00896619,0.0177313 -0.0490375,0.111198 -0.0490375,0.124605 0,0.0732714 0.0979578,0.0732714 0.0979578,0 0,-0.0134074 -0.0400043,-0.111399 -0.0489202,-0.124605zm-0.0579032 -0.0414121l0 -0.0565122c0,-0.0359486 0.0325464,-0.0668526 0.075668,-0.0668526l0.10069 0 0.000536296 -0.0312895c0,-0.00918406 0.00735731,-0.0164241 0.0164408,-0.0164241l0.0393675 0 0 -0.0202116c-0.00338537,-0.00209491 -0.00623444,-0.00454175 -0.00863101,-0.00774277l-0.08388 0c-0.00556407,0.00730703 -0.0139437,0.0122175 -0.0236305,0.0122175 -0.0167592,0 -0.0303677,-0.013575 -0.0303677,-0.0303677 0,-0.0165079 0.0136085,-0.0302002 0.0303677,-0.0302002 0.0100555,0 0.0184687,0.00521212 0.0239657,0.0128208l0.0831929 0c0.00549703,-0.0076087 0.0139269,-0.0128208 0.0239992,-0.0128208 0.0100555,0 0.018519,0.00521212 0.024083,0.0128208l0.0917568 0c0.00544675,-0.0076087 0.0140107,-0.0128208 0.0239322,-0.0128208 0.016776,0 0.0304013,0.0136923 0.0304013,0.0302002 0,0.0167928 -0.0136253,0.0303677 -0.0304013,0.0303677 -0.00972036,0 -0.0180162,-0.00491046 -0.0235803,-0.0122175l-0.0925613 0c-0.00236305,0.00325129 -0.00531268,0.00574842 -0.00871481,0.00779305l0 0.0201614 0.0418143 0c0.00903323,0 0.0163905,0.00723999 0.0163905,0.0164241l0 0.0312895 0.122342 0 0 0.0979075 -0.136068 0c-0.0133739,0.0268148 -0.0311387,0.0400881 -0.057987,0.0400881 -0.0266137,0 -0.0488364,-0.0132733 -0.0622606,-0.0400881l-0.0488364 0c-0.0146811,0 -0.0200943,0.00943545 -0.0216362,0.0275019 0.00425685,0.00284907 0.00727351,0.00755842 0.00727351,0.013223 0,0.00911703 -0.00737407,0.01629 -0.0164408,0.01629l-0.101611 0c-0.00910027,0 -0.0163905,-0.00717296 -0.0163905,-0.01629 0,-0.00710592 0.00450824,-0.0129717 0.0107762,-0.0152677zm0.14971 0.359989l-0.183715 0 -0.0371552 -0.208586c0.0162732,-0.00189379 0.0303845,-0.00955277 0.0382278,-0.0207815 0.00904999,0.0128711 0.0260103,0.0215691 0.045384,0.0215691 0.019424,0 0.0364011,-0.00869805 0.0453673,-0.0215691 0.00910027,0.0128711 0.0260606,0.0215691 0.0454175,0.0215691 0.0193904,0 0.0364011,-0.00869805 0.045384,-0.0215691 0.00784333,0.0112287 0.0219546,0.0189212 0.0382278,0.0207815l-0.0371385 0.208586zm0.0514174 -0.288561l-0.0123348 0.0689475c-0.0187033,-0.00212842 -0.0332503,-0.0152006 -0.0332503,-0.0311387 0,-0.00313398 -0.00305018,-0.00569814 -0.00692157,-0.00569814 -0.00380435,0 -0.00695509,0.00256416 -0.00695509,0.00569814 0,0.0174129 -0.0172285,0.0315577 -0.0384289,0.0315577 -0.0212172,0 -0.0384625,-0.0141448 -0.0384625,-0.0315577 0,-0.00313398 -0.0030837,-0.00569814 -0.00695509,-0.00569814 -0.00375407,0 -0.00693833,0.00256416 -0.00693833,0.00569814 0,0.0174129 -0.0172285,0.0315577 -0.0384289,0.0315577 -0.0212004,0 -0.0384289,-0.0141448 -0.0384289,-0.0315577 0,-0.00313398 -0.00310046,-0.00569814 -0.00695509,-0.00569814 -0.00380435,0 -0.00692157,0.00256416 -0.00692157,0.00569814 0,0.015938 -0.0145638,0.0290102 -0.0332503,0.0311052l-0.0123348 -0.068914 -0.0374569 0 0.0568306 0.319079 0.247819 0 0.0568306 -0.319079 -0.0374569 0z"/>
 </g>
</svg>
