<?xml version="1.0" encoding="UTF-8"?>
<!DOCTYPE svg PUBLIC "-//W3C//DTD SVG 1.1//EN" "http://www.w3.org/Graphics/SVG/1.1/DTD/svg11.dtd">
<!-- Creator: CorelDRAW -->
<svg xmlns="http://www.w3.org/2000/svg" xml:space="preserve" width="8.5001mm" height="8.5mm" style="shape-rendering:geometricPrecision; text-rendering:geometricPrecision; image-rendering:optimizeQuality; fill-rule:evenodd; clip-rule:evenodd"
viewBox="0 0 1.44442 1.4444"
 xmlns:xlink="http://www.w3.org/1999/xlink">
 <defs>
  <style type="text/css">
   <![CDATA[
    .fil2 {fill:white}
    .fil0 {fill:#00923F}
    .fil1 {fill:white;fill-rule:nonzero}
   ]]>
  </style>
 </defs>
 <g id="okviri">
  <metadata id="CorelCorpID_0Corel-Layer"/>
  <polygon class="fil0" points="0,0 1.44442,0 1.44442,1.4444 0,1.4444 "/>
 </g>
 <g id="piktogrami">
  <metadata id="CorelCorpID_1Corel-Layer"/>
  <polygon class="fil1" points="1.34771,1.29085 1.12677,1.39587 1.11175,1.403 1.11802,1.38759 1.14048,1.33235 0.680652,1.33235 0.680652,1.23889 1.14077,1.23889 1.11805,1.18368 1.11173,1.16831 1.12675,1.17538 1.34769,1.27916 1.36006,1.28497 "/>
  <g id="_92590656">
   <path id="_92590824" class="fil2" d="M1.0406 0.479897c0.00355152,-0.0138832 0.0155485,-0.024113 0.0297886,-0.024113 0.0170609,0 0.0308931,0.0146479 0.0308931,0.0327284l0 0.61042c0,0.0190321 -0.0138322,0.0344617 -0.0308931,0.0344617 -0.0170609,0 -0.0308931,-0.0154296 -0.0308931,-0.0344617l0.000492795 -0.285787 -0.0043162 -0.000747689 -0.00373844 -0.00137643 -0.00317768 -0.00200517 -0.00210712 -0.00236202 -0.00115552 -0.00305873 -0.00011895 -0.00343257 0 -0.167142 0 -0.0370276 0 -0.0203745 0.000237901 -0.0175707 0.000679717 -0.0111134 0.00122349 -0.0124218 0.00117251 -0.00885331 0.00278684 -0.0156165 0.00220908 -0.00948205 0.00389138 -0.0129486 0.00302474 -0.00771479z"/>
   <path id="_92590776" class="fil2" d="M0.468648 0.645323l0.0157185 0 0 0 0 -0.176149c0,-0.00982191 0.00615144,-0.0177746 0.0137473,-0.0177746 0.00757885,0 0.0137473,0.00795269 0.0137473,0.0177746l0 0.176149 6.79717e-005 1.69929e-005 0 0.00217509c0,0.0515226 -0.0221248,0.0785413 -0.0493645,0.0968427l-0.00130846 -1.69929e-005 0 0.354591c0,0.0190321 -0.0126597,0.0344617 -0.0282422,0.0344617 -0.0155995,0 -0.0282422,-0.0154296 -0.0282422,-0.0344617l0 -0.354574 -0.00057776 0c-0.0272227,-0.0183014 -0.0493645,-0.0453201 -0.0493645,-0.0968427l0 -0.00217509 0 0 0 -0.176217c0,-0.00966898 0.00606647,-0.0177236 0.0135604,-0.0177236 0.00776577,0 0.0138322,0.00805465 0.0138322,0.0177236l0 0.176217 0 0 0.0157185 -1.69929e-005 0 0 0 -0.176149c0,-0.00982191 0.00616843,-0.0177746 0.0137473,-0.0177746 0.00759584,0 0.0137473,0.00795269 0.0137473,0.0177746l0 0.176149 0 0 0.0157185 0 0 0 0 -0.176149c0,-0.00982191 0.00615144,-0.0177746 0.0137473,-0.0177746 0.00759584,0 0.0137473,0.00795269 0.0137473,0.0177746l0 0.176149 0 0z"/>
   <path id="_92590728" class="fil2" d="M0.753925 0.621142c0.135807,0 0.245905,0.108806 0.245905,0.242931 0,0.134142 -0.110097,0.242948 -0.245905,0.242948 -0.135807,0 -0.245922,-0.108806 -0.245922,-0.242948 0,-0.134125 0.110114,-0.242931 0.245922,-0.242931zm0 0.0461528c0.110012,0 0.199208,0.0881253 0.199208,0.196778 0,0.108653 -0.0891959,0.196795 -0.199208,0.196795 -0.109995,0 -0.199191,-0.0881423 -0.199191,-0.196795 0,-0.108653 0.0891959,-0.196778 0.199191,-0.196778zm1.69929e-005 0.0373844c0.0891109,0 0.161348,0.0713873 0.161348,0.159394 0,0.0880234 -0.0722369,0.159394 -0.161348,0.159394 -0.0890939,0 -0.161348,-0.0713703 -0.161348,-0.159394 0,-0.0880064 0.0722539,-0.159394 0.161348,-0.159394z"/>
   <polygon id="_92590680" class="fil1" points="1.22723,0.335882 0.722862,0.0851176 0.722658,0.0845908 0.722199,0.0847777 0.721724,0.0845908 0.72152,0.0851176 0.217153,0.335882 0.259193,0.420456 0.722199,0.190304 1.18522,0.420456 "/>
  </g>
 </g>
</svg>
