<?xml version="1.0" encoding="UTF-8"?>
<!DOCTYPE svg PUBLIC "-//W3C//DTD SVG 1.1//EN" "http://www.w3.org/Graphics/SVG/1.1/DTD/svg11.dtd">
<!-- Creator: CorelDRAW -->
<svg xmlns="http://www.w3.org/2000/svg" xml:space="preserve" width="8.4001mm" height="8.4mm" style="shape-rendering:geometricPrecision; text-rendering:geometricPrecision; image-rendering:optimizeQuality; fill-rule:evenodd; clip-rule:evenodd"
viewBox="0 0 1.40781 1.40779"
 xmlns:xlink="http://www.w3.org/1999/xlink">
 <defs>
  <style type="text/css">
   <![CDATA[
    .fil2 {fill:white}
    .fil0 {fill:#00923F}
    .fil1 {fill:white;fill-rule:nonzero}
   ]]>
  </style>
 </defs>
 <g id="okviri">
  <metadata id="CorelCorpID_0Corel-Layer"/>
  <polygon class="fil0" points="0,0 1.40781,0 1.40781,1.40779 0,1.40779 "/>
 </g>
 <g id="piktogrami">
  <metadata id="CorelCorpID_1Corel-Layer"/>
  <polygon class="fil1" points="1.32079,1.25758 1.10289,1.36115 1.08807,1.36819 1.09426,1.35299 1.11641,1.2985 0.662903,1.2985 0.662903,1.20633 1.1167,1.20633 1.09429,1.15188 1.08806,1.13673 1.10287,1.1437 1.32078,1.24605 1.33298,1.25178 "/>
  <path class="fil2" d="M0.703913 0.397383c0.194812,0 0.352769,0.157991 0.352769,0.352769 0,0.194812 -0.157958,0.352803 -0.352769,0.352803 -0.194829,0 -0.352786,-0.157991 -0.352786,-0.352803 0,-0.194778 0.157958,-0.352769 0.352786,-0.352769zm-0.211672 0.282229l0.141114 0 0 -0.141114 0.141098 0 0 0.141114 0.141114 0 0 0.141114 -0.141114 0 0 0.141114 -0.141098 0 0 -0.141114 -0.141114 0 0 -0.141114zm0.709746 -0.324982l-0.49742 -0.247319 -0.000201113 -0.000519543 -0.000452505 0.000184354 -0.000469264 -0.000184354 -0.000217873 0.000519543 -0.49742 0.247319 0.0414461 0.0834117 0.456661 -0.227007 0.456644 0.227007 0.0414293 -0.0834117z"/>
 </g>
</svg>
