<?xml version="1.0" encoding="UTF-8"?>
<!DOCTYPE svg PUBLIC "-//W3C//DTD SVG 1.1//EN" "http://www.w3.org/Graphics/SVG/1.1/DTD/svg11.dtd">
<!-- Creator: CorelDRAW -->
<svg xmlns="http://www.w3.org/2000/svg" xml:space="preserve" width="8.5001mm" height="8.5mm" style="shape-rendering:geometricPrecision; text-rendering:geometricPrecision; image-rendering:optimizeQuality; fill-rule:evenodd; clip-rule:evenodd"
viewBox="0 0 5.3895 5.38944"
 xmlns:xlink="http://www.w3.org/1999/xlink">
 <defs>
  <style type="text/css">
   <![CDATA[
    .fil0 {fill:#00923F}
    .fil1 {fill:white;fill-rule:nonzero}
   ]]>
  </style>
 </defs>
 <g id="okviri">
  <metadata id="CorelCorpID_0Corel-Layer"/>
  <polygon class="fil0" points="0,0 5.3895,0 5.3895,5.38944 0,5.38944 "/>
 </g>
 <g id="piktogrami">
  <metadata id="CorelCorpID_1Corel-Layer"/>
  <path class="fil1" d="M0.730808 5.00419l1.55336 0 0 -0.413972 -1.55336 0 0 0.413972zm2.39323 0l1.5533 0 0 -0.413972 -1.5533 0 0 0.413972z"/>
  <polygon class="fil1" points="1.23653,4.05743 4.02211,4.05743 4.15298,4.05743 4.23154,4.05743 4.23154,3.97887 4.23154,3.63857 3.81268,3.63851 1.23653,3.63851 1.15797,3.63851 1.15797,3.71707 1.15797,3.97887 1.15797,4.05743 "/>
  <path class="fil1" d="M1.53561 2.4508c0.136638,0 0.247407,0.110769 0.247407,0.247407 0,0.136575 -0.110769,0.247344 -0.247407,0.247344 -0.136575,0 -0.247344,-0.110769 -0.247344,-0.247344 0,-0.136638 0.110769,-0.247407 0.247344,-0.247407z"/>
  <path class="fil1" d="M1.94667 3.11002c-0.0422279,0 -0.153758,-0.000443836 -0.268331,0 -0.218558,0.000887673 -0.364263,-0.0362678 -0.34372,0.177852 0.00653073,0.0424815 0.0643563,0.0835046 0.106965,0.0831242 0.085597,-0.000824267 0.175379,-0.000824267 0.262371,-0.000824267 0.0895281,-6.34052e-005 0.351709,0 0.422532,0 0.12979,-0.0372823 0.0864213,-0.137272 0.0940933,-0.289572 -0.000190216,-0.0874358 0,-0.290206 -0.00114129,-0.398628 -0.000317026,-0.0259961 -0.012364,-0.0473003 -0.0228259,-0.063215 -0.0679704,-0.103858 -0.227244,-0.0705066 -0.249943,0.0658146 0,0.119709 0,0.290396 0,0.425449z"/>
  <path class="fil1" d="M2.38397 3.371l1.71727 0.00329707 -0.000190216 -0.597594c-0.0324001,-0.236248 -0.416128,-0.197571 -0.747801,-0.197571 -0.322542,0 -0.646479,-0.00298004 -0.968831,0.000634052l-0.000443836 0.791233z"/>
  <polygon class="fil1" points="4.57919,1.43207 2.69732,0.496463 2.6965,0.494434 2.69485,0.495195 2.69301,0.494434 2.69225,0.496463 0.810318,1.43207 0.967183,1.7477 2.69485,0.888877 4.42245,1.7477 "/>
 </g>
</svg>
