<?xml version="1.0" encoding="UTF-8"?>
<!DOCTYPE svg PUBLIC "-//W3C//DTD SVG 1.1//EN" "http://www.w3.org/Graphics/SVG/1.1/DTD/svg11.dtd">
<!-- Creator: CorelDRAW -->
<svg xmlns="http://www.w3.org/2000/svg" xml:space="preserve" width="8.4mm" height="8.4mm" style="shape-rendering:geometricPrecision; text-rendering:geometricPrecision; image-rendering:optimizeQuality; fill-rule:evenodd; clip-rule:evenodd"
viewBox="0 0 5.22434 5.22434"
 xmlns:xlink="http://www.w3.org/1999/xlink">
 <defs>
  <style type="text/css">
   <![CDATA[
    .fil2 {fill:white}
    .fil0 {fill:#00923F}
    .fil1 {fill:white;fill-rule:nonzero}
   ]]>
  </style>
 </defs>
 <g id="okviri">
  <metadata id="CorelCorpID_0Corel-Layer"/>
  <polygon class="fil0" points="0,0 5.22434,0 5.22434,5.22434 0,5.22434 "/>
 </g>
 <g id="piktogrami">
  <metadata id="CorelCorpID_1Corel-Layer"/>
  <path class="fil1" d="M0.685757 4.83731l1.52371 0 0 -0.406068 -1.52371 0 0 0.406068zm2.34753 0l1.52364 0 0 -0.406068 -1.52364 0 0 0.406068z"/>
  <path class="fil2" d="M4.35325 3.88791l-1.61389 -2.79534 -0.254438 0 -1.61382 2.79534 0.835211 0.000124389 0.892679 -1.53757 0.886024 1.53776 0.868236 -0.000310973zm-2.02667 -3.45895l0.290822 0.478712 0.279938 -0.468325 0.174518 0.104425 -0.332492 0.548805 -0.247223 0 -0.339271 -0.558445 0.173709 -0.105171z"/>
 </g>
</svg>
