<?xml version="1.0" encoding="UTF-8"?>
<!DOCTYPE svg PUBLIC "-//W3C//DTD SVG 1.1//EN" "http://www.w3.org/Graphics/SVG/1.1/DTD/svg11.dtd">
<!-- Creator: CorelDRAW -->
<svg xmlns="http://www.w3.org/2000/svg" xml:space="preserve" width="8.5mm" height="8.5mm" style="shape-rendering:geometricPrecision; text-rendering:geometricPrecision; image-rendering:optimizeQuality; fill-rule:evenodd; clip-rule:evenodd"
viewBox="0 0 5.38938 5.38938"
 xmlns:xlink="http://www.w3.org/1999/xlink">
 <defs>
  <style type="text/css">
   <![CDATA[
    .fil0 {fill:#00923F}
    .fil1 {fill:white;fill-rule:nonzero}
   ]]>
  </style>
 </defs>
 <g id="okviri">
  <metadata id="CorelCorpID_0Corel-Layer"/>
  <polygon class="fil0" points="0,0 5.38938,0 5.38938,5.38938 0,5.38938 "/>
 </g>
 <g id="piktogrami">
  <metadata id="CorelCorpID_1Corel-Layer"/>
  <path class="fil1" d="M0.7308 5.00407l1.55335 0 0 -0.413968 -1.55335 0 0 0.413968zm2.3932 0l1.55328 0 0 -0.413968 -1.55328 0 0 0.413968z"/>
  <path class="fil1" d="M4.15293 4.12319l-0.130803 0 -2.65474 0 -0.130803 0 -6.34044e-005 0 -0.0127443 0 0 -2.14408 0.0127443 0 0.261734 0 0.023523 0 0 1.77513 2.34875 0 0 -1.77513 0.0207333 0 0.261734 0 0.0155341 0 0 2.14408 -0.0155341 0 -6.34044e-005 0zm0.434511 -2.74028l-1.88184 -0.935596 -0.000824258 -0.00202894 -0.00171192 0.000760853 -0.00177532 -0.000760853 -0.000760853 0.00202894 -1.88191 0.935596 0.156863 0.315627 1.72758 -0.858813 1.72764 0.858813 0.156736 -0.315627z"/>
 </g>
</svg>
