<?xml version="1.0" encoding="UTF-8"?>
<!DOCTYPE svg PUBLIC "-//W3C//DTD SVG 1.1//EN" "http://www.w3.org/Graphics/SVG/1.1/DTD/svg11.dtd">
<!-- Creator: CorelDRAW -->
<svg xmlns="http://www.w3.org/2000/svg" xml:space="preserve" width="8.5001mm" height="8.5mm" style="shape-rendering:geometricPrecision; text-rendering:geometricPrecision; image-rendering:optimizeQuality; fill-rule:evenodd; clip-rule:evenodd"
viewBox="0 0 3.11301 3.11297"
 xmlns:xlink="http://www.w3.org/1999/xlink">
 <defs>
  <style type="text/css">
   <![CDATA[
    .fil2 {fill:white}
    .fil0 {fill:#00923F}
    .fil1 {fill:white;fill-rule:nonzero}
   ]]>
  </style>
 </defs>
 <g id="okviri">
  <metadata id="CorelCorpID_0Corel-Layer"/>
  <polygon class="fil0" points="0,0 3.11301,0 3.11301,3.11297 0,3.11297 "/>
 </g>
 <g id="piktogrami">
  <metadata id="CorelCorpID_1Corel-Layer"/>
  <polygon class="fil1" points="0.462075,2.89041 2.52803,2.89041 2.62511,2.89041 2.68338,2.89041 2.68338,2.84555 2.68338,2.6513 2.37274,2.6513 0.462075,2.6513 0.403807,2.6513 0.403807,2.69613 0.403807,2.84555 0.403807,2.89041 "/>
  <g id="_92591088">
   <path id="_92591256" class="fil2" d="M2.24617 1.03428c0.00765425,-0.0299212 0.0335102,-0.0519683 0.0642005,-0.0519683 0.0367697,0 0.066581,0.0315692 0.066581,0.0705363l0 1.31558c0,0.041018 -0.0298113,0.0742719 -0.066581,0.0742719 -0.0367697,0 -0.066581,-0.0332539 -0.066581,-0.0742719l0.00106207 -0.615929 -0.00930229 -0.00161142 -0.00805711 -0.00296648 -0.00684854 -0.00432154 -0.00454128 -0.00509063 -0.00249038 -0.00659218 -0.000256362 -0.00739789 0 -0.360226 0 -0.079802 0 -0.0439112 0.000512725 -0.0378684 0.00146493 -0.0239516 0.00263687 -0.0267716 0.002527 -0.0190807 0.00600621 -0.0336567 0.00476102 -0.0204357 0.00838671 -0.0279069 0.00651893 -0.0166269z"/>
   <path id="_92591208" class="fil2" d="M1.01351 1.3908l0.0338765 0 0 0 0 -0.379636c0,-0.0211682 0.0132576,-0.0383079 0.0296282,-0.0383079 0.016334,0 0.0296282,0.0171397 0.0296282,0.0383079l0 0.379636 0.000146493 3.66232e-005 0 0.00468777c0,0.111042 -0.0476834,0.169272 -0.10639,0.208716l-0.00281999 -3.66232e-005 0 0.764216c0,0.041018 -0.0272843,0.0742719 -0.0608678,0.0742719 -0.0336201,0 -0.0608678,-0.0332539 -0.0608678,-0.0742719l0 -0.76418 -0.00124519 0c-0.0586704,-0.0394432 -0.10639,-0.0976741 -0.10639,-0.208716l0 -0.00468777 0 0 0 -0.379783c0,-0.0208386 0.0130745,-0.038198 0.0292253,-0.038198 0.0167368,0 0.0298113,0.0173594 0.0298113,0.038198l0 0.379783 0 0 0.0338765 -3.66232e-005 0 0 0 -0.379636c0,-0.0211682 0.0132942,-0.0383079 0.0296282,-0.0383079 0.0163706,0 0.0296282,0.0171397 0.0296282,0.0383079l0 0.379636 0 0 0.0338765 0 0 0 0 -0.379636c0,-0.0211682 0.0132576,-0.0383079 0.0296282,-0.0383079 0.0163706,0 0.0296282,0.0171397 0.0296282,0.0383079l0 0.379636 0 0z"/>
   <path id="_92591160" class="fil2" d="M1.62834 1.33869c0.292693,0 0.529974,0.234498 0.529974,0.523565 0,0.289104 -0.237282,0.523602 -0.529974,0.523602 -0.292693,0 -0.530011,-0.234498 -0.530011,-0.523602 0,-0.289067 0.237318,-0.523565 0.530011,-0.523565zm0 0.0994686c0.237099,0 0.429334,0.189928 0.429334,0.424097 0,0.234169 -0.192235,0.424133 -0.429334,0.424133 -0.237062,0 -0.429297,-0.189965 -0.429297,-0.424133 0,-0.234169 0.192235,-0.424097 0.429297,-0.424097zm3.66232e-005 0.0805711c0.192052,0 0.347737,0.153854 0.347737,0.343526 0,0.189708 -0.155685,0.343526 -0.347737,0.343526 -0.192015,0 -0.347737,-0.153817 -0.347737,-0.343526 0,-0.189672 0.155722,-0.343526 0.347737,-0.343526z"/>
   <polygon id="_92591112" class="fil1" points="2.64841,0.723894 1.56139,0.183446 1.56095,0.18231 1.55997,0.182713 1.55894,0.18231 1.5585,0.183446 0.471487,0.723894 0.562093,0.906168 1.55997,0.410143 2.55787,0.906168 "/>
  </g>
 </g>
</svg>
