<?xml version="1.0" encoding="UTF-8"?>
<!DOCTYPE svg PUBLIC "-//W3C//DTD SVG 1.1//EN" "http://www.w3.org/Graphics/SVG/1.1/DTD/svg11.dtd">
<!-- Creator: CorelDRAW -->
<svg xmlns="http://www.w3.org/2000/svg" xml:space="preserve" width="8.4mm" height="8.4mm" style="shape-rendering:geometricPrecision; text-rendering:geometricPrecision; image-rendering:optimizeQuality; fill-rule:evenodd; clip-rule:evenodd"
viewBox="0 0 0.451669 0.451669"
 xmlns:xlink="http://www.w3.org/1999/xlink">
 <defs>
  <style type="text/css">
   <![CDATA[
    .fil0 {fill:#00923F}
    .fil1 {fill:white;fill-rule:nonzero}
   ]]>
  </style>
 </defs>
 <g id="okviri">
  <metadata id="CorelCorpID_0Corel-Layer"/>
  <polygon class="fil0" points="0,0 0.451669,0 0.451669,0.451669 0,0.451669 "/>
 </g>
 <g id="piktogrami">
  <metadata id="CorelCorpID_1Corel-Layer"/>
  <path class="fil1" d="M0.385645 0.140577l-0.159595 -0.0793486 -6.45241e-005 -0.000166687 -0.000145179 5.91471e-005 -0.000150556 -5.91471e-005 -6.99012e-005 0.000166687 -0.15959 0.0793486 0.0132974 0.0267614 0.146513 -0.0728262 0.146507 0.0728262 0.0132974 -0.0267614zm-0.231712 0.169295l0 0.0612979c0,0.00238202 -0.000790421,0.00439302 -0.00228523,0.00583406 -0.00146792,0.00151094 -0.00343591,0.00222608 -0.00581255,0.00222608 -0.00241428,0 -0.00447367,-0.000715143 -0.00609215,-0.00222608 -0.00168838,-0.00144104 -0.00249493,-0.00345204 -0.00249493,-0.00583406l0 -0.0612979 -0.0229545 0 0.0238954 -0.0807197 -0.00410804 0c-0.00263474,0.00906564 -0.00483931,0.0163407 -0.00655458,0.0221156 -0.00157546,0.00574803 -0.00328535,0.0111788 -0.00478016,0.0164429 -0.00172602,0.00518344 -0.00284444,0.00846342 -0.00298424,0.00959259 -0.00102163,0.00341978 -0.00328535,0.0050759 -0.00683956,0.0050759l-0.00182281 -0.000430161c-0.00332299,-0.00122596 -0.00491459,-0.00339289 -0.00491459,-0.00642553 0,-0.000838814 0.000102163,-0.00152169 0.000451669,-0.00220995 0.000236589,-0.000591471 0.000924846,-0.0026186 0.00170989,-0.00605989 0.000924846,-0.0034144 0.00216156,-0.00765686 0.00365099,-0.0125876 0.00149481,-0.00501137 0.00310791,-0.0104475 0.00479629,-0.0162601 0.00172602,-0.00585019 0.00332299,-0.0114853 0.00526947,-0.0169161 0.00113993,-0.00415643 0.00365637,-0.0079526 0.00753857,-0.0112111 0.00387683,-0.00340903 0.00789883,-0.00495223 0.012109,-0.00495223l0.0280949 0c0.00434463,0 0.00856558,0.0015432 0.0123617,0.00495223 0.00365637,0.00325847 0.00629648,0.00705464 0.00778054,0.0112111 0.00155396,0.00543078 0.00317781,0.0110659 0.00477479,0.0169161 0.00160773,0.00581255 0.00333375,0.0112487 0.00470489,0.0162601 0.00146255,0.00493072 0.00273152,0.00917318 0.00364561,0.0125876 0.000897961,0.00344129 0.00148943,0.00546842 0.00180668,0.00605989l0.000473177 0.00180668c0,0.00368863 -0.0017314,0.00585019 -0.00503288,0.0068288l-0.00172602 0.000430161c-0.00364561,0 -0.00593622,-0.00165612 -0.00683956,-0.0050759 -0.00025272,-0.00112917 -0.00125822,-0.00440915 -0.0026186,-0.00959259 -0.00160235,-0.00526409 -0.00323696,-0.0106949 -0.00504901,-0.0164429 -0.00181205,-0.00577491 -0.00396823,-0.01305 -0.00660297,-0.0221156l-0.00412417 0 0.0238632 0.0807197 -0.0225888 0 0 0.0612979c0,0.00238202 -0.000688258,0.00439302 -0.00253257,0.00583406 -0.00160773,0.00151094 -0.0035542,0.00222608 -0.00593622,0.00222608 -0.0025272,0 -0.00435,-0.000715143 -0.00594697,-0.00222608 -0.00148943,-0.00144104 -0.00216156,-0.00345204 -0.00216156,-0.00583406l0 -0.0612979 -0.00412417 0zm0.00227985 -0.109594c0.00481243,0 0.00893659,-0.00157546 0.0121413,-0.0048877 0.00329611,-0.00337139 0.005006,-0.00756546 0.005006,-0.0126091 0,-0.00482856 -0.00170989,-0.0089581 -0.005006,-0.0123564 -0.0032047,-0.00350043 -0.00732887,-0.00524796 -0.0121413,-0.00524796 -0.00513505,0 -0.00937213,0.00174753 -0.0129156,0.00524796 -0.00343053,0.00339827 -0.00510816,0.00752782 -0.00510816,0.0123564 0,0.00504364 0.00167763,0.00923771 0.00510816,0.0126091 0.00354345,0.00331224 0.00778054,0.0048877 0.0129156,0.0048877zm0.126155 0.00452744c-0.00617281,0 -0.0114154,0.00227985 -0.0158891,0.00667825 -0.00446292,0.00459197 -0.00674277,0.00993672 -0.00674277,0.0158891l0 0.0550068c0,0.00206477 0.000704389,0.00394135 0.00227985,0.00543078 0.00147868,0.00149481 0.00331762,0.00216694 0.00539852,0.00216694 0.00237664,0 0.00422633,-0.000672126 0.00570501,-0.00216694 0.00126897,-0.00148943 0.00193572,-0.00336601 0.00193572,-0.00543078l0 -0.0491835 0.00399512 0 0 0.136194c0,0.00263474 0.00113993,0.00503288 0.00331762,0.00693097 0.00204864,0.0020594 0.00444679,0.00290896 0.00717293,0.00290896 0.00298424,0 0.00538777,-0.000849568 0.00732887,-0.00290896 0.00206477,-0.00189809 0.00298424,-0.00429623 0.00298424,-0.00693097l0 -0.0789614 0.00444679 0 0 0.0789614c0,0.00263474 0.00102163,0.00503288 0.00296811,0.00693097 0.0019411,0.0020594 0.00445217,0.00290896 0.0075547,0.00290896 0.0026186,0 0.00489846,-0.000849568 0.00697936,-0.00290896 0.00190884,-0.00189809 0.00281218,-0.00429623 0.00281218,-0.00693097l0 -0.136194 0.00414568 0 0 0.0491835c0,0.00206477 0.000666749,0.00394135 0.00204326,0.00543078 0.00162386,0.00149481 0.00353807,0.00216694 0.00559747,0.00216694 0.00239815,0 0.00424246,-0.000672126 0.00561898,-0.00216694 0.00123671,-0.00148943 0.00204864,-0.00336601 0.00204864,-0.00543078l0 -0.0550068c0,-0.00595235 -0.00217231,-0.0112971 -0.00664061,-0.0158891 -0.00434463,-0.0043984 -0.00958721,-0.00667825 -0.0159805,-0.00667825l-0.0390801 0zm0.0196476 -0.00452744c0.00479629,0 0.00902263,-0.00157546 0.0124424,-0.0048877 0.00340365,-0.00337139 0.00514042,-0.00756546 0.00514042,-0.0126091 0,-0.00482856 -0.00173677,-0.0089581 -0.00514042,-0.0123564 -0.00341978,-0.00350043 -0.00764611,-0.00524796 -0.0124424,-0.00524796 -0.00502213,0 -0.00926997,0.00174753 -0.0124747,0.00524796 -0.00339827,0.00339827 -0.005006,0.00752782 -0.005006,0.0123564 0,0.00504364 0.00160773,0.00923771 0.005006,0.0126091 0.0032047,0.00331224 0.00745254,0.0048877 0.0124747,0.0048877zm-0.0602172 -0.0529205l-0.0173516 0 0 0.243245 0.0173516 0 0 -0.243245z"/>
 </g>
</svg>
