<?xml version="1.0" encoding="UTF-8"?>
<!DOCTYPE svg PUBLIC "-//W3C//DTD SVG 1.1//EN" "http://www.w3.org/Graphics/SVG/1.1/DTD/svg11.dtd">
<!-- Creator: CorelDRAW -->
<svg xmlns="http://www.w3.org/2000/svg" xml:space="preserve" width="8.5mm" height="8.5mm" style="shape-rendering:geometricPrecision; text-rendering:geometricPrecision; image-rendering:optimizeQuality; fill-rule:evenodd; clip-rule:evenodd"
viewBox="0 0 5.38938 5.38938"
 xmlns:xlink="http://www.w3.org/1999/xlink">
 <defs>
  <style type="text/css">
   <![CDATA[
    .fil2 {fill:white}
    .fil0 {fill:#00923F}
    .fil1 {fill:white;fill-rule:nonzero}
   ]]>
  </style>
 </defs>
 <g id="okviri">
  <metadata id="CorelCorpID_0Corel-Layer"/>
  <polygon class="fil0" points="0,0 5.38938,0 5.38938,5.38938 0,5.38938 "/>
 </g>
 <g id="piktogrami">
  <metadata id="CorelCorpID_1Corel-Layer"/>
  <path class="fil1" d="M0.7308 5.00407l1.55335 0 0 -0.413968 -1.55335 0 0 0.413968zm2.3932 0l1.55328 0 0 -0.413968 -1.55328 0 0 0.413968z"/>
  <g id="_92590872">
   <path id="_92591040" class="fil2" d="M3.8827 1.7906c0.0132515,-0.0518014 0.0580151,-0.0899709 0.111148,-0.0899709 0.0636581,0 0.115269,0.0546546 0.115269,0.122117l0 2.27761c0,0.071013 -0.0516112,0.128584 -0.115269,0.128584 -0.0636581,0 -0.115269,-0.0575712 -0.115269,-0.128584l0.00183873 -1.06634 -0.0161047 -0.0027898 -0.013949 -0.00513576 -0.0118566 -0.00748172 -0.00786215 -0.00881322 -0.0043115 -0.0114128 -0.000443831 -0.0128077 0 -0.623646 0 -0.138158 0 -0.0760219 0.000887662 -0.0655602 0.00253618 -0.0414665 0.00456512 -0.0463486 0.00437491 -0.0330337 0.0103983 -0.0582687 0.00824258 -0.0353797 0.0145196 -0.0483142 0.011286 -0.0287856z"/>
   <path id="_92590992" class="fil2" d="M1.74863 2.40785l0.0586491 0 0 0 0 -0.65725c0,-0.0366478 0.0229524,-0.0663211 0.0512942,-0.0663211 0.0282784,0 0.0512942,0.0296733 0.0512942,0.0663211l0 0.65725 0.000253618 6.34044e-005 0 0.00811577c0,0.192242 -0.0825526,0.293055 -0.18419,0.361342l-0.00488214 -6.34044e-005 0 1.32306c0,0.071013 -0.0472363,0.128584 -0.105378,0.128584 -0.0582053,0 -0.105378,-0.0575712 -0.105378,-0.128584l0 -1.323 -0.00215575 0c-0.101574,-0.0682866 -0.18419,-0.1691 -0.18419,-0.361342l0 -0.00811577 0 0 0 -0.657504c0,-0.0360771 0.0226354,-0.0661308 0.0505967,-0.0661308 0.0289758,0 0.0516112,0.0300537 0.0516112,0.0661308l0 0.657504 0 0 0.0586491 -6.34044e-005 0 0 0 -0.65725c0,-0.0366478 0.0230158,-0.0663211 0.0512942,-0.0663211 0.0283418,0 0.0512942,0.0296733 0.0512942,0.0663211l0 0.65725 0 0 0.0586491 0 0 0 0 -0.65725c0,-0.0366478 0.0229524,-0.0663211 0.0512942,-0.0663211 0.0283418,0 0.0512942,0.0296733 0.0512942,0.0663211l0 0.65725 0 0z"/>
   <path id="_92590944" class="fil2" d="M2.81307 2.31762c0.506728,0 0.917526,0.405979 0.917526,0.90643 0,0.500515 -0.410797,0.906493 -0.917526,0.906493 -0.506728,0 -0.917589,-0.405979 -0.917589,-0.906493 0,-0.500451 0.410861,-0.90643 0.917589,-0.90643zm0 0.172206c0.41048,0 0.74329,0.328815 0.74329,0.734223 0,0.405408 -0.33281,0.734287 -0.74329,0.734287 -0.410417,0 -0.743227,-0.328879 -0.743227,-0.734287 0,-0.405408 0.33281,-0.734223 0.743227,-0.734223zm6.34044e-005 0.13949c0.332493,0 0.602025,0.266362 0.602025,0.594734 0,0.328435 -0.269532,0.594734 -0.602025,0.594734 -0.33243,0 -0.602025,-0.266299 -0.602025,-0.594734 0,-0.328372 0.269596,-0.594734 0.602025,-0.594734z"/>
   <polygon id="_92590896" class="fil1" points="4.57907,1.25325 2.69716,0.317593 2.6964,0.315627 2.69469,0.316325 2.69291,0.315627 2.69215,0.317593 0.810245,1.25325 0.967108,1.56882 2.69469,0.710066 4.42233,1.56882 "/>
  </g>
 </g>
</svg>
