<?xml version="1.0" encoding="UTF-8"?>
<!DOCTYPE svg PUBLIC "-//W3C//DTD SVG 1.1//EN" "http://www.w3.org/Graphics/SVG/1.1/DTD/svg11.dtd">
<!-- Creator: CorelDRAW -->
<svg xmlns="http://www.w3.org/2000/svg" xml:space="preserve" width="8.5001mm" height="8.5mm" style="shape-rendering:geometricPrecision; text-rendering:geometricPrecision; image-rendering:optimizeQuality; fill-rule:evenodd; clip-rule:evenodd"
viewBox="0 0 3.11298 3.11295"
 xmlns:xlink="http://www.w3.org/1999/xlink">
 <defs>
  <style type="text/css">
   <![CDATA[
    .fil0 {fill:#00923F}
    .fil1 {fill:white;fill-rule:nonzero}
   ]]>
  </style>
 </defs>
 <g id="okviri">
  <metadata id="CorelCorpID_0Corel-Layer"/>
  <polygon class="fil0" points="0,0 3.11298,0 3.11298,3.11295 0,3.11295 "/>
 </g>
 <g id="piktogrami">
  <metadata id="CorelCorpID_1Corel-Layer"/>
  <polygon class="fil1" points="0.461778,2.89039 2.52771,2.89039 2.6248,2.89039 2.68307,2.89039 2.68307,2.84553 2.68307,2.65128 2.37243,2.65128 0.461778,2.65128 0.403511,2.65128 0.403511,2.6961 0.403511,2.84553 0.403511,2.89039 "/>
  <path class="fil1" d="M2.39799 2.38159l-0.075553 0 -1.5334 0 -0.075553 0 -3.66229e-005 0 -0.0073612 0 0 -1.23844 0.0073612 0 0.151179 0 0.0135871 0 0 1.02533 1.35666 0 0 -1.02533 0.0119757 0 0.151179 0 0.00897261 0 0 1.23844 -0.00897261 0 -3.66229e-005 0zm0.250977 -1.5828l-1.08697 -0.540407 -0.000476098 -0.00117193 -0.000988818 0.000439475 -0.00102544 -0.000439475 -0.000439475 0.00117193 -1.087 0.540407 0.090605 0.182309 0.997864 -0.496057 0.997901 0.496057 0.0905318 -0.182309z"/>
 </g>
</svg>
