<?xml version="1.0" encoding="UTF-8"?>
<!DOCTYPE svg PUBLIC "-//W3C//DTD SVG 1.1//EN" "http://www.w3.org/Graphics/SVG/1.1/DTD/svg11.dtd">
<!-- Creator: CorelDRAW -->
<svg xmlns="http://www.w3.org/2000/svg" xml:space="preserve" width="9.006mm" height="9.006mm" style="shape-rendering:geometricPrecision; text-rendering:geometricPrecision; image-rendering:optimizeQuality; fill-rule:evenodd; clip-rule:evenodd"
viewBox="0 0 0.526542 0.526542"
 xmlns:xlink="http://www.w3.org/1999/xlink">
 <defs>
  <style type="text/css">
   <![CDATA[
    .str0 {stroke:#141516;stroke-width:0.00445509}
    .fil0 {fill:#FFF500}
    .fil1 {fill:#141516;fill-rule:nonzero}
   ]]>
  </style>
 </defs>
 <g id="okviri">
  <metadata id="CorelCorpID_0Corel-Layer"/>
  <circle class="fil0" cx="0.26327" cy="0.26327" r="0.263268"/>
 </g>
 <g id="piktogrami">
  <metadata id="CorelCorpID_1Corel-Layer"/>
  <g id="_92518720">
   <path id="_92518936" class="fil1" d="M0.16903 0.313458c-0.0164113,0 -0.029496,0.0131139 -0.029496,0.0294784 0,0.0162593 0.0130846,0.0294492 0.029496,0.0294492 0.0162184,0 0.0293556,-0.0131899 0.0293556,-0.0294492 0,-0.0163646 -0.0131372,-0.0294784 -0.0293556,-0.0294784zm-7.01589e-005 0.0441767c-0.0080975,0 -0.0147509,-0.00658324 -0.0147509,-0.0147275 0,-0.00811504 0.0066534,-0.0147509 0.0147509,-0.0147509 0.00816181,0 0.0147275,0.00663586 0.0147275,0.0147509 0,0.00814427 -0.0065657,0.0147275 -0.0147275,0.0147275z"/>
   <path id="_92518888" class="fil1" d="M0.357582 0.313458c-0.0162885,0 -0.0294726,0.0131139 -0.0294726,0.0294784 0,0.0162593 0.013184,0.0294492 0.0294726,0.0294492 0.0162418,0 0.0294492,-0.0131899 0.0294492,-0.0294492 0,-0.0163646 -0.0132074,-0.0294784 -0.0294492,-0.0294784zm0 0.0441767c-0.00816766,0 -0.0147684,-0.00658324 -0.0147684,-0.0147275 0,-0.00811504 0.00660078,-0.0147509 0.0147684,-0.0147509 0.0080975,0 0.0147275,0.00663586 0.0147275,0.0147509 0,0.00814427 -0.00663001,0.0147275 -0.0147275,0.0147275z"/>
   <path id="_92518840" class="fil1" d="M0.398257 0.26378l-0.0263797 -0.0524204c-0.00464218,-0.00922589 -0.0169375,-0.0168089 -0.0273152,-0.0168089l-0.242621 0c-0.0103601,0 -0.0188377,0.00849507 -0.0188377,0.018826l0 0.138727 0.0506372 0c-0.000742515,-0.00295252 -0.00132133,-0.00600443 -0.00132133,-0.00916742 0,-0.0201882 0.0164113,-0.0365878 0.0366112,-0.0365878 0.020083,0 0.0364651,0.0163996 0.0364651,0.0365878 0,0.003163 -0.000549578,0.00621491 -0.00129794,0.00916742l0.118165 0c-0.000789287,-0.00295252 -0.00132133,-0.00600443 -0.00132133,-0.00916742 0,-0.0201882 0.0163353,-0.0365878 0.0365411,-0.0365878 0.0201297,0 0.0365411,0.0163996 0.0365411,0.0365878 0,0.003163 -0.000555424,0.00621491 -0.00132133,0.00916742l0.0506313 0 0 -0.0408325c0,-0.0103777 -0.0155343,-0.0439838 -0.0451765,-0.0474917zm-0.153046 -0.0330741l0.0326648 0 0 0.0307647 0.030753 0 0 0.0325596 -0.0305074 0 0 0.030712 -0.0327817 0 0 -0.030712 -0.030753 0 0 -0.0325596 0.0306243 0 0 -0.0307647z"/>
   <path id="_92518792" class="fil1 str0" d="M0.394977 0.161465c-0.00465972,-0.0145229 -0.012231,-0.0278121 -0.0221059,-0.0392539 -0.0150081,-0.0173877 -0.0353601,-0.0305133 -0.0589217,-0.0371725l0.00173643 -0.00620321c0.0247953,0.00701589 0.046223,0.020843 0.0620497,0.0391779 0.0104186,0.0120732 0.0184109,0.0260991 0.0233395,0.0414171l-0.00609797 0.00203461zm-0.27283 -0.00159611c0.00488189,-0.0153706 0.0128508,-0.0294609 0.0232518,-0.041575 0.0157097,-0.0182764 0.0369854,-0.0321035 0.061617,-0.0391837l0.00175982 0.00619152c-0.023398,0.0067294 -0.043592,0.0198433 -0.0584833,0.03719 -0.00985732,0.0114651 -0.0173935,0.0247778 -0.0220123,0.0393123l-0.00613305 -0.00193522zm0.0344422 0.0108688c0.00458956,-0.0104303 0.0106817,-0.0200537 0.0180133,-0.0285897 0.0119504,-0.013909 0.0271866,-0.0249356 0.0445041,-0.0318521l0.00239709 0.00596935c-0.016347,0.00652477 -0.0307354,0.0169375 -0.0420193,0.0300748 -0.00677033,0.00787533 -0.0124298,0.0167446 -0.016727,0.0263447l-0.00616813 -0.00194691zm0.146614 -0.060857c0.0175748,0.0068288 0.0330624,0.0178671 0.0452057,0.0318697 0.007507,0.00865293 0.0137394,0.0184401 0.018405,0.029075l-0.00613305 0.00203461c-0.00437324,-0.00982224 -0.0101789,-0.0188903 -0.0171363,-0.0269118 -0.0114593,-0.0132074 -0.0260757,-0.023626 -0.0426624,-0.0300631l0.00232109 -0.00600443zm-0.121883 0.068668c0.00340855,-0.00711528 0.00772332,-0.0137102 0.012804,-0.0196269 0.00927266,-0.0107928 0.0211003,-0.0193463 0.0345415,-0.0247193l0.00237371 0.0059752c-0.012459,0.00496959 -0.0234155,0.0129034 -0.0320217,0.0229244 -0.00452525,0.00526776 -0.00839568,0.0111085 -0.0114944,0.0173994l-0.00620321 -0.00195275zm0.112038 -0.0448666c0.013757,0.00523268 0.0258945,0.0137979 0.0354185,0.0247135 0.00538469,0.00617983 0.00993332,0.0130963 0.0134647,0.0205916l-0.00614475 0.0020463c-0.00322731,-0.00668848 -0.00733745,-0.01288 -0.0121609,-0.0184109 -0.00882248,-0.0101087 -0.0200888,-0.0180542 -0.0328636,-0.0229244l0.00228601 -0.00601612zm-0.0321678 0.0376344c0.0104361,0 0.0189254,0.0154174 0.0191768,0.0346175l-0.0383594 0c0.000257249,-0.0192001 0.00875232,-0.0346175 0.0191826,-0.0346175z"/>
   <polygon id="_92518744" class="fil1" points="0.348467,0.447701 0.362265,0.426238 0.097246,0.42618 0.0972109,0.403723 0.361108,0.403723 0.348584,0.384231 0.429331,0.415902 "/>
  </g>
 </g>
</svg>
