<?xml version="1.0" encoding="UTF-8"?>
<!DOCTYPE svg PUBLIC "-//W3C//DTD SVG 1.1//EN" "http://www.w3.org/Graphics/SVG/1.1/DTD/svg11.dtd">
<!-- Creator: CorelDRAW -->
<svg xmlns="http://www.w3.org/2000/svg" xml:space="preserve" width="9.006mm" height="9.006mm" style="shape-rendering:geometricPrecision; text-rendering:geometricPrecision; image-rendering:optimizeQuality; fill-rule:evenodd; clip-rule:evenodd"
viewBox="0 0 10.4367 10.4367"
 xmlns:xlink="http://www.w3.org/1999/xlink">
 <defs>
  <style type="text/css">
   <![CDATA[
    .str1 {stroke:#F5E600;stroke-width:0.0883055}
    .str0 {stroke:#141516;stroke-width:0.231773}
    .fil0 {fill:#FFF500}
    .fil1 {fill:#141516;fill-rule:nonzero}
    .fil2 {fill:#FFF600;fill-rule:nonzero}
   ]]>
  </style>
 </defs>
 <g id="okviri">
  <metadata id="CorelCorpID_0Corel-Layer"/>
  <circle class="fil0" cx="5.21834" cy="5.21835" r="5.2183"/>
 </g>
 <g id="piktogrami">
  <metadata id="CorelCorpID_1Corel-Layer"/>
  <g id="_92445536">
   <g>
    <path id="_92445800" class="fil1 str0" d="M6.73857 2.09697c-0.911331,0 -1.65034,0.73866 -1.65034,1.65022 0,0.910868 0.739008,1.65022 1.65034,1.65022 0.911331,0 1.65022,-0.739356 1.65022,-1.65022 0,-0.911563 -0.738892,-1.65022 -1.65022,-1.65022zm-0.241044 2.19744l-0.00150652 -0.0811205 -0.000463546 -0.00162241c0,-0.0575956 0.0042878,-0.112758 0.0128634,-0.165022 0.00869148,-0.0533078 0.0220184,-0.102675 0.0396332,-0.147639l0.000115886 0c0.0133269,-0.0353454 0.030594,-0.0701113 0.0508742,-0.103718l0.000463546 -0.000463546c0.0206278,-0.0338388 0.0448481,-0.0676777 0.0725449,-0.100937l0.000231773 0.000231773c0.0209754,-0.0251474 0.0486723,-0.0543507 0.0827429,-0.0872625l0.000463546 -0.000463546c0.031637,-0.0304781 0.0726608,-0.0680253 0.122144,-0.11183l0 -0.000463546c0.0447322,-0.0394014 0.0810046,-0.0740514 0.108354,-0.103602 0.0249156,-0.0270015 0.0427621,-0.0497153 0.0529601,-0.0675618l0.000115886 0.000115886c0.0093868,-0.0165718 0.0165718,-0.0343024 0.0213231,-0.0524966l0.000347659 0.000115886c0.00463546,-0.0183101 0.0068373,-0.0375472 0.0068373,-0.0578273l-0.000463546 0c0,-0.0382425 -0.00741673,-0.0741673 -0.0219025,-0.107079 -0.0150652,-0.0343024 -0.0384743,-0.0668665 -0.0696478,-0.0972287 -0.0312893,-0.030594 -0.0657076,-0.0534237 -0.102791,-0.0681412 -0.0371996,-0.0148335 -0.0794981,-0.0222502 -0.126548,-0.0222502l0 -0.000463546c-0.0447322,0 -0.0855242,0.00706907 -0.122144,0.0208596 -0.0348818,0.0130952 -0.0667506,0.0333753 -0.0951428,0.0600292 -0.0285081,0.0268857 -0.0528442,0.0624628 -0.072429,0.1065 -0.021439,0.0482088 -0.0376631,0.106616 -0.0482088,0.174525l-0.0155288 0.0997782 -0.0997782 -0.0121681 -0.277316 -0.0338388 -0.103371 -0.0126316 0.0125157 -0.103023c0.0137905,-0.113453 0.041835,-0.215317 0.0837859,-0.304781 0.0431098,-0.091898 0.101169,-0.170237 0.173714,-0.234322 0.0725449,-0.0640852 0.156331,-0.112294 0.251126,-0.144047 0.0928251,-0.0310576 0.195848,-0.0468181 0.308142,-0.0468181 0.118668,0 0.226674,0.0165718 0.323439,0.0495994l0.000463546 0c0.0988511,0.0338388 0.185998,0.0854083 0.261208,0.154245l0.000347659 0c0.0740514,0.0681412 0.130488,0.144742 0.168383,0.228876l0.000115886 0c0.0382425,0.084713 0.0574797,0.176379 0.0574797,0.274419l-0.000463546 0c0,0.114496 -0.0270015,0.220416 -0.0807729,0.317065 -0.0260745,0.0471658 -0.0640852,0.0985035 -0.113453,0.153781l0.000231773 0.000231773c-0.0456593,0.0511059 -0.103834,0.10789 -0.17383,0.170005 -0.0391696,0.0346501 -0.0740514,0.0672141 -0.104182,0.0973446l-0.000347659 0c-0.0249156,0.0247997 -0.042878,0.0447322 -0.0534237,0.0589862 -0.00961858,0.0130952 -0.0183101,0.027581 -0.0253791,0.0427621l-0.000115886 0c-0.00706907,0.0149494 -0.0129793,0.0318688 -0.0178465,0.0500629l0 0.000347659c-0.005099,0.0191213 -0.0093868,0.0451957 -0.0125157,0.0776439 -0.00347659,0.0370837 -0.00591021,0.0812364 -0.0068373,0.131299l-0.00197007 0.102675 -0.101864 0 -0.25889 0 -0.101864 0 -0.00197007 -0.102675zm0.216244 -0.21439c-0.00533078,0.0327959 -0.00811205,0.0689524 -0.00903914,0.10847l0.0559732 0 0.00324482 -0.0448481c0.00440369,-0.045891 0.0106616,-0.0833224 0.0183101,-0.111946l0.000115886 0c0.00776439,-0.0293193 0.0180783,-0.0579432 0.0308258,-0.0850607l0 -0.000347659c0.0128634,-0.0272333 0.0282763,-0.0531919 0.0457751,-0.0770645 0.0166876,-0.0225979 0.0414874,-0.0505265 0.0742832,-0.0830906l-0.000115886 -0.000231773c0.0272333,-0.0272333 0.06536,-0.0625787 0.113916,-0.105457 0.061188,-0.0543507 0.113569,-0.105457 0.155983,-0.153086l0.000347659 0c0.0387061,-0.0433415 0.0677936,-0.0823953 0.0866831,-0.116466 0.0363883,-0.0654758 0.0548143,-0.137673 0.0548143,-0.216012l-0.000463546 0c0,-0.0687207 -0.0129793,-0.131763 -0.0387061,-0.188895l0 -0.000347659c-0.0259586,-0.0577115 -0.0660553,-0.111599 -0.119595,-0.16085l0.000115886 -0.000231773c-0.0528442,-0.0484405 -0.115771,-0.0850607 -0.188431,-0.109976l0 -0.000115886c-0.074515,-0.0253791 -0.160155,-0.0381266 -0.256225,-0.0381266 -0.0909709,0 -0.171744,0.0119363 -0.242087,0.0354613 -0.0684889,0.0229455 -0.128518,0.0572479 -0.179508,0.102328 -0.05099,0.0450798 -0.0922456,0.100821 -0.123187,0.166876 -0.0195848,0.041835 -0.0351136,0.0878419 -0.046934,0.138716l0.0733561 0.00892326c0.0118204,-0.0468181 0.0261903,-0.0894643 0.0434574,-0.128402 0.0309417,-0.0695319 0.0709225,-0.127475 0.119711,-0.17325 0.0483247,-0.0454275 0.103371,-0.0800775 0.164443,-0.103139 0.0593339,-0.0223661 0.124578,-0.0338388 0.195385,-0.0338388l0 -0.000463546c0.0719655,0 0.139759,0.0126316 0.203033,0.037779 0.0635058,0.0252632 0.12087,0.0626946 0.171396,0.112178 0.0508742,0.0495994 0.0895802,0.10395 0.115307,0.162357 0.0264221,0.0597974 0.0397491,0.123767 0.0397491,0.190981l-0.000463546 0c0,0.0380108 -0.00463546,0.074515 -0.0136746,0.10986l0 0.000927092c-0.00927092,0.0352295 -0.0232932,0.0695319 -0.041835,0.102328l0 0.000347659c-0.0179624,0.0312893 -0.0449639,0.0665188 -0.0805411,0.105109 -0.0333753,0.0362725 -0.0749785,0.0761374 -0.123883,0.119131l-0.000231773 -0.000231773c-0.0433415,0.0384743 -0.0819317,0.0735879 -0.114959,0.105573l-0.000463546 0.000463546c-0.0302464,0.0293193 -0.0531919,0.053076 -0.0679095,0.0708066l0 0.000463546c-0.0213231,0.0256109 -0.0395173,0.0507583 -0.0543507,0.0750944l0.000115886 0.000115886c-0.0147176,0.024452 -0.0266539,0.0482088 -0.0351136,0.0706907l-0.000347659 0.00127475c-0.0126316,0.0321005 -0.0221343,0.06733 -0.0282763,0.105225zm-0.212536 0.861616l0 -0.308142 0 -0.0753262 0.0753262 0 0.308142 0 0.0753262 0 0 0.0753262 0 0.308142 0 0.0753262 -0.0753262 0 -0.308142 0 -0.0753262 0 0 -0.0753262zm0.150652 -0.232816l0 0.15749 0.15749 0 0 -0.15749 -0.15749 0z"/>
    <path id="_92445752" class="fil2 str1" d="M6.60136 4.29278c-0.000927092,-0.0360407 -0.00150652,-0.0631581 -0.00150652,-0.0811205 0,-0.106384 0.0149494,-0.197702 0.0451957,-0.274767 0.0221343,-0.0585227 0.0575956,-0.117045 0.106847,-0.176147 0.0359248,-0.0431098 0.101169,-0.105804 0.194573,-0.188431 0.0939839,-0.082627 0.154593,-0.148335 0.182869,-0.197702 0.0281604,-0.0497153 0.0420668,-0.103255 0.0420668,-0.161777 0,-0.105804 -0.0410238,-0.198629 -0.123303,-0.278823 -0.0820476,-0.0800775 -0.182753,-0.120174 -0.301884,-0.120174 -0.115539,0 -0.211609,0.0365042 -0.288557,0.108933 -0.077528,0.0728926 -0.127939,0.186345 -0.152043,0.340938l-0.277316 -0.0338388c0.0251474,-0.20593 0.0990829,-0.364115 0.22285,-0.473512 0.123767,-0.109397 0.287051,-0.164327 0.490431,-0.164327 0.215201,0 0.386713,0.0585227 0.514999,0.176147 0.127939,0.117625 0.19214,0.259817 0.19214,0.426694 0,0.0965334 -0.0225979,0.185418 -0.0677936,0.266539 -0.0451957,0.0815841 -0.133501,0.180203 -0.265032,0.296785 -0.0883055,0.0781075 -0.145785,0.135587 -0.173018,0.172555 -0.0271174,0.0369678 -0.0472817,0.0794981 -0.0600292,0.127823 -0.0128634,0.0477452 -0.0205119,0.125853 -0.0225979,0.234207l-0.25889 0z"/>
    <polygon id="_92445704" class="fil2 str1" points="6.57656,4.94163 6.57656,4.63349 6.8847,4.63349 6.8847,4.94163 "/>
   </g>
   <g>
    <path id="_92445632" class="fil1" d="M3.78474 1.39203c-0.360523,0 -0.652325,0.291107 -0.652325,0.651282 0,0.359132 0.291802,0.650702 0.652325,0.650702 0.358784,0 0.649891,-0.29157 0.649891,-0.650702 0,-0.360175 -0.291107,-0.651282 -0.649891,-0.651282z"/>
    <path id="_92445584" class="fil1" d="M3.08374 5.8868l-0.101401 2.88546c-0.00869148,0.139875 0.096997,0.262483 0.236988,0.271638 0.00764851,0.000927092 0.0127475,0.000927092 0.0179624,0.000927092 0.133849,0 0.246606,-0.102675 0.256341,-0.237451l0.289253 -2.92057c-0.232932,0 -0.466095,0 -0.699027,0l-0.000115886 0zm0.98967 2.92057c0.010198,0.134776 0.122608,0.237451 0.256457,0.237451 0.00521489,0 0.010198,0 0.0179624,-0.000927092 0.140454,-0.00915503 0.246143,-0.131763 0.236988,-0.271638l-0.101517 -2.88546 -0.000115886 0 -0.697752 0 0.287978 2.92057zm0.40989 -2.92057l-0.0471658 -1.90262 0.801123 1.47709c0.0311735,0.0743991 0.116814,0.110208 0.191792,0.0784551 0.0743991,-0.0318688 0.109744,-0.117045 0.0784551,-0.192603 0,0 -0.621963,-1.68174 -0.77586,-1.99464 -0.153897,-0.314168 -0.305013,-0.504338 -0.888849,-0.504338l-0.119363 0c-0.582098,0 -0.734836,0.19017 -0.88769,0.504338 -0.153318,0.312893 -0.775976,1.99464 -0.775976,1.99464 -0.031637,0.075558 0.00301305,0.160735 0.0767168,0.192603 0.0750944,0.0317529 0.16085,-0.00405603 0.193183,-0.0784551l0.791273 -1.47709 -0.0370837 1.90262c1.48207,0 -0.473396,0 1.39944,0z"/>
   </g>
  </g>
 </g>
</svg>
