<?xml version="1.0" encoding="UTF-8"?>
<!DOCTYPE svg PUBLIC "-//W3C//DTD SVG 1.1//EN" "http://www.w3.org/Graphics/SVG/1.1/DTD/svg11.dtd">
<!-- Creator: CorelDRAW -->
<svg xmlns="http://www.w3.org/2000/svg" xml:space="preserve" width="9.006mm" height="9.006mm" style="shape-rendering:geometricPrecision; text-rendering:geometricPrecision; image-rendering:optimizeQuality; fill-rule:evenodd; clip-rule:evenodd"
viewBox="0 0 3.74702 3.74702"
 xmlns:xlink="http://www.w3.org/1999/xlink">
 <defs>
  <style type="text/css">
   <![CDATA[
    .fil0 {fill:#FFF500}
    .fil1 {fill:#141516;fill-rule:nonzero}
    .fil2 {fill:#FFF500;fill-rule:nonzero}
   ]]>
  </style>
 </defs>
 <g id="okviri">
  <metadata id="CorelCorpID_0Corel-Layer"/>
  <circle class="fil0" cx="1.8735" cy="1.8735" r="1.87349"/>
 </g>
 <g id="piktogrami">
  <metadata id="CorelCorpID_1Corel-Layer"/>
  <g id="_92445296">
   <path id="_92445488" class="fil1" d="M2.37665 0.709546c-0.336841,0 -0.609983,0.273018 -0.609983,0.609942 0,0.336674 0.273142,0.609942 0.609983,0.609942 0.336882,0 0.609942,-0.273267 0.609942,-0.609942 0,-0.336924 -0.273059,-0.609942 -0.609942,-0.609942z"/>
   <g>
    <path id="_92445440" class="fil1" d="M1.38394 0.499769c-0.129436,0 -0.234199,0.104514 -0.234199,0.233825 0,0.128936 0.104764,0.233617 0.234199,0.233617 0.128812,0 0.233326,-0.10468 0.233326,-0.233617 0,-0.129311 -0.104514,-0.233825 -0.233326,-0.233825z"/>
    <path id="_92445392" class="fil1" d="M1.13226 2.11349l-0.0364051 1.03594c-0.00312044,0.0502182 0.0348241,0.0942372 0.0850839,0.0975241 0.00274599,0.000332847 0.00457664,0.000332847 0.00644891,0.000332847 0.0480547,0 0.0885372,-0.0368628 0.0920321,-0.0852504l0.103848 -1.04855c-0.0836277,0 -0.167339,0 -0.250966,0l-4.16058e-005 0zm0.355314 1.04855c0.00366131,0.0483876 0.044019,0.0852504 0.0920737,0.0852504 0.00187226,0 0.00366131,0 0.00644891,-0.000332847 0.0504263,-0.00328686 0.0883708,-0.0473058 0.0850839,-0.0975241l-0.0364467 -1.03594 -4.16058e-005 0 -0.250509 0 0.103391 1.04855zm0.14716 -1.04855l-0.0169336 -0.683085 0.287621 0.530308c0.011192,0.0267109 0.0419387,0.0395672 0.0688577,0.0281672 0.0267109,-0.0114416 0.0394007,-0.0420219 0.0281672,-0.0691489 0,0 -0.223299,-0.603784 -0.278551,-0.71612 -0.0552526,-0.112793 -0.109507,-0.181069 -0.319117,-0.181069l-0.042854 0c-0.208986,0 -0.263823,0.0682752 -0.318701,0.181069 -0.0550445,0.112336 -0.278593,0.71612 -0.278593,0.71612 -0.0113584,0.027127 0.00108175,0.0577073 0.0275431,0.0691489 0.0269606,0.0114 0.0577489,-0.0014562 0.0693569,-0.0281672l0.284085 -0.530308 -0.0133139 0.683085c0.532097,0 -0.16996,0 0.502432,0z"/>
   </g>
   <polygon id="_92445320" class="fil2" points="2.75414,1.39833 2.43819,1.39841 2.43814,1.71433 2.28017,1.71433 2.28012,1.39837 1.96417,1.39833 1.96417,1.24035 2.28012,1.24035 2.28012,0.924482 2.43819,0.924482 2.4381,1.24035 2.7541,1.24035 "/>
  </g>
 </g>
</svg>
