<?xml version="1.0" encoding="UTF-8"?>
<!DOCTYPE svg PUBLIC "-//W3C//DTD SVG 1.1//EN" "http://www.w3.org/Graphics/SVG/1.1/DTD/svg11.dtd">
<!-- Creator: CorelDRAW -->
<svg xmlns="http://www.w3.org/2000/svg" xml:space="preserve" width="9.006mm" height="9.006mm" style="shape-rendering:geometricPrecision; text-rendering:geometricPrecision; image-rendering:optimizeQuality; fill-rule:evenodd; clip-rule:evenodd"
viewBox="0 0 0.526542 0.526542"
 xmlns:xlink="http://www.w3.org/1999/xlink">
 <defs>
  <style type="text/css">
   <![CDATA[
    .str0 {stroke:#141516;stroke-width:0.00445508}
    .fil0 {fill:#FFF500}
    .fil1 {fill:#141516;fill-rule:nonzero}
   ]]>
  </style>
 </defs>
 <g id="okviri">
  <metadata id="CorelCorpID_0Corel-Layer"/>
  <circle class="fil0" cx="0.263269" cy="0.26327" r="0.263268"/>
 </g>
 <g id="piktogrami">
  <metadata id="CorelCorpID_1Corel-Layer"/>
  <g id="_92446016">
   <path id="_92518672" class="fil1" d="M0.150438 0.368883c-0.0186447,0 -0.0338107,-0.0151952 -0.0338107,-0.0337931 0,-0.0186973 0.015166,-0.0339159 0.0338107,-0.0339159 0.0186973,0 0.0339159,0.0152186 0.0339159,0.0339159 0,0.0185979 -0.0152186,0.0337931 -0.0339159,0.0337931zm0 -0.0520695c-0.00996839,0 -0.0181711,0.00820858 -0.0181711,0.0182764 0,0.00999178 0.00820273,0.0182062 0.0181711,0.0182062 0.0100736,0 0.018253,-0.00821442 0.018253,-0.0182062 0,-0.0100678 -0.00817934,-0.0182764 -0.018253,-0.0182764z"/>
   <path id="_92518624" class="fil1" d="M0.378343 0.368883c-0.0186505,0 -0.0338341,-0.0151952 -0.0338341,-0.0337931 0,-0.0186973 0.0151835,-0.0339159 0.0338341,-0.0339159 0.0186739,0 0.0338399,0.0152186 0.0338399,0.0339159 0,0.0185979 -0.015166,0.0337931 -0.0338399,0.0337931zm0 -0.0520695c-0.0100444,0 -0.0182237,0.00820858 -0.0182237,0.0182764 0,0.00999178 0.00817934,0.0182062 0.0182237,0.0182062 0.0100736,0 0.0182471,-0.00821442 0.0182471,-0.0182062 0,-0.0100678 -0.0081735,-0.0182764 -0.0182471,-0.0182764z"/>
   <path id="_92446136" class="fil1" d="M0.444058 0.306758c0,-0.0367164 -0.0204864,-0.0411072 -0.0204864,-0.0411072 -0.0181127,-0.00507482 -0.0495262,-0.00811503 -0.0495262,-0.00811503 -0.00915572,-0.0091031 -0.0533557,-0.0623244 -0.0720823,-0.0621548l-0.112412 0c-0.0194632,-0.0025491 -0.055519,0.0428261 -0.0636925,0.0529523 -0.0196854,0.0141019 -0.0395988,0.0188435 -0.0499238,0.061652l0 0.0106349 0 0.0140084 0.0329045 0.000461879c0,-0.025719 0.0186798,-0.0465503 0.0415983,-0.0465503 0.023053,0 0.0416743,0.0208313 0.0416743,0.0465503l0.144586 0c0,-0.025719 0.0185979,-0.0465503 0.0416451,-0.0465503 0.0230004,0 0.0416509,0.0208313 0.0416509,0.0465503l0.0306068 0 0 -0.0283324 -0.0065423 0zm-0.145843 -0.0472695c-0.00225677,0.0101262 -0.0067177,0.0222988 -0.0121725,0.0307003 -0.00292913,0.00451355 -0.00563024,0.00875231 -0.00896278,0.0124415 -0.000830212,0.000917911 -0.00161365,0.00194106 -0.00239124,0.00282389 -0.00228601,0.00256079 -0.00833135,0.00868215 -0.0108278,0.0105823 -0.0016955,0.00128624 -0.00270696,2.92328e-005 -0.00365995,-0.000859445 -0.00192937,-0.00177736 -0.00355471,-0.00343778 -0.00538469,-0.00531453 -0.0101613,-0.0103777 -0.0197088,-0.0246491 -0.024538,-0.0393649 -0.00361318,-0.0110032 -0.00488773,-0.0209132 -0.00491696,-0.0324601 -1.16931e-005,-0.00242048 -0.000350794,-0.00324484 0.00115177,-0.00434984 0.0133068,-0.0097813 0.0328051,-0.0152595 0.0501518,-0.0107051 0.00772331,0.00202291 0.0157448,0.00568871 0.0221468,0.00996254 0.00262511,0.00174812 0.00274788,0.00226262 0.00202876,0.00810918 -0.00039172,0.00320392 -0.000485265,0.00631429 -0.000906217,0.00955913 -0.000409259,0.00312791 -0.00108161,0.00601027 -0.00171889,0.00887508z"/>
   <path id="_92446088" class="fil1 str0" d="M0.396865 0.166417c-0.00466556,-0.0145463 -0.0122486,-0.0278589 -0.0221409,-0.0393181 -0.0150315,-0.0174228 -0.0354185,-0.0305658 -0.0590211,-0.0372368l0.00173643 -0.0062149c0.0248362,0.00702172 0.0463048,0.0208781 0.0621548,0.0392421 0.0104361,0.0120965 0.0184459,0.0261458 0.0233863,0.0414931l-0.00611551 0.0020346zm-0.273298 -0.00159611c0.00488773,-0.0153998 0.0128683,-0.0295076 0.0232927,-0.0416451 0.0157389,-0.0183114 0.0370438,-0.0321619 0.0617163,-0.0392597l0.00177151 0.00620905c-0.0234389,0.00674109 -0.0436738,0.0198783 -0.0585884,0.0372543 -0.00987485,0.0114827 -0.0174228,0.0248187 -0.0220474,0.0393766l-0.00614474 -0.00193521zm0.0345006 0.0108863c0.0045954,-0.0104537 0.0106992,-0.0200888 0.0180425,-0.0286365 0.0119679,-0.0139382 0.0272391,-0.0249824 0.0445859,-0.0319105l0.00239709 0.00598103c-0.0163762,0.00653646 -0.030788,0.0169667 -0.0420953,0.0301215 -0.00677617,0.00789286 -0.0124473,0.0167738 -0.0167504,0.0263972l-0.00617982 -0.00195275zm0.146872 -0.0609621c0.017604,0.00684048 0.0331149,0.0178963 0.0452758,0.0319222 0.00752453,0.00867045 0.0137687,0.0184751 0.0184401,0.0291276l-0.00613889 0.00204045c-0.00438492,-0.00984561 -0.0101964,-0.0189253 -0.0171714,-0.0269585 -0.0114768,-0.0132308 -0.0261166,-0.0236727 -0.0427325,-0.0301156l0.00232693 -0.00601611zm-0.1221 0.0687848c0.00341439,-0.00712696 0.007735,-0.0137336 0.0128274,-0.0196561 0.00929019,-0.0108161 0.0211412,-0.0193814 0.0346058,-0.024766l0.0023737 0.00598688c-0.0124766,0.00497543 -0.0234564,0.0129268 -0.0320742,0.0229653 -0.00453693,0.0052736 -0.00841321,0.011126 -0.0115177,0.0174286l-0.0062149 -0.0019586zm0.112231 -0.0449425c0.0137804,0.00524437 0.025947,0.0138213 0.0354828,0.0247602 0.00539053,0.00618566 0.00995085,0.0131138 0.013488,0.0206267l-0.00615643 0.0020463c-0.00323315,-0.00670016 -0.00734913,-0.0128975 -0.0121842,-0.0184459 -0.00883416,-0.0101204 -0.0201239,-0.0180834 -0.032922,-0.0229595l0.00229185 -0.00602781zm-0.0322204 0.0376986c0.0104537,0 0.0189546,0.0154408 0.019206,0.0346818l-0.0384236 0c0.000263095,-0.019241 0.008764,-0.0346818 0.0192177,-0.0346818z"/>
   <polygon id="_92446040" class="fil1" points="0.355307,0.442895 0.369105,0.421432 0.104086,0.421374 0.104051,0.398917 0.367948,0.398917 0.355424,0.379424 0.436171,0.411095 "/>
  </g>
 </g>
</svg>
