<?xml version="1.0" encoding="UTF-8"?>
<!DOCTYPE svg PUBLIC "-//W3C//DTD SVG 1.1//EN" "http://www.w3.org/Graphics/SVG/1.1/DTD/svg11.dtd">
<!-- Creator: CorelDRAW -->
<svg xmlns="http://www.w3.org/2000/svg" xml:space="preserve" width="9.006mm" height="9.006mm" style="shape-rendering:geometricPrecision; text-rendering:geometricPrecision; image-rendering:optimizeQuality; fill-rule:evenodd; clip-rule:evenodd"
viewBox="0 0 11.1461 11.1461"
 xmlns:xlink="http://www.w3.org/1999/xlink">
 <defs>
  <style type="text/css">
   <![CDATA[
    .fil0 {fill:#FFF500}
    .fil1 {fill:#141516;fill-rule:nonzero}
   ]]>
  </style>
 </defs>
 <g id="okviri">
  <metadata id="CorelCorpID_0Corel-Layer"/>
  <circle class="fil0" cx="5.57303" cy="5.57304" r="5.57299"/>
 </g>
 <g id="piktogrami">
  <metadata id="CorelCorpID_1Corel-Layer"/>
  <g id="_92445848">
   <path id="_92445920" class="fil1" d="M5.50635 1.48652c-0.385027,0 -0.696663,0.310893 -0.696663,0.695549 0,0.383542 0.311636,0.69493 0.696663,0.69493 0.383171,0 0.694064,-0.311388 0.694064,-0.69493 0,-0.384656 -0.310893,-0.695549 -0.694064,-0.695549z"/>
   <path id="_92445872" class="fil1" d="M4.7577 6.2868l-0.108293 3.08158c-0.00928224,0.149382 0.10359,0.280324 0.253096,0.290101 0.00816837,0.000990106 0.013614,0.000990106 0.0191833,0.000990106 0.142946,0 0.263368,-0.109654 0.273764,-0.253591l0.308913 -3.11908c-0.248764,0 -0.497776,0 -0.74654,0l-0.000123763 0zm1.05694 3.11908c0.0108912,0.143937 0.130941,0.253591 0.273888,0.253591 0.00556934,0 0.0108912,0 0.0191833,-0.000990106 0.150001,-0.00977729 0.262873,-0.140719 0.253096,-0.290101l-0.108417 -3.08158 -0.000123763 0 -0.745178 0 0.307552 3.11908zm0.43775 -3.11908l-0.0503716 -2.03194 0.855575 1.57749c0.0332923,0.079456 0.124753,0.117699 0.204828,0.0837877 0.079456,-0.0340349 0.117204,-0.125001 0.0837877,-0.205694 0,0 -0.664237,-1.79605 -0.828595,-2.13021 -0.164358,-0.335522 -0.325745,-0.538617 -0.949264,-0.538617l-0.127476 0c-0.621663,0 -0.784782,0.203095 -0.948026,0.538617 -0.163739,0.334161 -0.828718,2.13021 -0.828718,2.13021 -0.0337874,0.0806936 0.00321784,0.17166 0.0819312,0.205694 0.0801985,0.0339111 0.171783,-0.00433171 0.206313,-0.0837877l0.845055 -1.57749 -0.0396042 2.03194c1.58281,0 -0.505573,0 1.49456,0z"/>
  </g>
 </g>
</svg>
