<?xml version="1.0" encoding="UTF-8"?>
<!DOCTYPE svg PUBLIC "-//W3C//DTD SVG 1.1//EN" "http://www.w3.org/Graphics/SVG/1.1/DTD/svg11.dtd">
<!-- Creator: CorelDRAW -->
<svg xmlns="http://www.w3.org/2000/svg" xml:space="preserve" width="9.006mm" height="9.006mm" style="shape-rendering:geometricPrecision; text-rendering:geometricPrecision; image-rendering:optimizeQuality; fill-rule:evenodd; clip-rule:evenodd"
viewBox="0 0 10.3288 10.3288"
 xmlns:xlink="http://www.w3.org/1999/xlink">
 <defs>
  <style type="text/css">
   <![CDATA[
    .fil0 {fill:#FFF500}
    .fil1 {fill:#141516;fill-rule:nonzero}
   ]]>
  </style>
 </defs>
 <g id="okviri">
  <metadata id="CorelCorpID_0Corel-Layer"/>
  <circle class="fil0" cx="5.16438" cy="5.16439" r="5.16434"/>
 </g>
 <g id="piktogrami">
  <metadata id="CorelCorpID_1Corel-Layer"/>
  <path class="fil1" d="M4.99616 4.61299c0,0.127419 -0.107692,0.230294 -0.241763,0.230294 -0.0932414,0 -0.171573,-0.0517243 -0.2116,-0.125698 -0.0916358,0.0748913 -0.203571,0.125698 -0.33099,0.125698 -0.128221,0 -0.239813,-0.0508068 -0.331105,-0.125698 -0.0400262,0.0739738 -0.118702,0.125698 -0.212058,0.125698 -0.133726,0 -0.241419,-0.102875 -0.241419,-0.230294 0,-0.127074 0.107692,-0.230408 0.241419,-0.230408 0.0104366,0 0.019497,0.00435815 0.0294748,0.00561972 -0.00367002,-0.0243139 -0.0146801,-0.0464487 -0.0146801,-0.0721388 0,-0.291308 0.236372,-0.527336 0.528368,-0.527336 0.291537,0 0.527565,0.236028 0.527565,0.527336 0,0.0256901 -0.0107807,0.0478249 -0.014336,0.0721388 0.0100926,-0.00126157 0.0190382,-0.00561972 0.0293602,-0.00561972 0.13407,0 0.241763,0.103334 0.241763,0.230408zm2.19112 2.4619c-0.0504628,0.0216761 -0.10861,-0.00298189 -0.1304,-0.0528712l-0.206897 -0.863946 -0.0284427 0.918193 -0.000688129 0 0.0822314 1.51824c0.00527565,0.0917505 -0.0629638,0.170656 -0.154141,0.177308 -0.00435815,0.000344064 -0.00802817,0.000344064 -0.0123863,0.000344064 -0.0862455,0 -0.159531,-0.0665191 -0.164577,-0.153797l-0.189235 -1.43314 -0.187171 1.43314c-0.00699598,0.0872777 -0.0795936,0.153797 -0.166183,0.153797 -0.00367002,0 -0.00779879,0 -0.0120423,-0.000344064 -0.0909477,-0.00665191 -0.159875,-0.0855573 -0.153797,-0.177308l0.0808551 -1.51824 -0.0276398 -0.918193c0,0 -0.551535,0.555779 -0.585942,0.570688 -0.0600966,0.0254608 -0.129368,-0.00263783 -0.155058,-0.0623903l-0.448087 -0.975078 0.339706 1.64669 -0.328008 0 -0.100926 1.34827c0,0.0644547 -0.0532153,0.117899 -0.117785,0.117899 -0.0665191,0 -0.118702,-0.0534447 -0.118702,-0.117899l-0.10104 -1.34827 -0.0594085 0 -0.0598672 0 -0.100696 1.34827c0,0.0644547 -0.0527565,0.117899 -0.119046,0.117899 -0.0644547,0 -0.117326,-0.0534447 -0.117326,-0.117899l-0.101614 -1.34827 -0.327664 0 0.339362 -1.64669 -0.447742 0.975078c-0.0254608,0.0597525 -0.0953058,0.0878511 -0.155402,0.0623903 -0.0591791,-0.0253461 -0.0873924,-0.0946177 -0.0612435,-0.155402 0,0 0.266076,-0.967624 0.389252,-1.21971 0.122602,-0.251855 0.245318,-0.404964 0.713819,-0.404964l0.048169 0 0.048169 0c0.467813,0 0.590759,0.153109 0.713475,0.404964 0.0902596,0.184189 0.255525,0.748913 0.338445,1.04022 0.119276,-0.162628 0.280871,-0.392004 0.342688,-0.519996 0.103563,-0.212746 0.264471,-0.340738 0.658769,-0.340738l0.0805111 0c0.394642,0 0.554402,0.127992 0.658769,0.340738 0.104022,0.2116 0.157811,1.07061 0.157811,1.07061 0.0216761,0.051495 -0.00240845,0.108954 -0.0528712,0.1304zm-0.803505 -2.52841c-0.245777,0 -0.444646,0.198525 -0.444646,0.443384 0,0.245318 0.198869,0.443958 0.444646,0.443958 0.244744,0 0.443728,-0.19864 0.443728,-0.443958 0,-0.244859 -0.198984,-0.443384 -0.443728,-0.443384z"/>
 </g>
</svg>
