<?xml version="1.0" encoding="UTF-8"?>
<!DOCTYPE svg PUBLIC "-//W3C//DTD SVG 1.1//EN" "http://www.w3.org/Graphics/SVG/1.1/DTD/svg11.dtd">
<!-- Creator: CorelDRAW -->
<svg xmlns="http://www.w3.org/2000/svg" xml:space="preserve" width="9.006mm" height="9.006mm" style="shape-rendering:geometricPrecision; text-rendering:geometricPrecision; image-rendering:optimizeQuality; fill-rule:evenodd; clip-rule:evenodd"
viewBox="0 0 11.1449 11.1449"
 xmlns:xlink="http://www.w3.org/1999/xlink">
 <defs>
  <style type="text/css">
   <![CDATA[
    .fil0 {fill:#FFF500}
    .fil1 {fill:#141516;fill-rule:nonzero}
   ]]>
  </style>
 </defs>
 <g id="okviri">
  <metadata id="CorelCorpID_0Corel-Layer"/>
  <circle class="fil0" cx="5.57242" cy="5.57242" r="5.57238"/>
 </g>
 <g id="piktogrami">
  <metadata id="CorelCorpID_1Corel-Layer"/>
  <path class="fil1" d="M5.64236 6.88159l0.144168 2.46175c0,0.0853872 0.0699185,0.156543 0.156048,0.156543 0.0866247,0 0.157162,-0.071156 0.157162,-0.156543l0.133402 -2.46175 0.434732 0 -0.449459 -2.76023 0.906342 1.80427c0.0332886,0.0794472 0.12474,0.117686 0.204806,0.0837785 0.0794472,-0.0340311 0.117191,-0.124987 0.0837785,-0.205672 0,0 -0.664164,-1.79585 -0.828503,-2.12998 -0.164339,-0.335485 -0.325709,-0.538558 -0.949159,-0.538558l-0.127462 0c-0.621594,0 -0.784696,0.203073 -0.947922,0.538558 -0.163721,0.334124 -0.828627,2.12998 -0.828627,2.12998 -0.0337836,0.0806847 0.00321749,0.171641 0.0819222,0.205672 0.0801897,0.0339074 0.171764,-0.00433124 0.206291,-0.0837785l0.906094 -1.80427 -0.450696 2.76023 0.43498 0 0.13464 2.46175c0,0.0853872 0.0710323,0.156543 0.155924,0.156543 0.0886047,0 0.158152,-0.071156 0.158152,-0.156543l0.13464 -2.46175 0.148747 0zm0.597958 -4.56958c0,0.368279 -0.299722,0.666639 -0.667753,0.666639 -0.369269,0 -0.668495,-0.29836 -0.668495,-0.666639 0,-0.368155 0.299227,-0.667134 0.668495,-0.667134 0.368031,0 0.667753,0.298979 0.667753,0.667134z"/>
 </g>
</svg>
