<?xml version="1.0" encoding="UTF-8"?>
<!DOCTYPE svg PUBLIC "-//W3C//DTD SVG 1.1//EN" "http://www.w3.org/Graphics/SVG/1.1/DTD/svg11.dtd">
<!-- Creator: CorelDRAW -->
<svg xmlns="http://www.w3.org/2000/svg" xml:space="preserve" width="9.006mm" height="9.006mm" style="shape-rendering:geometricPrecision; text-rendering:geometricPrecision; image-rendering:optimizeQuality; fill-rule:evenodd; clip-rule:evenodd"
viewBox="0 0 10.3288 10.3288"
 xmlns:xlink="http://www.w3.org/1999/xlink">
 <defs>
  <style type="text/css">
   <![CDATA[
    .fil0 {fill:#FFF500}
    .fil1 {fill:#141516;fill-rule:nonzero}
   ]]>
  </style>
 </defs>
 <g id="okviri">
  <metadata id="CorelCorpID_0Corel-Layer"/>
  <circle class="fil0" cx="5.16438" cy="5.16439" r="5.16434"/>
 </g>
 <g id="piktogrami">
  <metadata id="CorelCorpID_1Corel-Layer"/>
  <path class="fil1" d="M7.60336 7.27971l-0.501072 0c0,0 -0.303579,-0.865666 -0.388907,-1.09573 -0.0545915,-0.151962 -0.19669,-0.262636 -0.36769,-0.262636l-1.21707 0 0 -0.850757 1.15434 0c0.152994,0 0.276972,-0.123634 0.276972,-0.276972 0,-0.153453 -0.123978,-0.278348 -0.276972,-0.278348l-1.15434 0c0,0 -0.0667485,-1.0096 -0.63973,-1.0096 -0.392463,0 -0.526877,0.318489 -0.526877,0.710952l0 1.78237c0,0.392922 0.318948,0.711869 0.710952,0.711869 0.0116982,0 0.0216761,-0.00584909 0.0329155,-0.00584909 0.0112394,0.000458753 0.0212173,0.00584909 0.0330302,0.00584909l1.48464 0 0.493962 1.23462 0.885851 0c0.183157,0 0.332481,-0.149209 0.332481,-0.333284 0,-0.184074 -0.149324,-0.332481 -0.332481,-0.332481zm-3.09773 1.01453c-0.919799,0 -1.66779,-0.747996 -1.66779,-1.66722 0,-0.619889 0.343262,-1.15571 0.846284,-1.44324l0 -0.502907c-0.757859,0.320668 -1.29116,1.07222 -1.29116,1.94614 0,1.16431 0.947439,2.1121 2.11267,2.1121 0.773113,0 1.44392,-0.423658 1.81115,-1.04573l-0.227771 -0.571491c-0.212402,0.677119 -0.837223,1.17234 -1.58338,1.17234zm0.677119 -5.62855c0,0.383517 -0.31092,0.694666 -0.693863,0.694666 -0.383402,0 -0.693748,-0.311149 -0.693748,-0.694666 0,-0.383058 0.310346,-0.693404 0.693748,-0.693404 0.382944,0 0.693863,0.310346 0.693863,0.693404z"/>
 </g>
</svg>
