<?xml version="1.0" encoding="UTF-8"?>
<!DOCTYPE svg PUBLIC "-//W3C//DTD SVG 1.1//EN" "http://www.w3.org/Graphics/SVG/1.1/DTD/svg11.dtd">
<!-- Creator: CorelDRAW -->
<svg xmlns="http://www.w3.org/2000/svg" xml:space="preserve" width="9.006mm" height="9.006mm" style="shape-rendering:geometricPrecision; text-rendering:geometricPrecision; image-rendering:optimizeQuality; fill-rule:evenodd; clip-rule:evenodd"
viewBox="0 0 10.3291 10.3291"
 xmlns:xlink="http://www.w3.org/1999/xlink">
 <defs>
  <style type="text/css">
   <![CDATA[
    .fil0 {fill:#FFF500}
    .fil1 {fill:#141516;fill-rule:nonzero}
   ]]>
  </style>
 </defs>
 <g id="okviri">
  <metadata id="CorelCorpID_0Corel-Layer"/>
  <circle class="fil0" cx="5.16451" cy="5.16452" r="5.16448"/>
 </g>
 <g id="piktogrami">
  <metadata id="CorelCorpID_1Corel-Layer"/>
  <path class="fil1" d="M5.78421 7.06485l0.00825776 -0.38995 0.47505 0.443166c0.0386509,0.0365864 0.0883121,0.0544782 0.138088,0.0544782 0.0539048,0 0.108039,-0.0217913 0.147837,-0.0643417 0.0763842,-0.0818894 0.072026,-0.209541 -0.00963405,-0.286039 0,0 -0.544782,-0.591806 -0.622772,-0.66062 -0.145084,-0.128683 -0.357721,-0.201397 -0.702597,-0.201397l-0.108154 0c-0.344876,0 -0.557169,0.0727141 -0.702597,0.201397 -0.0779899,0.0688146 -0.622543,0.66062 -0.622543,0.66062 -0.0815453,0.0764989 -0.0862477,0.20415 -0.00986343,0.286039 0.0399125,0.0425504 0.0940467,0.0643417 0.148181,0.0643417 0.0494318,0 0.0990931,-0.0178918 0.137744,-0.0544782l0.475165 -0.443166 0.00825776 0.38995 1.23958 0zm-0.619217 -1.23855c0.31563,0 0.571391,-0.255302 0.571391,-0.572079 0,-0.3154 -0.255761,-0.570588 -0.571391,-0.570588 -0.315974,0 -0.572423,0.255188 -0.572423,0.570588 0,0.316777 0.256449,0.572079 0.572423,0.572079zm-0.626443 1.46736l0 0c0,0 -0.393161,0.394537 -0.393161,0.395111 -0.126619,0.126045 -0.094276,0.348546 0.0236264,0.469775l0.551664 0.572538c0.211261,0.211605 0.495007,-0.0817747 0.290054,-0.286842l-0.347973 -0.34889 0.338683 -0.338683 -0.462893 -0.463008zm1.22502 0c0,0 0.393734,0.394537 0.395111,0.395111 0.125587,0.126045 0.0931291,0.348546 -0.0258055,0.469775l-0.5496 0.572538c-0.212293,0.211605 -0.495809,-0.0817747 -0.28971,-0.286842l0.348317 -0.34889 -0.341206 -0.338683 0.462893 -0.463008z"/>
 </g>
</svg>
