<?xml version="1.0" encoding="UTF-8"?>
<!DOCTYPE svg PUBLIC "-//W3C//DTD SVG 1.1//EN" "http://www.w3.org/Graphics/SVG/1.1/DTD/svg11.dtd">
<!-- Creator: CorelDRAW -->
<svg xmlns="http://www.w3.org/2000/svg" xml:space="preserve" width="9.006mm" height="9.006mm" style="shape-rendering:geometricPrecision; text-rendering:geometricPrecision; image-rendering:optimizeQuality; fill-rule:evenodd; clip-rule:evenodd"
viewBox="0 0 0.526542 0.526542"
 xmlns:xlink="http://www.w3.org/1999/xlink">
 <defs>
  <style type="text/css">
   <![CDATA[
    .str0 {stroke:#141516;stroke-width:0.00445509}
    .fil1 {fill:none}
    .fil4 {fill:#141516}
    .fil0 {fill:#FFF500}
    .fil6 {fill:#141516;fill-rule:nonzero}
    .fil5 {fill:#1F1A17;fill-rule:nonzero}
    .fil2 {fill:black;fill-rule:nonzero}
    .fil3 {fill:#FFF500;fill-rule:nonzero}
   ]]>
  </style>
 </defs>
 <g id="okviri">
  <metadata id="CorelCorpID_0Corel-Layer"/>
  <circle class="fil0" cx="0.26327" cy="0.26327" r="0.263268"/>
 </g>
 <g id="piktogrami">
  <metadata id="CorelCorpID_1Corel-Layer"/>
  <g id="_92518984">
   <line id="_92519632" class="fil1" x1="0.0638855" y1="0.223754" x2="0.0821502" y2= "0.223754" />
   <path id="_92519584" class="fil2" d="M0.220954 0.324187c-0.014634,0 -0.0262979,0.0116931 -0.0262979,0.0262803 0,0.0144937 0.0116639,0.0262511 0.0262979,0.0262511 0.0144527,0 0.0261693,-0.0117575 0.0261693,-0.0262511 0,-0.0145872 -0.0117165,-0.0262803 -0.0261693,-0.0262803z"/>
   <path id="_92519536" class="fil3" d="M0.220883 0.363575c-0.00721467,0 -0.0131489,-0.0058758 -0.0131489,-0.0131314 0,-0.00723806 0.00593427,-0.0131489 0.0131489,-0.0131489 0.00727898,0 0.0131314,0.00591088 0.0131314,0.0131489 0,0.0072556 -0.00585242,0.0131314 -0.0131314,0.0131314z"/>
   <path id="_92519488" class="fil2" d="M0.389037 0.324187c-0.014517,0 -0.0262686,0.0116931 -0.0262686,0.0262803 0,0.0144937 0.0117516,0.0262511 0.0262686,0.0262511 0.014482,0 0.026257,-0.0117575 0.026257,-0.0262511 0,-0.0145872 -0.011775,-0.0262803 -0.026257,-0.0262803z"/>
   <path id="_92519440" class="fil3" d="M0.389037 0.363575c-0.00727898,0 -0.0131665,-0.0058758 -0.0131665,-0.0131314 0,-0.00723806 0.0058875,-0.0131489 0.0131665,-0.0131489 0.00722052,0 0.0131314,0.00591088 0.0131314,0.0131489 0,0.0072556 -0.00591088,0.0131314 -0.0131314,0.0131314z"/>
   <path id="_92519392" class="fil2" d="M0.220954 0.324187c-0.014634,0 -0.0262979,0.0116931 -0.0262979,0.0262803 0,0.0144937 0.0116639,0.0262511 0.0262979,0.0262511 0.0144527,0 0.0261693,-0.0117575 0.0261693,-0.0262511 0,-0.0145872 -0.0117165,-0.0262803 -0.0261693,-0.0262803zm-7.01589e-005 0.0393884c-0.00721467,0 -0.0131489,-0.0058758 -0.0131489,-0.0131314 0,-0.00723806 0.00593427,-0.0131489 0.0131489,-0.0131489 0.00727898,0 0.0131314,0.00591088 0.0131314,0.0131489 0,0.0072556 -0.00585242,0.0131314 -0.0131314,0.0131314z"/>
   <path id="_92519344" class="fil2" d="M0.389037 0.324187c-0.014517,0 -0.0262686,0.0116931 -0.0262686,0.0262803 0,0.0144937 0.0117516,0.0262511 0.0262686,0.0262511 0.014482,0 0.026257,-0.0117575 0.026257,-0.0262511 0,-0.0145872 -0.011775,-0.0262803 -0.026257,-0.0262803zm0 0.0393884c-0.00727898,0 -0.0131665,-0.0058758 -0.0131665,-0.0131314 0,-0.00723806 0.0058875,-0.0131489 0.0131665,-0.0131489 0.00722052,0 0.0131314,0.00591088 0.0131314,0.0131489 0,0.0072556 -0.00591088,0.0131314 -0.0131314,0.0131314z"/>
   <path id="_92519296" class="fil4" d="M0.0879558 0.316247l0.0563493 0 4.67726e-005 0.0367691c5.84657e-006,0.00186506 0.000824367,0.00280635 0.00185921,0.00399905 0.00130379,0.000871139 0.00197029,0.00160781 0.00387628,0.00161365 0.0131314,4.0926e-005 0.0262686,1.75397e-005 0.0394,1.75397e-005 -0.000719128,-0.00296421 -0.00111085,-0.0051099 -0.00117516,-0.00817935 0,-0.0179957 0.0146281,-0.032618 0.0326414,-0.032618 0.0178964,0 0.0325069,0.0146223 0.0325069,0.032618 0,0.00282389 -0.000491112,0.00554255 -0.00116347,0.00817935l0.105344 0c-0.000701589,-0.0026368 -0.00117516,-0.00535546 -0.00117516,-0.00817935 0,-0.0179957 0.0145638,-0.032618 0.0325712,-0.032618 0.0179431,0 0.0325771,0.0146223 0.0325771,0.032618 0,0.00282389 -0.000491112,0.00554255 -0.00117516,0.00817935l0.0451355 0 0 -0.0364066c0,-0.00925512 -0.0138505,-0.039213 -0.040277,-0.042335l-0.0235149 -0.0467316c-0.00413353,-0.00822613 -0.0150958,-0.0149906 -0.024351,-0.0149906l-0.0406629 0 0 -0.0230472c0,-0.00319223 -0.00260757,-0.00580565 -0.00580565,-0.00580565l-0.243007 0c-0.00319223,0 -0.00580565,0.00261342 -0.00580565,0.00580565l0 0.0241346 0.240218 0 0 0.00897449 -0.0140961 0 0 0.0514323 0.0140961 0 0 0.00897449 -0.240218 0 0 0.0217902c0,0.00319223 0.00261342,0.00580565 0.00580565,0.00580565zm-0.00580565 -0.0880026l0 0.0514323 0.0377162 0 0 -0.0514323 -0.0377162 0zm0.217148 0l-0.0209307 0 0 0.0514323 0.0209307 0 0 -0.0514323zm-0.0299052 0l-0.0209366 0 0 0.0514323 0.0209366 0 0 -0.0514323zm-0.0299052 0l-0.0209307 0 0 0.0514323 0.0209307 0 0 -0.0514323zm-0.0299052 0l-0.0209307 0 0 0.0514323 0.0209307 0 0 -0.0514323zm-0.0299052 0l-0.0209307 0 0 0.0514323 0.0209307 0 0 -0.0514323zm-0.0299052 0l-0.0209307 0 0 0.0514323 0.0209307 0 0 -0.0514323z"/>
   <path id="_92519248" class="fil1" d="M0.0821502 0.223754l0.240218 0m-0.240218 0.0604068l0.240218 0m-0.018902 2.33863e-005l0.000315715 -0.0037535 0 -0.0566533m-0.0302209 0.0604068l0.000315715 -0.0037535 0 -0.0566533m-0.0302209 0.0604068l0.000315715 -0.0037535 0 -0.0566533m-0.0302209 0.0604068l0.000315715 -0.0037535 0 -0.0566533m-0.0302209 0.0604068l0.000315715 -0.0037535 0 -0.0566533m-0.0302209 0.0604068l0.000321561 -0.0037535 0 -0.0566533m-0.0302209 0.0604068l0.000315715 -0.0037535 0 -0.0566533"/>
   <line id="_92519200" class="fil1" x1="0.0638855" y1="0.284161" x2="0.0821502" y2= "0.284161" />
   <polygon id="_92519152" class="fil5" points="0.0609622,0.279677 0.0792269,0.279677 0.0792269,0.288651 0.0609622,0.288651 "/>
   <path id="_92519104" class="fil6 str0" d="M0.406512 0.15615c-0.00452525,-0.0141136 -0.0118861,-0.0270404 -0.0214861,-0.0381606 -0.014593,-0.0169141 -0.0343837,-0.0296713 -0.0572906,-0.0361435l0.00168966 -0.00603366c0.0241054,0.00682295 0.0449367,0.0202701 0.0603249,0.0380904 0.0101321,0.0117399 0.0179022,0.0253741 0.0226964,0.0402712l-0.00593427 0.00197614zm-0.265265 -0.00154934c0.00474742,-0.0149438 0.0124941,-0.0286424 0.0226145,-0.0404173 0.0152712,-0.0177736 0.0359564,-0.0312207 0.059904,-0.0381021l0.00171305 0.00602197c-0.022749,0.00654231 -0.0423876,0.0192937 -0.0568638,0.0361552 -0.00958253,0.0111494 -0.0169141,0.0240937 -0.0213985,0.038219l-0.00596935 -0.00187675zm0.0334892 0.0105648c0.00446093,-0.0101438 0.0103894,-0.0194983 0.0175105,-0.0277946 0.011623,-0.0135231 0.0264382,-0.0242457 0.0432763,-0.0309693l0.00232694 0.00580565c-0.0158968,0.00634353 -0.0298818,0.0164639 -0.0408558,0.0292387 -0.00657739,0.00765901 -0.012079,0.0162769 -0.0162593,0.0256138l-0.00599858 -0.00189429zm0.142551 -0.0591673c0.0170895,0.00664171 0.0321444,0.0173702 0.0439487,0.0309868 0.00730237,0.00841322 0.0133594,0.0179256 0.0178964,0.0282682l-0.00595766 0.00197614c-0.00426215,-0.0095533 -0.00989825,-0.0183641 -0.0166686,-0.0261634 -0.0111377,-0.0128449 -0.0253507,-0.0229712 -0.0414756,-0.029227l0.00225678 -0.00584072zm-0.118504 0.066762c0.00330916,-0.00691649 0.007507,-0.0133243 0.0124474,-0.0190832 0.00901541,-0.0104887 0.0205156,-0.0188084 0.0335886,-0.0240294l0.00230355 0.00580565c-0.0121082,0.00483511 -0.0227665,0.0125467 -0.031133,0.022293 -0.00440247,0.00511575 -0.00816181,0.0107986 -0.0111728,0.0169141l-0.00603366 -0.00190014zm0.108933 -0.0436213c0.0133711,0.00508652 0.0251753,0.0134179 0.0344305,0.0240294 0.00523853,0.00600443 0.00965854,0.0127338 0.0130963,0.0200245l-0.00598104 0.00198199c-0.00313376,-0.00650139 -0.00712697,-0.0125175 -0.0118218,-0.0179022 -0.00857107,-0.00982224 -0.0195334,-0.0175514 -0.0319515,-0.0222813l0.00222754 -0.00585242zm-0.0312792 0.0365878c0.0101496,0 0.0183992,0.0149906 0.0186447,0.0336646l-0.0372953 0c0.000251403,-0.0186739 0.00850676,-0.0336646 0.0186506,-0.0336646z"/>
   <polygon id="_92519056" class="fil5" points="0.0609622,0.21927 0.0792269,0.21927 0.0792269,0.228244 0.0609622,0.228244 "/>
   <polygon id="_92519008" class="fil6" points="0.359821,0.45073 0.373619,0.429267 0.1086,0.429208 0.108565,0.406752 0.372462,0.406752 0.359938,0.387259 0.440685,0.41893 "/>
  </g>
 </g>
</svg>
