<?xml version="1.0" encoding="UTF-8"?>
<!DOCTYPE svg PUBLIC "-//W3C//DTD SVG 1.1//EN" "http://www.w3.org/Graphics/SVG/1.1/DTD/svg11.dtd">
<!-- Creator: CorelDRAW -->
<svg xmlns="http://www.w3.org/2000/svg" xml:space="preserve" width="9.006mm" height="9.006mm" style="shape-rendering:geometricPrecision; text-rendering:geometricPrecision; image-rendering:optimizeQuality; fill-rule:evenodd; clip-rule:evenodd"
viewBox="0 0 11.1455 11.1455"
 xmlns:xlink="http://www.w3.org/1999/xlink">
 <defs>
  <style type="text/css">
   <![CDATA[
    .fil1 {fill:#141516}
    .fil0 {fill:#FFF500}
   ]]>
  </style>
 </defs>
 <g id="okviri">
  <metadata id="CorelCorpID_0Corel-Layer"/>
  <circle class="fil0" cx="5.57272" cy="5.57273" r="5.57268"/>
 </g>
 <g id="piktogrami">
  <metadata id="CorelCorpID_1Corel-Layer"/>
  <path class="fil1" d="M4.74532 7.29049l0.337112 0.00309391 -0.0028464 0 0.160512 2.07428c0,0.07215 0.0835356,0.132543 0.18514,0.132543 0.104698,0 0.186625,-0.0603931 0.186625,-0.132543l0.159027 -2.07106 0.0216574 0 0.013737 0 0.009653 0 0.0242563 0 0.0253701 0 0.0263601 0c0.101356,0 0.176848,0.00210386 0.237241,0l0.626331 0 -0.626331 0c0.14628,-0.0048265 0.204446,-0.0334142 0.331543,-0.172021 0.497006,-0.541558 0.497872,-1.05688 0.394659,-1.72059l-0.0676947 0.0741301c-0.349859,0.404807 -0.974705,-0.0236375 -1.25043,-0.265086 -0.310752,-0.27214 -0.573858,-0.736474 -0.719272,-1.27952 -0.0814317,-0.304193 -0.0139845,-0.621133 0.33934,-0.609624 0.331296,0.010643 0.345899,0.297387 0.435251,0.576581 0.158779,0.496387 0.45332,0.933989 1.00144,1.01208 -0.0663334,-0.124994 -0.349364,-0.349612 -0.506659,-0.535494 -0.269789,-0.31892 -0.526707,-1.09166 -0.932381,-1.15725 -0.321767,-0.0519777 -0.57819,0.168556 -0.596258,0.459507 -0.0196773,0.321148 0.454062,0.77818 0.3209,1.72343 -0.0658384,0.466809 -0.335504,1.25885 -0.134276,1.88753zm0.953419 0.00631158l0.00903422 0 0.0199248 0 0.0206673 0 0.0216574 0 0.000866295 0m-0.750087 -3.88013c-0.303327,0.159027 -0.16967,0.454186 -0.068066,0.75182 0.0851444,0.249493 0.209396,0.505916 0.343795,0.685363 0.279813,0.373497 0.934113,0.878547 1.3133,0.705783 0.251349,-0.114475 0.251844,-0.514084 -0.0830405,-0.594278 -0.562349,-0.135018 -0.830529,-0.544157 -0.995991,-1.0601 -0.0733875,-0.228826 -0.148631,-0.678185 -0.51,-0.48859zm0.598238 -1.07953c0,0.38216 -0.309886,0.690561 -0.691551,0.690561 -0.38216,0 -0.691674,-0.308401 -0.691674,-0.690561 0,-0.382779 0.309515,-0.692046 0.691674,-0.692046 0.381665,0 0.691551,0.309267 0.691551,0.692046z"/>
 </g>
</svg>
