<?xml version="1.0" encoding="UTF-8"?>
<!DOCTYPE svg PUBLIC "-//W3C//DTD SVG 1.1//EN" "http://www.w3.org/Graphics/SVG/1.1/DTD/svg11.dtd">
<!-- Creator: CorelDRAW -->
<svg xmlns="http://www.w3.org/2000/svg" xml:space="preserve" width="9.006mm" height="9.006mm" style="shape-rendering:geometricPrecision; text-rendering:geometricPrecision; image-rendering:optimizeQuality; fill-rule:evenodd; clip-rule:evenodd"
viewBox="0 0 10.3288 10.3288"
 xmlns:xlink="http://www.w3.org/1999/xlink">
 <defs>
  <style type="text/css">
   <![CDATA[
    .fil0 {fill:#FFF500}
    .fil1 {fill:#141516;fill-rule:nonzero}
   ]]>
  </style>
 </defs>
 <g id="okviri">
  <metadata id="CorelCorpID_0Corel-Layer"/>
  <circle class="fil0" cx="5.16438" cy="5.16439" r="5.16434"/>
 </g>
 <g id="piktogrami">
  <metadata id="CorelCorpID_1Corel-Layer"/>
  <path class="fil1" d="M6.72738 2.18057c0,0.362529 -0.294175,0.657278 -0.656245,0.657278 -0.363103,0 -0.657622,-0.294748 -0.657622,-0.657278 0,-0.363447 0.294519,-0.656016 0.657622,-0.656016 0.36207,0 0.656245,0.292569 0.656245,0.656016zm-0.311264 3.69043l0 2.8047c0,0.0704185 -0.0575734,0.12868 -0.128451,0.12868 -0.071336,0 -0.129139,-0.0582616 -0.129139,-0.12868l0 -2.8047c0,-0.111592 -0.0902596,-0.20231 -0.202769,-0.20231 -0.110789,0 -0.201966,0.0907183 -0.201966,0.20231 0,0.0704185 -0.0582616,0.128221 -0.12868,0.128221 -0.0712213,0 -0.129024,-0.0578028 -0.129024,-0.128221 0,-0.189121 0.114,-0.349455 0.276054,-0.420676 -0.326517,-0.48536 -0.508183,-1.02027 -0.605668,-1.46663l-0.588694 1.66711c-0.000458753,0.000917505 -0.00229376,0.0019497 -0.0028672,0.00229376 0.021332,0.0720241 0.383976,1.35171 -0.0461046,2.8024 -0.0432374,0.145539 -0.17662,0.239239 -0.320783,0.239239 -0.0315392,0 -0.0636519,-0.00447284 -0.0956499,-0.0136479 -0.177193,-0.0524125 -0.278577,-0.239239 -0.226165,-0.416433 0.342688,-1.15411 0.100467,-2.21302 0.0529859,-2.39698 -0.363676,-0.708543 -0.434439,-1.36272 -0.209306,-1.94523 0.359203,-0.929891 1.34587,-1.2977 1.38761,-1.31329 0.17272,-0.0635372 0.366429,0.0267223 0.429048,0.200016 0.0222495,0.0611288 0.0155976,0.205292 0.0155976,0.217907 0,0.0121569 0.0120423,1.28221 0.688473,2.21646 0.0627344,0.0873924 0.0622757,0.200475 0.00825755,0.287294 0.0947324,0.0840664 0.157237,0.203457 0.157237,0.340165z"/>
 </g>
</svg>
