<?xml version="1.0" encoding="UTF-8"?>
<!DOCTYPE svg PUBLIC "-//W3C//DTD SVG 1.1//EN" "http://www.w3.org/Graphics/SVG/1.1/DTD/svg11.dtd">
<!-- Creator: CorelDRAW -->
<svg xmlns="http://www.w3.org/2000/svg" xml:space="preserve" width="9.006mm" height="9.006mm" style="shape-rendering:geometricPrecision; text-rendering:geometricPrecision; image-rendering:optimizeQuality; fill-rule:evenodd; clip-rule:evenodd"
viewBox="0 0 1.58838 1.58838"
 xmlns:xlink="http://www.w3.org/1999/xlink">
 <defs>
  <style type="text/css">
   <![CDATA[
    .str0 {stroke:#141516;stroke-width:0.0352738}
    .fil0 {fill:#FFF500}
    .fil1 {fill:#141516;fill-rule:nonzero}
   ]]>
  </style>
 </defs>
 <g id="okviri">
  <metadata id="CorelCorpID_0Corel-Layer"/>
  <circle class="fil0" cx="0.794186" cy="0.794187" r="0.79418"/>
 </g>
 <g id="piktogrami">
  <metadata id="CorelCorpID_1Corel-Layer"/>
  <g id="_92445104">
   <path id="_92445248" class="fil1 str0" d="M1.00904 0.30078c-0.138697,0 -0.251167,0.112418 -0.251167,0.251149 0,0.138626 0.112471,0.251149 0.251167,0.251149 0.138714,0 0.251149,-0.112523 0.251149,-0.251149 0,-0.138732 -0.112435,-0.251149 -0.251149,-0.251149zm0.0823467 0.405666l-0.0823114 -0.0822585 -0.0822585 0.0822585 -0.0124693 0.0124693 -0.0124693 -0.0124693 -0.0473551 -0.0473551 -0.0124164 -0.012434 0.0124164 -0.012434 0.0822761 -0.0823114 -0.0822761 -0.082329 -0.0123811 -0.0124164 0.0124517 -0.0124517 0.0473551 -0.0473374 0.0124517 -0.012434 0.0124164 0.012434 0.0822232 0.0822232 0.0822232 -0.0822056 0.0124869 -0.0124693 0.0124517 0.0124693 0.0473727 0.0473727 0.0124517 0.012434 -0.0125222 0.0125046 -0.0822056 0.0821703 0.0822938 0.0822761 0.012434 0.0124164 -0.012434 0.0124517 -0.0473374 0.0473551 -0.0124517 0.0124517 -0.0124164 -0.0123811z"/>
   <g>
    <path id="_92445200" class="fil1" d="M0.592494 0.211854c-0.0548684,0 -0.0992781,0.0443039 -0.0992781,0.0991194 0,0.0546567 0.0444097,0.0990312 0.0992781,0.0990312 0.0546038,0 0.0989077,-0.0443744 0.0989077,-0.0990312 0,-0.0548155 -0.0443039,-0.0991194 -0.0989077,-0.0991194z"/>
    <path id="_92445152" class="fil1" d="M0.485808 0.895919l-0.0154323 0.439141c-0.00132277,0.0212877 0.0147621,0.0399476 0.0360675,0.0413409 0.00116404,0.000141095 0.00194006,0.000141095 0.00273372,0.000141095 0.0203706,0 0.0375313,-0.0156263 0.0390128,-0.036138l0.0440217 -0.444485c-0.0354502,0 -0.0709356,0 -0.106386,0l-1.76369e-005 0zm0.150619 0.444485c0.00155205,0.0205117 0.0186598,0.036138 0.0390305,0.036138 0.00079366,0 0.00155205,0 0.00273372,-0.000141095 0.0213759,-0.00139331 0.0374608,-0.0200532 0.0360675,-0.0413409l-0.0154499 -0.439141 -1.76369e-005 0 -0.106192 0 0.0438277 0.444485zm0.0623817 -0.444485l-0.00717822 -0.289563 0.121924 0.2248c0.00474433,0.0113229 0.017778,0.0167727 0.0291891,0.0119402 0.0113229,-0.00485015 0.0167021,-0.0178133 0.0119402,-0.0293125 0,0 -0.0946572,-0.255947 -0.118079,-0.303566 -0.0234218,-0.0478136 -0.0464203,-0.0767558 -0.135275,-0.0767558l-0.018166 0c-0.0885901,0 -0.111836,0.0289422 -0.135099,0.0767558 -0.0233336,0.0476196 -0.118097,0.303566 -0.118097,0.303566 -0.00481487,0.0114993 0.000458559,0.0244624 0.0116756,0.0293125 0.0114287,0.00483251 0.02448,-0.000617291 0.0294007,-0.0119402l0.120425 -0.2248 -0.00564381 0.289563c0.225558,0 -0.0720467,0 0.212983,0z"/>
   </g>
  </g>
 </g>
</svg>
