<?xml version="1.0" encoding="UTF-8"?>
<!DOCTYPE svg PUBLIC "-//W3C//DTD SVG 1.1//EN" "http://www.w3.org/Graphics/SVG/1.1/DTD/svg11.dtd">
<!-- Creator: CorelDRAW -->
<svg xmlns="http://www.w3.org/2000/svg" xml:space="preserve" width="9.006mm" height="9.006mm" style="shape-rendering:geometricPrecision; text-rendering:geometricPrecision; image-rendering:optimizeQuality; fill-rule:evenodd; clip-rule:evenodd"
viewBox="0 0 11.1458 11.1458"
 xmlns:xlink="http://www.w3.org/1999/xlink">
 <defs>
  <style type="text/css">
   <![CDATA[
    .fil0 {fill:#FFF500}
    .fil1 {fill:#141516;fill-rule:nonzero}
   ]]>
  </style>
 </defs>
 <g id="okviri">
  <metadata id="CorelCorpID_0Corel-Layer"/>
  <circle class="fil0" cx="5.57288" cy="5.57288" r="5.57284"/>
 </g>
 <g id="piktogrami">
  <metadata id="CorelCorpID_1Corel-Layer"/>
  <path class="fil1" d="M5.15311 2.3122c0,0.368309 -0.299746,0.666694 -0.667808,0.666694 -0.369299,0 -0.66855,-0.298385 -0.66855,-0.666694 0,-0.368185 0.299251,-0.667189 0.66855,-0.667189 0.368062,0 0.667808,0.299004 0.667808,0.667189zm-0.598007 4.56995l0.14418 2.46195c0,0.0853943 0.0699243,0.156556 0.156061,0.156556 0.0866319,0 0.157175,-0.0711619 0.157175,-0.156556l0.133413 -2.46195 0.434768 0 -0.449496 -2.76046 0.906417 1.80442c0.0332914,0.0794538 0.12475,0.117696 0.204822,0.0837854 0.0794538,-0.0340339 0.117201,-0.124997 0.0837854,-0.205689 0,0 -0.664219,-1.796 -0.828572,-2.13015 -0.164353,-0.335513 -0.325736,-0.538603 -0.949238,-0.538603l-0.127473 0c-0.621645,0 -0.784761,0.20309 -0.948,0.538603 -0.163734,0.334151 -0.828696,2.13015 -0.828696,2.13015 -0.0337864,0.0806914 0.00321775,0.171655 0.081929,0.205689 0.0801963,0.0339102 0.171779,-0.00433159 0.206308,-0.0837854l0.906169 -1.80442 -0.450733 2.76046 0.435016 0 0.134651 2.46195c0,0.0853943 0.0710381,0.156556 0.155937,0.156556 0.088612,0 0.158165,-0.0711619 0.158165,-0.156556l0.134651 -2.46195 0.148759 0zm2.62507 -1.18228c-0.226728,0 -0.410511,0.182546 -0.410511,0.408902 0,0.226233 0.183783,0.408655 0.410511,0.408655 0.226357,0 0.41014,-0.182422 0.41014,-0.408655 0,-0.226357 -0.183783,-0.408902 -0.41014,-0.408902zm0 2.41121c0,0 0.184402,1.28042 0.184402,1.28153 0.0256183,0.0631175 0.0836616,0.108042 0.155937,0.108042 0.0733896,0 0.134527,-0.0492564 0.157175,-0.115963 0.00111384,-0.00358903 0.00532167,-0.0794538 0.00111384,-0.0920773l-0.075741 -1.57348 0.0242569 -0.540335c0.0210392,-0.183783 0.0254945,-0.128586 0.234154,-0.253708 0.213981,-0.127968 0.576102,-0.690827 0.594418,-0.718178 0.0174501,-0.0284648 0.0503702,-0.0774736 0.0564345,-0.108414 0.0107671,-0.057177 -0.0262371,-0.111136 -0.081929,-0.122646 -0.0431922,-0.00668303 -0.0789587,0.0158413 -0.106186,0.0455436 -0.0279697,0.0298261 -0.445907,0.586003 -0.758895,0.639343 -0.0701718,-0.00965326 -0.146037,-0.0474 -0.346156,-0.0474l-0.0782162 0c-0.199006,0 -0.274747,0.0377467 -0.345909,0.0474 -0.312989,-0.0533405 -0.730925,-0.609517 -0.759885,-0.639343 -0.0267321,-0.0297023 -0.0613849,-0.0522266 -0.105072,-0.0455436 -0.0556919,0.0115097 -0.0933149,0.0654689 -0.0818052,0.122646 0.00544543,0.0309399 0.0387368,0.0799488 0.0564345,0.108414 0.0186877,0.0273509 0.381428,0.59021 0.594295,0.718178 0.209278,0.125121 0.213609,0.0699243 0.234277,0.253708l0.0236381 0.540335 -0.075246 1.57348c-0.00433159,0.0126235 0,0.0884883 0.00309399,0.0920773 0.0217817,0.0667065 0.0818052,0.115963 0.15569,0.115963 0.0710381,0 0.131062,-0.0449248 0.154823,-0.108042 0,-0.00111384 0.184897,-1.28153 0.184897,-1.28153z"/>
 </g>
</svg>
